<svg id="svg" version="1.1" xmlns="http://www.w3.org/2000/svg" xmlns:xlink="http://www.w3.org/1999/xlink" width="400" height="399.09706546275396" viewBox="0, 0, 400,399.09706546275396"><g id="svgg"><path id="path0" d="M129.129 140.941 C 124.744 143.071,124.881 141.603,125.028 184.896 L 125.150 220.690 126.353 222.402 C 128.757 225.823,128.244 225.732,146.087 225.870 C 178.817 226.122,187.670 222.331,190.644 206.786 C 193.001 194.470,188.911 184.675,179.281 179.573 C 177.084 178.409,177.092 178.361,179.883 176.109 C 190.464 167.572,188.733 148.738,176.814 142.698 C 171.551 140.031,133.861 138.643,129.129 140.941 M215.753 142.437 C 201.506 148.413,205.276 168.475,220.688 168.696 C 225.132 168.760,224.073 167.806,230.844 177.844 C 233.806 182.236,237.166 187.194,238.310 188.864 L 240.390 191.899 239.113 194.429 C 237.704 197.220,236.937 199.622,236.542 202.486 C 236.204 204.929,237.163 204.504,227.745 206.389 C 225.768 206.785,221.833 207.577,218.999 208.150 C 214.570 209.045,213.757 209.114,213.211 208.636 C 208.056 204.131,200.138 208.502,201.612 215.039 C 202.846 220.508,210.443 222.359,213.579 217.955 C 214.472 216.702,214.420 216.716,225.749 214.576 C 229.920 213.788,233.983 212.970,234.777 212.759 C 237.458 212.046,237.751 212.188,239.298 214.955 C 242.051 219.877,247.602 224.118,252.690 225.185 C 272.916 229.428,286.345 205.474,272.387 190.050 C 269.865 187.263,269.845 187.562,272.835 183.296 C 275.523 179.459,275.583 179.409,277.933 179.069 C 287.202 177.728,288.183 164.858,279.215 162.251 C 273.330 160.540,268.223 165.131,268.820 171.596 C 268.954 173.057,269.075 174.573,269.087 174.965 C 269.111 175.735,263.566 183.904,262.823 184.193 C 262.575 184.290,261.677 184.208,260.827 184.010 C 257.173 183.163,251.590 184.013,247.731 186.005 L 246.160 186.816 244.807 184.925 C 244.063 183.885,240.818 179.121,237.596 174.340 C 234.373 169.558,231.579 165.414,231.386 165.132 C 231.158 164.798,231.382 164.067,232.023 163.048 C 239.012 151.939,227.591 137.472,215.753 142.437 M164.755 155.093 C 173.114 157.575,172.680 170.870,164.162 173.235 C 161.149 174.072,141.808 173.771,141.331 172.881 C 141.086 172.422,140.918 168.848,140.918 164.072 C 140.918 159.295,141.086 155.722,141.331 155.263 C 141.891 154.218,161.333 154.076,164.755 155.093 M166.786 188.591 C 176.984 190.779,178.848 205.072,169.603 210.193 L 167.465 211.377 154.527 211.498 C 144.233 211.594,141.522 211.512,141.260 211.099 C 140.769 210.324,140.834 189.725,141.331 188.796 C 141.862 187.805,162.350 187.640,166.786 188.591 M259.082 190.496 C 259.233 191.609,259.614 192.195,260.642 192.891 C 262.644 194.247,263.494 195.612,263.589 197.622 L 263.673 199.401 262.123 199.528 C 260.361 199.673,259.894 199.338,259.302 197.505 C 258.578 195.266,256.219 195.589,255.690 197.999 C 255.261 199.951,256.643 201.996,259.460 203.581 C 264.996 206.695,265.441 213.528,260.279 216.164 C 258.641 217.001,258.298 217.436,258.290 218.690 C 258.280 220.173,256.552 219.718,256.290 218.164 C 256.143 217.293,255.706 216.776,254.691 216.270 C 252.079 214.969,250.299 212.438,250.299 210.024 C 250.299 208.027,254.424 208.714,255.054 210.816 C 255.923 213.718,258.770 213.846,259.302 211.007 C 259.666 209.067,258.807 207.586,256.507 206.188 C 250.308 202.418,249.297 195.354,254.606 192.901 C 256.449 192.049,256.673 191.746,256.681 190.093 C 256.690 188.008,258.793 188.360,259.082 190.496 " stroke="none" fill="#253d46" fill-rule="evenodd"></path><path id="path1" d="M0.000 199.601 L 0.000 399.202 200.000 399.202 L 400.000 399.202 400.000 199.601 L 400.000 0.000 200.000 0.000 L 0.000 0.000 0.000 199.601 M170.951 140.877 C 187.465 144.199,192.894 165.611,179.883 176.109 C 177.092 178.361,177.084 178.409,179.281 179.573 C 188.911 184.675,193.001 194.470,190.644 206.786 C 187.670 222.331,178.817 226.122,146.087 225.870 C 128.244 225.732,128.757 225.823,126.353 222.402 L 125.150 220.690 125.028 184.896 C 124.881 141.603,124.744 143.071,129.129 140.941 C 131.560 139.761,165.144 139.709,170.951 140.877 M226.650 143.120 C 233.964 146.779,236.453 156.007,232.023 163.048 C 231.382 164.067,231.158 164.798,231.386 165.132 C 231.579 165.414,234.373 169.558,237.596 174.340 C 240.818 179.121,244.063 183.885,244.807 184.925 L 246.160 186.816 247.731 186.005 C 251.590 184.013,257.173 183.163,260.827 184.010 C 261.677 184.208,262.575 184.290,262.823 184.193 C 263.566 183.904,269.111 175.735,269.087 174.965 C 269.075 174.573,268.954 173.057,268.820 171.596 C 268.223 165.131,273.330 160.540,279.215 162.251 C 288.183 164.858,287.202 177.728,277.933 179.069 C 275.583 179.409,275.523 179.459,272.835 183.296 C 269.845 187.562,269.865 187.263,272.387 190.050 C 286.345 205.474,272.916 229.428,252.690 225.185 C 247.602 224.118,242.051 219.877,239.298 214.955 C 237.751 212.188,237.458 212.046,234.777 212.759 C 233.983 212.970,229.920 213.788,225.749 214.576 C 214.420 216.716,214.472 216.702,213.579 217.955 C 210.443 222.359,202.846 220.508,201.612 215.039 C 200.138 208.502,208.056 204.131,213.211 208.636 C 213.757 209.114,214.570 209.045,218.999 208.150 C 221.833 207.577,225.768 206.785,227.745 206.389 C 237.163 204.504,236.204 204.929,236.542 202.486 C 236.937 199.622,237.704 197.220,239.113 194.429 L 240.390 191.899 238.310 188.864 C 237.166 187.194,233.806 182.236,230.844 177.844 C 224.073 167.806,225.132 168.760,220.688 168.696 C 214.161 168.602,209.851 165.482,207.548 159.180 C 203.521 148.164,215.911 137.747,226.650 143.120 M141.331 155.263 C 141.086 155.722,140.918 159.295,140.918 164.072 C 140.918 168.848,141.086 172.422,141.331 172.881 C 141.808 173.771,161.149 174.072,164.162 173.235 C 172.680 170.870,173.114 157.575,164.755 155.093 C 161.333 154.076,141.891 154.218,141.331 155.263 M141.331 188.796 C 140.834 189.725,140.769 210.324,141.260 211.099 C 141.522 211.512,144.233 211.594,154.527 211.498 L 167.465 211.377 169.603 210.193 C 173.830 207.852,175.419 204.635,175.189 198.882 C 174.942 192.716,172.591 189.837,166.786 188.591 C 162.350 187.640,141.862 187.805,141.331 188.796 M256.681 190.093 C 256.673 191.746,256.449 192.049,254.606 192.901 C 249.297 195.354,250.308 202.418,256.507 206.188 C 258.807 207.586,259.666 209.067,259.302 211.007 C 258.770 213.846,255.923 213.718,255.054 210.816 C 254.424 208.714,250.299 208.027,250.299 210.024 C 250.299 212.438,252.079 214.969,254.691 216.270 C 255.706 216.776,256.143 217.293,256.290 218.164 C 256.552 219.718,258.280 220.173,258.290 218.690 C 258.298 217.436,258.641 217.001,260.279 216.164 C 265.441 213.528,264.996 206.695,259.460 203.581 C 256.643 201.996,255.261 199.951,255.690 197.999 C 256.219 195.589,258.578 195.266,259.302 197.505 C 259.894 199.338,260.361 199.673,262.123 199.528 L 263.673 199.401 263.589 197.622 C 263.494 195.612,262.644 194.247,260.642 192.891 C 259.614 192.195,259.233 191.609,259.082 190.496 C 258.793 188.360,256.690 188.008,256.681 190.093 " stroke="none" fill="#ffffff" fill-rule="evenodd"></path></g></svg>