<svg id="svg" version="1.1" xmlns="http://www.w3.org/2000/svg" xmlns:xlink="http://www.w3.org/1999/xlink" width="400" height="360.45197740112997" viewBox="0, 0, 400,360.45197740112997"><g id="svgg"><path id="path0" d="M137.601 142.720 C 137.006 142.802,136.008 143.104,135.383 143.391 C 134.758 143.678,133.961 143.913,133.612 143.913 C 131.299 143.913,125.518 150.562,125.518 153.222 C 125.518 154.589,124.186 156.177,123.038 156.177 C 122.494 156.177,121.734 156.415,121.349 156.706 C 120.964 156.998,120.381 157.241,120.054 157.247 C 119.145 157.265,115.959 159.806,114.589 161.605 C 109.439 168.373,111.815 179.058,119.235 182.496 C 120.211 182.948,121.441 183.541,121.967 183.814 C 122.494 184.087,123.246 184.310,123.639 184.310 C 124.506 184.310,125.518 185.755,125.518 186.992 C 125.518 192.611,136.454 199.379,141.874 197.115 C 142.586 196.817,143.507 196.573,143.919 196.573 C 146.319 196.573,152.570 190.542,152.570 188.226 C 152.570 186.829,153.976 184.310,154.756 184.310 C 155.178 184.310,155.955 184.092,156.482 183.824 C 157.008 183.557,158.251 182.951,159.243 182.477 C 160.994 181.641,164.833 178.123,164.833 177.354 C 164.833 177.145,165.054 176.717,165.323 176.404 C 166.578 174.945,167.092 169.625,166.285 166.456 C 165.551 163.580,161.668 158.341,160.269 158.341 C 160.002 158.341,159.784 158.182,159.784 157.987 C 159.784 157.792,159.337 157.527,158.792 157.396 C 158.246 157.266,157.583 156.988,157.318 156.778 C 157.053 156.569,156.184 156.307,155.387 156.197 C 153.929 155.995,152.571 153.867,152.570 151.784 C 152.570 151.451,152.326 150.935,152.029 150.638 C 151.731 150.340,151.488 149.911,151.488 149.683 C 151.488 148.991,147.533 145.077,146.595 144.842 C 146.112 144.720,145.717 144.462,145.717 144.267 C 145.717 144.073,145.387 143.913,144.984 143.913 C 144.581 143.913,143.726 143.694,143.084 143.426 C 141.697 142.846,139.109 142.513,137.601 142.720 M142.776 145.132 C 143.302 145.405,144.220 145.850,144.815 146.119 C 146.181 146.738,150.406 150.947,150.406 151.689 C 150.406 151.995,150.658 152.732,150.965 153.327 C 151.679 154.708,151.345 155.759,150.111 156.014 C 149.088 156.226,147.553 156.871,145.176 158.089 C 143.651 158.870,140.437 162.054,140.098 163.120 C 139.769 164.155,139.305 163.880,136.660 161.078 C 135.272 159.608,133.536 158.138,132.803 157.812 C 132.070 157.486,131.039 156.985,130.512 156.698 C 129.986 156.411,129.235 156.177,128.843 156.177 C 124.972 156.177,130.570 145.781,134.482 145.705 C 134.809 145.699,135.392 145.456,135.777 145.164 C 136.696 144.469,141.456 144.447,142.776 145.132 M124.957 159.142 C 125.266 159.583,125.518 160.255,125.518 160.636 C 125.518 162.471,129.835 168.440,131.162 168.440 C 132.467 168.440,132.923 170.295,131.810 171.081 C 128.786 173.219,125.518 177.677,125.518 179.664 C 125.518 184.141,118.680 181.666,115.187 175.925 C 113.265 172.767,113.287 167.325,115.233 164.122 C 117.972 159.612,123.355 156.856,124.957 159.142 M131.106 159.061 C 134.410 160.745,137.782 164.999,137.782 167.483 C 137.782 169.507,133.897 168.532,130.982 165.776 C 126.286 161.338,126.373 156.648,131.106 159.061 M151.203 159.243 C 151.095 159.987,150.733 160.921,149.777 162.927 C 149.103 164.340,146.360 166.939,144.597 167.836 C 138.228 171.075,140.802 162.579,147.260 159.047 C 148.904 158.148,151.344 158.269,151.203 159.243 M157.747 159.035 C 165.383 162.928,167.103 172.582,161.226 178.562 C 156.984 182.879,152.570 182.949,152.570 178.699 C 152.570 177.244,150.000 173.841,147.403 171.858 C 145.457 170.373,145.393 170.141,146.626 169.058 C 148.869 167.089,151.488 164.320,151.488 163.919 C 151.488 163.677,151.731 163.277,152.029 163.030 C 152.326 162.783,152.570 162.322,152.570 162.006 C 152.570 158.785,154.774 157.520,157.747 159.035 M209.919 161.125 C 208.923 161.485,208.115 162.413,208.115 163.197 C 208.115 163.624,207.877 164.289,207.586 164.674 C 207.295 165.059,207.050 165.618,207.043 165.915 C 207.035 166.213,206.786 166.921,206.490 167.489 C 206.194 168.058,205.951 168.682,205.951 168.878 C 205.951 169.073,205.720 169.744,205.436 170.369 C 203.947 173.657,203.427 174.931,203.427 175.291 C 203.427 175.510,203.175 176.177,202.867 176.772 C 202.207 178.048,202.479 179.261,203.425 179.261 C 204.268 179.261,205.591 177.617,205.591 176.570 C 205.591 174.897,206.970 174.210,210.303 174.222 C 213.818 174.236,214.149 174.412,215.443 176.964 C 216.408 178.870,217.080 179.397,218.063 179.019 C 218.456 178.869,218.558 178.563,218.390 178.039 C 218.257 177.620,218.063 176.830,217.960 176.285 C 217.856 175.739,217.636 175.293,217.469 175.293 C 217.302 175.293,217.054 174.684,216.917 173.940 C 216.781 173.197,216.449 172.268,216.180 171.876 C 215.910 171.485,215.690 170.890,215.690 170.553 C 215.690 170.217,215.446 169.441,215.149 168.830 C 214.851 168.219,214.364 167.219,214.067 166.607 C 213.769 165.996,213.526 165.271,213.526 164.995 C 213.526 164.627,212.517 162.330,211.930 161.361 C 211.797 161.142,210.345 160.971,209.919 161.125 M241.563 161.138 C 240.547 161.367,240.775 179.005,241.796 179.201 C 242.720 179.379,243.090 178.668,243.096 176.699 C 243.106 173.669,244.658 170.972,246.395 170.967 C 246.968 170.965,248.506 172.843,251.025 176.623 C 252.615 179.008,254.632 180.030,255.140 178.707 C 255.355 178.145,254.399 176.632,250.794 171.834 C 248.291 168.503,248.318 168.264,251.577 164.910 C 253.064 163.380,254.282 161.952,254.282 161.737 C 254.286 160.079,252.041 161.365,248.344 165.139 C 243.982 169.592,243.102 169.423,243.102 164.132 C 243.102 161.575,242.741 160.873,241.563 161.138 M268.992 161.606 C 262.964 164.789,265.587 169.552,274.482 171.573 C 276.975 172.140,277.908 175.100,276.092 176.679 C 273.858 178.622,270.305 177.889,268.278 175.067 C 266.667 172.823,265.553 172.980,265.770 175.421 C 266.043 178.484,272.579 180.870,275.869 179.109 C 276.395 178.827,277.103 178.510,277.443 178.404 C 281.361 177.186,280.344 170.474,276.121 169.682 C 275.413 169.549,274.754 169.311,274.656 169.152 C 274.558 168.993,273.789 168.749,272.947 168.609 C 269.028 167.958,267.566 165.704,269.722 163.638 C 271.458 161.976,273.824 162.230,275.800 164.292 C 277.403 165.966,279.170 166.523,279.170 165.355 C 279.170 164.194,277.560 161.970,276.560 161.750 C 276.016 161.630,275.479 161.382,275.366 161.199 C 274.972 160.560,270.421 160.851,268.992 161.606 M283.980 161.101 C 281.356 161.483,282.158 162.993,285.175 163.349 C 288.365 163.725,288.188 163.266,288.188 171.137 C 288.188 178.565,288.277 179.261,289.236 179.261 C 290.586 179.261,290.712 178.595,290.712 171.490 C 290.712 163.494,290.655 163.634,294.098 163.249 C 296.907 162.935,297.875 162.091,296.213 161.403 C 295.477 161.099,285.660 160.857,283.980 161.101 M185.626 161.759 C 185.497 162.094,185.392 166.010,185.392 170.462 L 185.392 178.557 186.317 178.909 C 188.936 179.904,197.543 178.989,199.083 177.551 C 200.575 176.157,200.393 172.493,198.746 170.794 C 197.683 169.696,197.560 169.406,197.936 168.880 C 199.821 166.239,199.499 163.157,197.205 161.883 C 195.804 161.105,185.917 160.999,185.626 161.759 M221.680 161.797 C 221.393 162.545,221.405 177.391,221.693 178.468 C 221.851 179.058,222.137 179.267,222.680 179.189 C 223.416 179.084,223.451 178.852,223.625 173.068 C 223.856 165.349,224.396 164.905,227.408 169.954 C 232.598 178.653,233.074 179.261,234.693 179.261 C 236.074 179.261,236.249 178.255,236.244 170.357 C 236.238 161.852,236.152 161.226,234.986 161.226 C 233.862 161.226,233.735 161.929,233.729 168.170 L 233.724 173.490 232.880 173.490 C 232.371 173.490,231.869 173.168,231.614 172.678 C 231.382 172.232,230.909 171.438,230.564 170.914 C 229.978 170.022,227.861 166.609,227.051 165.247 C 224.855 161.554,222.382 159.966,221.680 161.797 M259.144 161.659 C 258.480 163.389,259.173 179.083,259.918 179.189 C 260.984 179.342,261.158 178.676,261.364 173.670 C 261.656 166.564,261.150 161.434,260.143 161.291 C 259.695 161.228,259.246 161.393,259.144 161.659 M195.401 163.747 C 197.175 164.829,197.144 167.366,195.347 168.219 C 193.487 169.101,189.215 169.017,188.278 168.079 C 185.066 164.868,191.160 161.161,195.401 163.747 M211.381 165.825 C 211.581 166.371,211.845 167.060,211.968 167.358 C 212.622 168.932,213.457 171.514,213.348 171.624 C 212.970 172.001,210.548 172.279,209.336 172.084 C 207.740 171.826,207.257 170.520,208.215 169.048 C 208.497 168.614,208.840 167.655,208.977 166.917 C 209.198 165.726,209.920 164.876,210.739 164.844 C 210.893 164.838,211.182 165.280,211.381 165.825 M195.862 171.219 C 199.609 173.801,197.423 177.457,192.133 177.457 C 187.870 177.457,186.349 175.427,188.090 172.062 C 188.925 170.447,193.952 169.902,195.862 171.219 M137.709 172.140 C 137.977 172.463,137.890 173.008,137.405 174.033 C 137.031 174.825,136.719 175.602,136.712 175.759 C 136.677 176.564,132.067 181.064,131.276 181.064 C 130.963 181.064,130.391 181.302,130.006 181.594 C 128.413 182.798,127.169 181.677,127.596 179.423 C 128.360 175.394,135.902 169.963,137.709 172.140 M144.566 172.414 C 146.372 173.355,148.929 175.548,149.352 176.518 C 149.534 176.935,149.818 177.520,149.983 177.818 C 151.110 179.844,151.352 180.625,151.082 181.355 C 150.738 182.285,149.450 182.410,148.401 181.617 C 148.016 181.325,147.454 181.082,147.153 181.075 C 146.294 181.057,142.998 177.987,142.015 176.289 C 139.735 172.351,140.939 170.523,144.566 172.414 M142.143 179.709 C 143.550 181.374,147.212 183.454,150.504 184.459 C 151.461 184.751,151.647 185.655,151.016 186.945 C 150.706 187.579,150.354 188.341,150.234 188.638 C 149.510 190.439,146.468 193.688,145.505 193.688 C 145.273 193.688,144.882 193.931,144.635 194.229 C 144.388 194.527,143.832 194.770,143.400 194.770 C 142.968 194.770,142.412 194.973,142.164 195.221 C 141.610 195.775,136.973 195.798,136.280 195.251 C 136.015 195.041,135.346 194.761,134.793 194.629 C 132.913 194.180,128.765 190.645,128.765 189.493 C 128.765 189.352,128.536 188.980,128.256 188.667 C 127.357 187.661,127.116 184.718,127.913 184.472 C 131.061 183.499,134.291 181.654,135.926 179.894 C 136.848 178.902,137.989 177.675,138.464 177.166 L 139.326 176.241 140.011 177.120 C 140.388 177.603,141.347 178.768,142.143 179.709 " stroke="none" fill="#4f4f4f" fill-rule="evenodd"></path><path id="path1" d="M0.000 180.343 L 0.000 360.685 200.000 360.685 L 400.000 360.685 400.000 180.343 L 400.000 0.000 200.000 0.000 L 0.000 0.000 0.000 180.343 M143.824 142.741 C 143.906 142.989,144.275 143.192,144.644 143.192 C 146.094 143.192,151.849 147.729,151.849 148.872 C 151.849 149.072,152.092 149.437,152.390 149.684 C 152.687 149.931,152.931 150.531,152.931 151.017 C 152.931 151.503,153.174 152.144,153.472 152.441 C 153.769 152.739,154.013 153.356,154.013 153.814 C 154.013 154.889,154.583 155.337,156.505 155.769 C 157.364 155.962,158.242 156.295,158.457 156.509 C 158.671 156.723,159.102 156.898,159.415 156.898 C 159.728 156.898,160.517 157.385,161.168 157.980 C 161.820 158.575,162.505 159.062,162.691 159.062 C 162.877 159.062,163.030 159.222,163.030 159.416 C 163.030 159.611,163.598 160.355,164.292 161.070 C 164.986 161.785,165.555 162.600,165.555 162.880 C 165.555 163.161,165.681 163.390,165.835 163.390 C 167.183 163.390,168.218 172.773,167.005 173.987 C 166.802 174.190,166.637 174.717,166.637 175.159 C 166.637 175.601,166.415 176.185,166.143 176.456 C 165.872 176.728,165.545 177.281,165.416 177.686 C 165.102 178.676,161.390 182.507,160.745 182.507 C 160.463 182.507,160.031 182.750,159.784 183.048 C 159.537 183.345,159.050 183.589,158.702 183.589 C 158.353 183.589,157.866 183.832,157.619 184.130 C 157.373 184.427,156.717 184.671,156.162 184.671 C 154.558 184.671,154.013 185.029,154.013 186.083 C 154.013 186.619,153.774 187.373,153.483 187.758 C 153.192 188.143,152.948 188.828,152.942 189.281 C 152.936 189.734,152.687 190.197,152.390 190.311 C 152.092 190.426,151.849 190.794,151.849 191.131 C 151.849 191.957,148.336 195.496,147.083 195.933 C 146.530 196.126,146.078 196.417,146.078 196.580 C 146.078 196.743,145.550 196.983,144.905 197.113 C 144.261 197.243,143.181 197.599,142.506 197.906 C 141.126 198.532,136.019 198.429,135.187 197.758 C 134.928 197.549,134.200 197.268,133.569 197.133 C 132.938 196.998,132.228 196.655,131.992 196.370 C 131.755 196.085,131.415 195.852,131.236 195.852 C 130.913 195.852,128.665 193.952,127.899 193.031 C 127.681 192.769,127.218 192.241,126.871 191.859 C 126.524 191.476,126.240 190.940,126.240 190.666 C 126.240 190.393,125.996 189.967,125.699 189.720 C 125.401 189.474,125.158 188.987,125.158 188.640 C 125.158 186.822,123.707 184.671,122.480 184.671 C 121.819 184.671,121.077 184.427,120.830 184.130 C 120.583 183.832,120.087 183.589,119.729 183.589 C 119.371 183.589,118.834 183.345,118.537 183.048 C 118.239 182.750,117.827 182.507,117.622 182.507 C 116.549 182.507,113.790 179.285,112.137 176.102 C 110.642 173.224,110.685 166.453,112.216 163.751 C 113.841 160.882,116.210 158.221,117.493 157.823 C 117.940 157.684,118.305 157.419,118.305 157.234 C 118.305 157.049,118.554 156.898,118.858 156.898 C 119.163 156.898,119.772 156.673,120.211 156.398 C 120.650 156.122,121.614 155.791,122.352 155.662 C 123.714 155.423,125.158 153.275,125.158 151.486 C 125.158 151.139,125.401 150.653,125.699 150.406 C 125.996 150.159,126.240 149.808,126.240 149.626 C 126.240 148.653,129.801 144.822,131.092 144.406 C 131.480 144.281,132.019 143.957,132.290 143.686 C 132.562 143.414,133.137 143.187,133.569 143.181 C 134.002 143.174,134.680 142.920,135.077 142.616 C 136.006 141.903,143.581 142.012,143.824 142.741 M136.905 145.676 C 136.797 145.852,136.119 146.106,135.400 146.241 C 133.890 146.524,133.624 146.707,131.145 149.161 C 127.719 152.552,126.999 155.231,129.396 155.671 C 130.140 155.807,131.069 156.139,131.460 156.408 C 131.851 156.678,132.465 156.898,132.824 156.898 C 133.183 156.898,133.570 157.142,133.684 157.439 C 133.798 157.737,134.116 157.980,134.390 157.980 C 134.858 157.980,136.834 159.910,138.451 161.948 L 139.166 162.849 140.633 161.226 C 141.440 160.334,142.102 159.482,142.105 159.333 C 142.108 159.184,142.353 159.062,142.651 159.062 C 142.949 159.062,143.192 158.819,143.192 158.521 C 143.192 158.224,143.416 157.980,143.689 157.980 C 143.962 157.980,144.388 157.737,144.635 157.439 C 144.882 157.142,145.369 156.898,145.717 156.898 C 146.065 156.898,146.552 156.655,146.799 156.357 C 147.046 156.060,147.674 155.814,148.196 155.811 C 151.937 155.789,150.115 150.361,145.356 147.354 C 142.779 145.726,137.520 144.681,136.905 145.676 M122.113 159.254 C 121.728 159.545,121.201 159.784,120.941 159.784 C 120.681 159.784,120.169 160.068,119.802 160.415 C 119.435 160.762,118.826 161.303,118.449 161.617 C 113.629 165.630,113.107 173.231,117.353 177.565 C 119.280 179.531,120.933 180.703,121.780 180.703 C 122.226 180.703,122.691 180.866,122.813 181.064 C 123.363 181.953,125.158 179.878,125.158 178.355 C 125.158 177.752,126.670 174.932,126.993 174.932 C 127.174 174.932,127.322 174.746,127.322 174.518 C 127.322 174.051,129.649 171.686,130.109 171.686 C 130.273 171.686,130.693 171.353,131.041 170.946 C 131.660 170.224,131.610 170.143,128.957 167.516 C 127.463 166.036,126.240 164.603,126.240 164.332 C 126.240 164.061,125.996 163.637,125.699 163.390 C 125.401 163.143,125.158 162.679,125.158 162.358 C 125.158 159.933,123.479 158.221,122.113 159.254 M128.043 159.964 C 128.043 160.658,128.203 161.226,128.399 161.226 C 128.595 161.226,128.992 161.794,129.282 162.489 C 129.897 163.960,132.972 166.997,133.847 166.997 C 134.177 166.997,134.649 167.241,134.896 167.538 C 135.570 168.350,137.060 168.241,137.060 167.379 C 137.060 166.994,136.898 166.579,136.700 166.456 C 136.501 166.334,136.339 165.855,136.339 165.392 C 136.339 164.929,136.096 164.456,135.798 164.342 C 135.500 164.228,135.257 163.953,135.257 163.732 C 135.257 163.510,134.663 162.815,133.937 162.187 C 133.211 161.560,132.364 160.762,132.054 160.415 C 131.743 160.068,131.140 159.784,130.712 159.784 C 130.285 159.784,129.733 159.540,129.486 159.243 C 128.688 158.281,128.043 158.603,128.043 159.964 M147.520 159.826 C 146.429 160.402,145.356 161.115,145.136 161.410 C 144.916 161.706,144.551 161.948,144.325 161.948 C 144.098 161.948,143.913 162.196,143.913 162.500 C 143.913 162.804,143.685 163.140,143.405 163.248 C 143.125 163.355,142.798 163.837,142.677 164.318 C 142.556 164.800,142.298 165.194,142.103 165.194 C 141.909 165.194,141.749 165.843,141.749 166.637 C 141.749 167.839,141.870 168.079,142.471 168.079 C 142.867 168.079,143.192 167.920,143.192 167.726 C 143.192 167.531,143.621 167.264,144.146 167.132 C 144.671 167.001,145.380 166.632,145.722 166.314 C 146.064 165.995,146.834 165.292,147.433 164.750 C 148.816 163.500,150.045 161.157,150.045 159.772 C 150.045 158.496,150.041 158.496,147.520 159.826 M154.013 159.758 C 154.013 160.339,153.769 161.058,153.472 161.355 C 153.174 161.653,152.931 162.319,152.931 162.835 C 152.931 163.351,152.687 163.867,152.390 163.981 C 152.092 164.096,151.849 164.377,151.849 164.607 C 151.849 165.197,148.638 168.801,148.114 168.801 C 146.894 168.801,146.427 170.204,147.427 170.866 C 148.838 171.801,151.849 174.939,151.849 175.476 C 151.849 175.730,152.092 176.031,152.390 176.145 C 152.687 176.259,152.936 176.804,152.942 177.356 C 152.948 177.907,153.192 178.674,153.483 179.059 C 153.774 179.444,154.013 180.134,154.013 180.592 C 154.013 181.050,154.216 181.422,154.463 181.419 C 155.997 181.401,161.226 178.441,161.226 177.592 C 161.226 177.362,161.470 177.080,161.767 176.966 C 162.065 176.852,162.308 176.521,162.308 176.232 C 162.308 175.942,162.586 175.428,162.925 175.089 C 164.479 173.534,163.520 164.461,161.677 163.282 C 161.429 163.124,161.226 162.759,161.226 162.471 C 161.226 162.183,160.983 161.948,160.685 161.948 C 160.388 161.948,160.144 161.801,160.144 161.623 C 160.144 161.224,157.761 159.784,157.102 159.784 C 156.840 159.784,156.424 159.540,156.177 159.243 C 155.344 158.239,154.013 158.556,154.013 159.758 M197.402 161.122 C 200.447 162.656,201.121 167.089,198.580 168.869 C 198.374 169.013,198.627 169.491,199.178 170.001 C 201.863 172.490,201.023 178.313,197.863 179.106 C 197.348 179.235,196.838 179.485,196.729 179.661 C 196.620 179.838,194.021 179.982,190.953 179.982 L 185.374 179.982 185.005 179.009 C 184.393 177.401,184.724 161.489,185.385 160.693 C 186.163 159.757,195.342 160.084,197.402 161.122 M212.006 160.449 C 212.582 160.816,213.886 163.208,213.886 163.901 C 213.886 164.183,214.114 164.874,214.393 165.435 C 215.516 167.698,216.411 169.803,216.411 170.181 C 216.411 170.400,216.641 171.113,216.922 171.764 C 217.203 172.416,217.690 173.541,218.004 174.266 C 218.318 174.990,218.575 175.923,218.575 176.339 C 218.575 176.756,218.727 177.096,218.912 177.096 C 219.399 177.096,219.744 178.419,219.477 179.261 C 219.065 180.559,216.102 180.285,215.579 178.900 C 215.355 178.305,215.057 177.818,214.918 177.818 C 214.779 177.818,214.559 177.334,214.429 176.742 C 213.820 173.970,206.716 174.371,206.116 177.212 C 205.651 179.409,202.503 181.133,201.886 179.527 C 201.605 178.794,202.215 175.517,202.659 175.368 C 202.883 175.294,203.066 174.779,203.066 174.225 C 203.066 173.671,203.309 173.015,203.607 172.768 C 203.904 172.521,204.148 171.964,204.148 171.531 C 204.148 171.097,204.386 170.427,204.677 170.042 C 204.969 169.657,205.212 169.008,205.218 168.599 C 205.225 168.191,205.468 167.541,205.759 167.156 C 206.051 166.771,206.295 166.213,206.303 165.915 C 206.310 165.618,206.559 164.909,206.855 164.341 C 207.152 163.773,207.394 163.071,207.394 162.780 C 207.394 161.177,210.599 159.557,212.006 160.449 M225.284 161.371 C 225.959 162.045,226.510 162.857,226.510 163.174 C 226.510 163.491,226.647 163.751,226.813 163.751 C 226.980 163.751,227.306 164.116,227.538 164.563 C 227.771 165.009,228.281 165.861,228.673 166.456 C 229.065 167.051,229.552 167.863,229.757 168.260 C 229.961 168.656,230.452 169.468,230.848 170.063 C 231.244 170.658,231.667 171.429,231.787 171.776 C 232.316 173.308,232.583 172.068,232.716 167.448 C 232.872 162.076,233.270 160.633,234.692 160.276 C 236.563 159.806,236.629 160.173,236.525 170.383 L 236.429 179.802 234.850 179.915 C 233.114 180.039,231.199 178.715,231.199 177.390 C 231.199 177.030,231.033 176.736,230.830 176.736 C 230.626 176.736,230.293 176.371,230.090 175.924 C 229.316 174.230,228.624 173.129,228.333 173.129 C 228.167 173.129,227.929 172.723,227.805 172.227 C 227.681 171.731,227.419 171.326,227.225 171.326 C 227.030 171.326,226.871 171.001,226.871 170.604 C 226.871 170.207,226.705 169.883,226.501 169.883 C 226.298 169.883,225.968 169.451,225.767 168.922 C 225.109 167.194,224.781 168.519,224.635 173.490 C 224.469 179.166,224.155 180.080,222.429 179.913 L 221.280 179.802 221.184 170.468 C 221.116 163.885,221.209 160.989,221.499 160.640 C 222.259 159.724,223.967 160.054,225.284 161.371 M243.463 160.866 C 244.054 161.457,244.184 162.068,244.184 164.263 C 244.184 168.438,244.166 168.438,248.308 164.240 C 252.200 160.296,253.851 159.398,255.182 160.502 C 256.090 161.256,255.982 161.428,252.105 165.427 C 249.495 168.119,249.365 169.517,251.541 171.510 C 252.182 172.097,253.562 174.152,253.562 174.518 C 253.562 174.704,253.805 174.949,254.103 175.063 C 254.400 175.177,254.644 175.519,254.644 175.823 C 254.644 176.127,254.781 176.375,254.950 176.375 C 255.413 176.375,256.563 179.142,256.286 179.590 C 256.153 179.806,255.258 179.982,254.297 179.982 C 252.386 179.982,252.501 180.096,248.151 173.870 C 245.995 170.783,244.184 171.773,244.184 176.038 C 244.184 179.341,243.836 179.982,242.046 179.982 C 240.178 179.982,240.216 180.191,240.216 170.059 C 240.216 162.557,240.299 161.195,240.783 160.711 C 241.555 159.939,242.596 159.999,243.463 160.866 M261.534 160.824 C 262.586 161.675,262.886 177.142,261.887 179.020 C 261.062 180.570,258.727 180.428,258.426 178.810 C 257.941 176.204,258.399 160.859,258.972 160.497 C 259.801 159.974,260.612 160.077,261.534 160.824 M276.449 160.811 C 278.198 161.748,279.517 163.084,279.530 163.931 C 279.537 164.328,279.693 164.891,279.877 165.182 C 280.386 165.988,279.622 166.637,278.163 166.637 C 276.902 166.637,275.566 165.820,275.561 165.048 C 275.554 163.717,272.151 163.022,270.479 164.009 C 268.354 165.265,270.427 168.076,273.482 168.082 C 274.131 168.083,275.127 168.326,275.695 168.623 C 276.263 168.919,276.878 169.161,277.062 169.161 C 277.627 169.161,279.531 170.714,279.531 171.174 C 279.531 171.413,279.775 171.702,280.072 171.817 C 281.695 172.439,279.802 178.900,277.996 178.900 C 277.781 178.900,277.290 179.184,276.907 179.531 C 274.631 181.590,266.908 179.814,265.506 176.909 C 265.221 176.318,264.871 175.591,264.729 175.293 C 264.267 174.327,265.363 172.768,266.503 172.768 C 267.498 172.768,269.419 174.523,269.441 175.453 C 269.452 175.910,271.919 177.096,272.858 177.096 C 277.267 177.096,277.720 173.175,273.437 172.081 C 272.523 171.848,271.180 171.503,270.452 171.315 C 268.942 170.926,266.546 169.599,266.546 169.152 C 266.546 168.987,266.282 168.588,265.959 168.265 C 264.345 166.650,265.752 161.916,268.022 161.322 C 268.401 161.223,268.711 161.011,268.711 160.850 C 268.711 159.943,274.773 159.912,276.449 160.811 M297.213 160.866 C 298.450 162.826,297.387 164.038,294.305 164.183 L 291.975 164.292 291.794 171.542 C 291.592 179.698,291.475 180.093,289.315 179.910 C 287.612 179.766,287.546 179.449,287.502 171.277 C 287.461 163.657,287.675 164.127,284.248 164.117 C 281.589 164.109,280.429 162.277,282.142 160.791 C 283.220 159.856,296.617 159.922,297.213 160.866 M189.196 164.525 C 188.991 165.109,188.865 166.571,188.943 167.448 C 189.105 169.276,196.213 167.929,196.213 166.070 C 196.213 164.485,189.710 163.053,189.196 164.525 M210.189 166.171 C 209.842 166.558,209.558 167.276,209.558 167.768 C 209.558 168.260,209.320 168.978,209.029 169.363 C 207.824 170.956,208.288 171.735,210.370 171.615 L 212.263 171.506 212.141 170.063 C 212.074 169.270,211.804 168.377,211.540 168.079 C 211.277 167.782,211.007 167.073,210.941 166.504 C 210.823 165.490,210.808 165.483,210.189 166.171 M189.451 171.776 C 187.533 174.193,188.738 176.376,191.987 176.370 C 196.140 176.362,197.504 175.396,196.624 173.082 C 196.059 171.594,190.411 170.566,189.451 171.776 M133.995 173.072 C 133.399 173.401,132.783 173.873,132.624 174.121 C 132.465 174.369,132.181 174.572,131.993 174.572 C 131.539 174.572,130.207 175.917,130.207 176.375 C 130.207 176.573,130.048 176.736,129.854 176.736 C 129.659 176.736,129.400 177.135,129.277 177.623 C 129.155 178.111,128.827 178.698,128.549 178.929 C 127.922 179.450,127.880 181.065,128.494 181.062 C 130.909 181.051,136.339 176.723,136.339 174.808 C 136.339 174.370,136.592 173.650,136.901 173.209 C 137.619 172.184,135.760 172.096,133.995 173.072 M141.749 173.626 C 141.749 174.296,141.993 175.046,142.290 175.293 C 142.588 175.540,142.831 175.960,142.831 176.227 C 142.831 176.751,145.188 179.261,145.680 179.261 C 145.845 179.261,146.367 179.560,146.840 179.926 C 150.867 183.041,151.099 179.251,147.123 175.314 C 144.032 172.253,141.749 171.536,141.749 173.626 M138.017 178.687 C 137.161 179.992,135.763 181.425,135.344 181.425 C 135.140 181.425,134.880 181.668,134.766 181.966 C 134.652 182.263,134.379 182.507,134.160 182.507 C 133.942 182.507,133.519 182.750,133.222 183.048 C 132.924 183.345,132.388 183.589,132.029 183.589 C 131.671 183.589,131.176 183.832,130.929 184.130 C 130.682 184.427,129.932 184.671,129.262 184.671 C 127.888 184.671,127.414 186.945,128.584 187.917 C 128.882 188.164,129.125 188.557,129.125 188.790 C 129.125 190.334,133.887 193.788,136.868 194.407 C 139.006 194.851,144.274 194.302,144.274 193.636 C 144.274 193.379,145.654 192.509,146.799 192.044 C 147.563 191.733,149.927 187.946,150.147 186.678 C 150.409 185.174,150.114 184.671,148.969 184.671 C 148.419 184.671,147.767 184.427,147.520 184.130 C 147.273 183.832,146.826 183.589,146.527 183.589 C 145.568 183.589,143.430 182.071,141.351 179.915 C 139.078 177.558,138.819 177.462,138.017 178.687 " stroke="none" fill="#fafafa" fill-rule="evenodd"></path><path id="path2" d="M135.077 142.616 C 134.680 142.920,134.002 143.174,133.569 143.181 C 133.137 143.187,132.562 143.414,132.290 143.686 C 132.019 143.957,131.480 144.281,131.092 144.406 C 129.801 144.822,126.240 148.653,126.240 149.626 C 126.240 149.808,125.996 150.159,125.699 150.406 C 125.401 150.653,125.158 151.139,125.158 151.486 C 125.158 153.275,123.714 155.423,122.352 155.662 C 121.614 155.791,120.650 156.122,120.211 156.398 C 119.772 156.673,119.163 156.898,118.858 156.898 C 118.554 156.898,118.305 157.049,118.305 157.234 C 118.305 157.419,117.940 157.684,117.493 157.823 C 116.210 158.221,113.841 160.882,112.216 163.751 C 110.685 166.453,110.642 173.224,112.137 176.102 C 113.790 179.285,116.549 182.507,117.622 182.507 C 117.827 182.507,118.239 182.750,118.537 183.048 C 118.834 183.345,119.371 183.589,119.729 183.589 C 120.087 183.589,120.583 183.832,120.830 184.130 C 121.077 184.427,121.819 184.671,122.480 184.671 C 123.707 184.671,125.158 186.822,125.158 188.640 C 125.158 188.987,125.401 189.474,125.699 189.720 C 125.996 189.967,126.240 190.393,126.240 190.666 C 126.240 190.940,126.524 191.476,126.871 191.859 C 127.218 192.241,127.681 192.769,127.899 193.031 C 128.665 193.952,130.913 195.852,131.236 195.852 C 131.415 195.852,131.755 196.085,131.992 196.370 C 132.228 196.655,132.938 196.998,133.569 197.133 C 134.200 197.268,134.928 197.549,135.187 197.758 C 136.019 198.429,141.126 198.532,142.506 197.906 C 143.181 197.599,144.261 197.243,144.905 197.113 C 145.550 196.983,146.078 196.743,146.078 196.580 C 146.078 196.417,146.530 196.126,147.083 195.933 C 148.336 195.496,151.849 191.957,151.849 191.131 C 151.849 190.794,152.092 190.426,152.390 190.311 C 152.687 190.197,152.936 189.734,152.942 189.281 C 152.948 188.828,153.192 188.143,153.483 187.758 C 153.774 187.373,154.013 186.619,154.013 186.083 C 154.013 185.029,154.558 184.671,156.162 184.671 C 156.717 184.671,157.373 184.427,157.619 184.130 C 157.866 183.832,158.353 183.589,158.702 183.589 C 159.050 183.589,159.537 183.345,159.784 183.048 C 160.031 182.750,160.463 182.507,160.745 182.507 C 161.390 182.507,165.102 178.676,165.416 177.686 C 165.545 177.281,165.872 176.728,166.143 176.456 C 166.415 176.185,166.637 175.601,166.637 175.159 C 166.637 174.717,166.802 174.190,167.005 173.987 C 168.218 172.773,167.183 163.390,165.835 163.390 C 165.681 163.390,165.555 163.161,165.555 162.880 C 165.555 162.600,164.986 161.785,164.292 161.070 C 163.598 160.355,163.030 159.611,163.030 159.416 C 163.030 159.222,162.877 159.062,162.691 159.062 C 162.505 159.062,161.820 158.575,161.168 157.980 C 160.517 157.385,159.728 156.898,159.415 156.898 C 159.102 156.898,158.671 156.723,158.457 156.509 C 158.242 156.295,157.364 155.962,156.505 155.769 C 154.583 155.337,154.013 154.889,154.013 153.814 C 154.013 153.356,153.769 152.739,153.472 152.441 C 153.174 152.144,152.931 151.503,152.931 151.017 C 152.931 150.531,152.687 149.931,152.390 149.684 C 152.092 149.437,151.849 149.072,151.849 148.872 C 151.849 147.729,146.094 143.192,144.644 143.192 C 144.275 143.192,143.906 142.989,143.824 142.741 C 143.581 142.012,136.006 141.903,135.077 142.616 M143.084 143.426 C 143.726 143.694,144.581 143.913,144.984 143.913 C 145.387 143.913,145.717 144.073,145.717 144.267 C 145.717 144.462,146.112 144.720,146.595 144.842 C 147.533 145.077,151.488 148.991,151.488 149.683 C 151.488 149.911,151.731 150.340,152.029 150.638 C 152.326 150.935,152.570 151.451,152.570 151.784 C 152.571 153.867,153.929 155.995,155.387 156.197 C 156.184 156.307,157.053 156.569,157.318 156.778 C 157.583 156.988,158.246 157.266,158.792 157.396 C 159.337 157.527,159.784 157.792,159.784 157.987 C 159.784 158.182,160.002 158.341,160.269 158.341 C 161.668 158.341,165.551 163.580,166.285 166.456 C 167.092 169.625,166.578 174.945,165.323 176.404 C 165.054 176.717,164.833 177.145,164.833 177.354 C 164.833 178.123,160.994 181.641,159.243 182.477 C 158.251 182.951,157.008 183.557,156.482 183.824 C 155.955 184.092,155.178 184.310,154.756 184.310 C 153.976 184.310,152.570 186.829,152.570 188.226 C 152.570 190.542,146.319 196.573,143.919 196.573 C 143.507 196.573,142.586 196.817,141.874 197.115 C 138.415 198.560,133.074 196.877,129.281 193.147 C 126.965 190.869,125.518 188.503,125.518 186.992 C 125.518 185.755,124.506 184.310,123.639 184.310 C 123.246 184.310,122.494 184.087,121.967 183.814 C 121.441 183.541,120.211 182.948,119.235 182.496 C 111.815 179.058,109.439 168.373,114.589 161.605 C 115.959 159.806,119.145 157.265,120.054 157.247 C 120.381 157.241,120.964 156.998,121.349 156.706 C 121.734 156.415,122.494 156.177,123.038 156.177 C 124.186 156.177,125.518 154.589,125.518 153.222 C 125.518 150.562,131.299 143.913,133.612 143.913 C 133.961 143.913,134.758 143.678,135.383 143.391 C 137.502 142.417,140.705 142.432,143.084 143.426 M135.777 145.164 C 135.392 145.456,134.809 145.699,134.482 145.705 C 130.570 145.781,124.972 156.177,128.843 156.177 C 129.235 156.177,129.986 156.411,130.512 156.698 C 131.039 156.985,132.070 157.486,132.803 157.812 C 133.536 158.138,135.272 159.608,136.660 161.078 C 139.305 163.880,139.769 164.155,140.098 163.120 C 140.437 162.054,143.651 158.870,145.176 158.089 C 147.553 156.871,149.088 156.226,150.111 156.014 C 151.345 155.759,151.679 154.708,150.965 153.327 C 150.658 152.732,150.406 151.995,150.406 151.689 C 150.406 150.947,146.181 146.738,144.815 146.119 C 144.220 145.850,143.302 145.405,142.776 145.132 C 141.456 144.447,136.696 144.469,135.777 145.164 M142.316 145.956 C 148.677 148.104,153.258 155.781,148.196 155.811 C 147.674 155.814,147.046 156.060,146.799 156.357 C 146.552 156.655,146.065 156.898,145.717 156.898 C 145.369 156.898,144.882 157.142,144.635 157.439 C 144.388 157.737,143.962 157.980,143.689 157.980 C 143.416 157.980,143.192 158.224,143.192 158.521 C 143.192 158.819,142.949 159.062,142.651 159.062 C 142.353 159.062,142.108 159.184,142.105 159.333 C 142.102 159.482,141.440 160.334,140.633 161.226 L 139.166 162.849 138.451 161.948 C 136.834 159.910,134.858 157.980,134.390 157.980 C 134.116 157.980,133.798 157.737,133.684 157.439 C 133.570 157.142,133.183 156.898,132.824 156.898 C 132.465 156.898,131.851 156.678,131.460 156.408 C 131.069 156.139,130.140 155.807,129.396 155.671 C 126.999 155.231,127.719 152.552,131.145 149.161 C 133.624 146.707,133.890 146.524,135.400 146.241 C 136.119 146.106,136.797 145.852,136.905 145.676 C 137.231 145.149,140.414 145.314,142.316 145.956 M120.667 159.005 C 111.314 164.261,111.299 176.282,120.640 181.059 C 123.744 182.647,125.518 182.139,125.518 179.664 C 125.518 177.677,128.786 173.219,131.810 171.081 C 132.923 170.295,132.467 168.440,131.162 168.440 C 129.835 168.440,125.518 162.471,125.518 160.636 C 125.518 158.523,123.020 157.683,120.667 159.005 M127.683 159.971 C 127.683 163.568,132.695 168.440,136.394 168.440 C 139.881 168.440,135.999 161.555,131.106 159.061 C 128.613 157.789,127.683 158.037,127.683 159.971 M147.260 159.047 C 142.369 161.722,138.842 168.068,142.075 168.377 C 144.257 168.585,148.515 165.572,149.777 162.927 C 151.673 158.951,151.681 158.535,149.865 158.466 C 149.068 158.436,147.902 158.696,147.260 159.047 M153.160 159.886 C 152.835 160.736,152.570 161.690,152.570 162.006 C 152.570 162.322,152.326 162.783,152.029 163.030 C 151.731 163.277,151.488 163.677,151.488 163.919 C 151.488 164.320,148.869 167.089,146.626 169.058 C 145.393 170.141,145.457 170.373,147.403 171.858 C 150.000 173.841,152.570 177.244,152.570 178.699 C 152.570 185.290,162.027 180.829,164.432 173.103 C 166.307 167.082,160.762 158.341,155.067 158.341 C 153.848 158.341,153.706 158.456,153.160 159.886 M124.527 160.240 C 124.874 161.084,125.158 162.037,125.158 162.358 C 125.158 162.679,125.401 163.143,125.699 163.390 C 125.996 163.637,126.240 164.061,126.240 164.332 C 126.240 164.603,127.463 166.036,128.957 167.516 C 131.610 170.143,131.660 170.224,131.041 170.946 C 130.693 171.353,130.273 171.686,130.109 171.686 C 129.649 171.686,127.322 174.051,127.322 174.518 C 127.322 174.746,127.174 174.932,126.993 174.932 C 126.670 174.932,125.158 177.752,125.158 178.355 C 125.158 179.878,123.363 181.953,122.813 181.064 C 122.691 180.866,122.226 180.703,121.780 180.703 C 120.933 180.703,119.280 179.531,117.353 177.565 C 113.107 173.231,113.629 165.630,118.449 161.617 C 118.826 161.303,119.435 160.762,119.802 160.415 C 120.169 160.068,120.681 159.784,120.941 159.784 C 121.201 159.784,121.728 159.545,122.113 159.254 C 123.271 158.378,123.860 158.619,124.527 160.240 M129.486 159.243 C 129.733 159.540,130.285 159.784,130.712 159.784 C 131.140 159.784,131.743 160.068,132.054 160.415 C 132.364 160.762,133.211 161.560,133.937 162.187 C 134.663 162.815,135.257 163.510,135.257 163.732 C 135.257 163.953,135.500 164.228,135.798 164.342 C 136.096 164.456,136.339 164.929,136.339 165.392 C 136.339 165.855,136.501 166.334,136.700 166.456 C 136.898 166.579,137.060 166.994,137.060 167.379 C 137.060 168.241,135.570 168.350,134.896 167.538 C 134.649 167.241,134.177 166.997,133.847 166.997 C 132.972 166.997,129.897 163.960,129.282 162.489 C 128.992 161.794,128.595 161.226,128.399 161.226 C 128.203 161.226,128.043 160.658,128.043 159.964 C 128.043 158.603,128.688 158.281,129.486 159.243 M150.045 159.772 C 150.045 161.157,148.816 163.500,147.433 164.750 C 146.834 165.292,146.064 165.995,145.722 166.314 C 145.380 166.632,144.671 167.001,144.146 167.132 C 143.621 167.264,143.192 167.531,143.192 167.726 C 143.192 167.920,142.867 168.079,142.471 168.079 C 141.870 168.079,141.749 167.839,141.749 166.637 C 141.749 165.843,141.909 165.194,142.103 165.194 C 142.298 165.194,142.556 164.800,142.677 164.318 C 142.798 163.837,143.125 163.355,143.405 163.248 C 143.685 163.140,143.913 162.804,143.913 162.500 C 143.913 162.196,144.098 161.948,144.325 161.948 C 144.551 161.948,144.916 161.706,145.136 161.410 C 145.500 160.922,149.128 158.834,149.775 158.740 C 149.923 158.719,150.045 159.183,150.045 159.772 M156.177 159.243 C 156.424 159.540,156.840 159.784,157.102 159.784 C 157.761 159.784,160.144 161.224,160.144 161.623 C 160.144 161.801,160.388 161.948,160.685 161.948 C 160.983 161.948,161.226 162.183,161.226 162.471 C 161.226 162.759,161.429 163.124,161.677 163.282 C 163.520 164.461,164.479 173.534,162.925 175.089 C 162.586 175.428,162.308 175.942,162.308 176.232 C 162.308 176.521,162.065 176.852,161.767 176.966 C 161.470 177.080,161.226 177.362,161.226 177.592 C 161.226 178.441,155.997 181.401,154.463 181.419 C 154.216 181.422,154.013 181.050,154.013 180.592 C 154.013 180.134,153.774 179.444,153.483 179.059 C 153.192 178.674,152.948 177.907,152.942 177.356 C 152.936 176.804,152.687 176.259,152.390 176.145 C 152.092 176.031,151.849 175.730,151.849 175.476 C 151.849 174.939,148.838 171.801,147.427 170.866 C 146.427 170.204,146.894 168.801,148.114 168.801 C 148.638 168.801,151.849 165.197,151.849 164.607 C 151.849 164.377,152.092 164.096,152.390 163.981 C 152.687 163.867,152.931 163.351,152.931 162.835 C 152.931 162.319,153.174 161.653,153.472 161.355 C 153.769 161.058,154.013 160.339,154.013 159.758 C 154.013 158.556,155.344 158.239,156.177 159.243 M185.385 160.693 C 184.724 161.489,184.393 177.401,185.005 179.009 L 185.374 179.982 190.953 179.982 C 194.021 179.982,196.620 179.838,196.729 179.661 C 196.838 179.485,197.348 179.235,197.863 179.106 C 201.023 178.313,201.863 172.490,199.178 170.001 C 198.627 169.491,198.374 169.013,198.580 168.869 C 201.121 167.089,200.447 162.656,197.402 161.122 C 195.342 160.084,186.163 159.757,185.385 160.693 M208.448 161.199 C 207.868 161.778,207.394 162.490,207.394 162.780 C 207.394 163.071,207.152 163.773,206.855 164.341 C 206.559 164.909,206.310 165.618,206.303 165.915 C 206.295 166.213,206.051 166.771,205.759 167.156 C 205.468 167.541,205.225 168.191,205.218 168.599 C 205.212 169.008,204.969 169.657,204.677 170.042 C 204.386 170.427,204.148 171.097,204.148 171.531 C 204.148 171.964,203.904 172.521,203.607 172.768 C 203.309 173.015,203.066 173.671,203.066 174.225 C 203.066 174.779,202.883 175.294,202.659 175.368 C 202.215 175.517,201.605 178.794,201.886 179.527 C 202.503 181.133,205.651 179.409,206.116 177.212 C 206.716 174.371,213.820 173.970,214.429 176.742 C 214.559 177.334,214.779 177.818,214.918 177.818 C 215.057 177.818,215.355 178.305,215.579 178.900 C 216.102 180.285,219.065 180.559,219.477 179.261 C 219.744 178.419,219.399 177.096,218.912 177.096 C 218.727 177.096,218.575 176.756,218.575 176.339 C 218.575 175.923,218.318 174.990,218.004 174.266 C 217.690 173.541,217.203 172.416,216.922 171.764 C 216.641 171.113,216.411 170.400,216.411 170.181 C 216.411 169.803,215.516 167.698,214.393 165.435 C 214.114 164.874,213.886 164.183,213.886 163.901 C 213.886 160.826,210.503 159.144,208.448 161.199 M221.499 160.640 C 221.209 160.989,221.116 163.885,221.184 170.468 L 221.280 179.802 222.429 179.913 C 224.155 180.080,224.469 179.166,224.635 173.490 C 224.781 168.519,225.109 167.194,225.767 168.922 C 225.968 169.451,226.298 169.883,226.501 169.883 C 226.705 169.883,226.871 170.207,226.871 170.604 C 226.871 171.001,227.030 171.326,227.225 171.326 C 227.419 171.326,227.681 171.731,227.805 172.227 C 227.929 172.723,228.167 173.129,228.333 173.129 C 228.624 173.129,229.316 174.230,230.090 175.924 C 230.293 176.371,230.626 176.736,230.830 176.736 C 231.033 176.736,231.199 177.030,231.199 177.390 C 231.199 178.715,233.114 180.039,234.850 179.915 L 236.429 179.802 236.525 170.383 C 236.629 160.173,236.563 159.806,234.692 160.276 C 233.270 160.633,232.872 162.076,232.716 167.448 C 232.583 172.068,232.316 173.308,231.787 171.776 C 231.667 171.429,231.244 170.658,230.848 170.063 C 230.452 169.468,229.961 168.656,229.757 168.260 C 229.552 167.863,229.065 167.051,228.673 166.456 C 228.281 165.861,227.771 165.009,227.538 164.563 C 227.306 164.116,226.980 163.751,226.813 163.751 C 226.647 163.751,226.510 163.491,226.510 163.174 C 226.510 161.329,222.577 159.340,221.499 160.640 M240.783 160.711 C 240.299 161.195,240.216 162.557,240.216 170.059 C 240.216 180.191,240.178 179.982,242.046 179.982 C 243.836 179.982,244.184 179.341,244.184 176.038 C 244.184 171.773,245.995 170.783,248.151 173.870 C 252.501 180.096,252.386 179.982,254.297 179.982 C 255.258 179.982,256.153 179.806,256.286 179.590 C 256.563 179.142,255.413 176.375,254.950 176.375 C 254.781 176.375,254.644 176.127,254.644 175.823 C 254.644 175.519,254.400 175.177,254.103 175.063 C 253.805 174.949,253.562 174.704,253.562 174.518 C 253.562 174.152,252.182 172.097,251.541 171.510 C 249.365 169.517,249.495 168.119,252.105 165.427 C 255.982 161.428,256.090 161.256,255.182 160.502 C 253.851 159.398,252.200 160.296,248.308 164.240 C 244.166 168.438,244.184 168.438,244.184 164.263 C 244.184 160.684,242.534 158.961,240.783 160.711 M258.972 160.497 C 258.399 160.859,257.941 176.204,258.426 178.810 C 258.727 180.428,261.062 180.570,261.887 179.020 C 262.886 177.142,262.586 161.675,261.534 160.824 C 260.612 160.077,259.801 159.974,258.972 160.497 M269.342 160.393 C 268.995 160.484,268.711 160.689,268.711 160.850 C 268.711 161.011,268.401 161.223,268.022 161.322 C 265.752 161.916,264.345 166.650,265.959 168.265 C 266.282 168.588,266.546 168.987,266.546 169.152 C 266.546 169.599,268.942 170.926,270.452 171.315 C 271.180 171.503,272.523 171.848,273.437 172.081 C 277.013 172.994,277.727 175.151,274.887 176.465 C 272.955 177.360,269.472 176.712,269.441 175.453 C 269.419 174.523,267.498 172.768,266.503 172.768 C 265.363 172.768,264.267 174.327,264.729 175.293 C 264.871 175.591,265.221 176.318,265.506 176.909 C 266.908 179.814,274.631 181.590,276.907 179.531 C 277.290 179.184,277.781 178.900,277.996 178.900 C 279.802 178.900,281.695 172.439,280.072 171.817 C 279.775 171.702,279.531 171.413,279.531 171.174 C 279.531 170.714,277.627 169.161,277.062 169.161 C 276.878 169.161,276.263 168.919,275.695 168.623 C 275.127 168.326,274.131 168.083,273.482 168.082 C 270.427 168.076,268.354 165.265,270.479 164.009 C 272.151 163.022,275.554 163.717,275.561 165.048 C 275.566 165.820,276.902 166.637,278.163 166.637 C 279.622 166.637,280.386 165.988,279.877 165.182 C 279.693 164.891,279.537 164.328,279.530 163.931 C 279.489 161.373,273.522 159.301,269.342 160.393 M282.142 160.791 C 280.429 162.277,281.589 164.109,284.248 164.117 C 287.675 164.127,287.461 163.657,287.502 171.277 C 287.546 179.449,287.612 179.766,289.315 179.910 C 291.475 180.093,291.592 179.698,291.794 171.542 L 291.975 164.292 294.305 164.183 C 297.387 164.038,298.450 162.826,297.213 160.866 C 296.617 159.922,283.220 159.856,282.142 160.791 M211.930 161.361 C 212.517 162.330,213.526 164.627,213.526 164.995 C 213.526 165.271,213.769 165.996,214.067 166.607 C 214.364 167.219,214.851 168.219,215.149 168.830 C 215.446 169.441,215.690 170.217,215.690 170.553 C 215.690 170.890,215.910 171.485,216.180 171.876 C 216.449 172.268,216.781 173.197,216.917 173.940 C 217.054 174.684,217.302 175.293,217.469 175.293 C 217.636 175.293,217.856 175.739,217.960 176.285 C 218.063 176.830,218.257 177.620,218.390 178.039 C 218.558 178.563,218.456 178.869,218.063 179.019 C 217.080 179.397,216.408 178.870,215.443 176.964 C 214.149 174.412,213.818 174.236,210.303 174.222 C 206.970 174.210,205.591 174.897,205.591 176.570 C 205.591 177.617,204.268 179.261,203.425 179.261 C 202.479 179.261,202.207 178.048,202.867 176.772 C 203.175 176.177,203.427 175.510,203.427 175.291 C 203.427 174.931,203.947 173.657,205.436 170.369 C 205.720 169.744,205.951 169.073,205.951 168.878 C 205.951 168.682,206.194 168.058,206.490 167.489 C 206.786 166.921,207.035 166.213,207.043 165.915 C 207.050 165.618,207.295 165.059,207.586 164.674 C 207.877 164.289,208.115 163.624,208.115 163.197 C 208.115 161.706,211.230 160.207,211.930 161.361 M243.102 164.132 C 243.102 169.423,243.982 169.592,248.344 165.139 C 252.041 161.365,254.286 160.079,254.282 161.737 C 254.282 161.952,253.064 163.380,251.577 164.910 C 248.318 168.264,248.291 168.503,250.794 171.834 C 254.399 176.632,255.355 178.145,255.140 178.707 C 254.632 180.030,252.615 179.008,251.025 176.623 C 248.506 172.843,246.968 170.965,246.395 170.967 C 244.658 170.972,243.106 173.669,243.096 176.699 C 243.090 178.668,242.720 179.379,241.796 179.201 C 240.775 179.005,240.547 161.367,241.563 161.138 C 242.741 160.873,243.102 161.575,243.102 164.132 M275.366 161.199 C 275.479 161.382,276.016 161.630,276.560 161.750 C 277.560 161.970,279.170 164.194,279.170 165.355 C 279.170 166.523,277.403 165.966,275.800 164.292 C 273.824 162.230,271.458 161.976,269.722 163.638 C 267.566 165.704,269.028 167.958,272.947 168.609 C 273.789 168.749,274.558 168.993,274.656 169.152 C 274.754 169.311,275.413 169.549,276.121 169.682 C 280.344 170.474,281.361 177.186,277.443 178.404 C 277.103 178.510,276.395 178.827,275.869 179.109 C 272.579 180.870,266.043 178.484,265.770 175.421 C 265.553 172.980,266.667 172.823,268.278 175.067 C 270.305 177.889,273.858 178.622,276.092 176.679 C 277.908 175.100,276.975 172.140,274.482 171.573 C 266.928 169.856,264.330 167.201,266.738 163.657 C 268.275 161.395,274.407 159.647,275.366 161.199 M296.213 161.403 C 297.875 162.091,296.907 162.935,294.098 163.249 C 290.655 163.634,290.712 163.494,290.712 171.490 C 290.712 178.595,290.586 179.261,289.236 179.261 C 288.277 179.261,288.188 178.565,288.188 171.137 C 288.188 163.266,288.365 163.725,285.175 163.349 C 282.158 162.993,281.356 161.483,283.980 161.101 C 285.660 160.857,295.477 161.099,296.213 161.403 M197.205 161.883 C 199.499 163.157,199.821 166.239,197.936 168.880 C 197.560 169.406,197.683 169.696,198.746 170.794 C 200.393 172.493,200.575 176.157,199.083 177.551 C 197.543 178.989,188.936 179.904,186.317 178.909 L 185.392 178.557 185.392 170.462 C 185.392 166.010,185.497 162.094,185.626 161.759 C 185.917 160.999,195.804 161.105,197.205 161.883 M225.457 162.934 C 226.136 163.873,226.853 164.914,227.051 165.247 C 227.861 166.609,229.978 170.022,230.564 170.914 C 230.909 171.438,231.382 172.232,231.614 172.678 C 231.869 173.168,232.371 173.490,232.880 173.490 L 233.724 173.490 233.729 168.170 C 233.735 161.929,233.862 161.226,234.986 161.226 C 236.152 161.226,236.238 161.852,236.244 170.357 C 236.249 178.255,236.074 179.261,234.693 179.261 C 233.074 179.261,232.598 178.653,227.408 169.954 C 224.396 164.905,223.856 165.349,223.625 173.068 C 223.451 178.852,223.416 179.084,222.680 179.189 C 221.568 179.348,221.471 178.617,221.466 170.002 C 221.460 161.288,221.471 161.226,223.061 161.226 C 224.034 161.226,224.426 161.506,225.457 162.934 M261.249 165.374 C 261.842 173.419,261.268 179.382,259.918 179.189 C 259.166 179.082,259.151 178.933,259.055 170.612 C 258.949 161.305,258.970 161.125,260.143 161.291 C 260.909 161.400,260.973 161.635,261.249 165.374 M188.304 163.980 C 185.577 167.447,190.601 170.471,195.347 168.219 C 197.144 167.366,197.175 164.829,195.401 163.747 C 193.489 162.581,189.296 162.719,188.304 163.980 M195.607 164.898 C 196.409 165.699,196.372 166.478,195.491 167.358 C 194.478 168.371,189.032 168.446,188.943 167.448 C 188.865 166.571,188.991 165.109,189.196 164.525 C 189.456 163.779,194.799 164.089,195.607 164.898 M209.843 165.215 C 209.504 165.412,209.114 166.178,208.977 166.917 C 208.840 167.655,208.497 168.614,208.215 169.048 C 207.257 170.520,207.740 171.826,209.336 172.084 C 210.548 172.279,212.970 172.001,213.348 171.624 C 213.457 171.514,212.622 168.932,211.968 167.358 C 211.845 167.060,211.581 166.371,211.381 165.825 C 210.988 164.749,210.782 164.667,209.843 165.215 M211.540 168.079 C 211.804 168.377,212.074 169.270,212.141 170.063 L 212.263 171.506 210.370 171.615 C 208.288 171.735,207.824 170.956,209.029 169.363 C 209.320 168.978,209.558 168.260,209.558 167.768 C 209.558 166.289,210.785 165.166,210.941 166.504 C 211.007 167.073,211.277 167.782,211.540 168.079 M189.082 170.846 C 187.515 171.476,187.048 175.411,188.391 176.673 C 191.597 179.685,199.798 175.696,197.193 172.391 C 195.942 170.803,191.358 169.930,189.082 170.846 M194.853 171.754 C 197.157 172.444,197.527 175.577,195.372 176.156 C 190.385 177.493,186.938 174.943,189.451 171.776 C 189.905 171.204,192.975 171.191,194.853 171.754 M133.707 172.441 C 129.858 174.472,126.818 178.971,127.710 181.316 C 128.069 182.260,128.979 182.370,130.006 181.594 C 130.391 181.302,130.963 181.064,131.276 181.064 C 132.067 181.064,136.677 176.564,136.712 175.759 C 136.719 175.602,137.031 174.825,137.405 174.033 C 138.521 171.672,136.673 170.876,133.707 172.441 M141.108 171.928 C 139.216 172.689,144.725 181.025,147.153 181.075 C 147.454 181.082,148.016 181.325,148.401 181.617 C 149.450 182.410,150.738 182.285,151.082 181.355 C 151.352 180.625,151.110 179.844,149.983 177.818 C 149.818 177.520,149.534 176.935,149.352 176.518 C 148.280 174.060,143.050 171.148,141.108 171.928 M136.901 173.209 C 136.592 173.650,136.339 174.370,136.339 174.808 C 136.339 176.723,130.909 181.051,128.494 181.062 C 127.880 181.065,127.922 179.450,128.549 178.929 C 128.827 178.698,129.155 178.111,129.277 177.623 C 129.400 177.135,129.659 176.736,129.854 176.736 C 130.048 176.736,130.207 176.573,130.207 176.375 C 130.207 175.917,131.539 174.572,131.993 174.572 C 132.181 174.572,132.465 174.369,132.624 174.121 C 133.116 173.353,135.019 172.475,136.269 172.441 C 137.431 172.408,137.448 172.428,136.901 173.209 M144.298 173.039 C 148.341 175.229,151.981 181.421,148.873 180.819 C 148.228 180.694,147.314 180.292,146.840 179.926 C 146.367 179.560,145.845 179.261,145.680 179.261 C 145.188 179.261,142.831 176.751,142.831 176.227 C 142.831 175.960,142.588 175.540,142.290 175.293 C 140.400 173.724,142.081 171.837,144.298 173.039 M138.464 177.166 C 137.989 177.675,136.848 178.902,135.926 179.894 C 134.291 181.654,131.061 183.499,127.913 184.472 C 127.116 184.718,127.357 187.661,128.256 188.667 C 128.536 188.980,128.765 189.352,128.765 189.493 C 128.765 190.645,132.913 194.180,134.793 194.629 C 135.346 194.761,136.015 195.041,136.280 195.251 C 136.973 195.798,141.610 195.775,142.164 195.221 C 142.412 194.973,142.968 194.770,143.400 194.770 C 143.832 194.770,144.388 194.527,144.635 194.229 C 144.882 193.931,145.273 193.688,145.505 193.688 C 146.468 193.688,149.510 190.439,150.234 188.638 C 150.354 188.341,150.706 187.579,151.016 186.945 C 151.647 185.655,151.461 184.751,150.504 184.459 C 149.745 184.228,148.437 183.666,145.645 182.372 C 143.748 181.494,142.555 180.382,140.011 177.120 L 139.326 176.241 138.464 177.166 M141.351 179.915 C 143.430 182.071,145.568 183.589,146.527 183.589 C 146.826 183.589,147.273 183.832,147.520 184.130 C 147.767 184.427,148.419 184.671,148.969 184.671 C 150.114 184.671,150.409 185.174,150.147 186.678 C 149.927 187.946,147.563 191.733,146.799 192.044 C 145.654 192.509,144.274 193.379,144.274 193.636 C 144.274 194.302,139.006 194.851,136.868 194.407 C 133.887 193.788,129.125 190.334,129.125 188.790 C 129.125 188.557,128.882 188.164,128.584 187.917 C 127.414 186.945,127.888 184.671,129.262 184.671 C 129.932 184.671,130.682 184.427,130.929 184.130 C 131.176 183.832,131.671 183.589,132.029 183.589 C 132.388 183.589,132.924 183.345,133.222 183.048 C 133.519 182.750,133.942 182.507,134.160 182.507 C 134.379 182.507,134.652 182.263,134.766 181.966 C 134.880 181.668,135.140 181.425,135.344 181.425 C 135.763 181.425,137.161 179.992,138.017 178.687 C 138.819 177.462,139.078 177.558,141.351 179.915 " stroke="none" fill="#b8b8b8" fill-rule="evenodd"></path></g></svg>