<svg id="svg" version="1.1" xmlns="http://www.w3.org/2000/svg" xmlns:xlink="http://www.w3.org/1999/xlink" width="200" height="133.99014778325122" viewBox="0, 0, 400,133.99014778325122"><g id="svgg"><path id="path0" d="M99.333 22.169 C 99.013 22.251,98.225 22.393,97.583 22.485 C 95.076 22.845,90.077 24.832,88.750 25.996 C 88.567 26.156,88.295 26.354,88.147 26.436 C 87.809 26.621,85.792 28.380,84.971 29.205 C 83.864 30.318,82.542 32.060,81.901 33.250 C 80.463 35.917,79.986 36.914,79.739 37.763 C 79.596 38.255,79.374 38.868,79.245 39.126 C 79.117 39.384,78.966 40.042,78.911 40.589 C 78.745 42.229,78.406 42.974,77.780 43.076 C 75.544 43.441,75.001 43.562,74.392 43.829 C 74.012 43.996,73.459 44.186,73.162 44.251 C 72.573 44.380,70.537 45.324,68.845 46.252 C 67.819 46.814,67.167 47.264,66.395 47.939 C 66.200 48.110,65.665 48.550,65.206 48.917 C 64.747 49.283,64.212 49.808,64.018 50.083 C 63.824 50.358,63.290 50.996,62.831 51.500 C 61.437 53.032,59.392 56.519,58.985 58.057 C 58.909 58.347,58.664 59.221,58.442 60.000 C 56.388 67.188,58.177 75.186,63.083 80.753 C 64.574 82.444,64.683 82.550,66.787 84.364 C 67.719 85.168,71.829 87.288,73.304 87.726 C 73.764 87.862,74.299 88.059,74.494 88.163 C 74.688 88.267,75.500 88.464,76.299 88.601 C 77.097 88.737,77.883 88.888,78.044 88.936 C 78.435 89.053,78.757 89.865,78.877 91.033 C 79.021 92.437,80.167 95.593,81.105 97.167 C 81.241 97.396,81.510 97.921,81.701 98.333 C 83.438 102.079,89.602 107.231,93.780 108.429 C 94.314 108.582,94.829 108.770,94.925 108.846 C 95.703 109.465,102.594 110.083,104.333 109.688 C 104.746 109.595,105.608 109.435,106.249 109.333 C 109.476 108.819,114.338 106.509,116.250 104.581 C 116.433 104.396,116.883 103.991,117.250 103.680 C 118.194 102.881,120.804 99.871,121.161 99.171 C 121.325 98.848,121.839 97.848,122.302 96.949 C 122.765 96.050,123.195 95.085,123.256 94.806 C 123.317 94.527,123.511 93.975,123.686 93.579 C 123.861 93.183,124.113 92.133,124.247 91.245 C 124.579 89.032,124.630 88.982,126.983 88.604 C 127.830 88.467,128.622 88.273,128.745 88.171 C 128.868 88.069,129.444 87.849,130.026 87.681 C 130.949 87.415,131.802 87.057,132.885 86.479 C 133.050 86.391,133.636 86.090,134.186 85.810 C 135.988 84.894,137.956 83.288,139.676 81.328 C 141.568 79.171,141.980 78.597,142.809 76.957 C 143.076 76.429,143.374 75.902,143.471 75.785 C 144.447 74.609,145.717 69.088,145.722 66.000 C 145.725 63.807,145.571 62.810,144.642 59.000 C 143.880 55.876,140.494 50.925,137.333 48.312 C 136.737 47.820,136.212 47.369,136.167 47.311 C 135.844 46.902,131.001 44.433,130.159 44.248 C 129.869 44.185,129.316 43.993,128.930 43.822 C 128.543 43.651,127.534 43.399,126.687 43.262 C 124.971 42.985,124.586 42.714,124.416 41.667 C 123.884 38.388,123.069 36.120,121.331 33.083 C 120.881 32.297,120.668 31.999,119.670 30.762 C 118.317 29.085,115.124 26.255,113.737 25.504 C 113.377 25.309,112.971 25.082,112.833 25.000 C 112.696 24.918,112.208 24.672,111.750 24.453 C 111.292 24.234,110.767 23.974,110.583 23.874 C 108.440 22.709,101.403 21.642,99.333 22.169 M105.083 26.675 C 105.725 26.768,106.515 26.982,106.840 27.151 C 107.164 27.320,107.683 27.514,107.992 27.582 C 111.280 28.304,118.124 34.260,118.170 36.438 C 118.171 36.518,118.390 36.904,118.656 37.296 C 118.921 37.688,119.191 38.326,119.255 38.713 C 119.318 39.100,119.523 39.754,119.710 40.167 C 120.043 40.900,120.208 42.681,119.966 42.923 C 119.903 42.986,119.191 43.150,118.384 43.287 C 117.577 43.424,116.624 43.677,116.266 43.849 C 115.908 44.020,115.346 44.212,115.016 44.273 C 113.816 44.498,108.333 47.559,108.333 48.004 C 108.333 48.081,108.197 48.187,108.031 48.240 C 107.112 48.532,103.959 52.255,102.486 54.789 C 102.012 55.604,102.022 55.599,101.356 55.366 C 101.060 55.263,100.807 54.999,100.664 54.643 C 99.883 52.694,96.131 48.598,93.584 46.914 C 92.379 46.117,88.888 44.408,88.135 44.245 C 87.831 44.180,87.366 44.016,87.101 43.880 C 86.836 43.744,85.939 43.497,85.109 43.330 C 82.950 42.897,82.866 42.712,83.596 40.007 C 84.728 35.807,88.112 31.318,91.692 29.263 C 93.137 28.434,94.686 27.689,95.192 27.580 C 95.499 27.514,95.975 27.341,96.250 27.196 C 97.437 26.570,102.347 26.280,105.083 26.675 M77.958 47.600 C 78.511 47.710,78.729 48.197,78.924 49.750 C 78.982 50.208,79.133 50.808,79.260 51.083 C 79.387 51.358,79.644 52.081,79.830 52.688 C 80.016 53.296,80.273 53.880,80.401 53.987 C 80.529 54.093,80.683 54.384,80.744 54.632 C 80.804 54.880,81.037 55.363,81.260 55.705 C 81.484 56.047,81.667 56.392,81.667 56.472 C 81.667 56.664,83.003 58.694,83.375 59.066 C 83.535 59.226,83.667 59.411,83.667 59.476 C 83.667 59.633,85.959 61.959,86.683 62.536 C 86.995 62.785,87.475 63.167,87.750 63.386 C 88.405 63.908,89.584 64.663,90.417 65.095 C 91.351 65.579,91.457 66.374,90.635 66.718 C 89.374 67.246,85.289 70.321,84.783 71.123 C 84.709 71.240,84.253 71.803,83.768 72.376 C 82.855 73.455,82.186 74.439,81.587 75.583 C 81.396 75.950,81.153 76.400,81.047 76.583 C 80.601 77.362,79.844 79.139,79.663 79.833 C 79.555 80.246,79.394 80.672,79.305 80.781 C 79.216 80.890,79.037 81.586,78.908 82.329 C 78.569 84.268,78.518 84.333,77.337 84.333 C 76.796 84.333,76.310 84.264,76.258 84.180 C 76.206 84.095,75.623 83.903,74.963 83.753 C 74.228 83.586,73.243 83.184,72.423 82.716 C 71.686 82.296,70.866 81.840,70.601 81.702 C 70.335 81.564,69.993 81.331,69.840 81.184 C 69.686 81.037,69.036 80.510,68.394 80.012 C 66.368 78.443,63.510 74.299,63.080 72.308 C 63.014 72.001,62.825 71.484,62.660 71.158 C 61.771 69.401,61.771 62.625,62.660 60.750 C 62.834 60.383,63.057 59.772,63.157 59.392 C 64.239 55.244,70.479 49.170,74.537 48.313 C 75.021 48.210,75.567 48.048,75.750 47.951 C 76.069 47.783,76.874 47.553,77.271 47.517 C 77.374 47.508,77.683 47.545,77.958 47.600 M86.661 48.257 C 87.598 48.493,89.277 49.301,89.980 49.854 C 90.199 50.026,90.473 50.167,90.590 50.167 C 90.825 50.167,93.275 52.086,93.972 52.815 C 97.388 56.395,99.977 62.186,98.572 63.106 C 97.921 63.532,94.607 62.674,93.000 61.663 C 92.862 61.577,92.418 61.347,92.012 61.152 C 90.350 60.355,86.124 56.183,85.736 54.956 C 85.672 54.751,85.453 54.358,85.251 54.083 C 84.209 52.666,83.081 49.022,83.428 48.196 C 83.687 47.581,84.033 47.493,85.000 47.794 C 85.412 47.923,86.160 48.131,86.661 48.257 M127.401 47.917 C 128.103 48.146,128.788 48.333,128.924 48.333 C 129.161 48.333,130.866 49.188,132.527 50.139 C 132.954 50.383,133.694 50.921,134.172 51.333 C 134.650 51.746,135.139 52.140,135.259 52.210 C 135.446 52.319,136.562 53.444,137.087 54.053 C 138.657 55.875,140.522 59.819,140.845 62.000 C 141.286 64.978,141.365 66.164,141.194 67.272 C 141.098 67.902,140.973 68.887,140.917 69.463 C 140.444 74.343,136.277 79.933,131.167 82.543 C 130.754 82.753,130.229 83.049,130.000 83.201 C 129.771 83.352,129.283 83.529,128.917 83.595 C 128.550 83.661,127.950 83.825,127.583 83.960 C 125.642 84.673,124.595 84.484,124.415 83.388 C 123.770 79.467,122.018 75.319,120.045 73.040 C 119.699 72.642,119.192 72.044,118.917 71.712 C 118.060 70.678,117.091 69.778,115.427 68.469 C 114.846 68.011,114.043 67.509,112.958 66.922 C 111.612 66.195,111.821 65.554,113.722 64.581 C 114.859 63.999,117.449 61.884,118.444 60.725 C 118.825 60.280,119.526 59.467,120.002 58.917 C 120.477 58.367,121.065 57.549,121.308 57.099 C 123.068 53.842,123.842 51.851,124.252 49.528 C 124.642 47.318,125.002 47.134,127.401 47.917 M119.967 48.532 C 120.000 49.038,119.904 49.566,119.696 50.032 C 119.520 50.427,119.324 51.036,119.261 51.386 C 119.199 51.736,119.004 52.261,118.829 52.553 C 118.653 52.845,118.370 53.346,118.199 53.667 C 116.728 56.432,115.854 57.499,113.351 59.584 C 113.132 59.767,112.715 60.118,112.426 60.363 C 111.686 60.991,108.415 62.606,107.292 62.899 C 104.574 63.607,104.137 63.396,104.464 61.534 C 105.187 57.420,108.813 52.376,112.655 50.140 C 114.559 49.033,115.976 48.365,116.667 48.252 C 117.079 48.184,117.604 48.025,117.833 47.900 C 118.066 47.773,118.618 47.689,119.083 47.711 L 119.917 47.750 119.967 48.532 M309.500 50.672 C 309.179 50.756,308.455 50.902,307.890 50.996 C 305.146 51.456,302.419 53.461,301.161 55.944 C 299.391 59.436,301.123 64.334,304.667 65.861 C 305.079 66.038,305.607 66.287,305.839 66.414 C 306.072 66.540,306.834 66.793,307.533 66.976 C 308.232 67.159,309.167 67.429,309.610 67.574 C 310.054 67.720,311.167 68.029,312.083 68.259 C 313.000 68.490,314.131 68.776,314.597 68.894 C 316.629 69.411,318.061 70.626,318.249 71.993 C 318.678 75.111,316.455 77.097,312.250 77.355 C 311.240 77.417,308.036 76.629,307.449 76.175 C 305.815 74.910,305.473 74.423,304.752 72.333 C 304.279 70.962,304.051 70.839,301.966 70.836 C 300.014 70.833,299.509 71.016,299.478 71.735 C 299.419 73.153,299.557 73.980,300.014 74.959 C 300.281 75.532,300.500 76.059,300.500 76.130 C 300.500 76.392,301.892 78.107,302.715 78.859 C 306.925 82.705,317.030 82.501,321.033 78.490 C 321.657 77.865,322.167 77.297,322.167 77.228 C 322.167 77.158,322.364 76.896,322.605 76.644 C 323.000 76.232,323.201 75.706,323.677 73.833 C 324.209 71.742,323.124 68.538,321.298 66.805 C 319.545 65.142,317.893 64.506,311.234 62.936 C 306.748 61.878,304.980 59.814,306.324 57.204 C 307.168 55.565,308.408 54.999,311.148 55.001 C 312.812 55.002,314.274 55.250,314.793 55.620 C 315.023 55.783,315.335 55.992,315.487 56.083 C 316.205 56.517,316.973 57.627,317.256 58.639 C 317.621 59.943,317.744 60.000,320.167 60.000 C 323.076 60.000,323.216 59.831,322.422 57.276 C 321.923 55.670,319.379 52.333,318.653 52.333 C 318.579 52.333,317.970 52.074,317.300 51.758 C 315.380 50.849,311.098 50.253,309.500 50.672 M174.174 51.374 C 173.532 51.706,173.534 51.655,173.517 66.349 L 173.500 80.282 173.851 80.599 C 174.262 80.971,185.870 81.164,189.405 80.858 C 194.697 80.399,197.710 78.010,198.162 73.914 C 198.351 72.200,198.158 69.918,197.763 69.203 C 197.625 68.954,197.395 68.505,197.252 68.205 C 196.884 67.431,195.930 66.422,195.114 65.942 C 194.510 65.587,193.531 64.548,193.694 64.434 C 193.725 64.413,193.984 64.250,194.269 64.073 C 195.800 63.121,197.000 60.817,197.000 58.829 C 197.000 54.975,194.996 52.460,191.194 51.542 C 189.694 51.179,174.832 51.033,174.174 51.374 M211.125 51.458 C 210.785 51.839,209.833 53.726,209.833 54.018 C 209.833 54.143,209.650 54.621,209.426 55.081 C 208.858 56.245,208.182 57.943,207.930 58.833 C 207.814 59.246,207.582 59.846,207.416 60.167 C 207.249 60.487,206.980 61.163,206.818 61.667 C 206.656 62.171,206.249 63.296,205.912 64.167 C 205.576 65.037,205.124 66.264,204.907 66.892 C 204.690 67.521,204.444 68.121,204.361 68.226 C 204.278 68.331,204.120 68.717,204.009 69.083 C 203.899 69.450,203.634 70.087,203.422 70.500 C 203.210 70.912,202.982 71.512,202.915 71.833 C 202.849 72.154,202.693 72.604,202.568 72.833 C 202.312 73.304,201.308 75.905,200.993 76.917 C 200.879 77.283,200.618 77.958,200.415 78.417 C 199.412 80.674,199.723 81.050,202.538 80.972 L 204.537 80.917 205.005 80.356 C 205.439 79.836,206.251 77.751,206.918 75.443 C 207.539 73.294,207.905 73.173,213.750 73.180 C 219.849 73.188,219.683 73.116,220.665 76.165 C 220.857 76.759,221.118 77.405,221.245 77.599 C 221.372 77.793,221.529 78.243,221.594 78.601 C 221.955 80.589,222.677 81.055,225.275 80.974 C 227.995 80.890,228.270 80.502,227.144 78.333 C 226.882 77.829,226.667 77.325,226.667 77.213 C 226.667 77.101,226.487 76.614,226.268 76.130 C 225.695 74.863,224.903 72.829,224.767 72.273 C 224.703 72.011,224.507 71.486,224.331 71.107 C 224.154 70.727,223.813 69.854,223.572 69.167 C 222.745 66.812,222.531 66.249,222.099 65.287 C 221.861 64.757,221.667 64.232,221.667 64.119 C 221.667 64.006,221.479 63.562,221.250 63.131 C 221.021 62.701,220.833 62.245,220.833 62.119 C 220.833 61.993,220.649 61.525,220.423 61.079 C 220.197 60.633,219.962 60.039,219.901 59.759 C 219.840 59.479,219.606 58.837,219.380 58.333 C 219.154 57.829,218.872 57.117,218.752 56.750 C 217.856 54.001,216.869 51.781,216.363 51.375 C 215.917 51.018,211.455 51.089,211.125 51.458 M230.810 51.485 L 230.417 51.804 230.417 66.063 C 230.417 82.591,230.175 80.828,232.458 80.958 C 234.229 81.059,235.111 80.834,235.344 80.223 C 235.433 79.987,235.508 75.884,235.520 70.614 C 235.531 65.556,235.587 61.198,235.645 60.930 C 235.770 60.353,236.098 60.187,236.238 60.630 C 236.293 60.803,236.600 61.239,236.919 61.598 C 237.238 61.956,237.500 62.332,237.500 62.433 C 237.500 62.533,237.660 62.758,237.856 62.933 C 238.052 63.107,238.319 63.475,238.449 63.750 C 238.579 64.025,238.982 64.700,239.345 65.250 C 239.708 65.800,240.117 66.475,240.252 66.750 C 240.388 67.025,240.836 67.775,241.248 68.417 C 241.660 69.058,242.149 69.865,242.335 70.208 C 242.521 70.552,242.739 70.833,242.819 70.833 C 242.898 70.833,243.079 71.121,243.220 71.473 C 243.360 71.824,243.668 72.341,243.904 72.622 C 244.140 72.902,244.333 73.182,244.333 73.244 C 244.333 73.306,244.558 73.684,244.833 74.083 C 245.108 74.483,245.333 74.864,245.333 74.931 C 245.333 74.997,245.521 75.298,245.750 75.598 C 245.979 75.899,246.167 76.188,246.167 76.242 C 246.167 76.296,246.370 76.657,246.619 77.045 C 246.867 77.433,247.186 77.952,247.327 78.199 C 248.859 80.880,249.051 81.000,251.802 81.000 C 253.755 81.000,254.286 80.865,254.706 80.260 C 254.905 79.973,254.861 52.594,254.660 52.066 C 254.366 51.292,254.055 51.177,252.250 51.177 C 249.497 51.177,249.671 50.471,249.650 61.749 C 249.641 66.700,249.582 70.938,249.518 71.167 C 249.352 71.769,248.789 71.796,248.493 71.216 C 248.362 70.960,247.874 70.150,247.407 69.417 C 246.941 68.683,246.046 67.221,245.419 66.167 C 244.792 65.112,244.137 64.063,243.964 63.833 C 243.459 63.165,241.962 60.818,241.504 59.977 C 240.838 58.753,239.318 56.282,239.005 55.917 C 238.849 55.733,238.627 55.347,238.514 55.058 C 238.400 54.769,238.125 54.362,237.903 54.154 C 237.681 53.946,237.500 53.700,237.500 53.608 C 237.500 53.266,236.240 51.627,235.803 51.401 C 235.050 51.012,231.317 51.074,230.810 51.485 M261.212 51.618 C 260.726 52.360,260.758 80.123,261.246 80.662 C 261.574 81.025,265.411 81.147,265.751 80.805 C 266.052 80.503,266.159 79.061,266.163 75.268 L 266.167 71.120 267.792 69.462 C 270.208 66.997,270.540 66.982,272.065 69.267 C 272.303 69.624,272.668 70.150,272.874 70.435 C 273.081 70.720,273.394 71.170,273.570 71.435 C 275.666 74.596,276.404 75.686,276.825 76.250 C 277.436 77.067,277.698 77.448,278.601 78.833 C 278.989 79.429,279.543 80.142,279.831 80.417 L 280.355 80.917 282.910 80.917 C 286.277 80.917,286.756 80.498,285.270 78.855 C 285.134 78.706,284.625 78.002,284.137 77.292 C 283.075 75.745,278.110 68.758,277.652 68.167 C 277.475 67.938,277.147 67.487,276.922 67.167 C 276.698 66.846,276.212 66.171,275.842 65.667 C 273.884 62.999,273.709 63.371,279.752 57.359 C 286.000 51.143,285.991 51.166,282.010 51.167 C 279.207 51.168,279.543 50.976,275.917 54.656 C 266.068 64.653,266.446 64.309,266.256 63.458 C 266.210 63.252,266.152 60.571,266.128 57.500 C 266.073 50.575,266.311 51.167,263.581 51.167 C 261.511 51.167,261.507 51.167,261.212 51.618 M289.712 51.618 C 289.436 52.038,289.414 52.976,289.371 65.711 C 289.324 79.901,289.349 80.485,290.021 80.844 C 290.652 81.182,294.148 80.979,294.434 80.588 C 294.783 80.110,294.706 51.866,294.355 51.442 C 293.907 50.903,290.086 51.047,289.712 51.618 M326.339 51.462 C 325.822 51.881,325.653 54.153,326.073 55.037 C 326.445 55.821,326.486 55.828,330.769 55.831 C 334.232 55.833,334.481 55.854,334.890 56.175 L 335.325 56.517 335.371 68.357 L 335.417 80.196 335.907 80.617 C 336.564 81.183,340.142 81.150,340.577 80.574 C 340.788 80.296,340.823 78.569,340.828 68.412 C 340.833 57.973,340.864 56.530,341.093 56.204 C 341.349 55.839,341.408 55.833,345.343 55.833 C 350.312 55.833,350.280 55.852,350.141 53.098 C 350.033 50.962,351.309 51.167,338.076 51.167 C 327.437 51.167,326.680 51.186,326.339 51.462 M189.338 55.921 C 191.020 56.654,191.559 57.578,191.530 59.678 C 191.486 62.863,189.500 63.778,182.939 63.637 L 179.794 63.570 179.314 63.032 L 178.833 62.495 178.841 60.039 C 178.855 55.192,178.538 55.461,184.161 55.535 C 188.118 55.587,188.663 55.627,189.338 55.921 M214.075 58.000 C 214.299 58.000,214.567 58.543,214.772 59.413 C 214.836 59.685,215.101 60.377,215.361 60.951 C 215.621 61.524,215.833 62.127,215.833 62.290 C 215.833 62.454,215.971 62.850,216.140 63.169 C 216.309 63.489,216.538 64.118,216.649 64.568 C 216.761 65.018,217.035 65.822,217.259 66.355 C 218.293 68.812,218.034 69.000,213.620 69.000 C 209.366 69.000,209.013 68.673,210.315 65.944 C 210.667 65.207,211.553 62.749,211.917 61.500 C 212.037 61.087,212.330 60.267,212.568 59.677 C 212.806 59.086,213.000 58.548,213.000 58.479 C 213.000 57.921,213.347 57.490,213.596 57.738 C 213.739 57.882,213.955 58.000,214.075 58.000 M190.500 68.034 C 193.928 69.615,193.985 74.275,190.599 76.048 L 189.583 76.580 184.467 76.582 C 180.513 76.583,179.302 76.535,179.136 76.369 C 178.555 75.789,178.772 68.560,179.388 67.983 C 179.880 67.522,189.485 67.566,190.500 68.034 M98.641 68.921 L 99.141 69.342 98.680 71.062 C 97.765 74.472,95.505 77.882,92.496 80.393 C 91.656 81.094,90.900 81.667,90.815 81.667 C 90.730 81.667,90.343 81.871,89.955 82.121 C 88.944 82.773,87.133 83.656,86.795 83.662 C 86.637 83.664,86.022 83.826,85.429 84.020 C 83.057 84.799,82.682 83.070,84.429 79.400 C 84.651 78.933,84.833 78.477,84.833 78.387 C 84.833 78.298,85.017 78.052,85.241 77.841 C 85.466 77.631,85.694 77.255,85.749 77.006 C 85.803 76.757,86.088 76.295,86.382 75.979 C 86.676 75.663,87.067 75.190,87.250 74.929 C 87.433 74.667,87.952 74.108,88.403 73.685 C 88.854 73.262,89.379 72.765,89.570 72.581 C 91.239 70.963,95.838 68.751,98.029 68.512 C 98.091 68.505,98.366 68.689,98.641 68.921 M106.694 68.905 C 108.351 69.317,111.399 70.703,112.278 71.444 C 112.538 71.663,113.210 72.214,113.772 72.669 C 115.897 74.388,118.941 78.778,119.260 80.583 C 119.325 80.950,119.518 81.528,119.689 81.868 C 119.995 82.477,120.097 83.552,119.899 84.070 C 119.787 84.362,118.427 84.453,118.258 84.180 C 118.206 84.095,117.633 83.905,116.986 83.758 C 114.641 83.225,111.155 81.075,109.167 78.935 C 108.754 78.491,108.279 78.005,108.111 77.856 C 106.298 76.240,103.788 69.974,104.539 68.942 C 104.925 68.412,104.728 68.415,106.694 68.905 M102.400 76.958 C 103.431 79.139,105.697 81.801,108.583 84.223 C 109.192 84.734,112.411 86.667,112.652 86.667 C 112.709 86.667,113.054 86.827,113.419 87.023 C 113.784 87.219,114.559 87.516,115.141 87.683 C 115.723 87.849,116.296 88.066,116.414 88.165 C 116.533 88.263,117.364 88.473,118.262 88.630 C 120.326 88.992,120.643 89.737,119.663 91.917 C 119.498 92.283,119.311 92.883,119.246 93.250 C 119.181 93.617,118.922 94.254,118.671 94.667 C 118.419 95.079,117.962 95.867,117.656 96.417 C 116.740 98.061,115.088 100.030,113.737 101.088 C 112.395 102.139,110.232 103.500,109.903 103.500 C 109.795 103.500,109.617 103.609,109.506 103.742 C 109.396 103.875,108.880 104.103,108.361 104.247 C 107.842 104.392,107.106 104.659,106.727 104.840 C 105.039 105.650,98.125 105.662,96.545 104.857 C 96.199 104.681,95.542 104.425,95.083 104.289 C 94.327 104.065,92.870 103.352,91.333 102.454 C 90.152 101.763,88.488 100.256,87.333 98.830 C 87.013 98.434,86.544 97.869,86.292 97.575 C 86.040 97.280,85.833 96.966,85.833 96.875 C 85.833 96.785,85.687 96.526,85.508 96.298 C 84.440 94.940,83.018 90.764,83.233 89.616 C 83.347 89.010,83.891 88.667,84.739 88.667 C 85.669 88.667,88.854 87.538,90.845 86.504 C 90.989 86.429,91.514 86.159,92.012 85.903 C 93.061 85.364,94.251 84.582,94.692 84.141 C 94.862 83.972,95.059 83.833,95.130 83.833 C 95.298 83.833,97.535 81.630,98.472 80.542 C 99.374 79.494,99.953 78.654,100.509 77.583 C 100.901 76.829,101.454 76.342,101.927 76.336 C 102.025 76.334,102.238 76.615,102.400 76.958 " stroke="none" fill="#424242" fill-rule="evenodd"></path><path id="path1" d="M0.000 66.917 L 0.000 133.833 200.000 133.833 L 400.000 133.833 400.000 66.917 L 400.000 0.000 200.000 0.000 L 0.000 0.000 0.000 66.917 M105.333 22.391 C 106.872 22.649,109.909 23.508,110.583 23.874 C 110.767 23.974,111.292 24.234,111.750 24.453 C 112.208 24.672,112.696 24.918,112.833 25.000 C 112.971 25.082,113.377 25.309,113.737 25.504 C 115.124 26.255,118.317 29.085,119.670 30.762 C 120.668 31.999,120.881 32.297,121.331 33.083 C 123.069 36.120,123.884 38.388,124.416 41.667 C 124.586 42.714,124.971 42.985,126.687 43.262 C 127.534 43.399,128.543 43.651,128.930 43.822 C 129.316 43.993,129.869 44.185,130.159 44.248 C 131.001 44.433,135.844 46.902,136.167 47.311 C 136.212 47.369,136.737 47.820,137.333 48.312 C 140.494 50.925,143.880 55.876,144.642 59.000 C 145.571 62.810,145.725 63.807,145.722 66.000 C 145.717 69.088,144.447 74.609,143.471 75.785 C 143.374 75.902,143.076 76.429,142.809 76.957 C 141.980 78.597,141.568 79.171,139.676 81.328 C 137.956 83.288,135.988 84.894,134.186 85.810 C 133.636 86.090,133.050 86.391,132.885 86.479 C 131.802 87.057,130.949 87.415,130.026 87.681 C 129.444 87.849,128.868 88.069,128.745 88.171 C 128.622 88.273,127.830 88.467,126.983 88.604 C 124.630 88.982,124.579 89.032,124.247 91.245 C 124.113 92.133,123.861 93.183,123.686 93.579 C 123.511 93.975,123.317 94.527,123.256 94.806 C 123.195 95.085,122.765 96.050,122.302 96.949 C 121.839 97.848,121.325 98.848,121.161 99.171 C 120.804 99.871,118.194 102.881,117.250 103.680 C 116.883 103.991,116.433 104.396,116.250 104.581 C 114.338 106.509,109.476 108.819,106.249 109.333 C 105.608 109.435,104.746 109.595,104.333 109.688 C 102.594 110.083,95.703 109.465,94.925 108.846 C 94.829 108.770,94.314 108.582,93.780 108.429 C 89.602 107.231,83.438 102.079,81.701 98.333 C 81.510 97.921,81.241 97.396,81.105 97.167 C 80.167 95.593,79.021 92.437,78.877 91.033 C 78.757 89.865,78.435 89.053,78.044 88.936 C 77.883 88.888,77.097 88.737,76.299 88.601 C 75.500 88.464,74.688 88.267,74.494 88.163 C 74.299 88.059,73.764 87.862,73.304 87.726 C 71.829 87.288,67.719 85.168,66.787 84.364 C 64.683 82.550,64.574 82.444,63.083 80.753 C 58.177 75.186,56.388 67.188,58.442 60.000 C 58.664 59.221,58.909 58.347,58.985 58.057 C 59.392 56.519,61.437 53.032,62.831 51.500 C 63.290 50.996,63.824 50.358,64.018 50.083 C 64.212 49.808,64.747 49.283,65.206 48.917 C 65.665 48.550,66.200 48.110,66.395 47.939 C 67.167 47.264,67.819 46.814,68.845 46.252 C 70.537 45.324,72.573 44.380,73.162 44.251 C 73.459 44.186,74.012 43.996,74.392 43.829 C 75.001 43.562,75.544 43.441,77.780 43.076 C 78.406 42.974,78.745 42.229,78.911 40.589 C 78.966 40.042,79.117 39.384,79.245 39.126 C 79.374 38.868,79.596 38.255,79.739 37.763 C 79.986 36.914,80.463 35.917,81.901 33.250 C 82.542 32.060,83.864 30.318,84.971 29.205 C 85.792 28.380,87.809 26.621,88.147 26.436 C 88.295 26.354,88.567 26.156,88.750 25.996 C 90.077 24.832,95.076 22.845,97.583 22.485 C 98.225 22.393,99.013 22.251,99.333 22.169 C 100.169 21.957,103.478 22.079,105.333 22.391 M97.833 26.732 C 97.237 26.842,96.525 27.051,96.250 27.196 C 95.975 27.341,95.499 27.514,95.192 27.580 C 94.686 27.689,93.137 28.434,91.692 29.263 C 88.112 31.318,84.728 35.807,83.596 40.007 C 82.866 42.712,82.950 42.897,85.109 43.330 C 85.939 43.497,86.836 43.744,87.101 43.880 C 87.366 44.016,87.831 44.180,88.135 44.245 C 88.888 44.408,92.379 46.117,93.584 46.914 C 96.131 48.598,99.883 52.694,100.664 54.643 C 100.807 54.999,101.060 55.263,101.356 55.366 C 102.022 55.599,102.012 55.604,102.486 54.789 C 103.959 52.255,107.112 48.532,108.031 48.240 C 108.197 48.187,108.333 48.081,108.333 48.004 C 108.333 47.559,113.816 44.498,115.016 44.273 C 115.346 44.212,115.908 44.020,116.266 43.849 C 116.624 43.677,117.577 43.424,118.384 43.287 C 119.191 43.150,119.903 42.986,119.966 42.923 C 120.208 42.681,120.043 40.900,119.710 40.167 C 119.523 39.754,119.318 39.100,119.255 38.713 C 119.191 38.326,118.921 37.688,118.656 37.296 C 118.390 36.904,118.171 36.518,118.170 36.438 C 118.124 34.260,111.280 28.304,107.992 27.582 C 107.683 27.514,107.164 27.320,106.840 27.151 C 105.632 26.521,100.312 26.274,97.833 26.732 M76.583 47.655 C 76.308 47.721,75.933 47.855,75.750 47.951 C 75.567 48.048,75.021 48.210,74.537 48.313 C 70.479 49.170,64.239 55.244,63.157 59.392 C 63.057 59.772,62.834 60.383,62.660 60.750 C 61.771 62.625,61.771 69.401,62.660 71.158 C 62.825 71.484,63.014 72.001,63.080 72.308 C 63.510 74.299,66.368 78.443,68.394 80.012 C 69.036 80.510,69.686 81.037,69.840 81.184 C 69.993 81.331,70.335 81.564,70.601 81.702 C 70.866 81.840,71.686 82.296,72.423 82.716 C 73.243 83.184,74.228 83.586,74.963 83.753 C 75.623 83.903,76.206 84.095,76.258 84.180 C 76.310 84.264,76.796 84.333,77.337 84.333 C 78.518 84.333,78.569 84.268,78.908 82.329 C 79.037 81.586,79.216 80.890,79.305 80.781 C 79.394 80.672,79.555 80.246,79.663 79.833 C 79.844 79.139,80.601 77.362,81.047 76.583 C 81.153 76.400,81.396 75.950,81.587 75.583 C 82.186 74.439,82.855 73.455,83.768 72.376 C 84.253 71.803,84.709 71.240,84.783 71.123 C 85.289 70.321,89.374 67.246,90.635 66.718 C 91.457 66.374,91.351 65.579,90.417 65.095 C 89.584 64.663,88.405 63.908,87.750 63.386 C 87.475 63.167,86.995 62.785,86.683 62.536 C 85.959 61.959,83.667 59.633,83.667 59.476 C 83.667 59.411,83.535 59.226,83.375 59.066 C 83.003 58.694,81.667 56.664,81.667 56.472 C 81.667 56.392,81.484 56.047,81.260 55.705 C 81.037 55.363,80.804 54.880,80.744 54.632 C 80.683 54.384,80.529 54.093,80.401 53.987 C 80.273 53.880,80.016 53.296,79.830 52.688 C 79.644 52.081,79.387 51.358,79.260 51.083 C 79.133 50.808,78.982 50.208,78.924 49.750 C 78.655 47.610,78.255 47.251,76.583 47.655 M83.944 47.629 C 82.854 47.871,83.680 51.947,85.251 54.083 C 85.453 54.358,85.672 54.751,85.736 54.956 C 86.124 56.183,90.350 60.355,92.012 61.152 C 92.418 61.347,92.862 61.577,93.000 61.663 C 94.607 62.674,97.921 63.532,98.572 63.106 C 99.977 62.186,97.388 56.395,93.972 52.815 C 93.275 52.086,90.825 50.167,90.590 50.167 C 90.473 50.167,90.199 50.026,89.980 49.854 C 89.277 49.301,87.598 48.493,86.661 48.257 C 86.160 48.131,85.412 47.923,85.000 47.794 C 84.587 47.666,84.112 47.591,83.944 47.629 M125.059 47.666 C 124.568 47.864,124.531 47.949,124.252 49.528 C 123.842 51.851,123.068 53.842,121.308 57.099 C 121.065 57.549,120.477 58.367,120.002 58.917 C 119.526 59.467,118.825 60.280,118.444 60.725 C 117.449 61.884,114.859 63.999,113.722 64.581 C 111.821 65.554,111.612 66.195,112.958 66.922 C 114.043 67.509,114.846 68.011,115.427 68.469 C 117.091 69.778,118.060 70.678,118.917 71.712 C 119.192 72.044,119.699 72.642,120.045 73.040 C 122.018 75.319,123.770 79.467,124.415 83.388 C 124.595 84.484,125.642 84.673,127.583 83.960 C 127.950 83.825,128.550 83.661,128.917 83.595 C 129.283 83.529,129.771 83.352,130.000 83.201 C 130.229 83.049,130.754 82.753,131.167 82.543 C 136.277 79.933,140.444 74.343,140.917 69.463 C 140.973 68.887,141.098 67.902,141.194 67.272 C 141.365 66.164,141.286 64.978,140.845 62.000 C 140.522 59.819,138.657 55.875,137.087 54.053 C 136.562 53.444,135.446 52.319,135.259 52.210 C 135.139 52.140,134.650 51.746,134.172 51.333 C 133.694 50.921,132.954 50.383,132.527 50.139 C 130.866 49.188,129.161 48.333,128.924 48.333 C 128.788 48.333,128.103 48.146,127.401 47.917 C 126.051 47.476,125.638 47.432,125.059 47.666 M117.833 47.900 C 117.604 48.025,117.079 48.184,116.667 48.252 C 115.976 48.365,114.559 49.033,112.655 50.140 C 108.813 52.376,105.187 57.420,104.464 61.534 C 104.137 63.396,104.574 63.607,107.292 62.899 C 108.415 62.606,111.686 60.991,112.426 60.363 C 112.715 60.118,113.132 59.767,113.351 59.584 C 115.854 57.499,116.728 56.432,118.199 53.667 C 118.370 53.346,118.653 52.845,118.829 52.553 C 119.004 52.261,119.199 51.736,119.261 51.386 C 119.324 51.036,119.520 50.427,119.696 50.032 C 119.904 49.566,120.000 49.038,119.967 48.532 L 119.917 47.750 119.083 47.711 C 118.618 47.689,118.066 47.773,117.833 47.900 M314.500 50.898 C 315.473 51.072,316.553 51.404,317.300 51.758 C 317.970 52.074,318.579 52.333,318.653 52.333 C 319.379 52.333,321.923 55.670,322.422 57.276 C 323.216 59.831,323.076 60.000,320.167 60.000 C 317.744 60.000,317.621 59.943,317.256 58.639 C 316.973 57.627,316.205 56.517,315.487 56.083 C 315.335 55.992,315.023 55.783,314.793 55.620 C 314.274 55.250,312.812 55.002,311.148 55.001 C 308.408 54.999,307.168 55.565,306.324 57.204 C 304.980 59.814,306.748 61.878,311.234 62.936 C 317.893 64.506,319.545 65.142,321.298 66.805 C 323.124 68.538,324.209 71.742,323.677 73.833 C 323.201 75.706,323.000 76.232,322.605 76.644 C 322.364 76.896,322.167 77.158,322.167 77.228 C 322.167 77.297,321.657 77.865,321.033 78.490 C 317.030 82.501,306.925 82.705,302.715 78.859 C 301.892 78.107,300.500 76.392,300.500 76.130 C 300.500 76.059,300.281 75.532,300.014 74.959 C 299.557 73.980,299.419 73.153,299.478 71.735 C 299.509 71.016,300.014 70.833,301.966 70.836 C 304.051 70.839,304.279 70.962,304.752 72.333 C 305.473 74.423,305.815 74.910,307.449 76.175 C 308.036 76.629,311.240 77.417,312.250 77.355 C 316.455 77.097,318.678 75.111,318.249 71.993 C 318.061 70.626,316.629 69.411,314.597 68.894 C 314.131 68.776,313.000 68.490,312.083 68.259 C 311.167 68.029,310.054 67.720,309.610 67.574 C 309.167 67.429,308.232 67.159,307.533 66.976 C 306.834 66.793,306.072 66.540,305.839 66.414 C 305.607 66.287,305.079 66.038,304.667 65.861 C 301.123 64.334,299.391 59.436,301.161 55.944 C 302.419 53.461,305.146 51.456,307.890 50.996 C 308.455 50.902,309.179 50.756,309.500 50.672 C 310.318 50.457,312.629 50.562,314.500 50.898 M191.194 51.542 C 194.996 52.460,197.000 54.975,197.000 58.829 C 197.000 60.817,195.800 63.121,194.269 64.073 C 193.984 64.250,193.725 64.413,193.694 64.434 C 193.531 64.548,194.510 65.587,195.114 65.942 C 195.930 66.422,196.884 67.431,197.252 68.205 C 197.395 68.505,197.625 68.954,197.763 69.203 C 198.158 69.918,198.351 72.200,198.162 73.914 C 197.710 78.010,194.697 80.399,189.405 80.858 C 185.870 81.164,174.262 80.971,173.851 80.599 L 173.500 80.282 173.517 66.349 C 173.534 51.655,173.532 51.706,174.174 51.374 C 174.832 51.033,189.694 51.179,191.194 51.542 M216.363 51.375 C 216.869 51.781,217.856 54.001,218.752 56.750 C 218.872 57.117,219.154 57.829,219.380 58.333 C 219.606 58.837,219.840 59.479,219.901 59.759 C 219.962 60.039,220.197 60.633,220.423 61.079 C 220.649 61.525,220.833 61.993,220.833 62.119 C 220.833 62.245,221.021 62.701,221.250 63.131 C 221.479 63.562,221.667 64.006,221.667 64.119 C 221.667 64.232,221.861 64.757,222.099 65.287 C 222.531 66.249,222.745 66.812,223.572 69.167 C 223.813 69.854,224.154 70.727,224.331 71.107 C 224.507 71.486,224.703 72.011,224.767 72.273 C 224.903 72.829,225.695 74.863,226.268 76.130 C 226.487 76.614,226.667 77.101,226.667 77.213 C 226.667 77.325,226.882 77.829,227.144 78.333 C 228.270 80.502,227.995 80.890,225.275 80.974 C 222.677 81.055,221.955 80.589,221.594 78.601 C 221.529 78.243,221.372 77.793,221.245 77.599 C 221.118 77.405,220.857 76.759,220.665 76.165 C 219.683 73.116,219.849 73.188,213.750 73.180 C 207.905 73.173,207.539 73.294,206.918 75.443 C 206.251 77.751,205.439 79.836,205.005 80.356 L 204.537 80.917 202.538 80.972 C 199.723 81.050,199.412 80.674,200.415 78.417 C 200.618 77.958,200.879 77.283,200.993 76.917 C 201.308 75.905,202.312 73.304,202.568 72.833 C 202.693 72.604,202.849 72.154,202.915 71.833 C 202.982 71.512,203.210 70.912,203.422 70.500 C 203.634 70.087,203.899 69.450,204.009 69.083 C 204.120 68.717,204.278 68.331,204.361 68.226 C 204.444 68.121,204.690 67.521,204.907 66.892 C 205.124 66.264,205.576 65.037,205.912 64.167 C 206.249 63.296,206.656 62.171,206.818 61.667 C 206.980 61.163,207.249 60.487,207.416 60.167 C 207.582 59.846,207.814 59.246,207.930 58.833 C 208.182 57.943,208.858 56.245,209.426 55.081 C 209.650 54.621,209.833 54.143,209.833 54.018 C 209.833 53.726,210.785 51.839,211.125 51.458 C 211.455 51.089,215.917 51.018,216.363 51.375 M235.803 51.401 C 236.240 51.627,237.500 53.266,237.500 53.608 C 237.500 53.700,237.681 53.946,237.903 54.154 C 238.125 54.362,238.400 54.769,238.514 55.058 C 238.627 55.347,238.849 55.733,239.005 55.917 C 239.318 56.282,240.838 58.753,241.504 59.977 C 241.962 60.818,243.459 63.165,243.964 63.833 C 244.137 64.063,244.792 65.112,245.419 66.167 C 246.046 67.221,246.941 68.683,247.407 69.417 C 247.874 70.150,248.362 70.960,248.493 71.216 C 248.789 71.796,249.352 71.769,249.518 71.167 C 249.582 70.938,249.641 66.700,249.650 61.749 C 249.671 50.471,249.497 51.177,252.250 51.177 C 254.055 51.177,254.366 51.292,254.660 52.066 C 254.861 52.594,254.905 79.973,254.706 80.260 C 254.286 80.865,253.755 81.000,251.802 81.000 C 249.051 81.000,248.859 80.880,247.327 78.199 C 247.186 77.952,246.867 77.433,246.619 77.045 C 246.370 76.657,246.167 76.296,246.167 76.242 C 246.167 76.188,245.979 75.899,245.750 75.598 C 245.521 75.298,245.333 74.997,245.333 74.931 C 245.333 74.864,245.108 74.483,244.833 74.083 C 244.558 73.684,244.333 73.306,244.333 73.244 C 244.333 73.182,244.140 72.902,243.904 72.622 C 243.668 72.341,243.360 71.824,243.220 71.473 C 243.079 71.121,242.898 70.833,242.819 70.833 C 242.739 70.833,242.521 70.552,242.335 70.208 C 242.149 69.865,241.660 69.058,241.248 68.417 C 240.836 67.775,240.388 67.025,240.252 66.750 C 240.117 66.475,239.708 65.800,239.345 65.250 C 238.982 64.700,238.579 64.025,238.449 63.750 C 238.319 63.475,238.052 63.107,237.856 62.933 C 237.660 62.758,237.500 62.533,237.500 62.433 C 237.500 62.332,237.238 61.956,236.919 61.598 C 236.600 61.239,236.293 60.803,236.238 60.630 C 236.098 60.187,235.770 60.353,235.645 60.930 C 235.587 61.198,235.531 65.556,235.520 70.614 C 235.508 75.884,235.433 79.987,235.344 80.223 C 235.111 80.834,234.229 81.059,232.458 80.958 C 230.175 80.828,230.417 82.591,230.417 66.063 L 230.417 51.804 230.810 51.485 C 231.317 51.074,235.050 51.012,235.803 51.401 M265.869 51.542 C 266.029 51.822,266.095 53.326,266.128 57.500 C 266.152 60.571,266.210 63.252,266.256 63.458 C 266.446 64.309,266.068 64.653,275.917 54.656 C 279.543 50.976,279.207 51.168,282.010 51.167 C 285.991 51.166,286.000 51.143,279.752 57.359 C 273.709 63.371,273.884 62.999,275.842 65.667 C 276.212 66.171,276.698 66.846,276.922 67.167 C 277.147 67.487,277.475 67.938,277.652 68.167 C 278.110 68.758,283.075 75.745,284.137 77.292 C 284.625 78.002,285.134 78.706,285.270 78.855 C 286.756 80.498,286.277 80.917,282.910 80.917 L 280.355 80.917 279.831 80.417 C 279.543 80.142,278.989 79.429,278.601 78.833 C 277.698 77.448,277.436 77.067,276.825 76.250 C 276.404 75.686,275.666 74.596,273.570 71.435 C 273.394 71.170,273.081 70.720,272.874 70.435 C 272.668 70.150,272.303 69.624,272.065 69.267 C 270.540 66.982,270.208 66.997,267.792 69.462 L 266.167 71.120 266.163 75.268 C 266.159 79.061,266.052 80.503,265.751 80.805 C 265.411 81.147,261.574 81.025,261.246 80.662 C 260.758 80.123,260.726 52.360,261.212 51.618 C 261.638 50.968,265.506 50.905,265.869 51.542 M294.355 51.442 C 294.706 51.866,294.783 80.110,294.434 80.588 C 294.148 80.979,290.652 81.182,290.021 80.844 C 289.349 80.485,289.324 79.901,289.371 65.711 C 289.426 49.383,289.095 51.167,292.067 51.167 C 293.779 51.167,294.164 51.213,294.355 51.442 M349.763 51.515 C 349.997 51.772,350.095 52.184,350.141 53.098 C 350.280 55.852,350.312 55.833,345.343 55.833 C 341.408 55.833,341.349 55.839,341.093 56.204 C 340.864 56.530,340.833 57.973,340.828 68.412 C 340.823 78.569,340.788 80.296,340.577 80.574 C 340.142 81.150,336.564 81.183,335.907 80.617 L 335.417 80.196 335.371 68.357 L 335.325 56.517 334.890 56.175 C 334.481 55.854,334.232 55.833,330.769 55.831 C 326.486 55.828,326.445 55.821,326.073 55.037 C 325.653 54.153,325.822 51.881,326.339 51.462 C 326.958 50.960,349.307 51.011,349.763 51.515 M179.432 55.817 C 178.984 56.312,178.849 57.276,178.841 60.039 L 178.833 62.495 179.314 63.032 L 179.794 63.570 182.939 63.637 C 189.500 63.778,191.486 62.863,191.530 59.678 C 191.559 57.578,191.020 56.654,189.338 55.921 C 188.139 55.399,179.889 55.312,179.432 55.817 M213.167 57.916 C 213.075 58.157,213.000 58.411,213.000 58.479 C 213.000 58.548,212.806 59.086,212.568 59.677 C 212.330 60.267,212.037 61.087,211.917 61.500 C 211.553 62.749,210.667 65.207,210.315 65.944 C 209.013 68.673,209.366 69.000,213.620 69.000 C 218.034 69.000,218.293 68.812,217.259 66.355 C 217.035 65.822,216.761 65.018,216.649 64.568 C 216.538 64.118,216.309 63.489,216.140 63.169 C 215.971 62.850,215.833 62.454,215.833 62.290 C 215.833 62.127,215.621 61.524,215.361 60.951 C 215.101 60.377,214.836 59.685,214.772 59.413 C 214.567 58.543,214.299 58.000,214.075 58.000 C 213.955 58.000,213.739 57.882,213.596 57.738 C 213.358 57.501,213.319 57.517,213.167 57.916 M179.388 67.983 C 178.772 68.560,178.555 75.789,179.136 76.369 C 179.302 76.535,180.513 76.583,184.467 76.582 L 189.583 76.580 190.599 76.048 C 193.985 74.275,193.928 69.615,190.500 68.034 C 189.485 67.566,179.880 67.522,179.388 67.983 M96.461 68.924 C 94.037 69.589,90.985 71.209,89.570 72.581 C 89.379 72.765,88.854 73.262,88.403 73.685 C 87.952 74.108,87.433 74.667,87.250 74.929 C 87.067 75.190,86.676 75.663,86.382 75.979 C 86.088 76.295,85.803 76.757,85.749 77.006 C 85.694 77.255,85.466 77.631,85.241 77.841 C 85.017 78.052,84.833 78.298,84.833 78.387 C 84.833 78.477,84.651 78.933,84.429 79.400 C 82.682 83.070,83.057 84.799,85.429 84.020 C 86.022 83.826,86.637 83.664,86.795 83.662 C 87.133 83.656,88.944 82.773,89.955 82.121 C 90.343 81.871,90.730 81.667,90.815 81.667 C 90.900 81.667,91.656 81.094,92.496 80.393 C 95.505 77.882,97.765 74.472,98.680 71.062 L 99.141 69.342 98.641 68.921 C 98.366 68.689,98.091 68.505,98.029 68.512 C 97.967 68.519,97.262 68.704,96.461 68.924 M104.539 68.942 C 103.788 69.974,106.298 76.240,108.111 77.856 C 108.279 78.005,108.754 78.491,109.167 78.935 C 111.155 81.075,114.641 83.225,116.986 83.758 C 117.633 83.905,118.206 84.095,118.258 84.180 C 118.427 84.453,119.787 84.362,119.899 84.070 C 120.097 83.552,119.995 82.477,119.689 81.868 C 119.518 81.528,119.325 80.950,119.260 80.583 C 118.941 78.778,115.897 74.388,113.772 72.669 C 113.210 72.214,112.538 71.663,112.278 71.444 C 111.399 70.703,108.351 69.317,106.694 68.905 C 104.728 68.415,104.925 68.412,104.539 68.942 M101.346 76.544 C 101.124 76.657,100.748 77.125,100.509 77.583 C 99.953 78.654,99.374 79.494,98.472 80.542 C 97.535 81.630,95.298 83.833,95.130 83.833 C 95.059 83.833,94.862 83.972,94.692 84.141 C 94.251 84.582,93.061 85.364,92.012 85.903 C 91.514 86.159,90.989 86.429,90.845 86.504 C 88.854 87.538,85.669 88.667,84.739 88.667 C 83.891 88.667,83.347 89.010,83.233 89.616 C 83.018 90.764,84.440 94.940,85.508 96.298 C 85.687 96.526,85.833 96.785,85.833 96.875 C 85.833 96.966,86.040 97.280,86.292 97.575 C 86.544 97.869,87.013 98.434,87.333 98.830 C 88.488 100.256,90.152 101.763,91.333 102.454 C 92.870 103.352,94.327 104.065,95.083 104.289 C 95.542 104.425,96.199 104.681,96.545 104.857 C 98.125 105.662,105.039 105.650,106.727 104.840 C 107.106 104.659,107.842 104.392,108.361 104.247 C 108.880 104.103,109.396 103.875,109.506 103.742 C 109.617 103.609,109.795 103.500,109.903 103.500 C 110.232 103.500,112.395 102.139,113.737 101.088 C 115.088 100.030,116.740 98.061,117.656 96.417 C 117.962 95.867,118.419 95.079,118.671 94.667 C 118.922 94.254,119.181 93.617,119.246 93.250 C 119.311 92.883,119.498 92.283,119.663 91.917 C 120.643 89.737,120.326 88.992,118.262 88.630 C 117.364 88.473,116.533 88.263,116.414 88.165 C 116.296 88.066,115.723 87.849,115.141 87.683 C 114.559 87.516,113.784 87.219,113.419 87.023 C 113.054 86.827,112.709 86.667,112.652 86.667 C 112.411 86.667,109.192 84.734,108.583 84.223 C 105.697 81.801,103.431 79.139,102.400 76.958 C 102.080 76.280,101.958 76.232,101.346 76.544 " stroke="none" fill="#f3f3f3" fill-rule="evenodd"></path></g></svg>