<svg id="svg" version="1.1" xmlns="http://www.w3.org/2000/svg" xmlns:xlink="http://www.w3.org/1999/xlink" width="400" height="399.1031390134529" viewBox="0, 0, 400,399.1031390134529"><g id="svgg"><path id="path0" d="M193.014 62.549 C 190.255 62.790,182.696 63.899,181.238 64.277 C 180.469 64.477,177.977 65.109,175.700 65.684 C 173.424 66.258,171.088 66.916,170.511 67.146 C 169.933 67.376,169.102 67.710,168.663 67.889 C 168.224 68.067,167.415 68.335,166.866 68.485 C 166.317 68.634,164.880 69.203,163.673 69.749 C 162.465 70.295,160.758 71.028,159.880 71.378 C 154.272 73.611,146.302 78.658,139.521 84.269 C 114.657 104.845,105.614 139.085,116.441 171.657 C 117.988 176.310,119.933 181.334,121.824 185.557 C 122.446 186.944,122.954 188.166,122.954 188.271 C 122.954 188.803,131.273 204.944,134.144 209.980 C 135.958 213.164,137.761 216.397,138.150 217.166 L 138.856 218.563 137.592 218.851 C 136.896 219.009,121.507 219.141,103.393 219.144 C 85.279 219.146,70.145 219.151,69.760 219.155 C 68.332 219.169,70.334 222.405,84.803 243.473 C 89.446 250.234,89.737 248.423,82.231 259.481 C 70.242 277.143,68.992 279.082,69.214 279.660 C 69.395 280.133,70.608 280.240,75.812 280.240 C 79.589 280.240,82.288 280.401,82.433 280.635 C 82.702 281.071,81.854 282.198,69.072 298.403 C 63.041 306.049,59.792 310.527,58.790 312.575 C 54.125 322.108,60.070 333.720,70.643 335.725 C 74.452 336.448,326.966 336.252,330.052 335.525 C 337.657 333.732,342.598 327.640,342.678 319.960 C 342.743 313.583,341.986 312.130,332.894 301.198 C 323.554 289.965,316.570 281.214,316.569 280.739 C 316.567 280.353,318.788 280.240,326.347 280.240 C 337.116 280.240,337.255 280.202,335.389 277.798 C 334.982 277.275,332.348 273.433,329.536 269.261 C 326.723 265.090,322.654 259.061,320.494 255.864 C 318.334 252.667,316.567 249.837,316.567 249.575 C 316.567 249.313,318.781 245.821,321.486 241.815 C 332.386 225.676,335.077 221.729,335.591 221.126 C 336.347 220.239,336.259 219.162,335.429 219.157 C 335.045 219.155,318.819 219.157,299.372 219.162 C 264.973 219.170,261.477 219.088,261.477 218.273 C 261.477 218.059,263.196 214.893,265.297 211.237 C 275.250 193.917,282.711 176.492,286.431 161.876 C 288.502 153.738,288.599 137.147,286.625 128.343 C 281.865 107.104,273.287 93.338,257.131 81.009 C 240.034 67.963,214.668 60.659,193.014 62.549 M209.581 96.440 C 235.155 100.941,249.859 113.959,254.184 135.928 C 254.995 140.046,255.085 150.251,254.337 153.293 C 252.823 159.457,250.313 167.017,248.308 171.457 C 239.985 189.881,223.227 218.329,220.359 218.902 C 218.699 219.234,181.033 219.152,179.448 218.812 C 177.921 218.485,170.380 206.796,161.260 190.619 C 156.588 182.331,150.714 169.503,148.351 162.426 C 138.321 132.389,152.806 106.010,183.697 98.058 C 193.876 95.438,201.263 94.976,209.581 96.440 M195.409 123.555 C 171.352 129.732,170.341 162.306,194.004 168.837 C 213.015 174.083,229.435 154.329,220.992 136.368 C 216.530 126.875,204.990 121.095,195.409 123.555 M309.512 226.846 C 310.214 227.560,311.279 228.547,311.881 229.039 C 314.130 230.882,313.549 232.847,309.542 236.955 C 307.654 238.890,305.952 240.888,305.759 241.394 C 305.567 241.901,305.174 242.315,304.886 242.315 C 304.599 242.315,304.011 242.876,303.579 243.562 C 303.148 244.247,302.485 245.280,302.107 245.857 C 301.729 246.434,301.030 247.625,300.553 248.503 C 300.076 249.381,298.608 251.806,297.290 253.892 C 295.973 255.978,294.135 259.122,293.205 260.878 C 286.008 274.477,285.543 274.945,281.358 272.807 C 277.163 270.663,277.187 267.456,281.457 259.420 C 285.615 251.594,285.319 252.556,284.107 250.807 C 283.527 249.970,282.583 248.129,282.008 246.715 C 281.054 244.368,280.705 242.971,279.984 238.629 C 279.600 236.316,279.214 236.174,274.758 236.712 C 267.843 237.548,267.744 237.578,266.963 239.128 C 265.884 241.268,263.872 245.892,263.872 246.231 C 263.872 246.505,260.550 254.119,258.702 258.084 C 256.523 262.756,256.475 265.558,258.546 267.187 C 260.773 268.939,259.195 272.501,256.002 272.930 C 251.362 273.552,247.481 267.592,248.044 260.709 C 248.216 258.608,248.793 256.344,249.933 253.293 C 250.836 250.878,251.807 248.184,252.090 247.305 C 252.374 246.427,253.164 244.636,253.848 243.324 C 255.916 239.355,256.145 239.510,248.355 239.623 L 241.620 239.721 241.374 242.616 C 240.719 250.327,235.474 253.545,218.035 256.936 C 214.161 257.690,214.212 257.620,213.833 262.675 C 213.358 268.995,211.969 271.428,208.376 272.225 C 205.656 272.828,204.208 272.419,203.572 270.867 C 203.390 270.423,202.870 269.521,202.416 268.862 C 201.476 267.497,201.553 266.093,202.837 261.185 C 203.804 257.490,203.787 256.663,202.709 254.834 C 200.652 251.348,203.047 243.190,206.637 241.452 C 207.502 241.034,207.969 240.266,208.793 237.910 C 211.826 229.243,217.026 225.708,226.275 226.026 C 231.788 226.215,234.475 227.126,236.781 229.588 C 238.444 231.364,238.811 231.458,239.575 230.309 C 240.193 229.377,240.320 229.358,248.703 228.947 C 255.349 228.621,258.151 228.188,259.086 227.342 C 259.876 226.627,260.790 226.591,262.496 227.208 C 263.524 227.579,264.928 227.501,269.710 226.808 C 283.451 224.816,288.434 226.683,289.786 234.331 C 290.625 239.083,291.092 240.719,291.608 240.719 C 292.232 240.719,294.885 237.541,295.862 235.623 C 296.953 233.483,303.227 227.182,305.126 226.321 C 307.420 225.279,308.045 225.354,309.512 226.846 M117.193 227.345 C 117.779 228.114,118.572 228.743,118.956 228.743 C 121.607 228.743,123.813 232.809,124.003 238.047 C 124.132 241.598,124.258 242.205,124.994 242.814 C 126.345 243.934,126.631 243.866,131.103 241.361 C 135.200 239.066,142.664 231.977,144.252 228.871 C 145.866 225.716,149.902 227.346,153.908 232.768 C 155.509 234.936,155.671 236.451,154.735 240.519 C 154.381 242.056,154.092 244.245,154.092 245.383 C 154.092 246.522,153.897 247.959,153.658 248.577 C 153.420 249.195,153.053 251.494,152.844 253.686 C 151.414 268.652,142.471 276.993,140.100 265.572 C 139.469 262.533,139.821 259.451,141.608 252.379 C 142.538 248.700,142.104 248.594,137.820 251.455 C 125.869 259.436,117.322 259.679,113.112 252.157 C 112.265 250.643,110.360 253.660,109.572 257.764 C 109.437 258.466,108.800 259.703,108.156 260.513 C 107.513 261.323,106.986 262.422,106.986 262.956 C 106.986 263.489,106.537 264.514,105.988 265.234 C 105.439 265.954,104.990 266.818,104.990 267.155 C 104.990 271.431,100.225 274.205,97.966 271.243 C 94.753 267.030,94.725 261.003,97.883 253.493 C 107.471 230.695,113.510 222.517,117.193 227.345 M183.293 227.534 C 186.729 228.487,187.945 229.230,188.217 230.544 C 188.330 231.090,188.534 232.031,188.670 232.635 C 188.806 233.239,189.057 234.810,189.228 236.128 C 189.609 239.072,191.012 245.647,191.635 247.405 C 192.042 248.556,192.263 248.703,193.590 248.703 C 194.579 248.703,195.331 248.973,195.808 249.501 C 196.206 249.940,196.734 250.299,196.983 250.299 C 197.232 250.299,198.052 250.814,198.806 251.444 L 200.176 252.588 199.248 253.939 C 198.738 254.682,197.523 255.900,196.549 256.646 L 194.778 258.002 195.046 261.302 C 195.521 267.156,191.450 272.238,186.275 272.253 C 185.090 272.257,182.834 270.676,182.834 269.842 C 182.834 269.428,182.295 268.476,181.637 267.726 C 180.036 265.902,180.117 265.293,182.038 264.717 C 183.762 264.201,185.069 262.675,184.672 261.641 C 184.399 260.930,182.022 261.005,179.042 261.820 C 174.779 262.985,172.050 262.377,170.430 259.901 C 169.178 257.987,166.798 261.424,165.695 266.742 C 164.745 271.317,159.950 273.435,157.005 270.580 C 156.281 269.879,155.689 269.061,155.689 268.764 C 155.689 268.467,155.423 267.711,155.099 267.084 C 154.302 265.542,155.121 263.093,159.354 254.363 C 161.130 250.701,162.969 246.717,163.440 245.509 C 166.259 238.286,168.884 234.465,171.292 234.080 C 173.505 233.726,175.075 232.567,177.592 229.428 C 178.774 227.953,179.901 226.747,180.095 226.747 C 180.290 226.747,181.729 227.101,183.293 227.534 M220.443 238.989 C 218.364 240.014,216.329 243.608,217.286 244.564 C 217.863 245.142,228.685 242.062,230.215 240.885 C 232.631 239.028,223.829 237.320,220.443 238.989 M177.341 245.010 C 172.660 251.004,172.462 252.375,176.330 252.018 C 181.484 251.542,181.669 251.290,180.379 246.507 C 179.435 243.008,179.052 242.820,177.341 245.010 M184.581 283.402 C 193.900 294.667,206.624 294.495,215.812 282.979 L 218.002 280.234 245.398 280.337 L 272.794 280.439 281.495 291.018 C 286.280 296.836,290.154 301.866,290.102 302.196 C 289.971 303.037,109.191 303.317,108.869 302.477 C 108.759 302.191,109.683 300.679,110.922 299.116 C 112.160 297.553,113.892 295.339,114.770 294.195 C 115.649 293.051,117.265 290.992,118.363 289.619 C 119.461 288.245,121.434 285.738,122.748 284.047 C 124.062 282.356,125.410 280.813,125.742 280.618 C 126.079 280.421,138.702 280.258,154.156 280.252 L 181.964 280.240 184.581 283.402 " stroke="none" fill="#3e6665" fill-rule="evenodd"></path><path id="path1" d="M0.000 199.601 L 0.000 399.202 200.000 399.202 L 400.000 399.202 400.000 199.601 L 400.000 0.000 200.000 0.000 L 0.000 0.000 0.000 199.601 M208.383 62.683 C 248.958 66.265,278.214 90.816,286.625 128.343 C 288.059 134.741,288.511 149.472,287.481 156.287 C 285.417 169.956,276.910 191.028,265.297 211.237 C 263.196 214.893,261.477 218.059,261.477 218.273 C 261.477 219.088,264.973 219.170,299.372 219.162 C 318.819 219.157,335.045 219.155,335.429 219.157 C 336.259 219.162,336.347 220.239,335.591 221.126 C 335.077 221.729,332.386 225.676,321.486 241.815 C 318.781 245.821,316.567 249.313,316.567 249.575 C 316.567 249.837,318.334 252.667,320.494 255.864 C 322.654 259.061,326.723 265.090,329.536 269.261 C 332.348 273.433,334.982 277.275,335.389 277.798 C 337.255 280.202,337.116 280.240,326.347 280.240 C 318.788 280.240,316.567 280.353,316.569 280.739 C 316.570 281.214,323.554 289.965,332.894 301.198 C 341.986 312.130,342.743 313.583,342.678 319.960 C 342.598 327.640,337.657 333.732,330.052 335.525 C 326.966 336.252,74.452 336.448,70.643 335.725 C 60.070 333.720,54.125 322.108,58.790 312.575 C 59.792 310.527,63.041 306.049,69.072 298.403 C 81.854 282.198,82.702 281.071,82.433 280.635 C 82.288 280.401,79.589 280.240,75.812 280.240 C 70.608 280.240,69.395 280.133,69.214 279.660 C 68.992 279.082,70.242 277.143,82.231 259.481 C 89.737 248.423,89.446 250.234,84.803 243.473 C 70.334 222.405,68.332 219.169,69.760 219.155 C 70.145 219.151,85.279 219.146,103.393 219.144 C 121.507 219.141,136.896 219.009,137.592 218.851 L 138.856 218.563 138.150 217.166 C 137.761 216.397,135.958 213.164,134.144 209.980 C 131.273 204.944,122.954 188.803,122.954 188.271 C 122.954 188.166,122.446 186.944,121.824 185.557 C 110.103 159.379,108.781 136.806,117.646 114.172 C 124.636 96.324,142.377 78.347,159.880 71.378 C 160.758 71.028,162.465 70.295,163.673 69.749 C 164.880 69.203,166.317 68.634,166.866 68.485 C 167.415 68.335,168.224 68.067,168.663 67.889 C 169.102 67.710,169.933 67.376,170.511 67.146 C 171.088 66.916,173.424 66.258,175.700 65.684 C 177.977 65.109,180.469 64.477,181.238 64.277 C 182.696 63.899,190.255 62.790,193.014 62.549 C 196.590 62.237,204.066 62.302,208.383 62.683 M196.607 95.655 C 171.016 98.144,152.530 111.340,147.178 130.938 C 142.525 147.975,146.343 164.158,161.260 190.619 C 170.380 206.796,177.921 218.485,179.448 218.812 C 181.033 219.152,218.699 219.234,220.359 218.902 C 223.227 218.329,239.985 189.881,248.308 171.457 C 250.313 167.017,252.823 159.457,254.337 153.293 C 256.692 143.708,253.436 127.566,247.233 118.072 C 238.157 104.180,214.887 93.876,196.607 95.655 M205.266 123.740 C 228.516 129.599,229.444 161.690,206.566 168.679 C 194.117 172.482,180.850 164.929,177.439 152.096 C 173.053 135.591,188.764 119.581,205.266 123.740 M305.126 226.321 C 303.227 227.182,296.953 233.483,295.862 235.623 C 294.885 237.541,292.232 240.719,291.608 240.719 C 291.092 240.719,290.625 239.083,289.786 234.331 C 288.434 226.683,283.451 224.816,269.710 226.808 C 264.928 227.501,263.524 227.579,262.496 227.208 C 260.790 226.591,259.876 226.627,259.086 227.342 C 258.151 228.188,255.349 228.621,248.703 228.947 C 240.320 229.358,240.193 229.377,239.575 230.309 C 238.811 231.458,238.444 231.364,236.781 229.588 C 234.475 227.126,231.788 226.215,226.275 226.026 C 217.026 225.708,211.826 229.243,208.793 237.910 C 207.969 240.266,207.502 241.034,206.637 241.452 C 203.047 243.190,200.652 251.348,202.709 254.834 C 203.787 256.663,203.804 257.490,202.837 261.185 C 201.553 266.093,201.476 267.497,202.416 268.862 C 202.870 269.521,203.390 270.423,203.572 270.867 C 204.208 272.419,205.656 272.828,208.376 272.225 C 211.969 271.428,213.358 268.995,213.833 262.675 C 214.212 257.620,214.161 257.690,218.035 256.936 C 235.474 253.545,240.719 250.327,241.374 242.616 L 241.620 239.721 248.355 239.623 C 256.145 239.510,255.916 239.355,253.848 243.324 C 253.164 244.636,252.374 246.427,252.090 247.305 C 251.807 248.184,250.836 250.878,249.933 253.293 C 246.693 261.962,247.537 268.723,252.236 271.729 C 254.786 273.360,256.851 273.390,258.522 271.819 C 259.839 270.582,259.852 268.214,258.546 267.187 C 256.475 265.558,256.523 262.756,258.702 258.084 C 260.550 254.119,263.872 246.505,263.872 246.231 C 263.872 245.892,265.884 241.268,266.963 239.128 C 267.744 237.578,267.843 237.548,274.758 236.712 C 279.214 236.174,279.600 236.316,279.984 238.629 C 280.705 242.971,281.054 244.368,282.008 246.715 C 282.583 248.129,283.527 249.970,284.107 250.807 C 285.319 252.556,285.615 251.594,281.457 259.420 C 277.187 267.456,277.163 270.663,281.358 272.807 C 285.543 274.945,286.008 274.477,293.205 260.878 C 294.135 259.122,295.973 255.978,297.290 253.892 C 298.608 251.806,300.076 249.381,300.553 248.503 C 301.030 247.625,301.729 246.434,302.107 245.857 C 302.485 245.280,303.148 244.247,303.579 243.562 C 304.011 242.876,304.599 242.315,304.886 242.315 C 305.174 242.315,305.567 241.901,305.759 241.394 C 305.952 240.888,307.654 238.890,309.542 236.955 C 313.549 232.847,314.130 230.882,311.881 229.039 C 311.279 228.547,310.214 227.560,309.512 226.846 C 308.045 225.354,307.420 225.279,305.126 226.321 M112.043 227.246 C 108.569 230.326,98.035 250.909,95.851 258.882 C 94.393 264.207,97.159 272.655,100.361 272.655 C 102.409 272.655,104.990 269.588,104.990 267.155 C 104.990 266.818,105.439 265.954,105.988 265.234 C 106.537 264.514,106.986 263.489,106.986 262.956 C 106.986 262.422,107.513 261.323,108.156 260.513 C 108.800 259.703,109.437 258.466,109.572 257.764 C 110.360 253.660,112.265 250.643,113.112 252.157 C 117.322 259.679,125.869 259.436,137.820 251.455 C 142.104 248.594,142.538 248.700,141.608 252.379 C 139.297 261.527,139.253 265.888,141.440 269.100 C 142.887 271.223,143.314 271.310,145.928 270.016 C 149.266 268.364,152.075 261.731,152.844 253.686 C 153.053 251.494,153.420 249.195,153.658 248.577 C 153.897 247.959,154.092 246.522,154.092 245.383 C 154.092 244.245,154.381 242.056,154.735 240.519 C 155.671 236.451,155.509 234.936,153.908 232.768 C 149.902 227.346,145.866 225.716,144.252 228.871 C 142.664 231.977,135.200 239.066,131.103 241.361 C 126.631 243.866,126.345 243.934,124.994 242.814 C 124.258 242.205,124.132 241.598,124.003 238.047 C 123.813 232.809,121.607 228.743,118.956 228.743 C 118.572 228.743,117.779 228.114,117.193 227.345 C 115.758 225.464,114.088 225.432,112.043 227.246 M177.592 229.428 C 175.075 232.567,173.505 233.726,171.292 234.080 C 168.884 234.465,166.259 238.286,163.440 245.509 C 162.969 246.717,161.130 250.701,159.354 254.363 C 155.121 263.093,154.302 265.542,155.099 267.084 C 155.423 267.711,155.689 268.467,155.689 268.764 C 155.689 269.061,156.281 269.879,157.005 270.580 C 159.950 273.435,164.745 271.317,165.695 266.742 C 166.798 261.424,169.178 257.987,170.430 259.901 C 172.050 262.377,174.779 262.985,179.042 261.820 C 182.022 261.005,184.399 260.930,184.672 261.641 C 185.069 262.675,183.762 264.201,182.038 264.717 C 180.117 265.293,180.036 265.902,181.637 267.726 C 182.295 268.476,182.834 269.428,182.834 269.842 C 182.834 270.676,185.090 272.257,186.275 272.253 C 191.450 272.238,195.521 267.156,195.046 261.302 L 194.778 258.002 196.549 256.646 C 197.523 255.900,198.738 254.682,199.248 253.939 L 200.176 252.588 198.806 251.444 C 198.052 250.814,197.232 250.299,196.983 250.299 C 196.734 250.299,196.206 249.940,195.808 249.501 C 195.331 248.973,194.579 248.703,193.590 248.703 C 192.263 248.703,192.042 248.556,191.635 247.405 C 191.012 245.647,189.609 239.072,189.228 236.128 C 189.057 234.810,188.806 233.239,188.670 232.635 C 188.534 232.031,188.330 231.090,188.217 230.544 C 187.920 229.113,182.859 226.747,180.095 226.747 C 179.901 226.747,178.774 227.953,177.592 229.428 M227.807 238.555 C 232.032 239.400,231.338 240.834,225.824 242.647 C 218.406 245.088,216.920 245.145,217.328 242.973 C 218.024 239.264,222.311 237.456,227.807 238.555 M179.517 244.012 C 180.021 244.791,180.911 248.357,180.978 249.868 C 181.048 251.453,180.697 251.615,176.330 252.018 C 172.903 252.335,172.713 251.966,174.688 248.849 C 177.699 244.097,178.835 242.958,179.517 244.012 M125.742 280.618 C 125.410 280.813,124.062 282.356,122.748 284.047 C 121.434 285.738,119.461 288.245,118.363 289.619 C 117.265 290.992,115.649 293.051,114.770 294.195 C 113.892 295.339,112.160 297.553,110.922 299.116 C 109.683 300.679,108.759 302.191,108.869 302.477 C 109.191 303.317,289.971 303.037,290.102 302.196 C 290.154 301.866,286.280 296.836,281.495 291.018 L 272.794 280.439 245.398 280.337 L 218.002 280.234 215.812 282.979 C 206.624 294.495,193.900 294.667,184.581 283.402 L 181.964 280.240 154.156 280.252 C 138.702 280.258,126.079 280.421,125.742 280.618 " stroke="none" fill="#dbe3d3" fill-rule="evenodd"></path></g></svg>