<svg id="svg" version="1.1" xmlns="http://www.w3.org/2000/svg" xmlns:xlink="http://www.w3.org/1999/xlink" width="400" height="401.83066361556064" viewBox="0, 0, 400,401.83066361556064"><g id="svgg"><path id="path0" d="M81.353 169.172 C 52.644 173.768,44.898 211.689,69.522 227.084 C 79.156 233.107,89.704 233.458,100.719 228.124 L 105.239 225.935 106.719 226.701 C 107.534 227.122,109.100 227.930,110.200 228.497 C 119.262 233.167,131.078 232.893,139.665 227.816 C 143.121 225.772,143.216 225.768,146.522 227.583 C 156.747 233.195,166.765 233.307,177.466 227.930 L 181.532 225.886 183.066 226.750 C 194.663 233.277,204.970 233.572,216.049 227.695 L 219.497 225.866 221.249 226.809 C 232.726 232.994,242.843 233.539,252.600 228.499 C 253.700 227.931,255.298 227.106,256.151 226.666 L 257.703 225.866 261.151 227.695 C 271.534 233.203,281.231 233.279,291.857 227.936 L 295.913 225.896 298.857 227.506 C 320.723 239.467,346.171 224.888,346.171 200.400 C 346.171 176.659,321.783 161.739,300.477 172.446 C 295.718 174.837,295.953 174.838,291.031 172.418 C 280.964 167.469,270.269 167.694,261.079 173.048 C 258.174 174.740,257.333 174.737,254.265 173.024 C 244.274 167.446,233.316 167.520,222.491 173.237 C 219.286 174.930,218.972 174.919,216.100 173.019 C 207.815 167.536,195.153 167.583,184.673 173.136 C 181.843 174.635,181.461 174.740,180.480 174.281 C 179.886 174.003,177.870 173.031,176.000 172.121 C 166.621 167.554,154.953 167.939,146.681 173.089 C 143.714 174.936,143.532 174.934,139.911 173.030 C 129.454 167.531,117.940 167.527,108.671 173.020 C 107.391 173.779,105.828 174.400,105.200 174.400 C 104.572 174.400,103.009 173.779,101.729 173.020 C 96.281 169.792,87.656 168.163,81.353 169.172 M317.497 191.027 C 318.764 191.857,319.368 193.513,318.832 194.689 C 318.295 195.868,317.567 195.842,316.400 194.600 C 314.788 192.884,313.194 193.544,313.742 195.701 C 313.868 196.195,314.874 198.026,315.976 199.769 C 318.894 204.380,319.478 206.358,318.599 208.658 C 317.238 212.222,312.830 212.524,311.038 209.176 C 309.468 206.244,311.791 203.968,313.464 206.800 C 314.639 208.789,316.420 208.120,315.859 205.899 C 315.734 205.405,314.964 203.920,314.146 202.600 C 310.853 197.280,310.015 194.215,311.231 191.941 C 312.209 190.115,315.396 189.650,317.497 191.027 M83.132 190.918 C 83.368 191.203,83.923 193.060,84.366 195.046 C 85.490 200.095,86.316 201.453,86.953 199.300 C 87.135 198.684,88.400 192.114,88.400 191.784 C 88.400 190.697,91.181 189.994,91.898 190.900 C 92.679 191.887,92.834 209.469,92.070 210.411 C 91.033 211.689,90.046 210.706,89.736 208.086 C 89.436 205.559,88.883 205.566,88.026 208.107 C 86.806 211.729,85.649 211.670,84.532 207.929 C 83.577 204.732,83.132 204.740,82.613 207.961 C 82.137 210.910,81.173 211.965,80.177 210.624 C 79.409 209.589,79.321 191.639,80.080 190.880 C 80.716 190.244,82.592 190.267,83.132 190.918 M127.589 190.987 C 128.350 191.904,127.883 192.546,125.967 193.211 L 124.200 193.826 124.200 196.010 C 124.200 198.141,124.236 198.211,125.700 198.900 C 127.608 199.798,127.740 201.053,125.992 201.663 C 123.187 202.641,123.269 208.400,126.088 208.400 C 127.992 208.400,129.288 210.374,127.767 210.957 C 126.355 211.499,122.109 211.214,121.549 210.539 C 120.634 209.436,120.488 191.969,121.387 191.070 C 122.275 190.182,126.869 190.120,127.589 190.987 M165.367 190.643 C 166.753 191.175,165.788 193.200,164.149 193.200 C 161.342 193.200,161.101 197.847,163.849 198.994 C 165.629 199.738,165.700 201.067,163.992 201.663 C 161.255 202.617,161.304 208.400,164.049 208.400 C 165.986 208.400,167.307 210.366,165.767 210.957 C 164.591 211.409,160.113 211.219,159.694 210.700 C 158.916 209.736,158.711 191.961,159.469 191.124 C 160.133 190.390,163.906 190.082,165.367 190.643 M204.358 190.949 C 204.839 191.529,204.564 192.800,203.957 192.800 C 202.279 192.800,202.000 194.163,202.000 202.351 C 202.000 210.848,201.743 211.989,200.066 210.934 C 199.492 210.572,199.372 209.401,199.200 202.428 L 199.000 194.341 197.696 193.270 C 195.282 191.288,196.190 190.400,200.631 190.400 C 202.916 190.400,204.039 190.566,204.358 190.949 M242.694 191.632 C 243.444 193.102,243.386 207.181,242.622 209.009 C 241.444 211.827,237.471 212.388,235.476 210.017 C 234.532 208.895,234.498 208.624,234.313 200.731 C 234.106 191.866,234.260 190.800,235.747 190.800 C 237.128 190.800,237.200 191.234,237.200 199.604 C 237.200 207.754,237.479 208.921,239.204 207.998 C 239.891 207.630,239.964 206.936,240.077 199.659 C 240.218 190.586,240.975 188.263,242.694 191.632 M279.027 190.986 C 282.905 192.606,282.476 200.316,278.400 202.258 C 275.696 203.546,275.600 203.709,275.600 206.987 C 275.600 210.564,274.806 211.827,273.200 210.807 C 272.276 210.220,272.564 191.633,273.508 190.900 C 274.381 190.223,277.311 190.269,279.027 190.986 M276.014 194.374 C 275.419 195.486,275.504 197.718,276.177 198.624 C 277.122 199.897,278.174 198.919,278.323 196.628 C 278.497 193.954,277.014 192.506,276.014 194.374 " stroke="none" fill="#ffffff" fill-rule="evenodd"></path><path id="path1" d="M0.000 200.800 L 0.000 401.600 200.000 401.600 L 400.000 401.600 400.000 200.800 L 400.000 0.000 200.000 0.000 L 0.000 0.000 0.000 200.800 M95.716 170.412 C 97.742 171.087,100.448 172.261,101.729 173.020 C 103.009 173.779,104.572 174.400,105.200 174.400 C 105.828 174.400,107.391 173.779,108.671 173.020 C 117.940 167.527,129.454 167.531,139.911 173.030 C 143.532 174.934,143.714 174.936,146.681 173.089 C 154.953 167.939,166.621 167.554,176.000 172.121 C 177.870 173.031,179.886 174.003,180.480 174.281 C 181.461 174.740,181.843 174.635,184.673 173.136 C 195.153 167.583,207.815 167.536,216.100 173.019 C 218.972 174.919,219.286 174.930,222.491 173.237 C 233.316 167.520,244.274 167.446,254.265 173.024 C 257.333 174.737,258.174 174.740,261.079 173.048 C 270.269 167.694,280.964 167.469,291.031 172.418 C 295.953 174.838,295.718 174.837,300.477 172.446 C 321.783 161.739,346.171 176.659,346.171 200.400 C 346.171 224.888,320.723 239.467,298.857 227.506 L 295.913 225.896 291.857 227.936 C 281.231 233.279,271.534 233.203,261.151 227.695 L 257.703 225.866 256.151 226.666 C 255.298 227.106,253.700 227.931,252.600 228.499 C 242.843 233.539,232.726 232.994,221.249 226.809 L 219.497 225.866 216.049 227.695 C 204.970 233.572,194.663 233.277,183.066 226.750 L 181.532 225.886 177.466 227.930 C 166.765 233.307,156.747 233.195,146.522 227.583 C 143.216 225.768,143.121 225.772,139.665 227.816 C 131.078 232.893,119.262 233.167,110.200 228.497 C 109.100 227.930,107.534 227.122,106.719 226.701 L 105.239 225.935 100.719 228.124 C 69.350 243.315,40.096 206.755,62.167 179.945 C 69.957 170.483,83.980 166.498,95.716 170.412 M312.931 190.568 C 309.580 192.066,309.961 195.839,314.146 202.600 C 314.964 203.920,315.734 205.405,315.859 205.899 C 316.420 208.120,314.639 208.789,313.464 206.800 C 311.791 203.968,309.468 206.244,311.038 209.176 C 312.830 212.524,317.238 212.222,318.599 208.658 C 319.478 206.358,318.894 204.380,315.976 199.769 C 314.874 198.026,313.868 196.195,313.742 195.701 C 313.194 193.544,314.788 192.884,316.400 194.600 C 317.567 195.842,318.295 195.868,318.832 194.689 C 320.072 191.967,316.063 189.167,312.931 190.568 M80.080 190.880 C 79.321 191.639,79.409 209.589,80.177 210.624 C 81.173 211.965,82.137 210.910,82.613 207.961 C 83.132 204.740,83.577 204.732,84.532 207.929 C 85.649 211.670,86.806 211.729,88.026 208.107 C 88.883 205.566,89.436 205.559,89.736 208.086 C 90.046 210.706,91.033 211.689,92.070 210.411 C 92.834 209.469,92.679 191.887,91.898 190.900 C 91.181 189.994,88.400 190.697,88.400 191.784 C 88.400 192.114,87.135 198.684,86.953 199.300 C 86.316 201.453,85.490 200.095,84.366 195.046 C 83.351 190.491,81.890 189.070,80.080 190.880 M121.387 191.070 C 120.488 191.969,120.634 209.436,121.549 210.539 C 122.109 211.214,126.355 211.499,127.767 210.957 C 129.288 210.374,127.992 208.400,126.088 208.400 C 123.269 208.400,123.187 202.641,125.992 201.663 C 127.740 201.053,127.608 199.798,125.700 198.900 C 124.236 198.211,124.200 198.141,124.200 196.010 L 124.200 193.826 125.967 193.211 C 127.883 192.546,128.350 191.904,127.589 190.987 C 126.869 190.120,122.275 190.182,121.387 191.070 M159.469 191.124 C 158.711 191.961,158.916 209.736,159.694 210.700 C 160.113 211.219,164.591 211.409,165.767 210.957 C 167.307 210.366,165.986 208.400,164.049 208.400 C 161.304 208.400,161.255 202.617,163.992 201.663 C 165.700 201.067,165.629 199.738,163.849 198.994 C 161.101 197.847,161.342 193.200,164.149 193.200 C 165.788 193.200,166.753 191.175,165.367 190.643 C 163.906 190.082,160.133 190.390,159.469 191.124 M196.880 190.880 C 196.128 191.632,196.294 192.119,197.696 193.270 L 199.000 194.341 199.200 202.428 C 199.372 209.401,199.492 210.572,200.066 210.934 C 201.743 211.989,202.000 210.848,202.000 202.351 C 202.000 194.163,202.279 192.800,203.957 192.800 C 204.564 192.800,204.839 191.529,204.358 190.949 C 203.766 190.236,197.581 190.179,196.880 190.880 M240.760 191.047 C 240.332 191.562,240.171 193.585,240.077 199.659 C 239.964 206.936,239.891 207.630,239.204 207.998 C 237.479 208.921,237.200 207.754,237.200 199.604 C 237.200 191.234,237.128 190.800,235.747 190.800 C 234.260 190.800,234.106 191.866,234.313 200.731 C 234.529 209.943,234.837 210.870,237.869 211.439 C 242.180 212.248,243.202 210.076,243.194 200.113 C 243.187 191.452,242.513 188.939,240.760 191.047 M273.508 190.900 C 272.564 191.633,272.276 210.220,273.200 210.807 C 274.806 211.827,275.600 210.564,275.600 206.987 C 275.600 203.709,275.696 203.546,278.400 202.258 C 282.476 200.316,282.905 192.606,279.027 190.986 C 277.311 190.269,274.381 190.223,273.508 190.900 M277.974 194.169 C 278.699 195.042,278.347 198.428,277.477 198.959 C 276.511 199.547,275.600 198.352,275.600 196.497 C 275.600 194.060,276.859 192.825,277.974 194.169 " stroke="none" fill="#78022f" fill-rule="evenodd"></path></g></svg>