<svg id="svg" version="1.1" xmlns="http://www.w3.org/2000/svg" xmlns:xlink="http://www.w3.org/1999/xlink" width="400" height="400" viewBox="0, 0, 400,400"><g id="svgg"><path id="path0" d="M80.400 169.388 C 55.925 175.014,47.904 204.746,66.311 221.613 C 75.589 230.115,89.997 231.961,100.600 226.007 C 101.480 225.513,102.920 224.698,103.800 224.195 L 105.400 223.281 108.800 225.252 C 119.028 231.180,133.728 230.670,141.255 224.127 C 142.324 223.197,143.254 223.390,146.068 225.125 C 155.591 230.996,167.602 230.935,177.439 224.964 L 180.416 223.157 181.508 223.921 C 191.438 230.872,203.810 231.352,214.523 225.202 L 218.047 223.179 219.123 223.932 C 229.580 231.250,245.859 231.149,254.465 223.714 C 255.056 223.204,255.490 223.346,258.308 224.971 C 269.255 231.285,283.836 230.739,292.065 223.707 C 292.653 223.205,293.105 223.355,295.944 224.992 C 321.710 239.854,350.602 214.854,339.611 187.208 C 332.897 170.322,310.309 163.409,295.328 173.656 C 293.246 175.080,292.755 175.081,290.672 173.659 C 281.228 167.212,267.150 167.211,257.728 173.656 C 255.645 175.081,255.155 175.081,253.072 173.656 C 243.450 167.074,229.277 167.244,219.538 174.057 C 218.386 174.864,216.990 175.031,216.606 174.410 C 216.198 173.749,211.531 171.331,209.000 170.468 C 199.947 167.383,189.996 168.761,181.484 174.277 C 180.393 174.984,180.336 174.980,178.884 174.085 C 167.535 167.086,155.687 167.086,144.312 174.085 C 142.974 174.908,142.733 174.943,141.912 174.428 C 132.481 168.513,123.717 167.263,114.200 170.476 C 111.678 171.327,107.005 173.744,106.594 174.410 C 106.158 175.115,104.772 174.819,103.072 173.659 C 97.048 169.547,87.518 167.751,80.400 169.388 M242.400 190.391 C 243.369 191.004,243.269 203.708,242.281 205.518 C 241.095 207.689,239.442 208.465,236.329 208.310 C 231.666 208.078,230.760 206.498,230.486 198.125 C 230.247 190.796,230.345 190.400,232.408 190.400 L 234.000 190.400 234.002 195.700 C 234.005 203.233,234.800 205.288,237.451 204.623 C 238.966 204.243,239.306 202.733,239.254 196.637 C 239.198 190.146,239.878 188.797,242.400 190.391 M314.553 190.555 C 316.307 191.287,317.600 193.158,317.600 194.962 C 317.600 196.962,314.821 197.175,313.826 195.251 C 313.099 193.845,311.733 193.421,310.509 194.223 C 308.758 195.370,309.997 197.044,313.281 197.970 C 317.326 199.111,318.878 202.785,316.688 206.035 C 313.631 210.571,305.600 208.433,305.600 203.083 C 305.600 201.090,308.839 201.188,309.541 203.202 C 310.321 205.442,313.400 205.249,313.400 202.961 C 313.400 201.931,313.146 201.703,310.994 200.805 C 307.392 199.301,306.787 198.867,306.143 197.326 C 304.227 192.739,309.540 188.460,314.553 190.555 M82.721 191.500 C 83.148 192.105,83.956 193.511,84.517 194.625 C 86.275 198.114,86.421 198.093,88.839 194.009 C 90.913 190.505,91.018 190.400,92.446 190.400 L 93.917 190.400 94.190 196.100 C 94.712 207.005,94.354 208.877,91.862 208.251 C 90.888 208.007,90.797 207.811,90.765 205.892 C 90.746 204.742,90.608 202.900,90.458 201.800 L 90.186 199.800 88.642 201.919 C 86.766 204.494,86.235 204.466,84.451 201.703 C 82.697 198.987,82.400 199.283,82.400 203.744 C 82.400 207.633,82.104 208.400,80.600 208.400 C 78.916 208.400,78.800 207.830,78.800 199.553 C 78.800 195.215,78.909 191.381,79.043 191.033 C 79.468 189.924,81.821 190.223,82.721 191.500 M129.451 191.462 C 129.917 193.319,129.239 193.788,125.900 193.916 C 120.800 194.112,120.980 197.075,126.105 197.283 L 129.000 197.400 129.000 199.000 L 129.000 200.600 125.800 200.800 L 122.600 201.000 122.600 202.600 L 122.600 204.200 125.582 204.319 C 128.907 204.452,129.600 204.805,129.600 206.369 C 129.600 208.155,128.983 208.400,124.494 208.400 C 118.394 208.400,118.799 209.006,118.805 199.886 C 118.813 189.444,118.265 190.400,124.239 190.400 L 129.185 190.400 129.451 191.462 M166.723 192.100 L 166.600 193.800 163.522 193.916 C 158.338 194.113,158.499 197.071,163.705 197.283 L 166.600 197.400 166.600 199.000 L 166.600 200.600 163.400 200.800 L 160.200 201.000 160.077 202.700 L 159.954 204.400 163.186 204.400 C 166.868 204.400,167.869 205.214,166.873 207.400 C 166.417 208.401,159.129 208.962,157.033 208.157 C 156.374 207.904,156.027 191.307,156.667 190.667 C 156.813 190.520,159.164 190.400,161.890 190.400 L 166.846 190.400 166.723 192.100 M204.628 191.368 C 205.082 193.177,204.710 193.790,203.077 193.925 C 201.005 194.097,200.800 194.822,200.800 201.983 L 200.800 207.913 199.832 208.156 C 197.368 208.775,197.033 207.828,197.392 201.253 C 197.732 195.028,197.470 194.103,195.320 193.925 C 193.763 193.797,193.131 192.600,193.758 190.966 C 194.203 189.805,204.329 190.180,204.628 191.368 M277.521 190.959 C 282.667 193.620,280.632 200.422,274.500 201.056 L 272.000 201.314 272.000 204.228 C 272.000 207.870,271.165 208.975,269.033 208.157 C 268.374 207.904,268.027 191.307,268.667 190.667 C 269.190 190.144,276.405 190.382,277.521 190.959 M272.679 193.872 C 272.103 194.028,271.982 194.404,272.079 195.733 C 272.209 197.528,274.393 198.368,275.828 197.177 C 277.588 195.716,275.186 193.196,272.679 193.872 M398.800 399.000 L 397.861 400.000 398.930 400.000 C 399.805 400.000,400.000 399.817,400.000 399.000 C 400.000 398.450,399.941 398.000,399.870 398.000 C 399.798 398.000,399.317 398.450,398.800 399.000 " stroke="none" fill="#fbf6f6" fill-rule="evenodd"></path><path id="path1" d="M0.000 200.000 L 0.000 400.000 198.925 400.000 L 397.850 400.000 398.925 398.878 L 400.000 397.756 400.000 198.878 L 400.000 0.000 200.000 0.000 L 0.000 0.000 0.000 200.000 M91.827 169.224 C 95.721 169.921,100.161 171.672,103.072 173.659 C 104.772 174.819,106.158 175.115,106.594 174.410 C 107.005 173.744,111.678 171.327,114.200 170.476 C 123.717 167.263,132.481 168.513,141.912 174.428 C 142.733 174.943,142.974 174.908,144.312 174.085 C 155.687 167.086,167.535 167.086,178.884 174.085 C 180.336 174.980,180.393 174.984,181.484 174.277 C 189.996 168.761,199.947 167.383,209.000 170.468 C 211.531 171.331,216.198 173.749,216.606 174.410 C 216.990 175.031,218.386 174.864,219.538 174.057 C 229.277 167.244,243.450 167.074,253.072 173.656 C 255.155 175.081,255.645 175.081,257.728 173.656 C 267.150 167.211,281.228 167.212,290.672 173.659 C 292.755 175.081,293.246 175.080,295.328 173.656 C 314.914 160.259,341.715 174.999,341.773 199.200 C 341.830 223.098,316.943 237.104,295.944 224.992 C 293.105 223.355,292.653 223.205,292.065 223.707 C 283.836 230.739,269.255 231.285,258.308 224.971 C 255.490 223.346,255.056 223.204,254.465 223.714 C 245.859 231.149,229.580 231.250,219.123 223.932 L 218.047 223.179 214.523 225.202 C 203.810 231.352,191.438 230.872,181.508 223.921 L 180.416 223.157 177.439 224.964 C 167.602 230.935,155.591 230.996,146.068 225.125 C 143.254 223.390,142.324 223.197,141.255 224.127 C 133.728 230.670,119.028 231.180,108.800 225.252 L 105.400 223.281 103.800 224.195 C 99.691 226.542,98.857 226.955,96.800 227.667 C 89.875 230.064,85.152 230.148,77.200 228.016 C 72.505 226.758,65.480 221.705,62.284 217.287 C 46.165 195.011,64.968 164.421,91.827 169.224 M239.652 190.537 C 239.366 190.882,239.223 193.067,239.254 196.637 C 239.306 202.733,238.966 204.243,237.451 204.623 C 234.800 205.288,234.005 203.233,234.002 195.700 L 234.000 190.400 232.408 190.400 C 230.345 190.400,230.247 190.796,230.486 198.125 C 230.760 206.498,231.666 208.078,236.329 208.310 C 239.442 208.465,241.095 207.689,242.281 205.518 C 243.269 203.708,243.369 191.004,242.400 190.391 C 241.532 189.843,240.168 189.915,239.652 190.537 M308.959 190.572 C 306.456 191.661,305.118 194.872,306.143 197.326 C 306.787 198.867,307.392 199.301,310.994 200.805 C 313.146 201.703,313.400 201.931,313.400 202.961 C 313.400 205.249,310.321 205.442,309.541 203.202 C 308.839 201.188,305.600 201.090,305.600 203.083 C 305.600 208.433,313.631 210.571,316.688 206.035 C 318.878 202.785,317.326 199.111,313.281 197.970 C 309.997 197.044,308.758 195.370,310.509 194.223 C 311.733 193.421,313.099 193.845,313.826 195.251 C 314.821 197.175,317.600 196.962,317.600 194.962 C 317.600 191.218,312.927 188.844,308.959 190.572 M79.043 191.033 C 78.909 191.381,78.800 195.215,78.800 199.553 C 78.800 207.830,78.916 208.400,80.600 208.400 C 82.104 208.400,82.400 207.633,82.400 203.744 C 82.400 199.283,82.697 198.987,84.451 201.703 C 86.235 204.466,86.766 204.494,88.642 201.919 L 90.186 199.800 90.458 201.800 C 90.608 202.900,90.746 204.742,90.765 205.892 C 90.797 207.811,90.888 208.007,91.862 208.251 C 94.354 208.877,94.712 207.005,94.190 196.100 L 93.917 190.400 92.446 190.400 C 91.018 190.400,90.913 190.505,88.839 194.009 C 86.421 198.093,86.275 198.114,84.517 194.625 C 82.461 190.542,79.881 188.849,79.043 191.033 M119.052 191.300 C 118.361 193.880,118.789 207.566,119.574 207.986 C 120.678 208.577,128.517 208.523,129.120 207.920 C 130.945 206.095,129.347 204.470,125.582 204.319 L 122.600 204.200 122.600 202.600 L 122.600 201.000 125.800 200.800 L 129.000 200.600 129.000 199.000 L 129.000 197.400 126.105 197.283 C 120.980 197.075,120.800 194.112,125.900 193.916 C 129.239 193.788,129.917 193.319,129.451 191.462 L 129.185 190.400 124.239 190.400 C 119.448 190.400,119.286 190.428,119.052 191.300 M156.667 190.667 C 156.027 191.307,156.374 207.904,157.033 208.157 C 159.129 208.962,166.417 208.401,166.873 207.400 C 167.869 205.214,166.868 204.400,163.186 204.400 L 159.954 204.400 160.077 202.700 L 160.200 201.000 163.400 200.800 L 166.600 200.600 166.600 199.000 L 166.600 197.400 163.705 197.283 C 158.499 197.071,158.338 194.113,163.522 193.916 L 166.600 193.800 166.723 192.100 L 166.846 190.400 161.890 190.400 C 159.164 190.400,156.813 190.520,156.667 190.667 M193.758 190.966 C 193.131 192.600,193.763 193.797,195.320 193.925 C 197.470 194.103,197.732 195.028,197.392 201.253 C 197.033 207.828,197.368 208.775,199.832 208.156 L 200.800 207.913 200.800 201.983 C 200.800 194.822,201.005 194.097,203.077 193.925 C 204.710 193.790,205.082 193.177,204.628 191.368 C 204.329 190.180,194.203 189.805,193.758 190.966 M268.667 190.667 C 268.027 191.307,268.374 207.904,269.033 208.157 C 271.165 208.975,272.000 207.870,272.000 204.228 L 272.000 201.314 274.500 201.056 C 280.632 200.422,282.667 193.620,277.521 190.959 C 276.405 190.382,269.190 190.144,268.667 190.667 M275.900 194.698 C 277.142 196.324,276.070 197.719,273.728 197.526 C 272.245 197.404,272.196 197.351,272.079 195.733 C 271.919 193.545,274.487 192.849,275.900 194.698 " stroke="none" fill="#78022f" fill-rule="evenodd"></path></g></svg>