<svg id="svg" version="1.1" xmlns="http://www.w3.org/2000/svg" xmlns:xlink="http://www.w3.org/1999/xlink" width="400" height="401.83066361556064" viewBox="0, 0, 400,401.83066361556064"><g id="svgg"><path id="path0" d="M54.498 202.731 C 54.100 202.984,54.017 211.229,54.098 242.625 L 54.200 282.200 199.600 282.200 L 345.000 282.200 345.103 242.800 C 345.200 206.114,345.160 203.366,344.527 202.900 C 343.743 202.324,55.404 202.156,54.498 202.731 M182.537 214.515 C 185.405 217.219,184.897 219.940,180.828 223.683 C 172.583 231.264,165.600 238.231,165.600 238.873 C 165.600 239.281,169.425 244.651,174.100 250.807 C 185.507 265.826,185.879 266.581,183.352 269.584 C 179.732 273.886,176.792 272.898,171.183 265.496 C 169.143 262.803,165.361 257.803,162.780 254.385 C 156.246 245.732,157.303 246.107,152.600 250.776 L 149.200 254.153 149.194 261.176 C 149.188 268.928,149.025 269.612,146.835 271.088 C 144.191 272.870,140.838 272.029,139.238 269.182 C 137.952 266.894,137.922 219.241,139.204 216.592 C 141.020 212.840,146.797 212.746,148.694 216.439 C 149.051 217.133,149.190 220.482,149.194 228.476 C 149.198 236.042,149.338 239.638,149.637 239.823 C 149.886 239.977,154.638 235.554,160.737 229.491 C 178.877 211.457,179.118 211.291,182.537 214.515 M293.993 214.052 C 295.459 214.946,295.832 215.335,297.398 217.600 C 297.930 218.370,299.635 220.710,301.187 222.800 C 302.740 224.890,305.312 228.443,306.905 230.697 C 308.497 232.950,310.070 234.790,310.400 234.787 C 310.730 234.784,313.340 231.341,316.200 227.136 C 325.622 213.285,326.370 212.534,329.664 213.621 C 332.076 214.417,333.200 216.003,333.200 218.608 C 333.200 221.031,333.315 220.845,321.267 238.000 L 315.227 246.600 315.214 257.113 C 315.199 268.292,315.044 269.367,313.213 271.000 C 311.662 272.383,308.340 272.125,306.708 270.493 L 305.400 269.186 305.200 257.293 L 305.000 245.400 296.828 234.600 C 286.779 221.319,286.400 220.735,286.400 218.536 C 286.400 215.877,288.978 213.440,292.000 213.242 C 292.330 213.221,293.227 213.585,293.993 214.052 M79.316 214.508 C 79.826 214.842,84.084 221.029,88.780 228.258 C 93.475 235.486,97.632 241.737,98.018 242.148 C 98.695 242.871,98.830 242.732,101.901 238.148 C 119.468 211.927,117.526 214.574,119.665 213.933 C 121.708 213.321,123.997 214.005,125.371 215.638 L 126.400 216.861 126.400 242.777 C 126.400 268.452,126.392 268.702,125.565 269.754 C 123.742 272.071,120.564 272.661,118.101 271.139 C 115.634 269.614,115.600 269.353,115.600 251.636 C 115.600 242.842,115.447 235.552,115.259 235.437 C 115.072 235.321,113.504 237.425,111.775 240.113 C 101.334 256.343,101.284 256.402,98.120 256.399 C 95.492 256.396,94.486 255.374,89.813 247.960 C 80.902 233.824,81.083 234.079,80.764 235.200 C 80.608 235.750,80.462 243.433,80.440 252.274 C 80.417 261.642,80.237 268.776,80.010 269.374 C 78.739 272.717,72.782 272.713,71.258 269.367 C 70.683 268.106,70.589 218.203,71.159 216.713 C 72.212 213.961,76.649 212.761,79.316 214.508 M233.404 214.176 C 236.388 215.423,237.315 219.667,235.089 221.892 C 233.745 223.237,231.718 223.562,224.543 223.583 C 219.399 223.597,218.449 223.695,218.243 224.233 C 218.109 224.581,218.000 234.726,218.000 246.779 C 218.000 268.395,217.989 268.706,217.165 269.754 C 214.534 273.099,209.384 272.582,207.519 268.786 C 206.904 267.534,206.837 265.291,206.819 245.549 L 206.800 223.698 199.500 223.529 C 191.587 223.347,190.629 223.098,189.662 220.976 C 188.280 217.943,189.618 214.909,192.800 213.861 C 194.445 213.319,232.051 213.611,233.404 214.176 M278.953 214.155 C 281.995 215.426,282.951 219.092,280.885 221.566 C 279.381 223.368,278.026 223.547,265.700 223.576 L 255.600 223.600 255.600 230.574 L 255.600 237.548 265.300 237.674 C 274.680 237.796,275.042 237.830,276.290 238.720 C 278.905 240.586,278.896 244.596,276.272 246.557 C 275.217 247.345,274.515 247.413,265.472 247.600 L 255.800 247.800 255.600 258.000 C 255.406 267.880,255.371 268.241,254.468 269.506 C 252.764 271.895,250.042 272.627,247.443 271.394 C 244.686 270.085,244.800 271.322,244.800 242.652 L 244.800 216.828 246.019 215.439 C 246.690 214.675,247.635 213.974,248.119 213.880 C 250.679 213.383,277.683 213.624,278.953 214.155 " stroke="none" fill="#9449de" fill-rule="evenodd"></path><path id="path1" d="M0.000 200.800 L 0.000 401.600 200.000 401.600 L 400.000 401.600 400.000 200.800 L 400.000 0.000 200.000 0.000 L 0.000 0.000 0.000 200.800 M344.527 202.900 C 345.160 203.366,345.200 206.114,345.103 242.800 L 345.000 282.200 199.600 282.200 L 54.200 282.200 54.098 242.625 C 54.017 211.229,54.100 202.984,54.498 202.731 C 55.404 202.156,343.743 202.324,344.527 202.900 M177.260 213.796 C 175.918 214.535,172.824 217.474,160.737 229.491 C 154.638 235.554,149.886 239.977,149.637 239.823 C 149.338 239.638,149.198 236.042,149.194 228.476 C 149.190 220.482,149.051 217.133,148.694 216.439 C 146.797 212.746,141.020 212.840,139.204 216.592 C 137.922 219.241,137.952 266.894,139.238 269.182 C 140.838 272.029,144.191 272.870,146.835 271.088 C 149.025 269.612,149.188 268.928,149.194 261.176 L 149.200 254.153 152.600 250.776 C 157.303 246.107,156.246 245.732,162.780 254.385 C 165.361 257.803,169.143 262.803,171.183 265.496 C 176.792 272.898,179.732 273.886,183.352 269.584 C 185.879 266.581,185.507 265.826,174.100 250.807 C 169.425 244.651,165.600 239.281,165.600 238.873 C 165.600 238.231,172.583 231.264,180.828 223.683 C 182.053 222.556,183.383 221.025,183.784 220.281 C 185.929 216.299,181.218 211.617,177.260 213.796 M290.087 213.702 C 288.019 214.365,286.400 216.488,286.400 218.536 C 286.400 220.735,286.779 221.319,296.828 234.600 L 305.000 245.400 305.200 257.293 L 305.400 269.186 306.708 270.493 C 308.340 272.125,311.662 272.383,313.213 271.000 C 315.044 269.367,315.199 268.292,315.214 257.113 L 315.227 246.600 321.267 238.000 C 333.315 220.845,333.200 221.031,333.200 218.608 C 333.200 216.003,332.076 214.417,329.664 213.621 C 326.370 212.534,325.622 213.285,316.200 227.136 C 313.340 231.341,310.730 234.784,310.400 234.787 C 310.070 234.790,308.497 232.950,306.905 230.697 C 305.312 228.443,302.740 224.890,301.187 222.800 C 299.635 220.710,297.930 218.370,297.398 217.600 C 294.682 213.671,292.994 212.771,290.087 213.702 M74.008 214.025 C 72.664 214.591,71.580 215.613,71.159 216.713 C 70.589 218.203,70.683 268.106,71.258 269.367 C 72.782 272.713,78.739 272.717,80.010 269.374 C 80.237 268.776,80.417 261.642,80.440 252.274 C 80.462 243.433,80.608 235.750,80.764 235.200 C 81.083 234.079,80.902 233.824,89.813 247.960 C 94.486 255.374,95.492 256.396,98.120 256.399 C 101.284 256.402,101.334 256.343,111.775 240.113 C 113.504 237.425,115.072 235.321,115.259 235.437 C 115.447 235.552,115.600 242.842,115.600 251.636 C 115.600 269.353,115.634 269.614,118.101 271.139 C 120.564 272.661,123.742 272.071,125.565 269.754 C 126.392 268.702,126.400 268.452,126.400 242.777 L 126.400 216.861 125.371 215.638 C 123.997 214.005,121.708 213.321,119.665 213.933 C 117.694 214.524,117.901 214.271,110.979 224.600 C 107.735 229.440,103.650 235.537,101.901 238.148 C 98.830 242.732,98.695 242.871,98.018 242.148 C 97.632 241.737,93.475 235.486,88.780 228.258 C 84.084 221.029,79.826 214.842,79.316 214.508 C 78.142 213.739,75.303 213.480,74.008 214.025 M192.800 213.861 C 189.618 214.909,188.280 217.943,189.662 220.976 C 190.629 223.098,191.587 223.347,199.500 223.529 L 206.800 223.698 206.819 245.549 C 206.837 265.291,206.904 267.534,207.519 268.786 C 209.384 272.582,214.534 273.099,217.165 269.754 C 217.989 268.706,218.000 268.395,218.000 246.779 C 218.000 234.726,218.109 224.581,218.243 224.233 C 218.449 223.695,219.399 223.597,224.543 223.583 C 231.718 223.562,233.745 223.237,235.089 221.892 C 237.315 219.667,236.388 215.423,233.404 214.176 C 232.051 213.611,194.445 213.319,192.800 213.861 M248.119 213.880 C 247.635 213.974,246.690 214.675,246.019 215.439 L 244.800 216.828 244.800 242.652 C 244.800 271.322,244.686 270.085,247.443 271.394 C 250.042 272.627,252.764 271.895,254.468 269.506 C 255.371 268.241,255.406 267.880,255.600 258.000 L 255.800 247.800 265.472 247.600 C 274.515 247.413,275.217 247.345,276.272 246.557 C 278.896 244.596,278.905 240.586,276.290 238.720 C 275.042 237.830,274.680 237.796,265.300 237.674 L 255.600 237.548 255.600 230.574 L 255.600 223.600 265.700 223.576 C 278.026 223.547,279.381 223.368,280.885 221.566 C 282.951 219.092,281.995 215.426,278.953 214.155 C 277.683 213.624,250.679 213.383,248.119 213.880 " stroke="none" fill="#ffffff" fill-rule="evenodd"></path></g></svg>