<?xml version="1.0" encoding="UTF-8"?>
<svg xmlns="http://www.w3.org/2000/svg" xmlns:xlink="http://www.w3.org/1999/xlink" width="400px" height="400px" viewBox="0 0 400 400" version="1.1">
<g id="surface1">
<path style=" stroke:none;fill-rule:evenodd;fill:rgb(100%,100%,100%);fill-opacity:1;" d="M 148.902344 167.660156 C 146.410156 168.980469 144.457031 172.214844 140.90625 180.890625 C 139.777344 183.644531 138.617188 186.433594 138.320312 187.09375 C 138.023438 187.753906 137.121094 190.1875 136.308594 192.496094 C 133.339844 200.953125 133.203125 200.914062 130.011719 190.695312 C 124.085938 171.714844 121.59375 167.945312 115.886719 169.328125 C 111.792969 170.324219 109.527344 175.195312 108.191406 185.894531 C 107.890625 188.300781 106.386719 197.882812 105.394531 203.703125 C 105.222656 204.695312 104.699219 208.023438 104.226562 211.105469 C 103.757812 214.1875 103.203125 217.339844 103.003906 218.109375 C 101.007812 225.722656 102.652344 231.257812 107.117188 231.929688 C 111.03125 232.515625 113.566406 230.738281 114.535156 226.714844 C 114.804688 225.613281 115.175781 224.082031 115.367188 223.3125 C 115.558594 222.542969 116.019531 220.109375 116.394531 217.910156 C 116.769531 215.710938 117.324219 212.648438 117.628906 211.105469 C 117.933594 209.566406 118.453125 206.597656 118.785156 204.507812 C 119.117188 202.421875 119.554688 200.546875 119.757812 200.347656 C 120.136719 199.964844 124.589844 208.824219 126.191406 213.148438 C 129.714844 222.664062 135.550781 223.277344 139.601562 214.554688 C 140.585938 212.4375 141.988281 209.445312 142.722656 207.90625 C 143.453125 206.363281 144.613281 203.753906 145.300781 202.101562 C 147.957031 195.71875 148.488281 195.949219 148.496094 203.480469 C 148.507812 213.203125 149.800781 227.511719 150.886719 229.980469 C 152.121094 232.789062 154.988281 233.855469 158.8125 232.933594 C 162.816406 231.972656 163.472656 229.566406 162.492188 219.460938 C 162.242188 216.847656 161.871094 211.828125 161.671875 208.304688 C 160.734375 191.664062 159.128906 175.375 158.058594 171.667969 C 156.726562 167.058594 153.058594 165.457031 148.902344 167.660156 M 296.804688 167.820312 C 296.148438 168.121094 295.019531 168.859375 294.304688 169.46875 C 293.199219 170.398438 292.765625 170.53125 291.507812 170.3125 C 284.109375 169.027344 264.339844 168.386719 260.878906 169.320312 C 255.386719 170.804688 255.050781 171.828125 254.65625 188.292969 C 254.277344 204.214844 253.632812 218.878906 253.140625 222.761719 C 252.277344 229.59375 255.167969 233.433594 259.738281 231.519531 C 263.988281 229.738281 265.035156 227.453125 265.613281 218.660156 C 266.175781 210.113281 265.636719 210.714844 272.777344 210.675781 C 281.085938 210.628906 280.882812 210.660156 282.460938 209.207031 C 283.664062 208.097656 283.90625 207.570312 284.101562 205.667969 C 284.625 200.539062 282.011719 198.847656 272.734375 198.300781 C 266.371094 197.929688 266.574219 198.25 267.050781 189.367188 C 267.535156 180.289062 266.707031 180.898438 278.59375 180.878906 C 285.472656 180.867188 286.695312 180.765625 288.621094 180.050781 C 292.300781 178.683594 291.96875 178.4375 295.386719 185.09375 C 299.929688 193.945312 303.746094 201.265625 304.839844 203.226562 C 306.460938 206.140625 306.773438 209.875 306.035156 217.464844 C 304.730469 230.824219 306.394531 234.632812 312.628906 232.5625 C 316.730469 231.203125 317.484375 228.675781 318.601562 212.570312 L 319.082031 205.628906 L 322.210938 200.433594 C 323.933594 197.574219 325.703125 194.753906 326.152344 194.167969 C 328.0625 191.644531 337.066406 180.273438 337.300781 180.089844 C 343.765625 174.96875 340.914062 165.640625 333.621094 168.054688 C 332.164062 168.539062 332.085938 168.621094 329.1875 172.949219 C 328.207031 174.414062 327.128906 175.945312 326.789062 176.351562 C 325.8125 177.53125 318.09375 188.507812 316.625 190.804688 C 314.445312 194.210938 313.699219 193.511719 310.34375 184.894531 C 309.0625 181.605469 306.019531 174.882812 303.855469 170.5625 C 302.429688 167.710938 299.519531 166.582031 296.804688 167.820312 M 171.058594 169.230469 C 167.300781 171.554688 166.710938 174.222656 165.847656 192.699219 C 165.507812 199.960938 165.070312 208.066406 164.875 210.707031 C 163.78125 225.578125 165.046875 229.714844 170.699219 229.714844 C 175.894531 229.714844 177.644531 226.386719 177.644531 216.503906 C 177.644531 209.914062 177.855469 209.585938 180.324219 212.34375 C 182.789062 215.097656 189.339844 223.273438 190.238281 224.714844 C 192.105469 227.703125 194.480469 230.066406 196.21875 230.65625 C 201.449219 232.445312 206.625 226.613281 203.988281 221.902344 C 201.964844 218.292969 192.210938 206.203125 188.015625 202.101562 C 186.777344 200.890625 185.445312 199.40625 185.054688 198.804688 L 184.34375 197.707031 L 187.28125 194.65625 C 190.082031 191.75 196.074219 186.359375 200.796875 182.5 C 202.007812 181.511719 203.328125 180.289062 203.734375 179.78125 C 204.652344 178.636719 205.273438 179.054688 205.933594 181.265625 C 206.839844 184.296875 210.152344 185.464844 217.179688 185.222656 L 220.957031 185.09375 L 221.757812 186.695312 C 222.519531 188.222656 222.546875 188.921875 222.394531 202.300781 C 222.105469 228.066406 222.0625 226.152344 222.96875 227.703125 C 225.34375 231.75 231.757812 231.664062 233.515625 227.554688 C 234.933594 224.242188 235.21875 220.699219 235.414062 203.902344 C 235.660156 183.0625 235.101562 184.519531 243.113281 183.917969 C 248.65625 183.503906 250.699219 181.796875 250.699219 177.578125 C 250.699219 173.390625 247.492188 172.015625 239.640625 172.839844 C 234.777344 173.347656 228.101562 173.382812 223.351562 172.921875 C 217.226562 172.324219 209.4375 173.382812 206.785156 175.164062 L 205.390625 176.105469 L 204.90625 174.9375 C 202.363281 168.792969 195.953125 170.71875 185.628906 180.734375 C 179.164062 187 177.714844 187.871094 178.175781 185.195312 C 179.6875 176.421875 179.535156 171.261719 177.714844 169.632812 C 176.132812 168.214844 173.003906 168.023438 171.058594 169.230469 M 82.835938 181.980469 C 81.207031 182.382812 79.621094 184.949219 77.574219 190.492188 C 77.042969 191.925781 76.375 193.636719 76.089844 194.296875 C 75.800781 194.957031 75.160156 196.535156 74.664062 197.800781 C 73.238281 201.425781 72.984375 201.140625 70.230469 192.878906 C 67.164062 183.675781 66.238281 182.316406 63.691406 183.285156 C 61.753906 184.023438 61.023438 186.882812 58.730469 202.738281 C 58.507812 204.300781 58.132812 206.730469 57.90625 208.140625 C 56.957031 214.003906 57.351562 215.417969 59.886719 215.234375 C 61.503906 215.117188 61.636719 215.011719 62.128906 213.507812 C 62.898438 211.144531 64.351562 203.140625 64.628906 199.730469 C 64.78125 197.875 65.058594 196.699219 65.375 196.59375 C 65.890625 196.425781 70.257812 205.039062 70.257812 206.222656 C 70.257812 207.019531 72.417969 209.304688 73.171875 209.304688 C 74.398438 209.304688 75.476562 207.761719 77.648438 202.902344 C 82.382812 192.316406 82.421875 192.335938 82.800781 205.984375 C 83.058594 215.09375 83.371094 216.109375 85.941406 216.109375 C 88.566406 216.109375 88.824219 215.367188 88.277344 209.445312 C 88.035156 206.835938 87.636719 201.460938 87.394531 197.5 C 86.644531 185.335938 85.769531 181.394531 83.886719 181.738281 C 83.746094 181.761719 83.273438 181.871094 82.835938 181.980469 "/>
<path style=" stroke:none;fill-rule:evenodd;fill:rgb(58.039216%,29.411765%,87.058824%);fill-opacity:1;" d="M 0 200.101562 L 0 400.203125 L 199.429688 400.203125 C 371.738281 400.203125 398.9375 400.125 399.429688 399.628906 C 399.921875 399.136719 400 371.921875 400 199.53125 L 400 0 L 0 0 L 0 200.101562 M 154.941406 166.253906 C 158.574219 167.789062 159.808594 171.957031 160.859375 186.292969 C 161.105469 189.597656 161.394531 192.925781 161.511719 193.699219 C 161.625 194.46875 161.894531 198.339844 162.105469 202.300781 C 162.785156 214.914062 163.316406 219.0625 163.816406 215.648438 C 164 214.402344 164.476562 205.097656 165.300781 186.695312 C 165.617188 179.59375 165.84375 177.636719 166.773438 174.089844 C 168.402344 167.851562 174.398438 165.382812 178.480469 169.273438 L 180.039062 170.761719 L 180.039062 174.648438 C 180.039062 176.789062 179.847656 179.785156 179.609375 181.308594 C 178.871094 186.09375 178.777344 186.121094 185.628906 179.542969 C 189.121094 176.183594 194.808594 171.828125 196.796875 170.988281 C 199.34375 169.910156 204.535156 171.621094 205.082031 173.722656 C 205.328125 174.660156 205.667969 174.675781 207.304688 173.820312 C 211.136719 171.820312 245.8125 171.082031 249.09375 172.929688 C 252.480469 174.839844 252.664062 179.125 249.5 182.515625 C 247.882812 184.253906 246.042969 184.871094 242.316406 184.929688 C 239.617188 184.972656 238.671875 185.171875 237.324219 185.964844 C 236.554688 186.421875 236.519531 187.015625 236.25 204.175781 C 235.898438 226.601562 235.484375 228.902344 231.433594 230.871094 C 227.398438 232.828125 222.800781 230.679688 221.515625 226.230469 C 220.828125 223.863281 220.832031 221.371094 221.539062 208.707031 C 222.085938 199.019531 221.8125 188.980469 220.949219 186.792969 C 220.707031 186.183594 220.074219 186.09375 215.9375 186.09375 C 209.085938 186.09375 206.554688 185.121094 205.3125 182.011719 L 204.71875 180.53125 L 201.0625 183.410156 C 194.765625 188.371094 185.628906 197.015625 185.628906 198.015625 C 185.628906 198.359375 186.660156 199.644531 187.925781 200.871094 C 192.699219 205.523438 201.601562 216.339844 204.492188 221.003906 C 207.304688 225.542969 202.679688 232.765625 197.484375 231.941406 C 194.515625 231.472656 193.253906 230.253906 187.71875 222.546875 C 187.339844 222.015625 186.847656 221.382812 186.628906 221.144531 C 186.40625 220.90625 185.515625 219.808594 184.644531 218.710938 C 183.773438 217.609375 182.066406 215.566406 180.851562 214.171875 L 178.644531 211.636719 L 178.40625 218.175781 C 178.101562 226.652344 177.261719 228.527344 172.957031 230.332031 C 170.082031 231.535156 166.386719 230.265625 165.011719 227.601562 C 164.292969 226.210938 163.765625 226.707031 163.699219 228.835938 C 163.601562 232.042969 161.140625 233.796875 156.707031 233.816406 C 149.613281 233.851562 148.675781 231.3125 148.164062 210.738281 C 147.855469 198.476562 147.714844 198.160156 145.25 204.304688 C 144.808594 205.402344 143.742188 207.773438 142.882812 209.566406 C 142.023438 211.359375 141.316406 213.027344 141.316406 213.269531 C 141.316406 213.511719 141.136719 213.707031 140.917969 213.707031 C 140.699219 213.707031 140.519531 213.960938 140.519531 214.273438 C 140.519531 215.238281 138.507812 218.777344 137.300781 219.9375 C 134.882812 222.253906 130.316406 221.570312 128.183594 218.566406 C 127.011719 216.917969 124.949219 213.046875 124.949219 212.5 C 124.949219 212.234375 124.050781 210.148438 122.953125 207.867188 C 121.855469 205.585938 120.957031 203.535156 120.957031 203.308594 C 120.957031 202.148438 119.816406 203.078125 119.617188 204.402344 C 118.695312 210.542969 116.996094 219.796875 116.5625 221.070312 C 116.347656 221.710938 116.167969 222.6875 116.167969 223.242188 C 116.167969 224.214844 116.054688 224.691406 114.957031 228.316406 C 113.1875 234.15625 104.316406 234.601562 101.960938 228.964844 C 101.320312 227.429688 101.214844 222.71875 101.769531 220.558594 C 101.976562 219.761719 102.535156 216.410156 103.011719 213.109375 C 103.488281 209.804688 104.128906 206.054688 104.433594 204.769531 C 104.738281 203.488281 104.988281 201.914062 104.988281 201.273438 C 104.988281 200.636719 105.164062 199.34375 105.378906 198.40625 C 105.898438 196.097656 107.015625 188.976562 107.429688 185.292969 C 107.617188 183.644531 107.941406 181.570312 108.148438 180.691406 C 109.109375 176.625 109.574219 175.015625 110.054688 174.089844 C 110.339844 173.539062 110.574219 172.886719 110.574219 172.636719 C 110.582031 171.660156 113.25 169.347656 115.085938 168.730469 C 119.902344 167.105469 123.445312 169.527344 125.765625 176.035156 C 126.699219 178.660156 126.941406 179.308594 127.574219 180.890625 C 128.324219 182.769531 130.769531 190.023438 131.824219 193.496094 C 133.234375 198.144531 133.691406 198.144531 135.097656 193.496094 C 135.496094 192.175781 136.140625 190.375 136.527344 189.496094 C 136.914062 188.617188 137.460938 187.265625 137.742188 186.496094 C 142.1875 174.328125 146.242188 167.296875 149.164062 166.675781 C 149.789062 166.542969 150.570312 166.277344 150.898438 166.082031 C 151.804688 165.550781 153.441406 165.617188 154.941406 166.253906 M 302.011719 167.171875 C 303.25 167.765625 303.742188 168.46875 305.570312 172.273438 C 309.324219 180.09375 310.929688 183.667969 311.769531 186.09375 C 313.507812 191.105469 314.800781 192.554688 315.789062 190.597656 C 316.097656 189.992188 316.757812 188.957031 317.261719 188.292969 C 318.3125 186.914062 318.609375 186.496094 319.160156 185.609375 C 320.015625 184.246094 324.976562 177.320312 325.460938 176.820312 C 326.125 176.132812 329.742188 170.910156 329.742188 170.640625 C 329.742188 166.855469 338.160156 165.6875 340.769531 169.113281 C 343.289062 172.429688 342.210938 175.476562 335.769531 183.238281 C 333.644531 185.800781 330.84375 189.335938 329.539062 191.097656 C 328.242188 192.855469 327.035156 194.359375 326.863281 194.429688 C 326.6875 194.503906 326.546875 194.753906 326.546875 194.984375 C 326.546875 195.214844 325.917969 196.28125 325.148438 197.351562 C 324.382812 198.425781 323.753906 199.402344 323.753906 199.523438 C 323.753906 199.644531 322.972656 200.949219 322.015625 202.421875 C 319.933594 205.636719 319.808594 206.105469 319.363281 212.507812 C 318.160156 229.828125 317.726562 231.332031 313.425781 233.148438 C 307.742188 235.550781 304.367188 231.957031 304.757812 223.925781 C 304.875 221.496094 305.082031 216.582031 305.214844 213 L 305.457031 206.488281 L 304.09375 203.792969 C 303.34375 202.3125 302.535156 200.742188 302.300781 200.300781 C 302.0625 199.859375 301.203125 198.148438 300.390625 196.5 C 299.578125 194.847656 298.605469 193.046875 298.226562 192.496094 C 297.851562 191.945312 296.238281 188.867188 294.640625 185.652344 L 291.738281 179.8125 L 290.480469 180.253906 C 289.789062 180.5 289.007812 180.835938 288.746094 181.003906 C 287.796875 181.613281 281.894531 182.070312 276.046875 181.984375 C 268.449219 181.871094 268.261719 181.9375 268.261719 184.597656 C 268.261719 185.726562 268.0625 188.695312 267.820312 191.195312 C 267.292969 196.605469 267.59375 197.300781 270.457031 197.300781 C 272.785156 197.300781 278.496094 198.046875 280.582031 198.621094 C 285.75 200.046875 286.800781 207 282.363281 210.386719 L 280.894531 211.507812 L 274.65625 211.40625 C 266.328125 211.269531 266.347656 211.25 266.289062 220.207031 C 266.234375 229.238281 260.515625 235.375 255.1875 232.121094 C 251.996094 230.171875 252.105469 231.351562 253.050781 208.707031 C 253.289062 202.984375 253.648438 192.984375 253.84375 186.488281 C 254.121094 177.292969 254.339844 174.347656 254.828125 173.175781 C 255.527344 171.5 257.726562 169.285156 258.691406 169.285156 C 259.039062 169.285156 259.527344 169.082031 259.777344 168.828125 C 261.214844 167.390625 279.441406 167.640625 289.820312 169.246094 C 292.195312 169.613281 292.515625 169.574219 293.601562 168.789062 C 296.851562 166.433594 299.433594 165.941406 302.011719 167.171875 M 85.707031 181.792969 C 86.96875 183.183594 87.367188 185.566406 88.183594 196.699219 C 88.429688 200 88.824219 205.277344 89.0625 208.429688 C 89.601562 215.527344 88.992188 217.308594 86.027344 217.308594 C 82.890625 217.308594 82.171875 215.269531 81.796875 205.304688 C 81.625 200.792969 81.472656 197.007812 81.453125 196.898438 C 81.417969 196.6875 81.15625 197.226562 78.839844 202.300781 C 75.578125 209.445312 75.097656 210.105469 73.125 210.105469 C 72.230469 210.105469 69.859375 208.050781 69.859375 207.273438 C 69.859375 206.964844 68.632812 204.144531 66.769531 200.164062 C 65.972656 198.464844 65.53125 199.101562 65.042969 202.644531 C 63.246094 215.75 61.347656 218.925781 57.476562 215.300781 C 55.910156 213.835938 55.9375 213.34375 58.324219 200.101562 C 58.707031 197.96875 58.90625 196.65625 59.863281 189.894531 C 60.488281 185.46875 61.671875 183.203125 63.605469 182.71875 C 67.109375 181.839844 68.46875 183.894531 71.84375 195.167969 C 73.0625 199.253906 73.171875 199.300781 74.414062 196.222656 C 75.019531 194.726562 75.679688 193.183594 75.878906 192.804688 C 76.082031 192.421875 76.246094 191.921875 76.246094 191.699219 C 76.246094 191.308594 76.636719 190.390625 78.9375 185.335938 C 80.824219 181.1875 83.765625 179.648438 85.707031 181.792969 "/>
<path style=" stroke:none;fill-rule:evenodd;fill:rgb(100%,100%,100%);fill-opacity:1;" d="M 150.898438 166.082031 C 150.570312 166.277344 149.789062 166.542969 149.164062 166.675781 C 146.242188 167.296875 142.1875 174.328125 137.742188 186.496094 C 137.460938 187.265625 136.914062 188.617188 136.527344 189.496094 C 136.140625 190.375 135.496094 192.175781 135.097656 193.496094 C 133.691406 198.144531 133.234375 198.144531 131.824219 193.496094 C 130.769531 190.023438 128.324219 182.769531 127.574219 180.890625 C 126.941406 179.308594 126.699219 178.660156 125.765625 176.035156 C 123.445312 169.527344 119.902344 167.105469 115.085938 168.730469 C 113.25 169.347656 110.582031 171.660156 110.574219 172.636719 C 110.574219 172.886719 110.339844 173.539062 110.054688 174.089844 C 109.574219 175.015625 109.109375 176.625 108.148438 180.691406 C 107.941406 181.570312 107.617188 183.644531 107.429688 185.292969 C 107.015625 188.976562 105.898438 196.097656 105.378906 198.40625 C 105.164062 199.34375 104.988281 200.636719 104.988281 201.273438 C 104.988281 201.914062 104.738281 203.488281 104.433594 204.769531 C 104.128906 206.054688 103.488281 209.804688 103.011719 213.109375 C 102.535156 216.410156 101.976562 219.761719 101.769531 220.558594 C 101.214844 222.71875 101.320312 227.429688 101.960938 228.964844 C 104.316406 234.601562 113.1875 234.15625 114.957031 228.316406 C 116.054688 224.691406 116.167969 224.214844 116.167969 223.242188 C 116.167969 222.6875 116.347656 221.710938 116.5625 221.070312 C 116.996094 219.796875 118.695312 210.542969 119.617188 204.402344 C 119.816406 203.078125 120.957031 202.148438 120.957031 203.308594 C 120.957031 203.535156 121.855469 205.585938 122.953125 207.867188 C 124.050781 210.148438 124.949219 212.234375 124.949219 212.5 C 124.949219 213.046875 127.011719 216.917969 128.183594 218.566406 C 130.316406 221.570312 134.882812 222.253906 137.300781 219.9375 C 138.507812 218.777344 140.519531 215.238281 140.519531 214.273438 C 140.519531 213.960938 140.699219 213.707031 140.917969 213.707031 C 141.136719 213.707031 141.316406 213.511719 141.316406 213.269531 C 141.316406 213.027344 142.023438 211.359375 142.882812 209.566406 C 143.742188 207.773438 144.808594 205.402344 145.25 204.304688 C 147.714844 198.160156 147.855469 198.476562 148.164062 210.738281 C 148.675781 231.3125 149.613281 233.851562 156.707031 233.816406 C 161.140625 233.796875 163.601562 232.042969 163.699219 228.835938 C 163.765625 226.707031 164.292969 226.210938 165.011719 227.601562 C 166.386719 230.265625 170.082031 231.535156 172.957031 230.332031 C 177.261719 228.527344 178.101562 226.652344 178.40625 218.175781 L 178.644531 211.636719 L 180.851562 214.171875 C 182.066406 215.566406 183.773438 217.609375 184.644531 218.710938 C 185.515625 219.808594 186.40625 220.90625 186.628906 221.144531 C 186.847656 221.382812 187.339844 222.015625 187.71875 222.546875 C 193.253906 230.253906 194.515625 231.472656 197.484375 231.941406 C 202.679688 232.765625 207.304688 225.542969 204.492188 221.003906 C 201.601562 216.339844 192.699219 205.523438 187.925781 200.871094 C 186.660156 199.644531 185.628906 198.359375 185.628906 198.015625 C 185.628906 197.015625 194.765625 188.371094 201.0625 183.410156 L 204.71875 180.53125 L 205.3125 182.011719 C 206.554688 185.121094 209.085938 186.09375 215.9375 186.09375 C 220.074219 186.09375 220.707031 186.183594 220.949219 186.792969 C 221.8125 188.980469 222.085938 199.019531 221.539062 208.707031 C 220.832031 221.371094 220.828125 223.863281 221.515625 226.230469 C 222.800781 230.679688 227.398438 232.828125 231.433594 230.871094 C 235.484375 228.902344 235.898438 226.601562 236.25 204.175781 C 236.519531 187.015625 236.554688 186.421875 237.324219 185.964844 C 238.671875 185.171875 239.617188 184.972656 242.316406 184.929688 C 250.746094 184.792969 255.429688 176.5 249.09375 172.929688 C 245.8125 171.082031 211.136719 171.820312 207.304688 173.820312 C 205.667969 174.675781 205.328125 174.660156 205.082031 173.722656 C 204.535156 171.621094 199.34375 169.910156 196.796875 170.988281 C 194.808594 171.828125 189.121094 176.183594 185.628906 179.542969 C 178.777344 186.121094 178.871094 186.09375 179.609375 181.308594 C 179.847656 179.785156 180.039062 176.789062 180.039062 174.648438 L 180.039062 170.761719 L 178.480469 169.273438 C 174.398438 165.382812 168.402344 167.851562 166.773438 174.089844 C 165.84375 177.636719 165.617188 179.59375 165.300781 186.695312 C 163.660156 223.359375 163.328125 224.976562 162.105469 202.300781 C 161.894531 198.339844 161.625 194.46875 161.511719 193.699219 C 161.394531 192.925781 161.105469 189.597656 160.859375 186.292969 C 160.078125 175.664062 158.789062 169.179688 157.140625 167.625 C 155.410156 165.992188 152.339844 165.234375 150.898438 166.082031 M 296.199219 167.222656 C 295.425781 167.609375 294.257812 168.316406 293.601562 168.789062 C 292.515625 169.574219 292.195312 169.613281 289.820312 169.246094 C 279.441406 167.640625 261.214844 167.390625 259.777344 168.828125 C 259.527344 169.082031 259.039062 169.285156 258.691406 169.285156 C 257.726562 169.285156 255.527344 171.5 254.828125 173.175781 C 254.339844 174.347656 254.121094 177.292969 253.84375 186.488281 C 253.648438 192.984375 253.289062 202.984375 253.050781 208.707031 C 252.105469 231.351562 251.996094 230.171875 255.1875 232.121094 C 260.515625 235.375 266.234375 229.238281 266.289062 220.207031 C 266.347656 211.25 266.328125 211.269531 274.65625 211.40625 L 280.894531 211.507812 L 282.363281 210.386719 C 286.800781 207 285.75 200.046875 280.582031 198.621094 C 278.496094 198.046875 272.785156 197.300781 270.457031 197.300781 C 267.59375 197.300781 267.292969 196.605469 267.820312 191.195312 C 268.0625 188.695312 268.261719 185.726562 268.261719 184.597656 C 268.261719 181.9375 268.449219 181.871094 276.046875 181.984375 C 281.894531 182.070312 287.796875 181.613281 288.746094 181.003906 C 289.007812 180.835938 289.789062 180.5 290.480469 180.253906 L 291.738281 179.8125 L 294.640625 185.652344 C 296.238281 188.867188 297.851562 191.945312 298.226562 192.496094 C 298.605469 193.046875 299.578125 194.847656 300.390625 196.5 C 301.203125 198.148438 302.0625 199.859375 302.300781 200.300781 C 302.535156 200.742188 303.34375 202.3125 304.09375 203.792969 L 305.457031 206.488281 L 305.214844 213 C 305.082031 216.582031 304.875 221.496094 304.757812 223.925781 C 304.367188 231.957031 307.742188 235.550781 313.425781 233.148438 C 317.726562 231.332031 318.160156 229.828125 319.363281 212.507812 C 319.808594 206.105469 319.933594 205.636719 322.015625 202.421875 C 322.972656 200.949219 323.753906 199.644531 323.753906 199.523438 C 323.753906 199.402344 324.382812 198.425781 325.148438 197.351562 C 325.917969 196.28125 326.546875 195.214844 326.546875 194.984375 C 326.546875 194.753906 326.6875 194.503906 326.863281 194.429688 C 327.035156 194.359375 328.242188 192.855469 329.539062 191.097656 C 330.84375 189.335938 333.644531 185.800781 335.769531 183.238281 C 342.210938 175.476562 343.289062 172.429688 340.769531 169.113281 C 338.160156 165.6875 329.742188 166.855469 329.742188 170.640625 C 329.742188 170.910156 326.125 176.132812 325.460938 176.820312 C 324.976562 177.320312 320.015625 184.246094 319.160156 185.609375 C 318.609375 186.496094 318.3125 186.914062 317.261719 188.292969 C 316.757812 188.957031 316.097656 189.992188 315.789062 190.597656 C 314.800781 192.554688 313.507812 191.105469 311.769531 186.09375 C 310.929688 183.667969 309.324219 180.09375 305.570312 172.273438 C 302.820312 166.546875 300.277344 165.175781 296.199219 167.222656 M 156.171875 167.96875 C 157.589844 169.328125 158.664062 172.925781 159.253906 178.289062 C 159.910156 184.238281 161.261719 201.003906 161.671875 208.304688 C 161.871094 211.828125 162.242188 216.847656 162.492188 219.460938 C 163.472656 229.566406 162.816406 231.972656 158.8125 232.933594 C 154.988281 233.855469 152.121094 232.789062 150.886719 229.980469 C 149.800781 227.511719 148.507812 213.203125 148.496094 203.480469 C 148.488281 195.949219 147.957031 195.71875 145.300781 202.101562 C 144.613281 203.753906 143.453125 206.363281 142.722656 207.90625 C 141.988281 209.445312 140.585938 212.4375 139.601562 214.554688 C 135.550781 223.277344 129.714844 222.664062 126.191406 213.148438 C 124.589844 208.824219 120.136719 199.964844 119.757812 200.347656 C 119.554688 200.546875 119.117188 202.421875 118.785156 204.507812 C 118.453125 206.597656 117.933594 209.566406 117.628906 211.105469 C 117.324219 212.648438 116.769531 215.710938 116.394531 217.910156 C 116.019531 220.109375 115.558594 222.542969 115.367188 223.3125 C 115.175781 224.082031 114.804688 225.613281 114.535156 226.714844 C 113.566406 230.738281 111.03125 232.515625 107.117188 231.929688 C 102.652344 231.257812 101.007812 225.722656 103.003906 218.109375 C 103.203125 217.339844 103.757812 214.1875 104.226562 211.105469 C 104.699219 208.023438 105.222656 204.695312 105.394531 203.703125 C 106.386719 197.882812 107.890625 188.300781 108.191406 185.894531 C 109.527344 175.195312 111.792969 170.324219 115.886719 169.328125 C 121.59375 167.945312 124.085938 171.714844 130.011719 190.695312 C 133.203125 200.914062 133.339844 200.953125 136.308594 192.496094 C 137.121094 190.1875 138.023438 187.753906 138.320312 187.09375 C 138.617188 186.433594 139.777344 183.644531 140.90625 180.890625 C 143.035156 175.6875 145.695312 170.421875 146.839844 169.144531 C 149.035156 166.691406 154.171875 166.046875 156.171875 167.96875 M 302.320312 168.417969 C 302.800781 168.871094 303.492188 169.835938 303.855469 170.5625 C 306.019531 174.882812 309.0625 181.605469 310.34375 184.894531 C 313.699219 193.511719 314.445312 194.210938 316.625 190.804688 C 318.09375 188.507812 325.8125 177.53125 326.789062 176.351562 C 327.128906 175.945312 328.207031 174.414062 329.1875 172.949219 C 332.085938 168.621094 332.164062 168.539062 333.621094 168.054688 C 340.914062 165.640625 343.765625 174.96875 337.300781 180.089844 C 337.066406 180.273438 328.0625 191.644531 326.152344 194.167969 C 325.703125 194.753906 323.933594 197.574219 322.210938 200.433594 L 319.082031 205.628906 L 318.601562 212.570312 C 317.484375 228.675781 316.730469 231.203125 312.628906 232.5625 C 306.394531 234.632812 304.730469 230.824219 306.035156 217.464844 C 306.773438 209.875 306.460938 206.140625 304.839844 203.226562 C 303.746094 201.265625 299.929688 193.945312 295.386719 185.09375 C 291.96875 178.4375 292.300781 178.683594 288.621094 180.050781 C 286.695312 180.765625 285.472656 180.867188 278.59375 180.878906 C 266.707031 180.898438 267.535156 180.289062 267.050781 189.367188 C 266.574219 198.25 266.371094 197.929688 272.734375 198.300781 C 282.011719 198.847656 284.625 200.539062 284.101562 205.667969 C 283.90625 207.570312 283.664062 208.097656 282.460938 209.207031 C 280.882812 210.660156 281.085938 210.628906 272.777344 210.675781 C 265.636719 210.714844 266.175781 210.113281 265.613281 218.660156 C 265.035156 227.453125 263.988281 229.738281 259.738281 231.519531 C 255.167969 233.433594 252.277344 229.59375 253.140625 222.761719 C 253.632812 218.878906 254.277344 204.214844 254.65625 188.292969 C 255.050781 171.828125 255.386719 170.804688 260.878906 169.320312 C 264.339844 168.386719 284.109375 169.027344 291.507812 170.3125 C 292.765625 170.53125 293.199219 170.398438 294.304688 169.46875 C 297.0625 167.136719 300.488281 166.6875 302.320312 168.417969 M 177.714844 169.632812 C 179.535156 171.261719 179.6875 176.421875 178.175781 185.195312 C 177.714844 187.871094 179.164062 187 185.628906 180.734375 C 195.953125 170.71875 202.363281 168.792969 204.90625 174.9375 L 205.390625 176.105469 L 206.785156 175.164062 C 209.4375 173.382812 217.226562 172.324219 223.351562 172.921875 C 228.101562 173.382812 234.777344 173.347656 239.640625 172.839844 C 247.492188 172.015625 250.699219 173.390625 250.699219 177.578125 C 250.699219 181.796875 248.65625 183.503906 243.113281 183.917969 C 235.101562 184.519531 235.660156 183.0625 235.414062 203.902344 C 235.21875 220.699219 234.933594 224.242188 233.515625 227.554688 C 231.757812 231.664062 225.34375 231.75 222.96875 227.703125 C 222.0625 226.152344 222.105469 228.066406 222.394531 202.300781 C 222.546875 188.921875 222.519531 188.222656 221.757812 186.695312 L 220.957031 185.09375 L 217.179688 185.222656 C 210.152344 185.464844 206.839844 184.296875 205.933594 181.265625 C 205.273438 179.054688 204.652344 178.636719 203.734375 179.78125 C 203.328125 180.289062 202.007812 181.511719 200.796875 182.5 C 196.074219 186.359375 190.082031 191.75 187.28125 194.65625 L 184.34375 197.707031 L 185.054688 198.804688 C 185.445312 199.40625 186.777344 200.890625 188.015625 202.101562 C 192.210938 206.203125 201.964844 218.292969 203.988281 221.902344 C 206.625 226.613281 201.449219 232.445312 196.21875 230.65625 C 194.480469 230.066406 192.105469 227.703125 190.238281 224.714844 C 189.339844 223.273438 182.789062 215.097656 180.324219 212.34375 C 177.855469 209.585938 177.644531 209.914062 177.644531 216.503906 C 177.644531 226.386719 175.894531 229.714844 170.699219 229.714844 C 165.046875 229.714844 163.78125 225.578125 164.875 210.707031 C 165.070312 208.066406 165.507812 199.960938 165.847656 192.699219 C 166.582031 176.949219 167.179688 173.027344 169.195312 170.730469 C 171.4375 168.175781 175.503906 167.652344 177.714844 169.632812 M 82.035156 181.363281 C 80.339844 182.3125 80.136719 182.644531 77.101562 189.390625 C 76.632812 190.433594 76.246094 191.472656 76.246094 191.699219 C 76.246094 191.921875 76.082031 192.421875 75.878906 192.804688 C 75.679688 193.183594 75.019531 194.726562 74.414062 196.222656 C 73.171875 199.300781 73.0625 199.253906 71.84375 195.167969 C 68.46875 183.894531 67.109375 181.839844 63.605469 182.71875 C 61.671875 183.203125 60.488281 185.46875 59.863281 189.894531 C 58.90625 196.65625 58.707031 197.96875 58.324219 200.101562 C 55.9375 213.34375 55.910156 213.835938 57.476562 215.300781 C 61.347656 218.925781 63.246094 215.75 65.042969 202.644531 C 65.53125 199.101562 65.972656 198.464844 66.769531 200.164062 C 68.632812 204.144531 69.859375 206.964844 69.859375 207.273438 C 69.859375 208.050781 72.230469 210.105469 73.125 210.105469 C 75.097656 210.105469 75.578125 209.445312 78.839844 202.300781 C 81.15625 197.226562 81.417969 196.6875 81.453125 196.898438 C 81.472656 197.007812 81.625 200.792969 81.796875 205.304688 C 82.171875 215.269531 82.890625 217.308594 86.027344 217.308594 C 88.992188 217.308594 89.601562 215.527344 89.0625 208.429688 C 88.824219 205.277344 88.429688 200 88.183594 196.699219 C 87.085938 181.722656 86.039062 179.121094 82.035156 181.363281 M 85.027344 182.410156 C 86.140625 183.3125 86.765625 187.316406 87.394531 197.5 C 87.636719 201.460938 88.035156 206.835938 88.277344 209.445312 C 88.824219 215.367188 88.566406 216.109375 85.941406 216.109375 C 83.371094 216.109375 83.058594 215.09375 82.800781 205.984375 C 82.421875 192.335938 82.382812 192.316406 77.648438 202.902344 C 75.476562 207.761719 74.398438 209.304688 73.171875 209.304688 C 72.417969 209.304688 70.257812 207.019531 70.257812 206.222656 C 70.257812 205.039062 65.890625 196.425781 65.375 196.59375 C 65.058594 196.699219 64.78125 197.875 64.628906 199.730469 C 64.351562 203.140625 62.898438 211.144531 62.128906 213.507812 C 61.636719 215.011719 61.503906 215.117188 59.886719 215.234375 C 57.351562 215.417969 56.957031 214.003906 57.90625 208.140625 C 58.132812 206.730469 58.507812 204.300781 58.730469 202.738281 C 61.023438 186.882812 61.753906 184.023438 63.691406 183.285156 C 66.238281 182.316406 67.164062 183.675781 70.230469 192.878906 C 72.984375 201.140625 73.238281 201.425781 74.664062 197.800781 C 75.160156 196.535156 75.800781 194.957031 76.089844 194.296875 C 76.375 193.636719 77.042969 191.925781 77.574219 190.492188 C 79.988281 183.957031 81.238281 182.21875 83.886719 181.738281 C 84.027344 181.710938 84.539062 182.015625 85.027344 182.410156 "/>
</g>
</svg>
