<svg id="svg" version="1.1" xmlns="http://www.w3.org/2000/svg" xmlns:xlink="http://www.w3.org/1999/xlink" width="400" height="399.10112359550556" viewBox="0, 0, 400,399.10112359550556"><g id="svgg"><path id="path0" d="M148.902 167.242 C 146.411 168.559,144.457 171.784,140.905 180.439 C 139.779 183.184,138.616 185.968,138.321 186.627 C 138.025 187.285,137.120 189.711,136.308 192.016 C 133.340 200.449,133.202 200.410,130.013 190.220 C 124.087 171.285,121.594 167.524,115.887 168.906 C 111.793 169.897,109.529 174.759,108.193 185.429 C 107.892 187.830,106.386 197.387,105.393 203.194 C 105.224 204.182,104.700 207.505,104.228 210.579 C 103.756 213.652,103.205 216.796,103.003 217.565 C 101.007 225.160,102.653 230.679,107.116 231.348 C 111.033 231.935,113.565 230.162,114.537 226.148 C 114.803 225.050,115.177 223.523,115.367 222.754 C 115.558 221.986,116.021 219.561,116.395 217.365 C 116.770 215.170,117.325 212.116,117.629 210.579 C 117.933 209.042,118.453 206.080,118.786 203.997 C 119.118 201.914,119.555 200.046,119.756 199.845 C 120.136 199.464,124.589 208.302,126.190 212.614 C 129.713 222.108,135.550 222.718,139.603 214.017 C 140.586 211.906,141.989 208.922,142.721 207.385 C 143.454 205.848,144.615 203.244,145.302 201.597 C 147.958 195.231,148.488 195.459,148.497 202.973 C 148.508 212.671,149.799 226.943,150.888 229.407 C 152.123 232.206,154.987 233.270,158.813 232.352 C 162.815 231.392,163.472 228.991,162.494 218.913 C 162.241 216.305,161.871 211.297,161.673 207.784 C 160.735 191.183,159.128 174.935,158.057 171.240 C 156.725 166.642,153.060 165.042,148.902 167.242 M296.806 167.399 C 296.148 167.699,295.021 168.439,294.303 169.045 C 293.201 169.973,292.764 170.105,291.508 169.887 C 284.108 168.604,264.341 167.965,260.878 168.898 C 255.385 170.377,255.049 171.397,254.657 187.824 C 254.277 203.705,253.633 218.331,253.142 222.203 C 252.279 229.021,255.169 232.849,259.739 230.940 C 263.989 229.164,265.034 226.883,265.613 218.113 C 266.175 209.588,265.636 210.188,272.778 210.149 C 281.087 210.103,280.882 210.134,282.461 208.683 C 283.663 207.578,283.907 207.053,284.102 205.154 C 284.625 200.039,282.012 198.350,272.736 197.806 C 266.370 197.434,266.575 197.755,267.050 188.894 C 267.535 179.837,266.706 180.446,278.593 180.426 C 285.471 180.415,286.695 180.314,288.623 179.599 C 292.300 178.237,291.969 177.990,295.386 184.631 C 299.930 193.460,303.746 200.761,304.838 202.717 C 306.462 205.625,306.775 209.350,306.034 216.923 C 304.729 230.246,306.393 234.047,312.628 231.983 C 316.729 230.626,317.484 228.105,318.602 212.039 L 319.083 205.116 322.212 199.932 C 323.932 197.081,325.705 194.268,326.151 193.682 C 328.064 191.164,337.068 179.823,337.299 179.641 C 343.765 174.533,340.916 165.228,333.623 167.635 C 332.163 168.117,332.086 168.201,329.187 172.517 C 328.206 173.978,327.128 175.505,326.791 175.910 C 325.813 177.089,318.093 188.035,316.625 190.326 C 314.446 193.727,313.699 193.026,310.343 184.431 C 309.063 181.152,306.019 174.446,303.856 170.138 C 302.428 167.293,299.521 166.164,296.806 167.399 M171.058 168.807 C 167.301 171.127,166.709 173.787,165.846 192.216 C 165.507 199.461,165.070 207.545,164.876 210.180 C 163.781 225.015,165.048 229.142,170.700 229.142 C 175.895 229.142,177.645 225.820,177.645 215.961 C 177.645 209.389,177.856 209.061,180.325 211.814 C 182.789 214.561,189.341 222.714,190.240 224.152 C 192.105 227.132,194.482 229.490,196.218 230.081 C 201.449 231.864,206.625 226.045,203.987 221.348 C 201.965 217.749,192.211 205.686,188.016 201.597 C 186.777 200.389,185.444 198.908,185.053 198.306 L 184.343 197.211 187.281 194.170 C 190.083 191.270,196.074 185.895,200.798 182.042 C 202.006 181.057,203.327 179.837,203.733 179.332 C 204.653 178.189,205.272 178.606,205.933 180.812 C 206.839 183.837,210.152 185.000,217.181 184.760 L 220.958 184.631 221.756 186.228 C 222.519 187.753,222.548 188.450,222.396 201.796 C 222.104 227.498,222.061 225.587,222.968 227.132 C 225.342 231.172,231.759 231.084,233.516 226.986 C 234.932 223.681,235.217 220.147,235.416 203.393 C 235.662 182.605,235.102 184.057,243.114 183.458 C 248.657 183.044,250.699 181.342,250.699 177.136 C 250.699 172.958,247.491 171.586,239.642 172.406 C 234.776 172.914,228.100 172.948,223.353 172.488 C 217.226 171.895,209.438 172.948,206.786 174.728 L 205.389 175.666 204.906 174.501 C 202.363 168.371,195.954 170.292,185.629 180.281 C 179.166 186.534,177.716 187.400,178.177 184.731 C 179.689 175.982,179.536 170.835,177.716 169.209 C 176.132 167.794,173.004 167.605,171.058 168.807 M82.834 181.526 C 81.207 181.926,79.621 184.485,77.573 190.015 C 77.043 191.445,76.375 193.154,76.088 193.812 C 75.801 194.471,75.160 196.043,74.663 197.305 C 73.240 200.921,72.983 200.636,70.230 192.395 C 67.164 183.215,66.237 181.859,63.692 182.827 C 61.754 183.564,61.025 186.414,58.732 202.233 C 58.506 203.790,58.134 206.215,57.906 207.622 C 56.958 213.468,57.353 214.881,59.885 214.697 C 61.504 214.578,61.638 214.475,62.129 212.974 C 62.899 210.617,64.352 202.634,64.629 199.233 C 64.780 197.379,65.060 196.208,65.376 196.104 C 65.890 195.934,70.259 204.527,70.259 205.707 C 70.259 206.501,72.419 208.782,73.170 208.782 C 74.397 208.782,75.478 207.241,77.649 202.395 C 82.381 191.834,82.420 191.857,82.802 205.468 C 83.057 214.555,83.372 215.569,85.940 215.569 C 88.567 215.569,88.826 214.830,88.276 208.921 C 88.034 206.320,87.637 200.958,87.393 197.006 C 86.646 184.874,85.769 180.942,83.888 181.284 C 83.748 181.309,83.273 181.418,82.834 181.526 " stroke="none" fill="#ffffff" fill-rule="evenodd"></path><path id="path1" d="M0.000 199.601 L 0.000 399.202 199.430 399.202 C 371.737 399.202,398.937 399.124,399.430 398.631 C 399.922 398.139,400.000 370.991,400.000 199.031 L 400.000 0.000 200.000 0.000 L 0.000 0.000 0.000 199.601 M154.941 165.837 C 158.576 167.370,159.807 171.528,160.861 185.828 C 161.104 189.122,161.396 192.445,161.510 193.214 C 161.625 193.982,161.893 197.844,162.107 201.796 C 162.786 214.376,163.318 218.513,163.818 215.111 C 164.000 213.866,164.476 204.584,165.299 186.228 C 165.617 179.144,165.845 177.193,166.773 173.653 C 168.403 167.430,174.400 164.970,178.480 168.852 L 180.040 170.335 180.040 174.213 C 180.040 176.346,179.847 179.336,179.611 180.857 C 178.870 185.630,178.779 185.657,185.629 179.093 C 189.123 175.744,194.809 171.400,196.795 170.561 C 199.344 169.484,204.535 171.192,205.083 173.288 C 205.328 174.224,205.669 174.239,207.305 173.387 C 211.136 171.392,245.813 170.655,249.094 172.499 C 252.482 174.403,252.664 178.676,249.501 182.060 C 247.881 183.792,246.044 184.408,242.315 184.469 C 239.616 184.512,238.670 184.708,237.325 185.501 C 236.553 185.956,236.518 186.547,236.250 203.664 C 235.899 226.037,235.484 228.332,231.432 230.294 C 227.398 232.246,222.802 230.102,221.514 225.665 C 220.827 223.302,220.831 220.817,221.541 208.184 C 222.084 198.523,221.813 188.508,220.950 186.327 C 220.708 185.717,220.076 185.629,215.939 185.629 C 209.086 185.629,206.553 184.658,205.311 181.556 L 204.719 180.078 201.062 182.952 C 194.766 187.899,185.629 196.525,185.629 197.521 C 185.629 197.862,186.662 199.144,187.924 200.370 C 192.700 205.009,201.602 215.800,204.491 220.451 C 207.304 224.981,202.680 232.182,197.484 231.361 C 194.517 230.893,193.252 229.679,187.720 221.990 C 187.338 221.460,186.846 220.831,186.627 220.592 C 186.407 220.354,185.515 219.261,184.644 218.163 C 183.774 217.066,182.067 215.029,180.852 213.638 L 178.643 211.108 178.407 217.630 C 178.101 226.087,177.260 227.957,172.957 229.755 C 170.083 230.956,166.385 229.690,165.012 227.033 C 164.293 225.644,163.766 226.139,163.701 228.263 C 163.603 231.462,161.139 233.213,156.708 233.233 C 149.614 233.266,148.675 230.736,148.163 210.212 C 147.857 197.981,147.713 197.663,145.250 203.792 C 144.809 204.890,143.744 207.253,142.883 209.043 C 142.022 210.832,141.317 212.494,141.317 212.735 C 141.317 212.976,141.138 213.174,140.918 213.174 C 140.699 213.174,140.519 213.427,140.519 213.736 C 140.519 214.699,138.507 218.229,137.299 219.387 C 134.884 221.700,130.316 221.015,128.183 218.020 C 127.013 216.377,124.950 212.515,124.950 211.968 C 124.950 211.702,124.052 209.623,122.954 207.347 C 121.856 205.071,120.958 203.026,120.958 202.802 C 120.958 201.642,119.818 202.570,119.618 203.892 C 118.694 210.015,116.998 219.249,116.564 220.519 C 116.346 221.155,116.168 222.130,116.168 222.686 C 116.168 223.653,116.053 224.131,114.957 227.745 C 113.189 233.571,104.316 234.015,101.961 228.394 C 101.320 226.863,101.213 222.161,101.771 220.006 C 101.976 219.212,102.534 215.868,103.011 212.575 C 103.488 209.281,104.128 205.539,104.434 204.259 C 104.740 202.979,104.990 201.410,104.990 200.772 C 104.990 200.134,105.164 198.846,105.377 197.910 C 105.900 195.608,107.016 188.505,107.431 184.830 C 107.618 183.184,107.940 181.118,108.148 180.240 C 109.110 176.185,109.575 174.577,110.055 173.653 C 110.341 173.104,110.575 172.453,110.576 172.206 C 110.582 171.232,113.251 168.923,115.084 168.307 C 119.904 166.686,123.447 169.104,125.765 175.596 C 126.699 178.213,126.941 178.859,127.574 180.439 C 128.325 182.311,130.770 189.547,131.824 193.014 C 133.233 197.651,133.690 197.651,135.098 193.014 C 135.498 191.697,136.142 189.900,136.528 189.022 C 136.915 188.144,137.461 186.796,137.743 186.028 C 142.189 173.894,146.242 166.879,149.164 166.261 C 149.789 166.128,150.569 165.862,150.898 165.668 C 151.804 165.136,153.440 165.204,154.941 165.837 M302.011 166.754 C 303.251 167.346,303.743 168.049,305.570 171.844 C 309.325 179.642,310.928 183.208,311.769 185.629 C 313.506 190.628,314.800 192.074,315.791 190.120 C 316.097 189.516,316.759 188.483,317.261 187.824 C 318.313 186.446,318.609 186.031,319.162 185.147 C 320.015 183.785,324.975 176.877,325.460 176.377 C 326.124 175.691,329.741 170.484,329.741 170.214 C 329.741 166.437,338.162 165.275,340.768 168.692 C 343.289 171.997,342.210 175.038,335.769 182.780 C 333.644 185.335,330.842 188.862,329.541 190.619 C 328.241 192.375,327.035 193.872,326.862 193.945 C 326.689 194.019,326.547 194.267,326.547 194.497 C 326.547 194.727,325.918 195.790,325.150 196.859 C 324.381 197.929,323.752 198.903,323.752 199.024 C 323.752 199.145,322.971 200.447,322.016 201.917 C 319.934 205.122,319.810 205.592,319.365 211.976 C 318.160 229.254,317.728 230.752,313.424 232.566 C 307.743 234.961,304.369 231.379,304.758 223.366 C 304.875 220.944,305.081 216.039,305.215 212.467 L 305.458 205.972 304.093 203.285 C 303.342 201.808,302.535 200.240,302.299 199.800 C 302.063 199.361,301.205 197.655,300.391 196.008 C 299.577 194.361,298.604 192.565,298.228 192.016 C 297.852 191.467,296.239 188.395,294.642 185.190 L 291.740 179.362 290.481 179.804 C 289.788 180.047,289.008 180.383,288.748 180.550 C 287.798 181.160,281.894 181.615,276.048 181.530 C 268.451 181.418,268.263 181.481,268.263 184.137 C 268.263 185.264,268.064 188.225,267.821 190.718 C 267.294 196.115,267.593 196.806,270.457 196.806 C 272.784 196.806,278.496 197.550,280.583 198.124 C 285.749 199.546,286.802 206.481,282.364 209.860 L 280.895 210.978 274.656 210.877 C 266.327 210.743,266.346 210.723,266.291 219.655 C 266.236 228.666,260.515 234.788,255.186 231.539 C 251.998 229.595,252.106 230.775,253.052 208.184 C 253.291 202.475,253.647 192.503,253.844 186.024 C 254.122 176.850,254.339 173.911,254.827 172.744 C 255.526 171.071,257.725 168.862,258.692 168.862 C 259.038 168.862,259.526 168.658,259.776 168.408 C 261.213 166.971,279.440 167.223,289.820 168.824 C 292.196 169.190,292.515 169.152,293.603 168.366 C 296.851 166.019,299.432 165.525,302.011 166.754 M85.708 181.337 C 86.970 182.725,87.367 185.104,88.185 196.208 C 88.428 199.501,88.823 204.766,89.063 207.908 C 89.603 214.989,88.994 216.766,86.028 216.766 C 82.891 216.766,82.172 214.730,81.796 204.792 C 81.625 200.290,81.471 196.517,81.452 196.407 C 81.417 196.195,81.156 196.734,78.840 201.796 C 75.580 208.923,75.098 209.581,73.125 209.581 C 72.229 209.581,69.860 207.530,69.860 206.754 C 69.860 206.447,68.634 203.635,66.768 199.663 C 65.972 197.969,65.530 198.605,65.044 202.139 C 63.247 215.210,61.348 218.379,57.478 214.764 C 55.911 213.300,55.938 212.812,58.323 199.601 C 58.707 197.472,58.905 196.163,59.863 189.421 C 60.489 185.006,61.671 182.747,63.605 182.262 C 67.109 181.385,68.470 183.436,71.842 194.680 C 73.064 198.757,73.172 198.801,74.413 195.733 C 75.018 194.238,75.678 192.702,75.880 192.321 C 76.082 191.940,76.248 191.444,76.248 191.219 C 76.248 190.831,76.636 189.915,78.937 184.871 C 80.823 180.736,83.765 179.201,85.708 181.337 " stroke="none" fill="#944bde" fill-rule="evenodd"></path><path id="path2" d="M150.898 165.668 C 150.569 165.862,149.789 166.128,149.164 166.261 C 146.242 166.879,142.189 173.894,137.743 186.028 C 137.461 186.796,136.915 188.144,136.528 189.022 C 136.142 189.900,135.498 191.697,135.098 193.014 C 133.690 197.651,133.233 197.651,131.824 193.014 C 130.770 189.547,128.325 182.311,127.574 180.439 C 126.941 178.859,126.699 178.213,125.765 175.596 C 123.447 169.104,119.904 166.686,115.084 168.307 C 113.251 168.923,110.582 171.232,110.576 172.206 C 110.575 172.453,110.341 173.104,110.055 173.653 C 109.575 174.577,109.110 176.185,108.148 180.240 C 107.940 181.118,107.618 183.184,107.431 184.830 C 107.016 188.505,105.900 195.608,105.377 197.910 C 105.164 198.846,104.990 200.134,104.990 200.772 C 104.990 201.410,104.740 202.979,104.434 204.259 C 104.128 205.539,103.488 209.281,103.011 212.575 C 102.534 215.868,101.976 219.212,101.771 220.006 C 101.213 222.161,101.320 226.863,101.961 228.394 C 104.316 234.015,113.189 233.571,114.957 227.745 C 116.053 224.131,116.168 223.653,116.168 222.686 C 116.168 222.130,116.346 221.155,116.564 220.519 C 116.998 219.249,118.694 210.015,119.618 203.892 C 119.818 202.570,120.958 201.642,120.958 202.802 C 120.958 203.026,121.856 205.071,122.954 207.347 C 124.052 209.623,124.950 211.702,124.950 211.968 C 124.950 212.515,127.013 216.377,128.183 218.020 C 130.316 221.015,134.884 221.700,137.299 219.387 C 138.507 218.229,140.519 214.699,140.519 213.736 C 140.519 213.427,140.699 213.174,140.918 213.174 C 141.138 213.174,141.317 212.976,141.317 212.735 C 141.317 212.494,142.022 210.832,142.883 209.043 C 143.744 207.253,144.809 204.890,145.250 203.792 C 147.713 197.663,147.857 197.981,148.163 210.212 C 148.675 230.736,149.614 233.266,156.708 233.233 C 161.139 233.213,163.603 231.462,163.701 228.263 C 163.766 226.139,164.293 225.644,165.012 227.033 C 166.385 229.690,170.083 230.956,172.957 229.755 C 177.260 227.957,178.101 226.087,178.407 217.630 L 178.643 211.108 180.852 213.638 C 182.067 215.029,183.774 217.066,184.644 218.163 C 185.515 219.261,186.407 220.354,186.627 220.592 C 186.846 220.831,187.338 221.460,187.720 221.990 C 193.252 229.679,194.517 230.893,197.484 231.361 C 202.680 232.182,207.304 224.981,204.491 220.451 C 201.602 215.800,192.700 205.009,187.924 200.370 C 186.662 199.144,185.629 197.862,185.629 197.521 C 185.629 196.525,194.766 187.899,201.062 182.952 L 204.719 180.078 205.311 181.556 C 206.553 184.658,209.086 185.629,215.939 185.629 C 220.076 185.629,220.708 185.717,220.950 186.327 C 221.813 188.508,222.084 198.523,221.541 208.184 C 220.831 220.817,220.827 223.302,221.514 225.665 C 222.802 230.102,227.398 232.246,231.432 230.294 C 235.484 228.332,235.899 226.037,236.250 203.664 C 236.518 186.547,236.553 185.956,237.325 185.501 C 238.670 184.708,239.616 184.512,242.315 184.469 C 250.747 184.332,255.431 176.060,249.094 172.499 C 245.813 170.655,211.136 171.392,207.305 173.387 C 205.669 174.239,205.328 174.224,205.083 173.288 C 204.535 171.192,199.344 169.484,196.795 170.561 C 194.809 171.400,189.123 175.744,185.629 179.093 C 178.779 185.657,178.870 185.630,179.611 180.857 C 179.847 179.336,180.040 176.346,180.040 174.213 L 180.040 170.335 178.480 168.852 C 174.400 164.970,168.403 167.430,166.773 173.653 C 165.845 177.193,165.617 179.144,165.299 186.228 C 163.660 222.800,163.329 224.414,162.107 201.796 C 161.893 197.844,161.625 193.982,161.510 193.214 C 161.396 192.445,161.104 189.122,160.861 185.828 C 160.079 175.223,158.788 168.758,157.140 167.207 C 155.409 165.578,152.340 164.821,150.898 165.668 M296.198 166.804 C 295.424 167.191,294.256 167.894,293.603 168.366 C 292.515 169.152,292.196 169.190,289.820 168.824 C 279.440 167.223,261.213 166.971,259.776 168.408 C 259.526 168.658,259.038 168.862,258.692 168.862 C 257.725 168.862,255.526 171.071,254.827 172.744 C 254.339 173.911,254.122 176.850,253.844 186.024 C 253.647 192.503,253.291 202.475,253.052 208.184 C 252.106 230.775,251.998 229.595,255.186 231.539 C 260.515 234.788,266.236 228.666,266.291 219.655 C 266.346 210.723,266.327 210.743,274.656 210.877 L 280.895 210.978 282.364 209.860 C 286.802 206.481,285.749 199.546,280.583 198.124 C 278.496 197.550,272.784 196.806,270.457 196.806 C 267.593 196.806,267.294 196.115,267.821 190.718 C 268.064 188.225,268.263 185.264,268.263 184.137 C 268.263 181.481,268.451 181.418,276.048 181.530 C 281.894 181.615,287.798 181.160,288.748 180.550 C 289.008 180.383,289.788 180.047,290.481 179.804 L 291.740 179.362 294.642 185.190 C 296.239 188.395,297.852 191.467,298.228 192.016 C 298.604 192.565,299.577 194.361,300.391 196.008 C 301.205 197.655,302.063 199.361,302.299 199.800 C 302.535 200.240,303.342 201.808,304.093 203.285 L 305.458 205.972 305.215 212.467 C 305.081 216.039,304.875 220.944,304.758 223.366 C 304.369 231.379,307.743 234.961,313.424 232.566 C 317.728 230.752,318.160 229.254,319.365 211.976 C 319.810 205.592,319.934 205.122,322.016 201.917 C 322.971 200.447,323.752 199.145,323.752 199.024 C 323.752 198.903,324.381 197.929,325.150 196.859 C 325.918 195.790,326.547 194.727,326.547 194.497 C 326.547 194.267,326.689 194.019,326.862 193.945 C 327.035 193.872,328.241 192.375,329.541 190.619 C 330.842 188.862,333.644 185.335,335.769 182.780 C 342.210 175.038,343.289 171.997,340.768 168.692 C 338.162 165.275,329.741 166.437,329.741 170.214 C 329.741 170.484,326.124 175.691,325.460 176.377 C 324.975 176.877,320.015 183.785,319.162 185.147 C 318.609 186.031,318.313 186.446,317.261 187.824 C 316.759 188.483,316.097 189.516,315.791 190.120 C 314.800 192.074,313.506 190.628,311.769 185.629 C 310.928 183.208,309.325 179.642,305.570 171.844 C 302.820 166.131,300.276 164.763,296.198 166.804 M156.173 167.547 C 157.589 168.904,158.664 172.494,159.255 177.844 C 159.911 183.779,161.262 200.500,161.673 207.784 C 161.871 211.297,162.241 216.305,162.494 218.913 C 163.472 228.991,162.815 231.392,158.813 232.352 C 154.987 233.270,152.123 232.206,150.888 229.407 C 149.799 226.943,148.508 212.671,148.497 202.973 C 148.488 195.459,147.958 195.231,145.302 201.597 C 144.615 203.244,143.454 205.848,142.721 207.385 C 141.989 208.922,140.586 211.906,139.603 214.017 C 135.550 222.718,129.713 222.108,126.190 212.614 C 124.589 208.302,120.136 199.464,119.756 199.845 C 119.555 200.046,119.118 201.914,118.786 203.997 C 118.453 206.080,117.933 209.042,117.629 210.579 C 117.325 212.116,116.770 215.170,116.395 217.365 C 116.021 219.561,115.558 221.986,115.367 222.754 C 115.177 223.523,114.803 225.050,114.537 226.148 C 113.565 230.162,111.033 231.935,107.116 231.348 C 102.653 230.679,101.007 225.160,103.003 217.565 C 103.205 216.796,103.756 213.652,104.228 210.579 C 104.700 207.505,105.224 204.182,105.393 203.194 C 106.386 197.387,107.892 187.830,108.193 185.429 C 109.529 174.759,111.793 169.897,115.887 168.906 C 121.594 167.524,124.087 171.285,130.013 190.220 C 133.202 200.410,133.340 200.449,136.308 192.016 C 137.120 189.711,138.025 187.285,138.321 186.627 C 138.616 185.968,139.779 183.184,140.905 180.439 C 143.036 175.247,145.695 169.995,146.840 168.721 C 149.035 166.276,154.172 165.630,156.173 167.547 M302.320 167.996 C 302.801 168.448,303.492 169.412,303.856 170.138 C 306.019 174.446,309.063 181.152,310.343 184.431 C 313.699 193.026,314.446 193.727,316.625 190.326 C 318.093 188.035,325.813 177.089,326.791 175.910 C 327.128 175.505,328.206 173.978,329.187 172.517 C 332.086 168.201,332.163 168.117,333.623 167.635 C 340.916 165.228,343.765 174.533,337.299 179.641 C 337.068 179.823,328.064 191.164,326.151 193.682 C 325.705 194.268,323.932 197.081,322.212 199.932 L 319.083 205.116 318.602 212.039 C 317.484 228.105,316.729 230.626,312.628 231.983 C 306.393 234.047,304.729 230.246,306.034 216.923 C 306.775 209.350,306.462 205.625,304.838 202.717 C 303.746 200.761,299.930 193.460,295.386 184.631 C 291.969 177.990,292.300 178.237,288.623 179.599 C 286.695 180.314,285.471 180.415,278.593 180.426 C 266.706 180.446,267.535 179.837,267.050 188.894 C 266.575 197.755,266.370 197.434,272.736 197.806 C 282.012 198.350,284.625 200.039,284.102 205.154 C 283.907 207.053,283.663 207.578,282.461 208.683 C 280.882 210.134,281.087 210.103,272.778 210.149 C 265.636 210.188,266.175 209.588,265.613 218.113 C 265.034 226.883,263.989 229.164,259.739 230.940 C 255.169 232.849,252.279 229.021,253.142 222.203 C 253.633 218.331,254.277 203.705,254.657 187.824 C 255.049 171.397,255.385 170.377,260.878 168.898 C 264.341 167.965,284.108 168.604,291.508 169.887 C 292.764 170.105,293.201 169.973,294.303 169.045 C 297.062 166.719,300.489 166.271,302.320 167.996 M177.716 169.209 C 179.536 170.835,179.689 175.982,178.177 184.731 C 177.716 187.400,179.166 186.534,185.629 180.281 C 195.954 170.292,202.363 168.371,204.906 174.501 L 205.389 175.666 206.786 174.728 C 209.438 172.948,217.226 171.895,223.353 172.488 C 228.100 172.948,234.776 172.914,239.642 172.406 C 247.491 171.586,250.699 172.958,250.699 177.136 C 250.699 181.342,248.657 183.044,243.114 183.458 C 235.102 184.057,235.662 182.605,235.416 203.393 C 235.217 220.147,234.932 223.681,233.516 226.986 C 231.759 231.084,225.342 231.172,222.968 227.132 C 222.061 225.587,222.104 227.498,222.396 201.796 C 222.548 188.450,222.519 187.753,221.756 186.228 L 220.958 184.631 217.181 184.760 C 210.152 185.000,206.839 183.837,205.933 180.812 C 205.272 178.606,204.653 178.189,203.733 179.332 C 203.327 179.837,202.006 181.057,200.798 182.042 C 196.074 185.895,190.083 191.270,187.281 194.170 L 184.343 197.211 185.053 198.306 C 185.444 198.908,186.777 200.389,188.016 201.597 C 192.211 205.686,201.965 217.749,203.987 221.348 C 206.625 226.045,201.449 231.864,196.218 230.081 C 194.482 229.490,192.105 227.132,190.240 224.152 C 189.341 222.714,182.789 214.561,180.325 211.814 C 177.856 209.061,177.645 209.389,177.645 215.961 C 177.645 225.820,175.895 229.142,170.700 229.142 C 165.048 229.142,163.781 225.015,164.876 210.180 C 165.070 207.545,165.507 199.461,165.846 192.216 C 166.582 176.505,167.179 172.593,169.195 170.302 C 171.437 167.755,175.504 167.233,177.716 169.209 M82.036 180.910 C 80.338 181.858,80.135 182.188,77.100 188.918 C 76.631 189.958,76.248 190.994,76.248 191.219 C 76.248 191.444,76.082 191.940,75.880 192.321 C 75.678 192.702,75.018 194.238,74.413 195.733 C 73.172 198.801,73.064 198.757,71.842 194.680 C 68.470 183.436,67.109 181.385,63.605 182.262 C 61.671 182.747,60.489 185.006,59.863 189.421 C 58.905 196.163,58.707 197.472,58.323 199.601 C 55.938 212.812,55.911 213.300,57.478 214.764 C 61.348 218.379,63.247 215.210,65.044 202.139 C 65.530 198.605,65.972 197.969,66.768 199.663 C 68.634 203.635,69.860 206.447,69.860 206.754 C 69.860 207.530,72.229 209.581,73.125 209.581 C 75.098 209.581,75.580 208.923,78.840 201.796 C 81.156 196.734,81.417 196.195,81.452 196.407 C 81.471 196.517,81.625 200.290,81.796 204.792 C 82.172 214.730,82.891 216.766,86.028 216.766 C 88.994 216.766,89.603 214.989,89.063 207.908 C 88.823 204.766,88.428 199.501,88.185 196.208 C 87.084 181.268,86.040 178.672,82.036 180.910 M85.027 181.953 C 86.139 182.854,86.767 186.848,87.393 197.006 C 87.637 200.958,88.034 206.320,88.276 208.921 C 88.826 214.830,88.567 215.569,85.940 215.569 C 83.372 215.569,83.057 214.555,82.802 205.468 C 82.420 191.857,82.381 191.834,77.649 202.395 C 75.478 207.241,74.397 208.782,73.170 208.782 C 72.419 208.782,70.259 206.501,70.259 205.707 C 70.259 204.527,65.890 195.934,65.376 196.104 C 65.060 196.208,64.780 197.379,64.629 199.233 C 64.352 202.634,62.899 210.617,62.129 212.974 C 61.638 214.475,61.504 214.578,59.885 214.697 C 57.353 214.881,56.958 213.468,57.906 207.622 C 58.134 206.215,58.506 203.790,58.732 202.233 C 61.025 186.414,61.754 183.564,63.692 182.827 C 66.237 181.859,67.164 183.215,70.230 192.395 C 72.983 200.636,73.240 200.921,74.663 197.305 C 75.160 196.043,75.801 194.471,76.088 193.812 C 76.375 193.154,77.043 191.445,77.573 190.015 C 79.987 183.497,81.240 181.764,83.888 181.284 C 84.028 181.258,84.541 181.559,85.027 181.953 " stroke="none" fill="#ffffff" fill-rule="evenodd"></path></g></svg>