<svg id="svg" version="1.1" xmlns="http://www.w3.org/2000/svg" xmlns:xlink="http://www.w3.org/1999/xlink" width="400" height="399.10112359550556" viewBox="0, 0, 400,399.10112359550556"><g id="svgg"><path id="path0" d="M0.000 199.601 L 0.000 399.202 200.000 399.202 L 400.000 399.202 400.000 199.601 L 400.000 0.000 200.000 0.000 L 0.000 0.000 0.000 199.601 M209.381 56.688 C 221.552 57.547,239.778 61.230,246.906 64.272 C 247.345 64.459,249.232 65.181,251.098 65.876 C 271.308 73.404,292.546 88.160,306.536 104.397 C 312.356 111.152,313.497 112.597,317.248 117.964 C 322.031 124.809,330.539 139.849,330.539 141.460 C 330.539 141.570,331.057 142.796,331.690 144.184 C 334.228 149.750,337.301 159.074,338.717 165.507 C 340.473 173.490,340.930 176.019,341.736 182.236 C 344.762 205.552,340.882 234.148,331.934 254.491 C 331.451 255.589,330.542 257.655,329.912 259.082 C 328.502 262.280,324.776 269.520,323.500 271.541 C 322.980 272.365,322.555 273.125,322.555 273.232 C 322.555 273.670,317.785 280.745,314.601 285.030 C 307.005 295.253,296.921 305.540,287.226 312.960 C 285.469 314.304,283.760 315.621,283.428 315.886 C 276.690 321.260,262.056 329.121,250.299 333.682 C 245.425 335.572,237.985 337.893,234.071 338.743 C 226.117 340.471,223.454 340.974,219.216 341.550 C 131.049 353.536,53.612 283.818,56.453 195.010 C 56.586 190.838,56.893 185.988,57.134 184.232 C 58.896 171.383,60.116 165.583,63.137 155.689 C 63.573 154.261,64.082 152.735,64.268 152.295 C 64.454 151.856,65.098 150.150,65.699 148.503 C 66.300 146.856,67.233 144.521,67.772 143.313 C 74.521 128.207,81.316 117.465,92.015 104.990 C 96.986 99.194,106.163 90.634,112.575 85.811 C 114.441 84.407,116.058 83.151,116.168 83.018 C 117.788 81.064,133.058 72.446,142.553 68.126 C 161.754 59.391,186.838 55.098,209.381 56.688 M189.820 59.912 C 179.996 60.917,177.663 61.220,174.328 61.926 C 172.310 62.353,169.311 62.969,167.665 63.295 C 164.384 63.944,164.459 63.923,157.285 66.202 C 152.703 67.658,149.128 68.936,147.106 69.840 C 146.667 70.037,145.499 70.525,144.511 70.926 C 139.417 72.992,130.162 77.841,125.349 80.965 C 113.936 88.373,110.136 91.440,100.788 100.788 C 87.614 113.962,77.169 129.205,70.966 144.311 C 67.953 151.650,66.257 156.553,64.134 164.072 C 61.622 172.964,59.481 189.263,59.481 199.493 C 59.481 211.108,61.905 228.286,64.932 238.124 C 76.051 274.261,97.673 302.033,129.142 320.593 C 132.438 322.537,142.635 327.745,143.146 327.745 C 143.266 327.745,144.386 328.212,145.634 328.784 C 153.718 332.487,169.938 337.023,179.641 338.294 C 205.639 341.698,233.265 338.091,254.002 328.585 C 255.490 327.903,256.784 327.345,256.879 327.345 C 259.258 327.345,277.817 316.156,285.628 310.011 C 290.583 306.114,291.063 305.696,295.524 301.403 C 297.688 299.321,299.580 297.524,299.729 297.411 C 306.622 292.182,322.569 268.366,328.335 254.691 C 339.127 229.095,342.369 199.440,337.172 173.852 C 335.715 166.680,335.258 164.598,334.938 163.673 C 334.748 163.124,334.116 161.058,333.534 159.082 C 330.965 150.365,326.185 139.151,321.667 131.245 C 317.786 124.454,312.838 116.944,310.373 114.102 C 309.930 113.591,309.032 112.465,308.377 111.599 C 301.032 101.891,285.694 88.266,273.973 81.038 C 265.593 75.870,252.321 69.446,245.908 67.454 C 245.359 67.283,242.844 66.486,240.319 65.682 C 237.794 64.878,234.022 63.859,231.936 63.416 C 229.850 62.974,226.615 62.289,224.747 61.896 C 221.512 61.214,218.073 60.777,208.867 59.881 C 204.134 59.420,194.476 59.436,189.820 59.912 M202.627 102.150 C 206.081 104.257,205.714 109.654,201.984 111.583 C 197.158 114.079,192.061 108.150,195.076 103.547 C 196.487 101.395,200.247 100.699,202.627 102.150 M204.568 127.944 C 210.568 140.845,210.248 140.222,211.845 142.088 C 214.481 145.167,219.439 146.835,223.294 145.938 C 225.950 145.321,227.954 144.172,236.395 138.427 C 244.410 132.972,244.484 132.974,242.726 138.594 C 240.666 145.184,239.310 149.564,237.742 154.691 C 232.347 172.329,231.941 173.615,231.295 175.152 L 230.749 176.452 199.540 176.350 L 168.331 176.248 167.228 173.054 C 166.621 171.297,165.468 167.705,164.666 165.070 C 163.864 162.435,162.581 158.214,161.814 155.689 C 161.046 153.164,159.725 148.852,158.877 146.108 C 154.484 131.896,154.479 131.797,158.321 134.652 C 173.956 146.270,173.276 145.887,178.244 145.863 C 181.536 145.847,182.026 145.738,184.115 144.559 C 187.831 142.460,187.919 142.313,195.835 125.039 C 197.945 120.433,199.181 118.179,199.553 118.253 C 199.861 118.314,202.117 122.675,204.568 127.944 M153.070 124.204 C 156.107 126.593,154.662 130.938,150.832 130.938 C 147.330 130.938,145.754 127.220,148.213 124.761 C 149.873 123.101,151.439 122.921,153.070 124.204 M250.783 124.510 C 253.889 127.285,251.255 131.939,247.190 130.858 C 244.251 130.075,243.583 126.508,245.990 124.451 C 247.662 123.023,249.139 123.041,250.783 124.510 M231.063 183.806 C 231.131 184.889,231.083 186.192,230.955 186.700 L 230.723 187.625 199.636 187.625 C 171.657 187.625,168.524 187.562,168.306 186.993 C 167.978 186.137,167.998 182.235,168.332 181.900 C 168.480 181.753,182.627 181.678,199.770 181.734 L 230.938 181.836 231.063 183.806 M202.466 238.336 C 208.169 239.920,212.078 246.713,210.813 252.839 C 207.619 268.303,187.053 266.279,187.034 250.499 C 187.024 241.752,194.252 236.055,202.466 238.336 M277.607 239.104 C 280.439 240.474,281.252 242.101,279.822 243.532 C 278.837 244.517,278.376 244.461,274.675 242.904 C 270.345 241.083,265.988 243.322,268.155 246.253 C 268.940 247.314,269.777 247.653,274.828 248.950 C 283.974 251.298,282.917 261.910,273.404 263.247 C 267.941 264.015,261.909 260.926,262.882 257.858 C 263.371 256.318,264.653 256.284,267.396 257.739 C 271.130 259.720,275.216 259.309,276.341 256.839 C 277.263 254.817,275.115 253.247,270.149 252.311 C 264.276 251.205,261.492 246.768,263.722 242.068 C 265.543 238.232,272.665 236.711,277.607 239.104 M125.003 239.858 C 126.584 241.662,127.411 242.674,129.108 244.881 C 133.846 251.043,135.922 253.495,136.296 253.371 C 136.575 253.278,136.762 250.921,136.826 246.674 C 136.939 239.207,137.210 238.218,139.091 238.404 C 141.152 238.607,141.305 239.429,141.311 250.373 C 141.318 260.576,141.143 261.913,139.702 262.684 C 138.068 263.559,137.188 262.775,131.184 255.100 C 127.917 250.923,124.997 247.505,124.697 247.505 C 124.256 247.505,124.152 248.913,124.152 254.899 L 124.152 262.293 123.170 262.740 C 122.384 263.098,121.986 263.055,121.174 262.522 L 120.160 261.858 120.160 250.821 C 120.160 241.111,120.239 239.696,120.820 239.053 C 121.926 237.832,123.493 238.133,125.003 239.858 M156.563 239.022 C 156.892 239.406,157.440 240.439,157.781 241.317 C 158.121 242.196,158.867 243.936,159.439 245.184 C 160.011 246.432,160.479 247.565,160.479 247.701 C 160.479 247.837,160.864 248.791,161.335 249.822 C 165.504 258.950,166.307 261.906,164.833 262.695 C 163.208 263.564,162.117 262.841,160.872 260.067 L 159.714 257.485 154.923 257.485 C 149.550 257.485,149.755 257.388,148.166 260.679 C 146.721 263.670,143.959 264.024,143.992 261.213 C 144.003 260.268,147.836 250.437,150.504 244.511 C 150.899 243.633,151.679 241.881,152.236 240.619 C 153.351 238.094,155.187 237.416,156.563 239.022 M184.750 238.802 C 186.590 240.641,184.852 242.288,180.679 242.661 L 177.844 242.914 177.645 252.428 C 177.431 262.606,177.326 263.074,175.250 263.074 C 173.173 263.074,173.068 262.606,172.854 252.428 L 172.655 242.914 171.257 242.813 C 165.772 242.415,163.831 241.017,165.897 238.951 C 166.711 238.136,183.949 238.001,184.750 238.802 M218.939 239.211 C 219.446 239.934,219.561 241.428,219.561 247.294 C 219.562 256.790,220.741 259.093,225.315 258.533 C 229.492 258.022,230.338 256.076,230.339 246.980 C 230.339 238.397,231.222 236.470,234.001 238.984 C 235.149 240.023,235.089 253.724,233.923 256.771 C 230.649 265.327,218.314 265.346,215.402 256.801 C 214.458 254.030,214.481 240.103,215.431 239.053 C 216.354 238.034,218.172 238.115,218.939 239.211 M255.715 239.316 C 259.602 241.593,260.207 246.974,257.035 251.044 C 256.318 251.964,256.319 252.018,257.078 253.082 C 257.506 253.684,257.974 254.965,258.117 255.930 C 258.260 256.895,258.819 258.459,259.359 259.405 C 260.961 262.212,259.215 263.989,256.324 262.494 C 255.051 261.836,254.471 260.642,253.889 257.485 C 253.337 254.492,252.888 254.242,248.309 254.378 L 244.511 254.491 244.311 258.171 C 244.079 262.456,243.573 263.326,241.568 262.885 C 239.650 262.464,239.450 261.126,239.594 249.661 C 239.692 241.902,239.844 239.493,240.268 238.983 C 241.281 237.764,253.517 238.028,255.715 239.316 M196.892 242.579 C 193.687 243.263,191.074 248.568,192.013 252.482 C 194.398 262.426,206.575 260.047,205.920 249.765 C 205.600 244.733,201.624 241.568,196.892 242.579 M244.480 243.251 C 244.366 243.546,244.327 245.118,244.392 246.744 L 244.511 249.701 248.566 249.814 L 252.621 249.927 253.456 248.754 C 254.556 247.209,254.567 244.757,253.477 243.588 C 252.481 242.519,244.870 242.234,244.480 243.251 M153.730 247.605 C 153.542 248.099,153.097 249.199,152.742 250.049 C 151.576 252.838,151.740 253.094,154.691 253.094 C 157.778 253.094,157.862 252.878,156.235 249.128 C 155.136 246.594,154.307 246.090,153.730 247.605 " stroke="none" fill="#6acc75" fill-rule="evenodd"></path><path id="path1" d="M189.222 56.703 C 173.583 57.777,155.657 62.164,142.553 68.126 C 133.058 72.446,117.788 81.064,116.168 83.018 C 116.058 83.151,114.441 84.407,112.575 85.811 C 106.163 90.634,96.986 99.194,92.015 104.990 C 81.316 117.465,74.521 128.207,67.772 143.313 C 67.233 144.521,66.300 146.856,65.699 148.503 C 65.098 150.150,64.454 151.856,64.268 152.295 C 64.082 152.735,63.573 154.261,63.137 155.689 C 60.116 165.583,58.896 171.383,57.134 184.232 C 51.817 222.991,67.195 268.591,95.526 298.078 C 130.207 334.174,180.326 350.131,227.600 340.128 C 235.621 338.430,236.956 338.103,241.456 336.728 C 255.598 332.409,274.450 323.047,283.428 315.886 C 283.760 315.621,285.469 314.304,287.226 312.960 C 296.921 305.540,307.005 295.253,314.601 285.030 C 317.785 280.745,322.555 273.670,322.555 273.232 C 322.555 273.125,322.980 272.365,323.500 271.541 C 324.776 269.520,328.502 262.280,329.912 259.082 C 330.542 257.655,331.451 255.589,331.934 254.491 C 336.375 244.395,339.831 231.386,341.584 218.164 C 344.241 198.128,342.190 174.933,336.076 155.888 C 334.787 151.872,332.902 146.842,331.690 144.184 C 331.057 142.796,330.539 141.570,330.539 141.460 C 330.539 139.849,322.031 124.809,317.248 117.964 C 313.497 112.597,312.356 111.152,306.536 104.397 C 292.546 88.160,271.308 73.404,251.098 65.876 C 249.232 65.181,247.345 64.459,246.906 64.272 C 234.169 58.837,208.051 55.410,189.222 56.703 M208.867 59.881 C 218.073 60.777,221.512 61.214,224.747 61.896 C 226.615 62.289,229.850 62.974,231.936 63.416 C 234.022 63.859,237.794 64.878,240.319 65.682 C 242.844 66.486,245.359 67.283,245.908 67.454 C 252.321 69.446,265.593 75.870,273.973 81.038 C 285.694 88.266,301.032 101.891,308.377 111.599 C 309.032 112.465,309.930 113.591,310.373 114.102 C 312.838 116.944,317.786 124.454,321.667 131.245 C 326.185 139.151,330.965 150.365,333.534 159.082 C 334.116 161.058,334.748 163.124,334.938 163.673 C 335.258 164.598,335.715 166.680,337.172 173.852 C 342.369 199.440,339.127 229.095,328.335 254.691 C 322.569 268.366,306.622 292.182,299.729 297.411 C 299.580 297.524,297.688 299.321,295.524 301.403 C 291.063 305.696,290.583 306.114,285.628 310.011 C 280.934 313.703,274.511 318.012,268.663 321.392 C 265.900 322.989,257.277 327.345,256.879 327.345 C 256.784 327.345,255.490 327.903,254.002 328.585 C 233.265 338.091,205.639 341.698,179.641 338.294 C 169.938 337.023,153.718 332.487,145.634 328.784 C 144.386 328.212,143.266 327.745,143.146 327.745 C 143.026 327.745,140.634 326.612,137.831 325.228 C 95.926 304.539,66.800 264.071,60.917 218.363 C 58.732 201.382,59.132 188.216,62.318 172.255 C 63.690 165.384,64.416 162.645,66.816 155.289 C 67.701 152.577,69.199 148.615,70.966 144.311 C 77.169 129.205,87.614 113.962,100.788 100.788 C 110.136 91.440,113.936 88.373,125.349 80.965 C 130.162 77.841,139.417 72.992,144.511 70.926 C 145.499 70.525,146.667 70.037,147.106 69.840 C 149.128 68.936,152.703 67.658,157.285 66.202 C 164.459 63.923,164.384 63.944,167.665 63.295 C 169.311 62.969,172.310 62.353,174.328 61.926 C 177.663 61.220,179.996 60.917,189.820 59.912 C 194.476 59.436,204.134 59.420,208.867 59.881 M196.764 101.995 C 193.317 103.868,193.318 108.966,196.766 111.269 C 201.147 114.196,206.838 109.183,204.567 104.397 C 203.283 101.691,199.478 100.520,196.764 101.995 M195.835 125.039 C 187.919 142.313,187.831 142.460,184.115 144.559 C 178.728 147.600,174.330 146.536,165.646 140.090 C 162.914 138.063,159.618 135.615,158.321 134.652 C 154.479 131.797,154.484 131.896,158.877 146.108 C 159.725 148.852,161.046 153.164,161.814 155.689 C 162.581 158.214,163.864 162.435,164.666 165.070 C 165.468 167.705,166.621 171.297,167.228 173.054 L 168.331 176.248 199.540 176.350 L 230.749 176.452 231.295 175.152 C 231.941 173.615,232.347 172.329,237.742 154.691 C 239.310 149.564,240.666 145.184,242.726 138.594 C 244.484 132.974,244.410 132.972,236.395 138.427 C 227.954 144.172,225.950 145.321,223.294 145.938 C 219.439 146.835,214.481 145.167,211.845 142.088 C 210.248 140.222,210.568 140.845,204.568 127.944 C 202.117 122.675,199.861 118.314,199.553 118.253 C 199.181 118.179,197.945 120.433,195.835 125.039 M148.213 124.761 C 145.754 127.220,147.330 130.938,150.832 130.938 C 154.662 130.938,156.107 126.593,153.070 124.204 C 151.439 122.921,149.873 123.101,148.213 124.761 M245.990 124.451 C 243.583 126.508,244.251 130.075,247.190 130.858 C 251.255 131.939,253.889 127.285,250.783 124.510 C 249.139 123.041,247.662 123.023,245.990 124.451 M168.332 181.900 C 167.998 182.235,167.978 186.137,168.306 186.993 C 168.524 187.562,171.657 187.625,199.636 187.625 L 230.723 187.625 230.955 186.700 C 231.083 186.192,231.131 184.889,231.063 183.806 L 230.938 181.836 199.770 181.734 C 182.627 181.678,168.480 181.753,168.332 181.900 M194.667 238.576 C 186.639 241.041,184.250 253.690,190.624 259.973 C 196.281 265.550,205.801 264.072,209.386 257.061 C 214.897 246.280,205.992 235.097,194.667 238.576 M268.218 238.448 C 260.228 241.450,261.515 250.685,270.149 252.311 C 275.115 253.247,277.263 254.817,276.341 256.839 C 275.216 259.309,271.130 259.720,267.396 257.739 C 264.653 256.284,263.371 256.318,262.882 257.858 C 261.909 260.926,267.941 264.015,273.404 263.247 C 282.917 261.910,283.974 251.298,274.828 248.950 C 269.777 247.653,268.940 247.314,268.155 246.253 C 265.988 243.322,270.345 241.083,274.675 242.904 C 278.376 244.461,278.837 244.517,279.822 243.532 C 282.928 240.425,273.707 236.386,268.218 238.448 M120.820 239.053 C 120.239 239.696,120.160 241.111,120.160 250.821 L 120.160 261.858 121.174 262.522 C 121.986 263.055,122.384 263.098,123.170 262.740 L 124.152 262.293 124.152 254.899 C 124.152 248.913,124.256 247.505,124.697 247.505 C 124.997 247.505,127.917 250.923,131.184 255.100 C 137.188 262.775,138.068 263.559,139.702 262.684 C 141.143 261.913,141.318 260.576,141.311 250.373 C 141.305 239.429,141.152 238.607,139.091 238.404 C 137.210 238.218,136.939 239.207,136.826 246.674 C 136.762 250.921,136.575 253.278,136.296 253.371 C 135.922 253.495,133.846 251.043,129.108 244.881 C 123.950 238.173,122.524 237.170,120.820 239.053 M152.236 240.619 C 151.679 241.881,150.899 243.633,150.504 244.511 C 147.836 250.437,144.003 260.268,143.992 261.213 C 143.959 264.024,146.721 263.670,148.166 260.679 C 149.755 257.388,149.550 257.485,154.923 257.485 L 159.714 257.485 160.872 260.067 C 162.117 262.841,163.208 263.564,164.833 262.695 C 166.307 261.906,165.504 258.950,161.335 249.822 C 160.864 248.791,160.479 247.837,160.479 247.701 C 160.479 247.565,160.011 246.432,159.439 245.184 C 158.867 243.936,158.121 242.196,157.781 241.317 C 156.243 237.352,153.813 237.046,152.236 240.619 M165.897 238.951 C 163.831 241.017,165.772 242.415,171.257 242.813 L 172.655 242.914 172.854 252.428 C 173.068 262.606,173.173 263.074,175.250 263.074 C 177.326 263.074,177.431 262.606,177.645 252.428 L 177.844 242.914 180.679 242.661 C 184.852 242.288,186.590 240.641,184.750 238.802 C 183.949 238.001,166.711 238.136,165.897 238.951 M215.431 239.053 C 214.481 240.103,214.458 254.030,215.402 256.801 C 218.314 265.346,230.649 265.327,233.923 256.771 C 235.089 253.724,235.149 240.023,234.001 238.984 C 231.222 236.470,230.339 238.397,230.339 246.980 C 230.338 256.076,229.492 258.022,225.315 258.533 C 220.741 259.093,219.562 256.790,219.561 247.294 C 219.561 241.428,219.446 239.934,218.939 239.211 C 218.172 238.115,216.354 238.034,215.431 239.053 M240.268 238.983 C 239.844 239.493,239.692 241.902,239.594 249.661 C 239.450 261.126,239.650 262.464,241.568 262.885 C 243.573 263.326,244.079 262.456,244.311 258.171 L 244.511 254.491 248.309 254.378 C 252.888 254.242,253.337 254.492,253.889 257.485 C 254.471 260.642,255.051 261.836,256.324 262.494 C 259.215 263.989,260.961 262.212,259.359 259.405 C 258.819 258.459,258.260 256.895,258.117 255.930 C 257.974 254.965,257.506 253.684,257.078 253.082 C 256.319 252.018,256.318 251.964,257.035 251.044 C 260.207 246.974,259.602 241.593,255.715 239.316 C 253.517 238.028,241.281 237.764,240.268 238.983 M202.535 243.528 C 208.104 247.344,206.784 256.817,200.419 258.724 C 197.009 259.746,193.050 256.807,192.013 252.482 C 190.376 245.657,197.186 239.863,202.535 243.528 M253.477 243.588 C 254.567 244.757,254.556 247.209,253.456 248.754 L 252.621 249.927 248.566 249.814 L 244.511 249.701 244.392 246.744 C 244.224 242.550,244.049 242.715,248.675 242.715 C 252.264 242.715,252.745 242.802,253.477 243.588 M156.235 249.128 C 157.862 252.878,157.778 253.094,154.691 253.094 C 151.740 253.094,151.576 252.838,152.742 250.049 C 153.097 249.199,153.542 248.099,153.730 247.605 C 154.307 246.090,155.136 246.594,156.235 249.128 " stroke="none" fill="#ebebeb" fill-rule="evenodd"></path></g></svg>