<svg id="svg" version="1.1" xmlns="http://www.w3.org/2000/svg" xmlns:xlink="http://www.w3.org/1999/xlink" width="400" height="403.61990950226243" viewBox="0, 0, 400,403.61990950226243"><g id="svgg"><path id="path0" d="M116.189 200.800 C 116.189 215.650,116.239 221.725,116.300 214.300 C 116.361 206.875,116.361 194.725,116.300 187.300 C 116.239 179.875,116.189 185.950,116.189 200.800 M328.000 184.816 C 324.168 185.290,321.524 187.765,320.982 191.383 C 320.336 195.686,322.638 198.644,329.215 201.962 C 334.507 204.632,335.917 205.707,336.816 207.757 C 339.223 213.242,331.495 217.135,326.042 213.184 C 324.580 212.125,324.162 211.482,322.852 208.272 C 321.763 205.605,320.997 207.069,321.041 211.731 C 321.088 216.697,321.397 217.361,323.187 216.334 C 324.234 215.733,324.497 215.728,326.069 216.280 C 333.579 218.917,341.067 215.493,341.521 209.216 C 341.843 204.771,339.888 202.493,332.569 198.784 C 325.534 195.219,323.490 192.220,325.824 188.887 C 328.740 184.723,337.600 187.853,337.600 193.046 C 337.600 193.517,337.889 194.142,338.243 194.436 C 339.386 195.384,340.000 193.885,340.000 190.150 C 340.000 185.317,339.261 183.897,337.550 185.445 C 336.948 185.990,336.630 186.015,335.518 185.610 C 333.650 184.928,330.112 184.554,328.000 184.816 M180.625 186.100 C 180.331 186.815,178.888 190.730,177.417 194.800 C 175.947 198.870,174.324 203.280,173.811 204.600 C 173.298 205.920,172.589 207.864,172.237 208.920 C 171.204 212.015,170.039 214.000,168.968 214.487 C 168.401 214.746,168.021 215.214,168.090 215.571 C 168.299 216.656,176.200 216.489,176.200 215.400 C 176.200 214.849,175.889 214.558,175.200 214.466 C 173.566 214.247,173.467 213.814,174.380 210.864 C 175.515 207.198,175.404 207.258,181.407 207.119 L 186.578 207.000 187.270 208.400 C 188.740 211.375,188.695 214.125,187.170 214.524 C 186.625 214.666,186.379 214.999,186.470 215.472 C 186.595 216.121,187.139 216.212,191.505 216.312 L 196.400 216.425 196.400 215.438 C 196.400 214.619,196.181 214.429,195.115 214.325 C 193.888 214.206,193.788 214.064,192.924 211.200 C 192.426 209.550,191.844 207.840,191.631 207.400 C 191.069 206.239,184.400 189.247,184.400 188.976 C 184.400 186.070,181.534 183.887,180.625 186.100 M235.330 185.376 C 221.445 189.717,221.328 211.851,235.166 216.363 C 245.926 219.872,256.000 212.432,256.000 200.976 C 256.000 189.716,245.879 182.077,235.330 185.376 M196.700 185.476 C 195.219 185.863,195.123 194.600,196.600 194.600 C 197.153 194.600,197.439 194.291,197.527 193.600 C 198.158 188.616,200.921 186.524,205.628 187.466 L 206.800 187.700 206.798 199.350 C 206.795 211.841,206.565 213.805,205.030 214.388 C 203.946 214.801,203.387 215.943,204.130 216.228 C 205.817 216.876,214.200 216.186,214.200 215.400 C 214.200 214.764,213.892 214.575,212.700 214.476 C 211.616 214.386,211.196 214.164,211.184 213.676 C 210.975 204.743,211.319 187.767,211.716 187.493 C 212.441 186.992,216.673 187.498,217.772 188.218 C 218.906 188.961,219.151 189.475,219.768 192.400 C 220.659 196.621,221.776 195.525,221.914 190.295 L 222.027 185.991 220.988 185.595 C 219.970 185.208,198.135 185.101,196.700 185.476 M258.945 185.800 C 258.523 186.899,259.124 187.600,260.487 187.600 L 261.800 187.600 261.670 194.700 C 261.357 211.698,264.373 217.200,274.000 217.200 C 283.120 217.200,285.961 212.864,286.368 198.324 C 286.646 188.393,286.893 187.200,288.675 187.200 C 289.462 187.200,289.822 185.986,289.158 185.566 C 288.528 185.166,282.803 185.070,281.833 185.443 C 280.338 186.016,281.366 187.600,283.233 187.600 C 284.944 187.600,284.145 206.297,282.283 209.809 C 278.792 216.397,269.246 215.481,266.873 208.329 C 266.480 207.145,266.239 203.978,266.109 198.281 C 265.903 189.296,266.098 188.048,267.827 187.260 C 268.932 186.757,269.110 185.805,268.167 185.443 C 266.719 184.887,259.183 185.179,258.945 185.800 M293.233 185.939 C 292.714 186.908,293.401 187.600,294.880 187.600 L 296.000 187.600 296.000 199.774 C 296.000 212.658,295.862 213.768,294.178 214.408 C 293.506 214.664,293.189 215.048,293.276 215.501 C 293.509 216.710,302.951 216.543,303.124 215.327 C 303.228 214.600,303.027 214.433,301.924 214.327 L 300.600 214.200 300.600 208.600 L 300.600 203.000 301.720 202.871 C 303.062 202.718,303.548 203.268,307.110 208.977 C 308.490 211.190,310.261 213.773,311.044 214.717 L 312.468 216.434 315.334 216.317 C 318.235 216.199,319.702 214.884,317.400 214.466 C 316.076 214.225,314.830 212.827,311.640 208.000 C 307.883 202.315,307.804 202.136,308.926 201.853 C 315.610 200.163,317.602 190.374,311.937 187.061 C 308.643 185.136,294.129 184.265,293.233 185.939 M137.352 186.181 C 137.005 187.085,137.538 187.600,138.824 187.600 L 140.000 187.600 140.000 199.981 C 140.000 212.422,139.801 214.400,138.550 214.400 C 137.744 214.400,137.029 215.959,137.714 216.223 C 139.345 216.848,145.400 216.200,145.400 215.400 C 145.400 214.790,145.067 214.552,144.000 214.400 L 142.600 214.200 142.493 203.413 C 142.407 194.713,142.485 192.722,142.893 193.120 C 143.172 193.391,147.360 198.875,152.200 205.307 C 160.285 216.050,161.106 217.010,162.300 217.125 L 163.600 217.251 163.604 204.325 C 163.610 189.298,163.685 188.542,165.259 187.646 C 167.705 186.255,166.791 185.600,162.400 185.600 C 158.428 185.600,158.400 185.607,158.400 186.575 C 158.400 187.382,158.623 187.571,159.700 187.675 L 161.000 187.800 161.107 198.173 C 161.166 203.878,161.057 208.703,160.866 208.894 C 160.670 209.090,156.670 204.107,151.656 197.420 L 142.792 185.600 140.184 185.600 C 138.272 185.600,137.515 185.755,137.352 186.181 M242.620 187.247 C 247.979 188.596,252.441 197.453,251.144 204.169 C 247.943 220.745,229.866 217.379,229.829 200.200 C 229.810 190.960,235.297 185.403,242.620 187.247 M307.631 188.216 C 311.418 190.174,311.463 197.402,307.701 199.348 C 306.177 200.136,301.888 200.996,301.063 200.680 C 300.206 200.351,300.061 189.380,300.900 188.322 C 301.894 187.069,305.308 187.015,307.631 188.216 M73.365 192.700 C 66.765 198.817,67.485 198.583,63.953 195.762 C 62.329 194.465,60.910 193.309,60.800 193.193 C 54.917 186.999,54.800 187.197,54.800 203.397 L 54.800 217.220 55.826 217.610 C 56.443 217.844,64.807 218.000,76.800 218.000 C 88.793 218.000,97.157 217.844,97.774 217.610 L 98.800 217.220 98.800 203.277 C 98.800 195.608,98.685 189.218,98.544 189.078 C 98.403 188.937,96.059 190.914,93.333 193.470 L 88.378 198.119 87.351 197.160 C 86.786 196.632,84.598 194.445,82.487 192.300 C 77.854 187.591,78.928 187.544,73.365 192.700 M83.278 196.855 L 87.956 201.717 91.630 198.258 C 93.650 196.356,95.463 194.800,95.659 194.800 C 95.859 194.800,95.967 199.118,95.907 204.700 L 95.800 214.600 76.909 214.704 L 58.017 214.808 57.796 213.904 C 57.323 211.973,57.777 194.600,58.300 194.600 C 58.575 194.600,60.610 196.102,62.821 197.938 C 67.734 202.018,67.237 202.092,73.182 196.393 C 75.701 193.977,77.951 191.998,78.182 191.997 C 78.412 191.995,80.705 194.181,83.278 196.855 M183.449 197.830 C 186.163 204.809,186.225 204.578,181.600 204.702 C 176.201 204.846,176.307 205.057,178.600 198.735 C 180.281 194.097,181.063 192.530,181.485 192.952 C 181.545 193.011,182.428 195.206,183.449 197.830 " stroke="none" fill="#6acc75" fill-rule="evenodd"></path><path id="path1" d="M0.000 201.800 L 0.000 403.600 200.000 403.600 L 400.000 403.600 400.000 201.800 L 400.000 0.000 200.000 0.000 L 0.000 0.000 0.000 201.800 M116.300 214.300 C 116.239 221.725,116.189 215.650,116.189 200.800 C 116.189 185.950,116.239 179.875,116.300 187.300 C 116.361 194.725,116.361 206.875,116.300 214.300 M335.518 185.610 C 336.630 186.015,336.948 185.990,337.550 185.445 C 339.261 183.897,340.000 185.317,340.000 190.150 C 340.000 193.885,339.386 195.384,338.243 194.436 C 337.889 194.142,337.600 193.517,337.600 193.046 C 337.600 187.853,328.740 184.723,325.824 188.887 C 323.490 192.220,325.534 195.219,332.569 198.784 C 339.888 202.493,341.843 204.771,341.521 209.216 C 341.067 215.493,333.579 218.917,326.069 216.280 C 324.497 215.728,324.234 215.733,323.187 216.334 C 321.397 217.361,321.088 216.697,321.041 211.731 C 320.997 207.069,321.763 205.605,322.852 208.272 C 324.162 211.482,324.580 212.125,326.042 213.184 C 331.495 217.135,339.223 213.242,336.816 207.757 C 335.917 205.707,334.507 204.632,329.215 201.962 C 322.638 198.644,320.336 195.686,320.982 191.383 C 321.837 185.680,328.482 183.041,335.518 185.610 M183.551 186.774 C 184.018 187.860,184.400 188.851,184.400 188.976 C 184.400 189.247,191.069 206.239,191.631 207.400 C 191.844 207.840,192.426 209.550,192.924 211.200 C 193.788 214.064,193.888 214.206,195.115 214.325 C 196.181 214.429,196.400 214.619,196.400 215.438 L 196.400 216.425 191.505 216.312 C 187.139 216.212,186.595 216.121,186.470 215.472 C 186.379 214.999,186.625 214.666,187.170 214.524 C 188.695 214.125,188.740 211.375,187.270 208.400 L 186.578 207.000 181.407 207.119 C 175.404 207.258,175.515 207.198,174.380 210.864 C 173.467 213.814,173.566 214.247,175.200 214.466 C 175.889 214.558,176.200 214.849,176.200 215.400 C 176.200 216.489,168.299 216.656,168.090 215.571 C 168.021 215.214,168.401 214.746,168.968 214.487 C 170.039 214.000,171.204 212.015,172.237 208.920 C 172.589 207.864,173.298 205.920,173.811 204.600 C 174.324 203.280,175.947 198.870,177.417 194.800 C 181.031 184.797,181.029 184.800,181.930 184.800 C 182.473 184.800,182.953 185.385,183.551 186.774 M245.495 185.406 C 253.404 187.755,258.007 197.755,255.164 206.414 C 249.834 222.650,226.363 219.984,224.972 202.984 C 223.946 190.439,233.857 181.950,245.495 185.406 M220.988 185.595 L 222.027 185.991 221.914 190.295 C 221.776 195.525,220.659 196.621,219.768 192.400 C 219.151 189.475,218.906 188.961,217.772 188.218 C 216.673 187.498,212.441 186.992,211.716 187.493 C 211.319 187.767,210.975 204.743,211.184 213.676 C 211.196 214.164,211.616 214.386,212.700 214.476 C 213.892 214.575,214.200 214.764,214.200 215.400 C 214.200 216.186,205.817 216.876,204.130 216.228 C 203.387 215.943,203.946 214.801,205.030 214.388 C 206.565 213.805,206.795 211.841,206.798 199.350 L 206.800 187.700 205.628 187.466 C 200.921 186.524,198.158 188.616,197.527 193.600 C 197.439 194.291,197.153 194.600,196.600 194.600 C 195.123 194.600,195.219 185.863,196.700 185.476 C 198.135 185.101,219.970 185.208,220.988 185.595 M268.167 185.443 C 269.110 185.805,268.932 186.757,267.827 187.260 C 264.819 188.631,265.355 207.437,268.515 211.397 C 272.024 215.795,279.573 214.925,282.283 209.809 C 284.145 206.297,284.944 187.600,283.233 187.600 C 281.956 187.600,281.200 187.154,281.200 186.400 C 281.200 185.235,287.579 184.566,289.158 185.566 C 289.822 185.986,289.462 187.200,288.675 187.200 C 286.893 187.200,286.646 188.393,286.368 198.324 C 285.961 212.864,283.120 217.200,274.000 217.200 C 264.373 217.200,261.357 211.698,261.670 194.700 L 261.800 187.600 260.487 187.600 C 259.124 187.600,258.523 186.899,258.945 185.800 C 259.183 185.179,266.719 184.887,268.167 185.443 M307.600 185.626 C 317.151 187.169,318.161 199.518,308.926 201.853 C 307.804 202.136,307.883 202.315,311.640 208.000 C 314.830 212.827,316.076 214.225,317.400 214.466 C 319.702 214.884,318.235 216.199,315.334 216.317 L 312.468 216.434 311.044 214.717 C 310.261 213.773,308.490 211.190,307.110 208.977 C 303.548 203.268,303.062 202.718,301.720 202.871 L 300.600 203.000 300.600 208.600 L 300.600 214.200 301.924 214.327 C 303.027 214.433,303.228 214.600,303.124 215.327 C 302.951 216.543,293.509 216.710,293.276 215.501 C 293.189 215.048,293.506 214.664,294.178 214.408 C 295.862 213.768,296.000 212.658,296.000 199.774 L 296.000 187.600 294.880 187.600 C 293.401 187.600,292.714 186.908,293.233 185.939 C 293.700 185.065,302.891 184.865,307.600 185.626 M151.656 197.420 C 156.670 204.107,160.670 209.090,160.866 208.894 C 161.057 208.703,161.166 203.878,161.107 198.173 L 161.000 187.800 159.700 187.675 C 158.623 187.571,158.400 187.382,158.400 186.575 C 158.400 185.607,158.428 185.600,162.400 185.600 C 166.791 185.600,167.705 186.255,165.259 187.646 C 163.685 188.542,163.610 189.298,163.604 204.325 L 163.600 217.251 162.300 217.125 C 161.106 217.010,160.285 216.050,152.200 205.307 C 147.360 198.875,143.172 193.391,142.893 193.120 C 142.485 192.722,142.407 194.713,142.493 203.413 L 142.600 214.200 144.000 214.400 C 145.067 214.552,145.400 214.790,145.400 215.400 C 145.400 216.200,139.345 216.848,137.714 216.223 C 137.029 215.959,137.744 214.400,138.550 214.400 C 139.801 214.400,140.000 212.422,140.000 199.981 L 140.000 187.600 138.824 187.600 C 137.538 187.600,137.005 187.085,137.352 186.181 C 137.515 185.755,138.272 185.600,140.184 185.600 L 142.792 185.600 151.656 197.420 M237.453 187.212 C 226.381 190.529,227.485 211.927,238.873 214.736 C 246.244 216.554,252.790 207.891,251.023 198.657 C 249.427 190.315,243.575 185.379,237.453 187.212 M302.000 187.458 C 300.595 188.006,300.400 188.886,300.400 194.689 C 300.400 201.339,300.325 201.223,304.147 200.434 C 308.964 199.439,310.396 197.888,310.399 193.662 C 310.401 189.258,305.903 185.935,302.000 187.458 M82.487 192.300 C 84.598 194.445,86.786 196.632,87.351 197.160 L 88.378 198.119 93.333 193.470 C 96.059 190.914,98.403 188.937,98.544 189.078 C 98.685 189.218,98.800 195.608,98.800 203.277 L 98.800 217.220 97.774 217.610 C 97.157 217.844,88.793 218.000,76.800 218.000 C 64.807 218.000,56.443 217.844,55.826 217.610 L 54.800 217.220 54.800 203.397 C 54.800 187.197,54.917 186.999,60.800 193.193 C 60.910 193.309,62.329 194.465,63.953 195.762 C 67.485 198.583,66.765 198.817,73.365 192.700 C 78.928 187.544,77.854 187.591,82.487 192.300 M73.182 196.393 C 67.237 202.092,67.734 202.018,62.821 197.938 C 60.610 196.102,58.575 194.600,58.300 194.600 C 57.777 194.600,57.323 211.973,57.796 213.904 L 58.017 214.808 76.909 214.704 L 95.800 214.600 95.907 204.700 C 95.967 199.118,95.859 194.800,95.659 194.800 C 95.463 194.800,93.650 196.356,91.630 198.258 L 87.956 201.717 83.278 196.855 C 80.705 194.181,78.412 191.995,78.182 191.997 C 77.951 191.998,75.701 193.977,73.182 196.393 M180.955 193.122 C 180.024 193.737,176.632 204.048,177.233 204.436 C 178.669 205.365,185.403 204.671,185.352 203.600 C 185.250 201.482,181.572 192.715,180.955 193.122 " stroke="none" fill="#d3d3cb" fill-rule="evenodd"></path></g></svg>