<svg id="svg" version="1.1" xmlns="http://www.w3.org/2000/svg" xmlns:xlink="http://www.w3.org/1999/xlink" width="250" height="180.2222222222222" viewBox="0, 0, 400,182.2222222222222"><g id="svgg"><path id="path0" d="M0.000 91.116 L 0.000 182.232 200.000 182.232 L 400.000 182.232 400.000 91.116 L 400.000 0.000 200.000 0.000 L 0.000 0.000 0.000 91.116 M62.506 60.100 C 63.658 60.755,65.667 61.922,66.970 62.692 C 74.248 66.999,74.532 66.997,74.534 62.651 C 74.536 57.597,74.502 57.600,82.199 62.015 C 89.166 66.011,97.907 71.083,98.132 71.260 C 98.232 71.339,100.159 72.460,102.415 73.752 C 104.670 75.044,108.770 77.403,111.526 78.995 C 114.282 80.587,119.572 83.639,123.280 85.777 C 131.268 90.384,131.501 90.584,130.342 91.832 C 129.912 92.295,124.702 95.386,116.355 100.131 C 115.153 100.814,112.159 102.540,109.704 103.966 C 105.383 106.475,102.422 108.182,89.476 115.633 C 86.118 117.566,81.937 119.975,80.184 120.986 C 74.844 124.067,74.829 124.063,74.636 119.284 C 74.452 114.751,74.646 114.748,66.572 119.425 C 58.272 124.232,58.472 124.231,58.312 119.451 C 58.207 116.318,58.046 115.896,56.965 115.904 C 56.320 115.909,56.032 116.060,49.112 120.034 C 43.305 123.368,43.399 123.326,42.804 122.845 L 42.369 122.493 42.269 114.322 C 42.102 100.741,42.303 59.838,42.538 59.363 C 42.907 58.619,43.733 58.726,45.422 59.736 C 47.346 60.886,54.704 65.064,55.710 65.577 C 57.720 66.602,58.142 66.062,58.298 62.270 C 58.471 58.075,58.718 57.947,62.506 60.100 M270.619 60.594 C 271.593 61.098,271.610 61.214,271.708 67.741 L 271.800 73.796 272.304 74.301 L 272.809 74.806 276.413 74.897 C 280.907 75.011,281.367 75.228,281.367 77.238 C 281.367 78.908,280.765 79.155,276.405 79.268 L 272.809 79.362 272.304 79.867 L 271.800 80.373 271.708 93.353 C 271.638 103.390,271.565 106.425,271.385 106.738 C 270.674 107.983,267.895 107.803,267.364 106.478 C 267.222 106.123,267.145 102.129,267.111 93.303 C 267.052 78.296,267.263 79.278,264.106 79.267 C 261.475 79.257,260.683 78.773,260.683 77.174 C 260.683 75.558,261.154 75.223,263.639 75.069 C 267.192 74.848,267.040 75.175,267.052 67.691 C 267.061 62.354,267.090 61.808,267.394 61.344 C 268.008 60.407,269.559 60.046,270.619 60.594 M45.105 64.324 C 44.622 65.258,44.780 117.164,45.267 117.703 C 45.934 118.440,46.485 118.238,51.210 115.524 C 56.946 112.229,57.313 111.988,57.799 111.202 L 58.206 110.544 58.185 91.035 C 58.171 78.705,58.097 71.359,57.984 71.071 C 57.664 70.258,56.845 69.684,51.762 66.710 C 46.189 63.448,45.656 63.257,45.105 64.324 M61.579 64.074 C 60.964 64.815,61.173 68.024,61.892 68.879 C 62.716 69.858,72.447 75.444,73.329 75.444 C 74.130 75.444,74.437 74.830,74.496 73.102 C 74.589 70.421,74.544 70.379,67.164 66.167 C 62.866 63.715,62.111 63.432,61.579 64.074 M78.090 64.142 C 77.637 64.642,77.487 66.717,77.818 67.899 C 78.144 69.064,78.707 69.476,84.495 72.793 C 87.285 74.391,91.822 77.023,94.579 78.642 C 97.335 80.261,100.164 81.899,100.866 82.282 C 101.567 82.665,103.699 83.895,105.604 85.015 C 107.508 86.135,110.050 87.603,111.253 88.278 C 115.705 90.775,115.659 91.168,110.573 94.036 C 107.260 95.903,99.624 100.308,84.020 109.352 C 77.617 113.063,77.634 113.046,77.632 115.772 C 77.630 117.962,78.392 118.600,80.007 117.758 C 80.704 117.394,87.563 113.450,92.665 110.480 C 94.469 109.429,96.560 108.218,97.312 107.788 C 98.064 107.357,100.401 106.000,102.506 104.770 C 104.610 103.541,107.358 101.948,108.610 101.230 C 109.863 100.512,112.487 98.983,114.442 97.832 C 116.396 96.681,119.331 94.978,120.963 94.048 C 126.413 90.943,126.412 90.934,120.820 87.748 C 119.267 86.864,116.437 85.221,114.533 84.100 C 112.629 82.978,109.800 81.339,108.246 80.458 C 106.692 79.576,103.863 77.938,101.959 76.817 C 100.055 75.697,95.257 72.928,91.298 70.665 C 87.339 68.402,83.108 65.965,81.894 65.250 C 79.371 63.762,78.629 63.546,78.090 64.142 M61.491 73.896 C 61.262 74.444,61.231 76.916,61.273 91.315 L 61.321 108.096 61.750 108.443 C 62.469 109.026,63.281 108.650,70.073 104.589 C 75.017 101.633,74.534 103.117,74.529 90.894 C 74.524 78.802,74.951 80.249,70.615 77.626 C 63.398 73.261,61.996 72.688,61.491 73.896 M78.072 73.638 C 77.816 73.921,77.710 74.371,77.658 75.395 C 77.526 78.008,77.933 78.539,81.669 80.623 C 82.906 81.313,85.763 82.960,88.018 84.283 C 90.273 85.606,93.226 87.327,94.579 88.107 C 99.346 90.854,99.324 91.037,93.850 94.227 C 88.390 97.409,85.119 99.298,82.124 100.999 C 77.807 103.451,77.523 103.798,77.658 106.473 C 77.815 109.574,78.138 109.499,86.898 104.344 C 89.168 103.009,93.075 100.745,95.581 99.313 C 98.087 97.882,100.629 96.405,101.230 96.031 C 101.831 95.657,103.513 94.677,104.966 93.853 C 109.862 91.078,109.864 90.820,105.014 88.096 C 103.635 87.321,102.301 86.546,102.050 86.374 C 101.549 86.030,96.364 83.031,91.663 80.365 C 90.009 79.428,86.934 77.638,84.829 76.389 C 79.306 73.111,78.752 72.886,78.072 73.638 M212.654 74.289 C 218.612 75.837,225.544 83.504,223.072 85.813 C 222.426 86.417,222.773 86.267,213.576 89.912 C 196.960 96.498,197.535 96.163,198.966 98.415 C 202.135 103.405,209.235 104.978,215.399 102.056 C 217.338 101.137,217.517 101.079,218.295 101.117 C 218.983 101.151,220.501 102.775,220.501 103.476 C 220.501 104.732,217.212 106.727,213.667 107.620 C 199.866 111.101,188.013 97.897,193.181 84.800 C 196.234 77.065,205.041 72.310,212.654 74.289 M176.108 74.346 C 179.926 75.322,182.552 77.908,183.442 81.568 C 183.783 82.968,183.973 103.925,183.662 105.786 C 183.446 107.078,182.902 107.517,181.518 107.517 C 179.108 107.517,179.137 107.663,179.135 95.453 C 179.134 84.992,179.096 84.401,178.299 82.593 C 175.582 76.431,164.300 78.007,160.972 85.013 C 159.845 87.387,159.779 88.066,159.751 97.494 C 159.722 107.626,159.748 107.517,157.358 107.517 C 154.902 107.517,155.046 108.546,155.063 91.179 C 155.080 74.702,155.020 75.497,156.283 74.969 C 157.945 74.274,158.852 75.194,159.185 77.910 C 159.585 81.177,159.843 81.243,162.362 78.722 C 166.455 74.627,171.244 73.102,176.108 74.346 M306.059 74.528 C 309.920 75.757,313.309 78.568,315.457 82.322 C 317.133 85.251,316.835 85.701,311.962 87.602 C 310.118 88.321,307.175 89.495,305.421 90.211 C 303.667 90.927,300.112 92.368,297.521 93.414 C 291.363 95.898,291.207 95.987,291.207 96.997 C 291.207 99.009,295.434 102.563,298.632 103.241 C 301.745 103.900,305.195 103.472,307.944 102.085 C 310.686 100.701,311.230 100.715,312.574 102.205 C 313.864 103.634,313.281 104.674,310.372 106.135 C 294.599 114.057,278.390 97.731,286.966 82.561 C 290.676 75.999,299.292 72.374,306.059 74.528 M341.328 74.852 C 341.676 75.289,341.714 75.506,341.627 76.559 C 341.426 79.018,341.012 79.438,338.030 80.201 C 333.324 81.405,330.310 84.009,329.163 87.860 C 328.921 88.672,328.854 90.332,328.764 97.646 L 328.656 106.454 328.061 106.986 C 326.989 107.943,325.045 107.712,324.430 106.555 C 324.088 105.911,324.039 76.780,324.379 75.886 C 324.609 75.280,325.276 74.897,326.105 74.897 C 327.521 74.897,328.083 75.672,328.277 77.889 C 328.552 81.027,328.986 81.181,331.341 78.977 C 335.321 75.254,340.085 73.286,341.328 74.852 M233.201 75.097 C 233.731 75.353,234.257 75.845,234.807 76.600 C 242.459 87.093,242.095 86.748,243.632 84.966 C 244.520 83.936,248.065 79.170,249.304 77.339 C 250.952 74.904,253.809 73.896,254.887 75.370 C 255.444 76.132,253.998 78.626,249.691 84.330 C 247.419 87.338,245.866 89.746,245.731 90.467 C 245.555 91.401,245.737 91.687,251.485 99.499 C 256.927 106.894,257.112 107.517,253.862 107.517 C 251.318 107.517,251.337 107.534,246.804 101.464 C 242.557 95.779,242.213 95.481,240.998 96.437 C 240.472 96.851,238.285 99.742,235.212 104.084 C 233.092 107.080,232.707 107.394,231.029 107.489 C 229.080 107.599,228.332 106.873,229.028 105.551 C 229.224 105.179,230.607 103.112,232.100 100.957 C 238.516 91.699,238.633 91.514,238.633 90.582 C 238.633 89.652,238.949 90.126,232.018 80.649 C 228.713 76.129,228.467 75.553,229.569 74.911 C 230.158 74.568,232.340 74.680,233.201 75.097 M206.566 78.906 C 201.389 79.843,196.645 85.336,196.631 90.408 C 196.625 92.894,197.423 92.924,202.916 90.646 C 205.021 89.773,209.039 88.128,211.845 86.990 C 218.419 84.326,218.598 84.117,216.334 81.765 C 214.078 79.422,210.118 78.263,206.566 78.906 M298.770 79.026 C 293.756 80.094,289.399 85.377,289.388 90.401 C 289.382 92.863,290.023 92.912,295.127 90.836 C 297.231 89.981,301.125 88.413,303.781 87.352 C 311.369 84.322,311.510 84.165,308.917 81.638 C 306.276 79.064,302.795 78.168,298.770 79.026 M78.069 83.117 C 77.650 83.580,77.420 96.947,77.808 98.267 C 78.226 99.686,78.910 99.515,83.371 96.876 C 85.276 95.750,87.762 94.302,88.895 93.658 C 93.682 90.938,93.718 91.038,86.469 86.820 C 78.835 82.377,78.767 82.347,78.069 83.117 M71.767 107.027 C 69.541 108.191,62.840 112.122,62.287 112.587 C 60.973 113.693,60.741 117.435,61.947 118.080 C 62.486 118.369,63.279 117.997,68.337 115.087 C 74.421 111.587,74.533 111.475,74.533 108.878 C 74.533 106.338,73.897 105.912,71.767 107.027 " stroke="none" fill="#1d2c3c" fill-rule="evenodd"></path><path id="path1" d="M59.107 58.864 C 58.477 59.112,58.418 59.358,58.298 62.270 C 58.142 66.062,57.720 66.602,55.710 65.577 C 54.704 65.064,47.346 60.886,45.422 59.736 C 43.733 58.726,42.907 58.619,42.538 59.363 C 42.303 59.838,42.102 100.741,42.269 114.322 L 42.369 122.493 42.804 122.845 C 43.399 123.326,43.305 123.368,49.112 120.034 C 56.032 116.060,56.320 115.909,56.965 115.904 C 58.046 115.896,58.207 116.318,58.312 119.451 C 58.472 124.231,58.272 124.232,66.572 119.425 C 74.646 114.748,74.452 114.751,74.636 119.284 C 74.829 124.063,74.844 124.067,80.184 120.986 C 81.937 119.975,86.118 117.566,89.476 115.633 C 102.422 108.182,105.383 106.475,109.704 103.966 C 112.159 102.540,115.153 100.814,116.355 100.131 C 124.702 95.386,129.912 92.295,130.342 91.832 C 131.501 90.584,131.268 90.384,123.280 85.777 C 119.572 83.639,114.282 80.587,111.526 78.995 C 108.770 77.403,104.670 75.044,102.415 73.752 C 100.159 72.460,98.232 71.339,98.132 71.260 C 97.907 71.083,89.166 66.011,82.199 62.015 C 74.502 57.600,74.536 57.597,74.534 62.651 C 74.532 66.997,74.248 66.999,66.970 62.692 C 60.652 58.954,59.861 58.569,59.107 58.864 M268.305 60.585 C 267.077 61.119,267.063 61.199,267.052 67.691 C 267.040 75.175,267.192 74.848,263.639 75.069 C 261.154 75.223,260.683 75.558,260.683 77.174 C 260.683 78.773,261.475 79.257,264.106 79.267 C 267.263 79.278,267.052 78.296,267.111 93.303 C 267.145 102.129,267.222 106.123,267.364 106.478 C 267.895 107.803,270.674 107.983,271.385 106.738 C 271.565 106.425,271.638 103.390,271.708 93.353 L 271.800 80.373 272.304 79.867 L 272.809 79.362 276.405 79.268 C 280.765 79.155,281.367 78.908,281.367 77.238 C 281.367 75.228,280.907 75.011,276.413 74.897 L 272.809 74.806 272.304 74.301 L 271.800 73.796 271.708 67.741 C 271.642 63.299,271.555 61.577,271.384 61.278 C 270.881 60.397,269.468 60.079,268.305 60.585 M51.762 66.710 C 56.845 69.684,57.664 70.258,57.984 71.071 C 58.097 71.359,58.171 78.705,58.185 91.035 L 58.206 110.544 57.799 111.202 C 57.313 111.988,56.946 112.229,51.210 115.524 C 46.485 118.238,45.934 118.440,45.267 117.703 C 44.780 117.164,44.622 65.258,45.105 64.324 C 45.656 63.257,46.189 63.448,51.762 66.710 M67.164 66.167 C 74.544 70.379,74.589 70.421,74.496 73.102 C 74.383 76.380,73.932 76.296,65.844 71.497 C 61.295 68.797,61.072 68.507,61.262 65.529 C 61.417 63.092,61.858 63.139,67.164 66.167 M81.894 65.250 C 83.108 65.965,87.339 68.402,91.298 70.665 C 95.257 72.928,100.055 75.697,101.959 76.817 C 103.863 77.938,106.692 79.576,108.246 80.458 C 109.800 81.339,112.629 82.978,114.533 84.100 C 116.437 85.221,119.267 86.864,120.820 87.748 C 126.412 90.934,126.413 90.943,120.963 94.048 C 119.331 94.978,116.396 96.681,114.442 97.832 C 112.487 98.983,109.863 100.512,108.610 101.230 C 107.358 101.948,104.610 103.541,102.506 104.770 C 100.401 106.000,98.064 107.357,97.312 107.788 C 96.560 108.218,94.469 109.429,92.665 110.480 C 87.563 113.450,80.704 117.394,80.007 117.758 C 78.392 118.600,77.630 117.962,77.632 115.772 C 77.634 113.046,77.617 113.063,84.020 109.352 C 99.624 100.308,107.260 95.903,110.573 94.036 C 115.659 91.168,115.705 90.775,111.253 88.278 C 110.050 87.603,107.508 86.135,105.604 85.015 C 103.699 83.895,101.567 82.665,100.866 82.282 C 100.164 81.899,97.335 80.261,94.579 78.642 C 91.822 77.023,87.285 74.391,84.495 72.793 C 77.616 68.851,77.496 68.728,77.661 65.809 C 77.800 63.334,78.490 63.243,81.894 65.250 M65.702 74.781 C 68.523 76.357,72.412 78.672,73.324 79.320 C 74.528 80.174,74.525 80.138,74.529 90.894 C 74.534 103.117,75.017 101.633,70.073 104.589 C 63.281 108.650,62.469 109.026,61.750 108.443 L 61.321 108.096 61.273 91.315 C 61.219 72.595,61.179 73.257,62.367 73.257 C 62.791 73.257,63.802 73.719,65.702 74.781 M80.091 73.690 C 80.592 73.925,82.724 75.140,84.829 76.389 C 86.934 77.638,90.009 79.428,91.663 80.365 C 96.364 83.031,101.549 86.030,102.050 86.374 C 102.301 86.546,103.635 87.321,105.014 88.096 C 109.864 90.820,109.862 91.078,104.966 93.853 C 103.513 94.677,101.831 95.657,101.230 96.031 C 100.629 96.405,98.087 97.882,95.581 99.313 C 93.075 100.745,89.168 103.009,86.898 104.344 C 78.138 109.499,77.815 109.574,77.658 106.473 C 77.523 103.798,77.807 103.451,82.124 100.999 C 85.119 99.298,88.390 97.409,93.850 94.227 C 99.324 91.037,99.346 90.854,94.579 88.107 C 93.226 87.327,90.273 85.606,88.018 84.283 C 85.763 82.960,82.906 81.313,81.669 80.623 C 77.933 78.539,77.526 78.008,77.658 75.395 C 77.766 73.253,78.327 72.860,80.091 73.690 M206.834 73.985 C 201.026 74.719,195.401 79.174,193.181 84.800 C 189.062 95.239,195.659 106.340,207.016 108.082 C 211.984 108.844,220.501 105.935,220.501 103.476 C 220.501 102.775,218.983 101.151,218.295 101.117 C 217.517 101.079,217.338 101.137,215.399 102.056 C 209.235 104.978,202.135 103.405,198.966 98.415 C 197.535 96.163,196.960 96.498,213.576 89.912 C 222.773 86.267,222.426 86.417,223.072 85.813 C 224.037 84.911,223.483 83.074,221.426 80.351 C 217.796 75.548,212.557 73.262,206.834 73.985 M170.023 74.268 C 167.008 74.911,165.011 76.072,162.362 78.722 C 159.843 81.243,159.585 81.177,159.185 77.910 C 158.852 75.194,157.945 74.274,156.283 74.969 C 155.020 75.497,155.080 74.702,155.063 91.179 C 155.046 108.546,154.902 107.517,157.358 107.517 C 159.748 107.517,159.722 107.626,159.751 97.494 C 159.779 88.066,159.845 87.387,160.972 85.013 C 164.300 78.007,175.582 76.431,178.299 82.593 C 179.096 84.401,179.134 84.992,179.135 95.453 C 179.137 107.663,179.108 107.517,181.518 107.517 C 182.902 107.517,183.446 107.078,183.662 105.786 C 183.973 103.925,183.783 82.968,183.442 81.568 C 182.090 76.011,176.390 72.910,170.023 74.268 M298.335 74.257 C 285.103 77.251,280.137 93.291,289.456 102.936 C 294.916 108.587,303.021 109.827,310.372 106.135 C 313.281 104.674,313.864 103.634,312.574 102.205 C 311.230 100.715,310.686 100.701,307.944 102.085 C 305.195 103.472,301.745 103.900,298.632 103.241 C 295.434 102.563,291.207 99.009,291.207 96.997 C 291.207 95.987,291.363 95.898,297.521 93.414 C 300.112 92.368,303.667 90.927,305.421 90.211 C 307.175 89.495,310.118 88.321,311.962 87.602 C 316.835 85.701,317.133 85.251,315.457 82.322 C 311.867 76.046,304.910 72.769,298.335 74.257 M337.859 74.793 C 335.410 75.651,333.776 76.699,331.341 78.977 C 328.986 81.181,328.552 81.027,328.277 77.889 C 328.083 75.672,327.521 74.897,326.105 74.897 C 325.276 74.897,324.609 75.280,324.379 75.886 C 324.039 76.780,324.088 105.911,324.430 106.555 C 325.045 107.712,326.989 107.943,328.061 106.986 L 328.656 106.454 328.764 97.646 C 328.854 90.332,328.921 88.672,329.163 87.860 C 330.310 84.009,333.324 81.405,338.030 80.201 C 341.012 79.438,341.426 79.018,341.627 76.559 C 341.808 74.355,340.653 73.814,337.859 74.793 M229.569 74.911 C 228.467 75.553,228.713 76.129,232.018 80.649 C 238.949 90.126,238.633 89.652,238.633 90.582 C 238.633 91.514,238.516 91.699,232.100 100.957 C 230.607 103.112,229.224 105.179,229.028 105.551 C 228.332 106.873,229.080 107.599,231.029 107.489 C 232.707 107.394,233.092 107.080,235.212 104.084 C 238.285 99.742,240.472 96.851,240.998 96.437 C 242.213 95.481,242.557 95.779,246.804 101.464 C 251.337 107.534,251.318 107.517,253.862 107.517 C 257.112 107.517,256.927 106.894,251.485 99.499 C 245.737 91.687,245.555 91.401,245.731 90.467 C 245.866 89.746,247.419 87.338,249.691 84.330 C 253.998 78.626,255.444 76.132,254.887 75.370 C 253.809 73.896,250.952 74.904,249.304 77.339 C 248.065 79.170,244.520 83.936,243.632 84.966 C 242.095 86.748,242.459 87.093,234.807 76.600 C 233.592 74.934,230.978 74.090,229.569 74.911 M212.317 79.275 C 214.894 80.141,217.585 82.449,217.585 83.795 C 217.585 84.559,216.893 84.944,211.845 86.990 C 209.039 88.128,205.021 89.773,202.916 90.646 C 197.423 92.924,196.625 92.894,196.631 90.408 C 196.651 82.934,205.181 76.879,212.317 79.275 M304.311 79.005 C 307.525 79.763,310.923 82.855,310.143 84.313 C 309.822 84.913,309.473 85.079,303.781 87.352 C 301.125 88.413,297.231 89.981,295.127 90.836 C 290.023 92.912,289.382 92.863,289.388 90.401 C 289.404 83.163,297.081 77.301,304.311 79.005 M80.397 83.345 C 82.731 84.584,91.403 89.695,91.800 90.067 C 92.831 91.032,92.248 91.753,88.895 93.658 C 87.762 94.302,85.276 95.750,83.371 96.876 C 77.316 100.457,77.582 100.752,77.665 90.543 C 77.735 81.900,77.725 81.927,80.397 83.345 M73.913 106.563 C 74.988 107.281,74.723 110.789,73.508 111.924 C 72.886 112.505,63.999 117.649,62.991 118.012 C 61.684 118.483,61.230 117.892,61.230 115.724 C 61.230 113.079,61.289 113.016,66.731 109.873 C 72.737 106.404,73.292 106.148,73.913 106.563 " stroke="none" fill="#b38e5f" fill-rule="evenodd"></path></g></svg>