<svg id="svg" version="1.1" xmlns="http://www.w3.org/2000/svg" xmlns:xlink="http://www.w3.org/1999/xlink" width="400" height="340.7407407407407" viewBox="0, 0, 400,340.7407407407407"><g id="svgg"><path id="path0" d="M0.000 170.503 L 0.000 341.006 200.000 341.006 L 400.000 341.006 400.000 170.503 L 400.000 0.000 200.000 0.000 L 0.000 0.000 0.000 170.503 M350.347 88.519 C 350.779 89.644,350.579 223.880,350.145 224.314 C 349.711 224.748,54.524 224.949,53.395 224.516 C 52.832 224.300,52.522 88.768,53.083 88.207 C 53.646 87.644,350.131 87.956,350.347 88.519 " stroke="none" fill="#1d2d3d" fill-rule="evenodd"></path><path id="path1" d="M53.355 89.088 C 53.265 89.322,53.232 119.668,53.280 156.522 L 53.367 223.529 201.514 223.615 C 319.807 223.683,349.715 223.615,349.932 223.274 C 350.244 222.782,350.318 90.014,350.006 89.201 C 349.727 88.473,53.631 88.360,53.355 89.088 M86.818 132.519 C 87.269 132.633,87.639 132.844,87.639 132.990 C 87.639 133.135,87.907 133.344,88.235 133.454 C 88.564 133.564,89.062 133.788,89.344 133.952 C 89.625 134.115,90.162 134.420,90.537 134.629 C 90.912 134.838,91.896 135.420,92.723 135.923 C 94.628 137.080,95.942 136.798,96.083 135.203 C 96.366 132.014,96.440 131.881,97.805 132.135 C 98.497 132.263,99.304 132.585,99.601 132.851 C 99.897 133.116,100.400 133.333,100.720 133.333 C 101.039 133.333,101.386 133.558,101.491 133.832 C 101.597 134.106,102.005 134.433,102.400 134.558 C 102.794 134.683,103.833 135.226,104.708 135.764 C 107.410 137.427,108.099 137.074,108.099 134.024 C 108.099 131.306,109.786 131.401,114.408 134.380 C 114.970 134.743,115.891 135.275,116.454 135.562 C 117.016 135.850,118.244 136.545,119.182 137.108 C 120.119 137.670,121.270 138.314,121.739 138.538 C 122.208 138.762,122.714 139.141,122.864 139.379 C 123.014 139.617,123.353 139.812,123.616 139.812 C 123.880 139.812,124.678 140.211,125.390 140.699 C 126.101 141.187,126.991 141.726,127.366 141.898 C 127.741 142.069,128.508 142.513,129.071 142.883 C 129.633 143.253,130.477 143.746,130.946 143.978 C 131.415 144.210,132.892 145.056,134.229 145.857 C 135.566 146.659,136.832 147.315,137.042 147.315 C 137.253 147.315,137.425 147.433,137.425 147.577 C 137.425 147.722,138.154 148.221,139.045 148.686 C 139.936 149.151,140.745 149.637,140.842 149.766 C 140.940 149.894,141.400 150.166,141.865 150.368 C 143.139 150.922,145.670 152.381,146.271 152.907 C 146.564 153.163,147.148 153.477,147.570 153.606 C 147.992 153.734,148.338 153.972,148.338 154.135 C 148.338 154.297,148.645 154.527,149.020 154.646 C 151.050 155.291,150.113 157.394,147.075 159.013 C 146.655 159.237,145.463 159.867,144.426 160.414 C 143.389 160.960,142.540 161.536,142.540 161.693 C 142.540 161.849,142.252 161.978,141.900 161.978 C 141.548 161.978,141.069 162.208,140.835 162.489 C 140.602 162.771,140.211 163.001,139.966 163.001 C 139.721 163.001,139.317 163.199,139.070 163.440 C 138.822 163.682,137.928 164.236,137.084 164.670 C 136.240 165.105,134.890 165.905,134.084 166.447 C 133.277 166.990,132.395 167.434,132.123 167.434 C 131.851 167.434,131.628 167.562,131.628 167.719 C 131.628 167.876,130.823 168.425,129.838 168.940 C 128.853 169.454,127.587 170.167,127.025 170.525 C 126.462 170.882,125.619 171.341,125.151 171.544 C 124.683 171.748,123.811 172.287,123.213 172.743 C 122.615 173.199,121.997 173.572,121.839 173.572 C 121.682 173.572,120.738 174.109,119.741 174.766 C 118.744 175.422,117.778 175.959,117.595 175.959 C 117.411 175.959,116.771 176.332,116.174 176.788 C 115.576 177.244,114.704 177.788,114.235 177.996 C 113.117 178.495,112.047 179.122,111.399 179.660 C 111.110 179.899,110.288 180.047,109.572 179.988 L 108.269 179.881 108.072 177.580 C 107.963 176.315,107.799 175.205,107.707 175.113 C 107.521 174.926,105.092 176.101,104.556 176.637 C 104.367 176.827,103.935 176.982,103.598 176.982 C 103.260 176.982,102.984 177.122,102.984 177.293 C 102.984 177.464,102.255 177.948,101.364 178.368 C 100.473 178.789,99.490 179.351,99.179 179.616 C 97.732 180.853,96.349 180.052,96.164 177.869 C 95.913 174.910,95.015 174.738,91.560 176.988 C 90.997 177.354,90.207 177.800,89.803 177.979 C 89.399 178.158,88.968 178.467,88.845 178.666 C 88.722 178.865,88.342 179.028,88.001 179.028 C 87.660 179.028,87.190 179.258,86.957 179.540 C 86.214 180.435,84.604 180.187,84.196 179.114 C 83.958 178.487,83.876 170.801,83.949 155.841 C 84.063 132.541,84.124 131.594,85.480 132.115 C 85.764 132.224,86.366 132.406,86.818 132.519 M255.072 138.278 C 255.282 144.140,255.138 143.905,258.503 143.905 C 263.778 143.905,264.460 146.970,259.298 147.477 C 257.965 147.608,256.507 147.898,256.058 148.121 L 255.243 148.528 255.072 158.407 L 254.902 168.286 253.471 168.390 C 251.106 168.562,250.985 168.051,250.956 157.817 C 250.928 147.674,250.990 147.939,248.559 147.480 C 245.151 146.838,245.864 143.905,249.428 143.905 C 250.861 143.905,250.970 143.532,250.976 138.610 C 250.981 133.965,251.329 133.243,253.485 133.401 L 254.902 133.504 255.072 138.278 M87.070 136.815 C 86.668 137.438,86.812 175.269,87.219 175.676 C 87.425 175.882,88.216 175.625,89.382 174.973 C 90.392 174.407,91.890 173.594,92.711 173.165 C 93.531 172.736,94.660 171.847,95.219 171.189 L 96.236 169.991 96.026 156.522 C 95.800 142.043,95.650 140.703,94.182 140.059 C 93.678 139.837,93.142 139.461,92.992 139.223 C 92.842 138.984,92.505 138.789,92.242 138.789 C 91.980 138.789,91.105 138.348,90.298 137.809 C 88.416 136.551,87.436 136.249,87.070 136.815 M111.399 136.626 C 111.272 136.753,111.168 137.428,111.168 138.125 C 111.168 139.484,112.265 140.507,115.123 141.816 C 115.516 141.996,116.861 142.769,118.112 143.535 C 119.363 144.301,120.448 144.928,120.522 144.928 C 120.596 144.928,121.472 145.465,122.469 146.121 C 123.466 146.777,124.476 147.315,124.715 147.315 C 124.954 147.315,125.149 147.453,125.149 147.622 C 125.149 147.791,125.571 148.099,126.087 148.305 C 126.603 148.512,127.485 148.979,128.048 149.343 C 128.610 149.707,129.761 150.359,130.605 150.791 C 131.449 151.223,132.263 151.768,132.413 152.003 C 132.562 152.238,132.966 152.430,133.309 152.430 C 133.651 152.430,134.118 152.654,134.345 152.928 C 134.573 153.202,135.084 153.529,135.481 153.655 C 135.878 153.782,136.743 154.393,137.402 155.015 L 138.600 156.146 137.837 156.958 C 137.418 157.404,136.373 158.141,135.516 158.595 C 133.143 159.852,132.627 160.161,132.213 160.574 C 132.004 160.784,131.580 160.955,131.272 160.955 C 130.963 160.955,130.433 161.262,130.094 161.637 C 129.754 162.012,129.350 162.319,129.194 162.319 C 129.039 162.319,127.889 162.945,126.637 163.711 C 125.386 164.477,124.041 165.244,123.648 165.415 C 122.923 165.731,122.648 165.894,120.205 167.450 C 119.454 167.928,118.610 168.428,118.329 168.563 C 118.048 168.697,117.127 169.210,116.283 169.704 C 115.439 170.197,114.288 170.851,113.725 171.158 C 111.753 172.233,111.168 172.961,111.168 174.341 C 111.168 175.925,111.825 176.283,113.131 175.408 C 113.646 175.064,114.604 174.492,115.260 174.137 C 115.916 173.782,117.113 173.049,117.920 172.509 C 118.726 171.968,119.600 171.526,119.861 171.526 C 120.121 171.526,120.436 171.363,120.559 171.164 C 120.682 170.965,121.113 170.656,121.517 170.477 C 121.920 170.298,122.711 169.850,123.274 169.480 C 123.836 169.110,124.604 168.653,124.979 168.463 C 125.354 168.273,125.891 167.972,126.172 167.795 C 126.976 167.288,133.096 163.681,133.760 163.323 C 134.088 163.146,134.625 162.843,134.953 162.650 C 135.281 162.457,135.818 162.209,136.147 162.099 C 136.475 161.988,136.743 161.778,136.743 161.630 C 136.743 161.483,137.165 161.194,137.681 160.987 C 138.197 160.781,139.079 160.315,139.642 159.953 C 140.205 159.591,141.279 158.974,142.029 158.582 C 145.330 156.859,146.002 155.246,143.664 154.659 C 143.234 154.551,142.882 154.312,142.882 154.128 C 142.882 153.944,142.711 153.794,142.503 153.794 C 142.294 153.794,140.853 153.026,139.301 152.089 C 137.748 151.151,136.391 150.384,136.285 150.384 C 136.179 150.384,135.509 149.985,134.798 149.497 C 134.086 149.009,133.197 148.470,132.822 148.298 C 132.447 148.127,131.679 147.687,131.117 147.320 C 130.554 146.954,129.633 146.422,129.071 146.139 C 128.508 145.855,127.818 145.471,127.536 145.285 C 126.328 144.486,122.257 142.117,121.602 141.831 C 120.866 141.510,120.563 141.330,118.056 139.727 C 117.250 139.211,116.528 138.789,116.451 138.789 C 116.375 138.789,115.562 138.347,114.645 137.806 C 112.699 136.659,111.722 136.303,111.399 136.626 M98.558 137.511 C 98.571 138.824,103.302 142.882,104.821 142.882 C 105.077 142.882,105.485 143.119,105.726 143.410 C 105.970 143.704,106.556 143.894,107.047 143.837 C 108.955 143.615,108.154 140.818,105.882 139.775 C 105.507 139.602,104.740 139.159,104.177 138.789 C 103.615 138.420,102.824 137.971,102.420 137.793 C 102.016 137.614,101.585 137.305,101.462 137.105 C 100.985 136.333,98.550 136.673,98.558 137.511 M111.396 143.108 C 109.923 144.581,111.543 147.101,115.090 148.856 C 115.840 149.227,116.533 149.637,116.631 149.766 C 116.729 149.894,117.189 150.170,117.654 150.377 C 118.553 150.778,119.062 151.075,121.228 152.468 C 121.978 152.951,122.745 153.410,122.933 153.490 C 124.495 154.151,125.831 155.315,125.831 156.015 C 125.831 156.788,123.621 158.909,122.815 158.909 C 122.617 158.909,121.795 159.353,120.989 159.895 C 120.182 160.438,118.858 161.244,118.045 161.686 C 117.232 162.128,116.005 162.827,115.317 163.240 C 114.629 163.653,113.836 164.100,113.555 164.234 C 111.401 165.254,110.707 166.519,111.363 168.228 C 111.671 169.030,113.343 168.391,116.807 166.148 C 117.175 165.910,117.937 165.483,118.500 165.200 C 119.062 164.916,119.983 164.384,120.546 164.018 C 121.108 163.652,121.876 163.194,122.251 163.001 C 122.626 162.808,123.393 162.350,123.956 161.984 C 124.518 161.617,125.439 161.084,126.002 160.798 C 126.564 160.513,127.792 159.818,128.730 159.256 C 129.668 158.693,130.742 158.085,131.117 157.904 C 133.823 156.601,133.709 155.791,130.592 154.169 C 129.755 153.734,128.994 153.277,128.900 153.153 C 128.806 153.029,128.346 152.740,127.877 152.510 C 127.008 152.086,126.731 151.919,124.243 150.332 C 123.464 149.834,122.505 149.325,122.112 149.200 C 121.719 149.076,121.398 148.831,121.398 148.656 C 121.398 148.481,121.175 148.338,120.902 148.338 C 120.629 148.338,119.823 147.939,119.111 147.451 C 118.400 146.963,117.511 146.424,117.136 146.252 C 116.760 146.081,115.993 145.638,115.431 145.269 C 114.868 144.899,114.024 144.430,113.556 144.227 C 113.087 144.023,112.461 143.637,112.164 143.369 C 111.867 143.100,111.521 142.983,111.396 143.108 M183.926 143.395 C 184.464 143.675,185.109 143.905,185.359 143.905 C 186.203 143.905,189.216 147.253,189.427 148.424 C 189.537 149.033,189.582 153.751,189.528 158.909 L 189.429 168.286 187.894 168.286 L 186.360 168.286 186.134 166.581 C 186.010 165.644,185.895 162.527,185.878 159.656 C 185.834 151.975,185.429 149.962,183.628 148.487 C 181.995 147.148,178.544 146.766,177.664 147.826 C 177.431 148.107,176.981 148.338,176.666 148.338 C 176.350 148.338,175.564 148.861,174.917 149.500 C 172.319 152.072,172.516 151.374,172.196 159.137 C 171.828 168.107,171.780 168.286,169.796 168.286 L 168.286 168.286 168.197 156.562 C 168.099 143.748,168.105 143.700,169.961 144.103 C 171.259 144.384,171.514 144.752,171.521 146.357 C 171.528 148.136,171.845 148.150,173.758 146.455 C 175.382 145.016,176.075 144.591,178.687 143.428 C 180.205 142.753,182.665 142.737,183.926 143.395 M211.594 143.564 C 212.344 143.926,213.137 144.228,213.356 144.234 C 213.575 144.240,213.805 144.361,213.868 144.501 C 213.930 144.642,214.635 145.201,215.433 145.743 C 217.292 147.005,219.267 149.732,219.267 151.036 C 219.267 152.053,217.660 153.794,216.722 153.794 C 216.477 153.794,215.836 154.023,215.299 154.303 C 214.762 154.583,214.072 154.813,213.767 154.815 C 213.462 154.816,213.021 155.047,212.788 155.328 C 212.554 155.610,211.922 155.840,211.382 155.840 C 210.842 155.840,210.401 155.977,210.401 156.144 C 210.401 156.311,209.979 156.546,209.463 156.667 C 208.573 156.875,207.338 157.385,205.173 158.439 C 204.642 158.697,203.983 158.909,203.710 158.909 C 202.883 158.909,201.194 160.356,201.194 161.064 C 201.194 161.879,203.326 163.947,204.460 164.232 C 204.918 164.346,205.376 164.577,205.479 164.744 C 205.728 165.146,210.988 165.136,211.237 164.732 C 211.344 164.559,211.923 164.309,212.525 164.177 C 213.126 164.045,213.890 163.767,214.223 163.559 C 215.152 162.979,216.680 164.035,216.815 165.350 C 216.933 166.500,214.462 168.437,212.861 168.450 C 212.432 168.454,211.710 168.701,211.256 168.998 C 209.799 169.953,206.128 169.459,202.558 167.828 C 201.093 167.160,196.760 162.869,196.760 162.087 C 196.760 161.775,196.518 161.252,196.221 160.924 C 195.439 160.060,195.444 152.296,196.227 151.431 C 196.520 151.107,196.760 150.596,196.760 150.295 C 196.760 148.983,202.620 143.905,204.133 143.905 C 204.349 143.905,204.965 143.675,205.502 143.395 C 206.876 142.678,209.937 142.763,211.594 143.564 M280.255 143.413 C 284.954 145.420,288.150 148.625,288.150 151.328 C 288.150 152.065,286.366 153.794,285.605 153.794 C 285.360 153.794,284.719 154.023,284.182 154.303 C 283.645 154.583,282.975 154.818,282.694 154.825 C 282.413 154.833,281.885 155.064,281.521 155.339 C 281.156 155.614,280.593 155.840,280.269 155.840 C 279.945 155.840,279.169 156.097,278.544 156.410 C 277.920 156.724,277.001 157.185,276.503 157.433 C 276.005 157.682,275.295 157.886,274.925 157.886 C 274.555 157.886,274.061 158.116,273.828 158.397 C 273.594 158.679,273.057 158.909,272.634 158.909 C 272.211 158.909,271.674 159.139,271.441 159.420 C 271.207 159.702,270.805 159.932,270.546 159.932 C 268.881 159.932,271.328 163.726,273.316 164.225 C 273.785 164.342,274.169 164.576,274.169 164.743 C 274.169 165.249,279.802 165.101,280.876 164.567 C 283.652 163.187,283.704 163.176,284.673 163.761 C 286.179 164.670,285.835 167.434,284.217 167.434 C 283.988 167.434,283.609 167.664,283.376 167.945 C 283.142 168.227,282.579 168.457,282.124 168.457 C 281.669 168.457,280.827 168.699,280.254 168.996 C 278.474 169.916,275.126 169.479,271.441 167.844 C 269.957 167.185,265.644 162.836,265.644 161.998 C 265.644 161.658,265.413 161.188,265.132 160.955 C 264.728 160.620,264.621 159.650,264.621 156.351 C 264.621 153.053,264.728 152.083,265.132 151.748 C 265.413 151.514,265.644 150.955,265.644 150.506 C 265.644 148.812,271.464 143.905,273.473 143.905 C 273.856 143.905,274.169 143.762,274.169 143.587 C 274.169 142.818,278.568 142.693,280.255 143.413 M306.246 143.576 C 307.943 144.484,306.549 148.338,304.524 148.338 C 304.030 148.338,303.328 148.563,302.964 148.838 C 302.600 149.114,302.065 149.344,301.776 149.350 C 301.008 149.366,298.380 152.168,298.380 152.971 C 298.380 153.349,298.188 153.849,297.954 154.083 C 297.653 154.383,297.477 156.538,297.357 161.397 L 297.187 168.286 295.666 168.286 C 293.610 168.286,293.578 168.108,293.513 156.010 C 293.456 145.523,293.623 144.245,295.088 143.963 C 295.886 143.809,297.350 145.171,297.381 146.095 C 297.446 148.006,297.788 148.076,299.579 146.541 C 300.514 145.739,301.893 144.796,302.643 144.444 C 303.393 144.092,304.237 143.683,304.518 143.534 C 305.222 143.161,305.483 143.167,306.246 143.576 M98.718 144.331 C 98.615 144.753,98.574 150.315,98.626 156.692 L 98.721 168.286 99.833 168.394 C 100.567 168.464,101.250 168.261,101.840 167.797 C 102.332 167.410,102.944 167.093,103.200 167.093 C 103.456 167.093,103.666 166.950,103.666 166.775 C 103.666 166.600,104.011 166.351,104.433 166.222 C 104.855 166.092,105.853 165.458,106.650 164.812 L 108.099 163.637 108.099 156.234 C 108.099 148.552,107.886 147.315,106.562 147.315 C 106.301 147.315,105.964 147.120,105.814 146.881 C 105.664 146.643,105.158 146.259,104.689 146.029 C 104.220 145.799,102.992 145.153,101.961 144.595 C 99.701 143.370,98.966 143.310,98.718 144.331 M226.495 144.184 C 226.990 144.383,228.653 146.440,231.365 150.208 C 232.502 151.788,234.953 151.649,234.953 150.004 C 234.953 149.861,235.413 149.240,235.976 148.624 C 236.539 148.008,236.999 147.340,236.999 147.139 C 236.999 146.141,239.975 143.854,241.130 143.965 C 243.424 144.184,242.496 146.793,238.181 152.259 C 237.589 153.009,237.005 153.853,236.884 154.135 C 236.762 154.416,236.472 154.912,236.239 155.238 C 235.790 155.866,236.507 157.727,237.668 158.948 C 237.957 159.251,238.423 159.844,238.704 160.266 C 238.986 160.688,239.685 161.668,240.258 162.443 C 244.066 167.597,244.195 168.235,241.463 168.391 C 239.433 168.507,238.735 167.997,236.710 164.922 C 236.213 164.166,235.384 163.084,234.868 162.516 C 234.352 161.949,233.930 161.390,233.930 161.275 C 233.930 161.159,233.575 160.902,233.140 160.705 C 232.397 160.366,228.474 164.518,228.474 165.644 C 228.474 165.802,227.881 166.510,227.157 167.218 C 224.271 170.036,221.840 168.005,224.261 164.799 C 224.796 164.090,225.388 163.250,225.575 162.933 C 225.763 162.617,226.749 161.159,227.767 159.695 C 230.360 155.966,230.327 155.545,227.091 151.236 C 223.282 146.163,222.846 145.330,223.473 144.331 C 223.756 143.880,225.522 143.794,226.495 144.184 M205.286 147.826 C 205.052 148.107,204.583 148.338,204.242 148.338 C 202.699 148.338,199.596 153.187,199.504 155.742 C 199.475 156.534,200.673 156.858,201.686 156.332 C 202.208 156.061,202.856 155.840,203.126 155.840 C 203.395 155.840,204.183 155.542,204.877 155.178 C 206.589 154.280,208.553 153.453,208.975 153.453 C 209.286 153.453,210.714 152.804,212.106 152.030 C 212.387 151.874,212.960 151.598,213.378 151.417 C 214.532 150.917,213.166 148.338,211.747 148.338 C 211.428 148.338,210.975 148.107,210.742 147.826 C 210.441 147.464,209.645 147.315,208.014 147.315 C 206.382 147.315,205.586 147.464,205.286 147.826 M274.319 147.815 C 273.955 148.091,273.420 148.321,273.130 148.327 C 271.628 148.358,268.713 152.699,268.713 154.906 C 268.713 156.686,269.190 157.048,270.585 156.324 C 271.098 156.058,271.695 155.840,271.911 155.840 C 272.127 155.840,272.876 155.533,273.576 155.158 C 274.276 154.783,275.156 154.476,275.532 154.476 C 275.907 154.476,276.215 154.334,276.215 154.162 C 276.215 153.989,276.714 153.739,277.323 153.607 C 277.933 153.474,278.734 153.155,279.104 152.898 C 279.474 152.640,280.126 152.430,280.553 152.430 C 280.980 152.430,281.330 152.291,281.330 152.122 C 281.330 151.953,281.811 151.647,282.398 151.442 L 283.466 151.070 282.619 149.970 C 280.790 147.600,276.185 146.404,274.319 147.815 M111.395 150.611 C 111.004 151.003,111.131 161.574,111.530 161.821 C 111.730 161.944,112.164 161.799,112.495 161.500 C 112.826 161.200,113.335 160.955,113.625 160.955 C 113.916 160.955,114.345 160.725,114.578 160.443 C 114.811 160.162,115.129 159.932,115.285 159.932 C 115.440 159.932,116.249 159.471,117.083 158.909 C 117.916 158.346,118.741 157.886,118.916 157.886 C 119.090 157.886,119.582 157.515,120.007 157.062 C 121.124 155.873,120.704 155.281,117.647 153.729 C 117.178 153.491,116.718 153.195,116.624 153.072 C 116.452 152.846,111.988 150.384,111.751 150.384 C 111.680 150.384,111.520 150.486,111.395 150.611 M105.060 169.137 C 104.421 169.498,103.738 169.953,103.543 170.148 C 103.348 170.343,102.907 170.503,102.564 170.503 C 102.220 170.503,101.856 170.719,101.755 170.984 C 101.653 171.248,101.236 171.551,100.828 171.657 C 100.419 171.763,99.740 172.362,99.318 172.988 C 97.590 175.550,98.942 176.616,101.739 174.895 C 102.665 174.325,103.747 173.711,104.141 173.530 C 106.883 172.276,107.843 171.353,107.888 169.928 C 107.937 168.347,106.949 168.070,105.060 169.137 " stroke="none" fill="#1d2d3d" fill-rule="evenodd"></path><path id="path2" d="M53.083 88.207 C 52.522 88.768,52.832 224.300,53.395 224.516 C 54.524 224.949,349.711 224.748,350.145 224.314 C 350.579 223.880,350.779 89.644,350.347 88.519 C 350.131 87.956,53.646 87.644,53.083 88.207 M350.006 89.201 C 350.318 90.014,350.244 222.782,349.932 223.274 C 349.715 223.615,319.807 223.683,201.514 223.615 L 53.367 223.529 53.280 156.522 C 53.232 119.668,53.265 89.322,53.355 89.088 C 53.631 88.360,349.727 88.473,350.006 89.201 M84.510 132.710 C 83.924 133.739,83.627 177.616,84.196 179.114 C 84.604 180.187,86.214 180.435,86.957 179.540 C 87.190 179.258,87.660 179.028,88.001 179.028 C 88.342 179.028,88.722 178.865,88.845 178.666 C 88.968 178.467,89.399 178.158,89.803 177.979 C 90.207 177.800,90.997 177.354,91.560 176.988 C 95.015 174.738,95.913 174.910,96.164 177.869 C 96.349 180.052,97.732 180.853,99.179 179.616 C 99.490 179.351,100.473 178.789,101.364 178.368 C 102.255 177.948,102.984 177.464,102.984 177.293 C 102.984 177.122,103.260 176.982,103.598 176.982 C 103.935 176.982,104.367 176.827,104.556 176.637 C 105.092 176.101,107.521 174.926,107.707 175.113 C 107.799 175.205,107.963 176.315,108.072 177.580 L 108.269 179.881 109.572 179.988 C 110.288 180.047,111.110 179.899,111.399 179.660 C 112.047 179.122,113.117 178.495,114.235 177.996 C 114.704 177.788,115.576 177.244,116.174 176.788 C 116.771 176.332,117.411 175.959,117.595 175.959 C 117.778 175.959,118.744 175.422,119.741 174.766 C 120.738 174.109,121.682 173.572,121.839 173.572 C 121.997 173.572,122.615 173.199,123.213 172.743 C 123.811 172.287,124.683 171.748,125.151 171.544 C 125.619 171.341,126.462 170.882,127.025 170.525 C 127.587 170.167,128.853 169.454,129.838 168.940 C 130.823 168.425,131.628 167.876,131.628 167.719 C 131.628 167.562,131.851 167.434,132.123 167.434 C 132.395 167.434,133.277 166.990,134.084 166.447 C 134.890 165.905,136.240 165.105,137.084 164.670 C 137.928 164.236,138.822 163.682,139.070 163.440 C 139.317 163.199,139.721 163.001,139.966 163.001 C 140.211 163.001,140.602 162.771,140.835 162.489 C 141.069 162.208,141.548 161.978,141.900 161.978 C 142.252 161.978,142.540 161.849,142.540 161.693 C 142.540 161.536,143.389 160.960,144.426 160.414 C 145.463 159.867,146.655 159.237,147.075 159.013 C 150.113 157.394,151.050 155.291,149.020 154.646 C 148.645 154.527,148.338 154.297,148.338 154.135 C 148.338 153.972,147.992 153.734,147.570 153.606 C 147.148 153.477,146.564 153.163,146.271 152.907 C 145.670 152.381,143.139 150.922,141.865 150.368 C 141.400 150.166,140.940 149.894,140.842 149.766 C 140.745 149.637,139.936 149.151,139.045 148.686 C 138.154 148.221,137.425 147.722,137.425 147.577 C 137.425 147.433,137.253 147.315,137.042 147.315 C 136.832 147.315,135.566 146.659,134.229 145.857 C 132.892 145.056,131.415 144.210,130.946 143.978 C 130.477 143.746,129.633 143.253,129.071 142.883 C 128.508 142.513,127.741 142.069,127.366 141.898 C 126.991 141.726,126.101 141.187,125.390 140.699 C 124.678 140.211,123.880 139.812,123.616 139.812 C 123.353 139.812,123.014 139.617,122.864 139.379 C 122.714 139.141,122.208 138.762,121.739 138.538 C 121.270 138.314,120.119 137.670,119.182 137.108 C 118.244 136.545,117.016 135.850,116.454 135.562 C 115.891 135.275,114.970 134.743,114.408 134.380 C 109.786 131.401,108.099 131.306,108.099 134.024 C 108.099 137.074,107.410 137.427,104.708 135.764 C 103.833 135.226,102.794 134.683,102.400 134.558 C 102.005 134.433,101.597 134.106,101.491 133.832 C 101.386 133.558,101.039 133.333,100.720 133.333 C 100.400 133.333,99.897 133.116,99.601 132.851 C 99.304 132.585,98.497 132.263,97.805 132.135 C 96.440 131.881,96.366 132.014,96.083 135.203 C 95.942 136.798,94.628 137.080,92.723 135.923 C 91.896 135.420,90.912 134.838,90.537 134.629 C 90.162 134.420,89.625 134.115,89.344 133.952 C 89.062 133.788,88.564 133.564,88.235 133.454 C 87.907 133.344,87.639 133.135,87.639 132.990 C 87.639 132.844,87.269 132.633,86.818 132.519 C 86.366 132.406,85.764 132.224,85.480 132.115 C 85.158 131.991,84.792 132.216,84.510 132.710 M251.524 134.073 C 251.107 134.668,250.979 135.726,250.976 138.610 C 250.970 143.532,250.861 143.905,249.428 143.905 C 245.864 143.905,245.151 146.838,248.559 147.480 C 250.990 147.939,250.928 147.674,250.956 157.817 C 250.985 168.051,251.106 168.562,253.471 168.390 L 254.902 168.286 255.072 158.407 L 255.243 148.528 256.058 148.121 C 256.507 147.898,257.965 147.608,259.298 147.477 C 264.460 146.970,263.778 143.905,258.503 143.905 C 255.138 143.905,255.282 144.140,255.072 138.278 L 254.902 133.504 253.485 133.401 C 252.329 133.316,251.967 133.440,251.524 134.073 M90.298 137.809 C 91.105 138.348,91.980 138.789,92.242 138.789 C 92.505 138.789,92.842 138.984,92.992 139.223 C 93.142 139.461,93.678 139.837,94.182 140.059 C 95.650 140.703,95.800 142.043,96.026 156.522 L 96.236 169.991 95.219 171.189 C 94.660 171.847,93.531 172.736,92.711 173.165 C 91.890 173.594,90.392 174.407,89.382 174.973 C 88.216 175.625,87.425 175.882,87.219 175.676 C 86.812 175.269,86.668 137.438,87.070 136.815 C 87.436 136.249,88.416 136.551,90.298 137.809 M114.645 137.806 C 115.562 138.347,116.375 138.789,116.451 138.789 C 116.528 138.789,117.250 139.211,118.056 139.727 C 120.563 141.330,120.866 141.510,121.602 141.831 C 122.257 142.117,126.328 144.486,127.536 145.285 C 127.818 145.471,128.508 145.855,129.071 146.139 C 129.633 146.422,130.554 146.954,131.117 147.320 C 131.679 147.687,132.447 148.127,132.822 148.298 C 133.197 148.470,134.086 149.009,134.798 149.497 C 135.509 149.985,136.179 150.384,136.285 150.384 C 136.391 150.384,137.748 151.151,139.301 152.089 C 140.853 153.026,142.294 153.794,142.503 153.794 C 142.711 153.794,142.882 153.944,142.882 154.128 C 142.882 154.312,143.234 154.551,143.664 154.659 C 146.002 155.246,145.330 156.859,142.029 158.582 C 141.279 158.974,140.205 159.591,139.642 159.953 C 139.079 160.315,138.197 160.781,137.681 160.987 C 137.165 161.194,136.743 161.483,136.743 161.630 C 136.743 161.778,136.475 161.988,136.147 162.099 C 135.818 162.209,135.281 162.457,134.953 162.650 C 134.625 162.843,134.088 163.146,133.760 163.323 C 133.096 163.681,126.976 167.288,126.172 167.795 C 125.891 167.972,125.354 168.273,124.979 168.463 C 124.604 168.653,123.836 169.110,123.274 169.480 C 122.711 169.850,121.920 170.298,121.517 170.477 C 121.113 170.656,120.682 170.965,120.559 171.164 C 120.436 171.363,120.121 171.526,119.861 171.526 C 119.600 171.526,118.726 171.968,117.920 172.509 C 117.113 173.049,115.916 173.782,115.260 174.137 C 114.604 174.492,113.646 175.064,113.131 175.408 C 111.825 176.283,111.168 175.925,111.168 174.341 C 111.168 172.961,111.753 172.233,113.725 171.158 C 114.288 170.851,115.439 170.197,116.283 169.704 C 117.127 169.210,118.048 168.697,118.329 168.563 C 118.610 168.428,119.454 167.928,120.205 167.450 C 122.648 165.894,122.923 165.731,123.648 165.415 C 124.041 165.244,125.386 164.477,126.637 163.711 C 127.889 162.945,129.039 162.319,129.194 162.319 C 129.350 162.319,129.754 162.012,130.094 161.637 C 130.433 161.262,130.963 160.955,131.272 160.955 C 131.580 160.955,132.004 160.784,132.213 160.574 C 132.627 160.161,133.143 159.852,135.516 158.595 C 136.373 158.141,137.418 157.404,137.837 156.958 L 138.600 156.146 137.402 155.015 C 136.743 154.393,135.878 153.782,135.481 153.655 C 135.084 153.529,134.573 153.202,134.345 152.928 C 134.118 152.654,133.651 152.430,133.309 152.430 C 132.966 152.430,132.562 152.238,132.413 152.003 C 132.263 151.768,131.449 151.223,130.605 150.791 C 129.761 150.359,128.610 149.707,128.048 149.343 C 127.485 148.979,126.603 148.512,126.087 148.305 C 125.571 148.099,125.149 147.791,125.149 147.622 C 125.149 147.453,124.954 147.315,124.715 147.315 C 124.476 147.315,123.466 146.777,122.469 146.121 C 121.472 145.465,120.596 144.928,120.522 144.928 C 120.448 144.928,119.363 144.301,118.112 143.535 C 116.861 142.769,115.516 141.996,115.123 141.816 C 112.265 140.507,111.168 139.484,111.168 138.125 C 111.168 136.068,111.626 136.026,114.645 137.806 M101.462 137.105 C 101.585 137.305,102.016 137.614,102.420 137.793 C 102.824 137.971,103.615 138.420,104.177 138.789 C 104.740 139.159,105.507 139.602,105.882 139.775 C 108.154 140.818,108.955 143.615,107.047 143.837 C 106.556 143.894,105.970 143.704,105.726 143.410 C 105.485 143.119,105.077 142.882,104.821 142.882 C 103.302 142.882,98.571 138.824,98.558 137.511 C 98.550 136.673,100.985 136.333,101.462 137.105 M113.556 144.227 C 114.024 144.430,114.868 144.899,115.431 145.269 C 115.993 145.638,116.760 146.081,117.136 146.252 C 117.511 146.424,118.400 146.963,119.111 147.451 C 119.823 147.939,120.629 148.338,120.902 148.338 C 121.175 148.338,121.398 148.481,121.398 148.656 C 121.398 148.831,121.719 149.076,122.112 149.200 C 122.505 149.325,123.464 149.834,124.243 150.332 C 126.731 151.919,127.008 152.086,127.877 152.510 C 128.346 152.740,128.806 153.029,128.900 153.153 C 128.994 153.277,129.755 153.734,130.592 154.169 C 133.709 155.791,133.823 156.601,131.117 157.904 C 130.742 158.085,129.668 158.693,128.730 159.256 C 127.792 159.818,126.564 160.513,126.002 160.798 C 125.439 161.084,124.518 161.617,123.956 161.984 C 123.393 162.350,122.626 162.808,122.251 163.001 C 121.876 163.194,121.108 163.652,120.546 164.018 C 119.983 164.384,119.062 164.916,118.500 165.200 C 117.937 165.483,117.175 165.910,116.807 166.148 C 113.343 168.391,111.671 169.030,111.363 168.228 C 110.707 166.519,111.401 165.254,113.555 164.234 C 113.836 164.100,114.629 163.653,115.317 163.240 C 116.005 162.827,117.232 162.128,118.045 161.686 C 118.858 161.244,120.182 160.438,120.989 159.895 C 121.795 159.353,122.617 158.909,122.815 158.909 C 123.621 158.909,125.831 156.788,125.831 156.015 C 125.831 155.315,124.495 154.151,122.933 153.490 C 122.745 153.410,121.978 152.951,121.228 152.468 C 119.062 151.075,118.553 150.778,117.654 150.377 C 117.189 150.170,116.729 149.894,116.631 149.766 C 116.533 149.637,115.840 149.227,115.090 148.856 C 111.753 147.205,111.180 146.601,111.173 144.729 C 111.167 143.072,111.433 142.707,112.164 143.369 C 112.461 143.637,113.087 144.023,113.556 144.227 M178.687 143.428 C 176.075 144.591,175.382 145.016,173.758 146.455 C 171.845 148.150,171.528 148.136,171.521 146.357 C 171.514 144.752,171.259 144.384,169.961 144.103 C 168.105 143.700,168.099 143.748,168.197 156.562 L 168.286 168.286 169.796 168.286 C 171.780 168.286,171.828 168.107,172.196 159.137 C 172.516 151.374,172.319 152.072,174.917 149.500 C 175.564 148.861,176.350 148.338,176.666 148.338 C 176.981 148.338,177.431 148.107,177.664 147.826 C 178.544 146.766,181.995 147.148,183.628 148.487 C 185.429 149.962,185.834 151.975,185.878 159.656 C 185.895 162.527,186.010 165.644,186.134 166.581 L 186.360 168.286 187.894 168.286 L 189.429 168.286 189.528 158.909 C 189.582 153.751,189.537 149.033,189.427 148.424 C 189.216 147.253,186.203 143.905,185.359 143.905 C 185.109 143.905,184.464 143.675,183.926 143.395 C 182.665 142.737,180.205 142.753,178.687 143.428 M205.502 143.395 C 204.965 143.675,204.349 143.905,204.133 143.905 C 202.620 143.905,196.760 148.983,196.760 150.295 C 196.760 150.596,196.520 151.107,196.227 151.431 C 195.444 152.296,195.439 160.060,196.221 160.924 C 196.518 161.252,196.760 161.775,196.760 162.087 C 196.760 162.869,201.093 167.160,202.558 167.828 C 206.128 169.459,209.799 169.953,211.256 168.998 C 211.710 168.701,212.432 168.454,212.861 168.450 C 214.462 168.437,216.933 166.500,216.815 165.350 C 216.680 164.035,215.152 162.979,214.223 163.559 C 213.890 163.767,213.126 164.045,212.525 164.177 C 211.923 164.309,211.344 164.559,211.237 164.732 C 210.988 165.136,205.728 165.146,205.479 164.744 C 205.376 164.577,204.918 164.346,204.460 164.232 C 203.326 163.947,201.194 161.879,201.194 161.064 C 201.194 160.356,202.883 158.909,203.710 158.909 C 203.983 158.909,204.642 158.697,205.173 158.439 C 207.338 157.385,208.573 156.875,209.463 156.667 C 209.979 156.546,210.401 156.311,210.401 156.144 C 210.401 155.977,210.842 155.840,211.382 155.840 C 211.922 155.840,212.554 155.610,212.788 155.328 C 213.021 155.047,213.462 154.816,213.767 154.815 C 214.072 154.813,214.762 154.583,215.299 154.303 C 215.836 154.023,216.477 153.794,216.722 153.794 C 217.660 153.794,219.267 152.053,219.267 151.036 C 219.267 149.732,217.292 147.005,215.433 145.743 C 214.635 145.201,213.930 144.642,213.868 144.501 C 213.805 144.361,213.575 144.240,213.356 144.234 C 213.137 144.228,212.344 143.926,211.594 143.564 C 209.937 142.763,206.876 142.678,205.502 143.395 M274.936 143.122 C 274.514 143.203,274.169 143.413,274.169 143.587 C 274.169 143.762,273.856 143.905,273.473 143.905 C 271.464 143.905,265.644 148.812,265.644 150.506 C 265.644 150.955,265.413 151.514,265.132 151.748 C 264.728 152.083,264.621 153.053,264.621 156.351 C 264.621 159.650,264.728 160.620,265.132 160.955 C 265.413 161.188,265.644 161.658,265.644 161.998 C 265.644 162.836,269.957 167.185,271.441 167.844 C 275.126 169.479,278.474 169.916,280.254 168.996 C 280.827 168.699,281.669 168.457,282.124 168.457 C 282.579 168.457,283.142 168.227,283.376 167.945 C 283.609 167.664,283.988 167.434,284.217 167.434 C 285.835 167.434,286.179 164.670,284.673 163.761 C 283.704 163.176,283.652 163.187,280.876 164.567 C 279.802 165.101,274.169 165.249,274.169 164.743 C 274.169 164.576,273.785 164.342,273.316 164.225 C 271.328 163.726,268.881 159.932,270.546 159.932 C 270.805 159.932,271.207 159.702,271.441 159.420 C 271.674 159.139,272.211 158.909,272.634 158.909 C 273.057 158.909,273.594 158.679,273.828 158.397 C 274.061 158.116,274.555 157.886,274.925 157.886 C 275.295 157.886,276.005 157.682,276.503 157.433 C 277.001 157.185,277.920 156.724,278.544 156.410 C 279.169 156.097,279.945 155.840,280.269 155.840 C 280.593 155.840,281.156 155.614,281.521 155.339 C 281.885 155.064,282.413 154.833,282.694 154.825 C 282.975 154.818,283.645 154.583,284.182 154.303 C 284.719 154.023,285.360 153.794,285.605 153.794 C 288.693 153.794,288.588 149.432,285.429 146.509 C 282.392 143.700,278.485 142.439,274.936 143.122 M304.518 143.534 C 304.237 143.683,303.393 144.092,302.643 144.444 C 301.893 144.796,300.514 145.739,299.579 146.541 C 297.788 148.076,297.446 148.006,297.381 146.095 C 297.350 145.171,295.886 143.809,295.088 143.963 C 293.623 144.245,293.456 145.523,293.513 156.010 C 293.578 168.108,293.610 168.286,295.666 168.286 L 297.187 168.286 297.357 161.397 C 297.477 156.538,297.653 154.383,297.954 154.083 C 298.188 153.849,298.380 153.349,298.380 152.971 C 298.380 152.168,301.008 149.366,301.776 149.350 C 302.065 149.344,302.600 149.114,302.964 148.838 C 303.328 148.563,304.030 148.338,304.524 148.338 C 305.873 148.338,306.905 147.040,306.905 145.344 C 306.905 143.574,305.892 142.806,304.518 143.534 M101.961 144.595 C 102.992 145.153,104.220 145.799,104.689 146.029 C 105.158 146.259,105.664 146.643,105.814 146.881 C 105.964 147.120,106.301 147.315,106.562 147.315 C 107.886 147.315,108.099 148.552,108.099 156.234 L 108.099 163.637 106.650 164.812 C 105.853 165.458,104.855 166.092,104.433 166.222 C 104.011 166.351,103.666 166.600,103.666 166.775 C 103.666 166.950,103.456 167.093,103.200 167.093 C 102.944 167.093,102.332 167.410,101.840 167.797 C 101.250 168.261,100.567 168.464,99.833 168.394 L 98.721 168.286 98.626 156.692 C 98.505 141.983,98.328 142.626,101.961 144.595 M223.473 144.331 C 222.846 145.330,223.282 146.163,227.091 151.236 C 230.327 155.545,230.360 155.966,227.767 159.695 C 226.749 161.159,225.763 162.617,225.575 162.933 C 225.388 163.250,224.796 164.090,224.261 164.799 C 221.840 168.005,224.271 170.036,227.157 167.218 C 227.881 166.510,228.474 165.802,228.474 165.644 C 228.474 164.518,232.397 160.366,233.140 160.705 C 233.575 160.902,233.930 161.159,233.930 161.275 C 233.930 161.390,234.352 161.949,234.868 162.516 C 235.384 163.084,236.213 164.166,236.710 164.922 C 238.735 167.997,239.433 168.507,241.463 168.391 C 244.195 168.235,244.066 167.597,240.258 162.443 C 239.685 161.668,238.986 160.688,238.704 160.266 C 238.423 159.844,237.957 159.251,237.668 158.948 C 236.507 157.727,235.790 155.866,236.239 155.238 C 236.472 154.912,236.762 154.416,236.884 154.135 C 237.005 153.853,237.589 153.009,238.181 152.259 C 242.496 146.793,243.424 144.184,241.130 143.965 C 239.975 143.854,236.999 146.141,236.999 147.139 C 236.999 147.340,236.539 148.008,235.976 148.624 C 235.413 149.240,234.953 149.861,234.953 150.004 C 234.953 151.649,232.502 151.788,231.365 150.208 C 228.653 146.440,226.990 144.383,226.495 144.184 C 225.522 143.794,223.756 143.880,223.473 144.331 M210.742 147.826 C 210.975 148.107,211.428 148.338,211.747 148.338 C 213.166 148.338,214.532 150.917,213.378 151.417 C 212.960 151.598,212.387 151.874,212.106 152.030 C 210.714 152.804,209.286 153.453,208.975 153.453 C 208.553 153.453,206.589 154.280,204.877 155.178 C 204.183 155.542,203.395 155.840,203.126 155.840 C 202.856 155.840,202.208 156.061,201.686 156.332 C 200.673 156.858,199.475 156.534,199.504 155.742 C 199.596 153.187,202.699 148.338,204.242 148.338 C 204.583 148.338,205.052 148.107,205.286 147.826 C 205.586 147.464,206.382 147.315,208.014 147.315 C 209.645 147.315,210.441 147.464,210.742 147.826 M280.442 148.107 C 281.173 148.527,282.152 149.365,282.619 149.970 L 283.466 151.070 282.398 151.442 C 281.811 151.647,281.330 151.953,281.330 152.122 C 281.330 152.291,280.980 152.430,280.553 152.430 C 280.126 152.430,279.474 152.640,279.104 152.898 C 278.734 153.155,277.933 153.474,277.323 153.607 C 276.714 153.739,276.215 153.989,276.215 154.162 C 276.215 154.334,275.907 154.476,275.532 154.476 C 275.156 154.476,274.276 154.783,273.576 155.158 C 272.876 155.533,272.127 155.840,271.911 155.840 C 271.695 155.840,271.098 156.058,270.585 156.324 C 269.190 157.048,268.713 156.686,268.713 154.906 C 268.713 152.699,271.628 148.358,273.130 148.327 C 273.420 148.321,273.955 148.091,274.319 147.815 C 275.373 147.018,278.834 147.183,280.442 148.107 M114.166 151.616 C 115.424 152.294,116.530 152.949,116.624 153.072 C 116.718 153.195,117.178 153.491,117.647 153.729 C 120.704 155.281,121.124 155.873,120.007 157.062 C 119.582 157.515,119.090 157.886,118.916 157.886 C 118.741 157.886,117.916 158.346,117.083 158.909 C 116.249 159.471,115.440 159.932,115.285 159.932 C 115.129 159.932,114.811 160.162,114.578 160.443 C 114.345 160.725,113.916 160.955,113.625 160.955 C 113.335 160.955,112.826 161.200,112.495 161.500 C 111.355 162.531,111.168 161.787,111.168 156.217 C 111.168 149.552,110.952 149.884,114.166 151.616 M107.888 169.928 C 107.843 171.353,106.883 172.276,104.141 173.530 C 103.747 173.711,102.665 174.325,101.739 174.895 C 98.942 176.616,97.590 175.550,99.318 172.988 C 99.740 172.362,100.419 171.763,100.828 171.657 C 101.236 171.551,101.653 171.248,101.755 170.984 C 101.856 170.719,102.220 170.503,102.564 170.503 C 102.907 170.503,103.348 170.343,103.543 170.148 C 105.517 168.174,107.946 168.051,107.888 169.928 " stroke="none" fill="#b18b5e" fill-rule="evenodd"></path></g></svg>