<svg id="svg" version="1.1" xmlns="http://www.w3.org/2000/svg" xmlns:xlink="http://www.w3.org/1999/xlink" width="400" height="400" viewBox="0, 0, 400,400"><g id="svgg"><path id="path0" d="M134.678 165.455 C 134.129 166.004,134.350 236.483,134.900 236.300 C 135.481 236.106,135.854 166.783,135.280 165.757 C 135.102 165.438,134.831 165.303,134.678 165.455 M75.076 179.400 C 71.652 182.258,71.729 182.224,70.624 181.387 C 69.708 180.695,60.730 180.542,59.026 181.190 L 58.000 181.580 58.000 187.576 L 58.000 193.572 56.794 194.945 L 55.589 196.318 55.694 209.459 L 55.800 222.600 76.800 222.812 C 88.350 222.929,97.845 223.064,97.900 223.112 C 97.955 223.161,98.000 224.522,98.000 226.138 C 98.000 230.374,98.044 230.400,105.358 230.400 C 113.571 230.400,112.802 231.529,112.791 219.486 C 112.782 208.403,112.504 206.873,110.234 205.385 C 108.919 204.524,108.935 204.282,110.432 202.420 C 115.553 196.048,107.319 187.789,101.080 193.039 C 99.514 194.357,100.145 194.735,91.546 187.332 C 77.137 174.928,79.228 175.934,75.076 179.400 M80.469 181.082 C 81.201 181.677,82.527 182.802,83.416 183.582 C 84.305 184.362,86.099 185.900,87.403 187.000 C 97.803 195.773,98.670 196.648,98.942 198.631 C 99.384 201.853,99.216 206.923,98.612 208.600 C 98.229 209.662,98.029 211.901,98.018 215.257 C 97.997 221.263,98.518 220.800,91.781 220.800 C 85.587 220.800,86.000 221.468,86.000 211.459 C 86.000 201.349,86.834 202.400,78.806 202.400 C 70.479 202.400,71.242 201.445,71.108 212.031 L 71.000 220.600 65.400 220.715 C 62.320 220.778,59.395 220.730,58.900 220.607 L 58.000 220.385 58.000 209.015 C 58.000 197.789,58.011 197.632,58.900 196.636 C 60.464 194.884,78.130 180.000,78.646 180.000 C 78.917 180.000,79.737 180.487,80.469 181.082 M212.375 182.732 C 212.059 182.832,211.061 183.588,210.158 184.412 C 209.255 185.235,208.120 186.035,207.635 186.189 C 206.675 186.494,206.000 187.857,206.000 189.491 C 206.000 190.062,204.670 193.245,203.045 196.565 C 198.904 205.025,198.422 208.156,200.609 212.400 C 202.748 216.551,210.668 217.707,217.400 214.850 C 220.566 213.507,221.200 213.166,221.200 212.806 C 221.200 212.583,220.949 212.400,220.643 212.400 C 220.336 212.400,219.988 212.147,219.870 211.838 C 219.612 211.165,220.792 210.000,221.731 210.000 C 222.099 210.000,222.400 209.854,222.400 209.675 C 222.400 209.233,217.241 209.210,216.969 209.650 C 216.850 209.843,216.236 210.000,215.605 210.000 C 214.974 210.000,214.157 210.300,213.791 210.666 C 213.292 211.165,212.304 211.351,209.862 211.403 C 205.483 211.498,205.036 211.242,205.325 208.804 C 205.844 204.425,206.928 203.368,211.862 202.427 C 221.951 200.503,221.776 200.605,219.998 197.690 C 218.792 195.712,217.623 195.440,214.417 196.395 C 211.096 197.384,210.800 197.389,210.800 196.462 C 210.800 194.884,212.083 194.361,219.806 192.787 C 221.572 192.427,226.000 190.843,226.000 190.571 C 226.000 189.990,224.044 188.619,222.834 188.352 C 222.045 188.177,220.455 187.823,219.300 187.564 L 217.200 187.094 217.200 185.371 C 217.200 184.423,216.982 183.512,216.715 183.347 C 216.042 182.931,213.074 182.511,212.375 182.732 M252.125 182.687 C 251.114 182.814,249.943 183.793,246.463 187.423 C 241.154 192.961,240.038 193.159,241.787 188.252 C 242.638 185.866,240.680 183.669,237.371 183.296 C 233.934 182.908,232.639 189.377,234.239 198.934 C 234.468 200.302,234.347 200.627,233.119 201.934 C 232.362 202.740,231.436 203.895,231.062 204.500 C 230.688 205.105,230.153 205.600,229.874 205.600 C 229.308 205.600,226.889 208.071,224.814 210.767 C 223.762 212.135,223.415 213.017,223.277 214.674 C 223.180 215.852,222.942 216.912,222.750 217.031 C 222.557 217.150,222.400 217.519,222.400 217.851 C 222.400 218.752,223.929 218.163,225.600 216.619 C 226.370 215.908,227.630 214.903,228.400 214.388 C 229.170 213.872,230.432 212.850,231.204 212.117 C 231.975 211.385,233.055 210.550,233.604 210.264 C 234.152 209.977,235.022 209.485,235.538 209.171 C 236.437 208.623,236.583 208.716,239.138 211.452 C 242.075 214.600,244.068 215.996,245.624 215.999 C 246.186 215.999,246.996 216.264,247.424 216.587 C 248.173 217.154,250.447 217.420,250.876 216.990 C 250.992 216.875,249.354 215.030,247.236 212.890 C 241.605 207.201,239.628 202.626,242.384 201.666 C 243.151 201.398,243.766 200.777,244.132 199.901 C 244.743 198.438,254.225 189.445,254.789 189.793 C 254.971 189.906,255.336 190.899,255.600 192.002 C 256.225 194.606,257.495 195.689,259.311 195.168 C 261.311 194.595,264.400 194.699,264.400 195.340 C 264.400 195.637,263.299 198.733,261.954 202.221 C 258.785 210.438,259.187 215.600,262.997 215.600 C 264.762 215.600,266.800 211.549,266.800 208.041 C 266.800 207.412,267.070 206.674,267.400 206.400 C 267.730 206.126,268.000 205.307,268.000 204.580 C 268.000 203.643,268.294 203.027,269.008 202.465 C 269.563 202.029,270.262 200.891,270.562 199.936 C 272.037 195.243,273.183 193.951,276.076 193.722 C 276.946 193.653,277.960 193.442,278.329 193.252 C 278.698 193.062,280.800 192.683,283.000 192.409 C 288.792 191.690,289.745 191.270,289.866 189.389 C 289.995 187.372,289.577 186.711,287.464 185.590 L 285.683 184.646 280.968 185.555 L 276.252 186.465 275.535 185.532 C 275.141 185.020,274.814 184.403,274.809 184.162 C 274.761 181.827,271.595 182.106,270.076 184.580 C 268.149 187.718,266.586 188.400,261.320 188.400 C 256.930 188.400,255.643 187.962,257.200 187.000 C 258.391 186.264,254.784 181.814,253.524 182.464 C 253.456 182.499,252.826 182.600,252.125 182.687 M296.834 183.680 C 295.876 184.406,294.621 185.312,294.046 185.694 C 292.531 186.700,292.000 187.578,292.000 189.080 C 292.000 189.912,291.136 192.085,289.685 194.904 C 284.240 205.480,283.902 211.070,288.496 214.538 C 291.492 216.798,298.944 216.960,303.097 214.854 C 303.484 214.658,304.475 214.209,305.300 213.855 C 306.778 213.223,307.371 212.000,306.200 212.000 C 305.870 212.000,305.600 211.766,305.600 211.480 C 305.600 210.746,306.435 210.000,307.256 210.000 C 307.639 210.000,308.081 209.793,308.238 209.539 C 308.444 209.205,308.074 209.150,306.894 209.339 C 305.999 209.482,305.206 209.434,305.133 209.233 C 305.059 209.030,304.288 209.117,303.400 209.427 C 302.520 209.736,301.405 209.991,300.923 209.994 C 300.440 209.997,299.780 210.380,299.455 210.843 C 299.098 211.352,298.670 211.567,298.374 211.384 C 298.104 211.217,296.491 211.107,294.790 211.139 C 290.429 211.222,290.019 210.421,292.026 205.739 C 292.986 203.501,293.924 203.074,300.719 201.787 C 307.091 200.581,307.421 200.279,305.611 197.311 C 304.550 195.570,303.417 195.382,300.041 196.388 C 296.737 197.372,296.159 197.226,296.990 195.620 C 297.594 194.452,297.657 194.429,303.800 193.122 C 307.562 192.321,311.000 191.108,311.800 190.298 C 312.433 189.658,312.462 189.537,311.938 189.717 C 311.555 189.849,310.979 189.619,310.576 189.173 C 310.191 188.748,309.400 188.400,308.818 188.400 C 308.236 188.400,307.589 188.231,307.380 188.024 C 307.171 187.817,306.100 187.495,305.000 187.308 L 303.000 186.967 303.124 185.311 C 303.264 183.433,302.866 183.069,300.188 182.626 C 298.769 182.391,298.367 182.518,296.834 183.680 M323.415 184.775 C 320.985 188.775,315.718 199.614,313.573 205.028 L 311.541 210.159 312.191 212.226 C 313.437 216.189,315.396 217.049,317.561 214.584 C 318.656 213.337,318.774 212.975,318.548 211.562 C 318.271 209.830,321.056 203.384,322.284 202.912 C 323.062 202.614,324.615 204.165,329.460 210.078 C 337.034 219.321,339.938 220.518,346.630 217.155 C 350.104 215.409,352.433 213.200,350.800 213.200 C 350.580 213.200,350.400 212.945,350.400 212.633 C 350.400 211.647,348.484 211.336,345.513 211.841 C 340.795 212.642,338.846 211.688,332.500 205.467 C 328.534 201.579,327.723 200.400,329.016 200.400 C 330.034 200.400,332.523 198.955,333.775 197.637 C 334.421 196.956,335.234 196.400,335.582 196.400 C 338.121 196.400,341.859 190.800,340.740 188.674 C 339.533 186.381,334.207 185.389,329.756 186.629 C 329.025 186.833,328.849 186.619,328.453 185.045 C 327.578 181.569,325.432 181.454,323.415 184.775 M68.640 184.064 C 68.809 184.339,68.287 185.101,67.363 185.927 C 66.504 186.696,65.167 187.896,64.394 188.592 C 62.470 190.325,60.989 191.256,60.668 190.935 C 60.319 190.586,60.318 184.215,60.667 183.867 C 61.147 183.387,68.331 183.565,68.640 184.064 M195.000 185.485 C 194.560 185.591,194.029 185.840,193.820 186.039 C 193.611 186.237,192.942 186.400,192.333 186.400 C 191.118 186.400,189.728 188.034,185.705 194.193 C 182.080 199.741,182.308 199.591,181.614 196.900 C 180.519 192.655,179.255 190.985,175.734 189.126 L 173.980 188.200 170.857 191.400 C 162.142 200.331,158.263 208.533,160.683 212.917 C 162.944 217.014,164.859 216.622,167.104 211.600 C 169.175 206.969,169.786 205.636,170.854 203.429 C 171.484 202.125,172.000 200.765,172.000 200.407 C 172.000 199.404,174.654 196.713,175.484 196.875 C 176.087 196.992,176.212 197.485,176.276 200.007 C 176.615 213.316,177.355 215.469,181.718 215.843 L 183.927 216.033 185.520 211.916 C 186.396 209.652,187.235 207.395,187.384 206.900 C 187.532 206.404,188.002 205.813,188.427 205.586 C 188.915 205.325,189.200 204.749,189.200 204.027 C 189.200 200.712,193.980 194.517,199.966 190.073 L 202.931 187.872 201.865 186.954 C 200.205 185.527,197.359 184.918,195.000 185.485 M108.431 195.169 C 111.025 197.763,109.302 202.000,105.653 202.000 C 103.376 202.000,102.211 201.252,101.600 199.399 C 100.221 195.222,105.324 192.063,108.431 195.169 M83.509 212.690 L 83.617 220.380 82.709 220.607 C 82.209 220.732,80.090 220.782,78.000 220.717 L 74.200 220.600 74.000 213.269 C 73.751 204.124,73.384 204.747,78.927 204.887 L 83.400 205.000 83.509 212.690 M108.640 207.238 C 110.134 208.641,110.395 210.396,110.398 219.051 C 110.400 228.693,110.770 228.070,105.142 227.914 L 101.000 227.800 100.892 218.695 C 100.772 208.532,100.952 207.636,103.326 206.565 C 105.012 205.804,107.441 206.111,108.640 207.238 " stroke="none" fill="#e89e7f" fill-rule="evenodd"></path><path id="path1" d="M0.000 200.000 L 0.000 400.000 200.000 400.000 L 400.001 400.000 399.900 200.100 L 399.800 0.200 199.900 0.100 L 0.000 -0.001 0.000 200.000 M135.502 201.235 C 135.422 228.725,135.294 236.169,134.900 236.300 C 134.350 236.483,134.129 166.004,134.678 165.455 C 135.491 164.643,135.596 169.213,135.502 201.235 M81.479 178.732 C 82.756 179.794,87.285 183.664,91.546 187.332 C 100.145 194.735,99.514 194.357,101.080 193.039 C 107.319 187.789,115.553 196.048,110.432 202.420 C 108.935 204.282,108.919 204.524,110.234 205.385 C 112.504 206.873,112.782 208.403,112.791 219.486 C 112.802 231.529,113.571 230.400,105.358 230.400 C 98.044 230.400,98.000 230.374,98.000 226.138 C 98.000 224.522,97.955 223.161,97.900 223.112 C 97.845 223.064,88.350 222.929,76.800 222.812 L 55.800 222.600 55.694 209.459 L 55.589 196.318 56.794 194.945 L 58.000 193.572 58.000 187.576 L 58.000 181.580 59.026 181.190 C 60.730 180.542,69.708 180.695,70.624 181.387 C 71.729 182.224,71.652 182.258,75.076 179.400 C 78.800 176.291,78.576 176.315,81.479 178.732 M68.976 187.814 C 63.929 192.112,59.395 196.082,58.900 196.636 C 58.011 197.632,58.000 197.789,58.000 209.015 L 58.000 220.385 58.900 220.607 C 59.395 220.730,62.320 220.778,65.400 220.715 L 71.000 220.600 71.108 212.031 C 71.242 201.445,70.479 202.400,78.806 202.400 C 86.834 202.400,86.000 201.349,86.000 211.459 C 86.000 221.468,85.587 220.800,91.781 220.800 C 98.518 220.800,97.997 221.263,98.018 215.257 C 98.029 211.901,98.229 209.662,98.612 208.600 C 99.216 206.923,99.384 201.853,98.942 198.631 C 98.670 196.648,97.803 195.773,87.403 187.000 C 86.099 185.900,84.305 184.362,83.416 183.582 C 80.462 180.990,79.144 180.000,78.646 180.000 C 78.375 180.000,74.023 183.516,68.976 187.814 M216.715 183.347 C 216.982 183.512,217.200 184.423,217.200 185.371 L 217.200 187.094 219.300 187.564 C 220.455 187.823,222.045 188.177,222.834 188.352 C 224.044 188.619,226.000 189.990,226.000 190.571 C 226.000 190.843,221.572 192.427,219.806 192.787 C 212.083 194.361,210.800 194.884,210.800 196.462 C 210.800 197.389,211.096 197.384,214.417 196.395 C 217.623 195.440,218.792 195.712,219.998 197.690 C 221.776 200.605,221.951 200.503,211.862 202.427 C 206.928 203.368,205.844 204.425,205.325 208.804 C 205.036 211.242,205.483 211.498,209.862 211.403 C 212.304 211.351,213.292 211.165,213.791 210.666 C 214.157 210.300,214.974 210.000,215.605 210.000 C 216.236 210.000,216.850 209.843,216.969 209.650 C 217.241 209.210,222.400 209.233,222.400 209.675 C 222.400 209.854,222.099 210.000,221.731 210.000 C 220.792 210.000,219.612 211.165,219.870 211.838 C 219.988 212.147,220.336 212.400,220.643 212.400 C 220.949 212.400,221.200 212.583,221.200 212.806 C 221.200 213.166,220.566 213.507,217.400 214.850 C 210.668 217.707,202.748 216.551,200.609 212.400 C 198.422 208.156,198.904 205.025,203.045 196.565 C 204.670 193.245,206.000 190.062,206.000 189.491 C 206.000 187.857,206.675 186.494,207.635 186.189 C 208.120 186.035,209.255 185.235,210.158 184.412 C 212.275 182.481,214.681 182.090,216.715 183.347 M255.624 183.694 C 257.553 184.957,258.225 186.366,257.200 187.000 C 255.643 187.962,256.930 188.400,261.320 188.400 C 266.586 188.400,268.149 187.718,270.076 184.580 C 271.595 182.106,274.761 181.827,274.809 184.162 C 274.814 184.403,275.141 185.020,275.535 185.532 L 276.252 186.465 280.968 185.555 L 285.683 184.646 287.464 185.590 C 289.577 186.711,289.995 187.372,289.866 189.389 C 289.745 191.270,288.792 191.690,283.000 192.409 C 280.800 192.683,278.698 193.062,278.329 193.252 C 277.960 193.442,276.946 193.653,276.076 193.722 C 273.183 193.951,272.037 195.243,270.562 199.936 C 270.262 200.891,269.563 202.029,269.008 202.465 C 268.294 203.027,268.000 203.643,268.000 204.580 C 268.000 205.307,267.730 206.126,267.400 206.400 C 267.070 206.674,266.800 207.412,266.800 208.041 C 266.800 211.549,264.762 215.600,262.997 215.600 C 259.187 215.600,258.785 210.438,261.954 202.221 C 263.299 198.733,264.400 195.637,264.400 195.340 C 264.400 194.699,261.311 194.595,259.311 195.168 C 257.495 195.689,256.225 194.606,255.600 192.002 C 255.336 190.899,254.971 189.906,254.789 189.793 C 254.225 189.445,244.743 198.438,244.132 199.901 C 243.766 200.777,243.151 201.398,242.384 201.666 C 239.628 202.626,241.605 207.201,247.236 212.890 C 249.354 215.030,250.992 216.875,250.876 216.990 C 250.447 217.420,248.173 217.154,247.424 216.587 C 246.996 216.264,246.186 215.999,245.624 215.999 C 244.068 215.996,242.075 214.600,239.138 211.452 C 236.583 208.716,236.437 208.623,235.538 209.171 C 235.022 209.485,234.152 209.977,233.604 210.264 C 233.055 210.550,231.975 211.385,231.204 212.117 C 230.432 212.850,229.170 213.872,228.400 214.388 C 227.630 214.903,226.370 215.908,225.600 216.619 C 223.929 218.163,222.400 218.752,222.400 217.851 C 222.400 217.519,222.557 217.150,222.750 217.031 C 222.942 216.912,223.180 215.852,223.277 214.674 C 223.415 213.017,223.762 212.135,224.814 210.767 C 226.889 208.071,229.308 205.600,229.874 205.600 C 230.153 205.600,230.688 205.105,231.062 204.500 C 231.436 203.895,232.362 202.740,233.119 201.934 C 234.347 200.627,234.468 200.302,234.239 198.934 C 232.639 189.377,233.934 182.908,237.371 183.296 C 240.680 183.669,242.638 185.866,241.787 188.252 C 240.038 193.159,241.154 192.961,246.463 187.423 C 249.943 183.793,251.114 182.814,252.125 182.687 C 252.826 182.600,253.456 182.499,253.524 182.464 C 253.592 182.429,254.537 182.982,255.624 183.694 M302.524 183.273 C 303.081 183.566,303.219 184.036,303.124 185.311 L 303.000 186.967 305.000 187.308 C 306.100 187.495,307.171 187.817,307.380 188.024 C 307.589 188.231,308.236 188.400,308.818 188.400 C 309.400 188.400,310.191 188.748,310.576 189.173 C 310.979 189.619,311.555 189.849,311.938 189.717 C 312.462 189.537,312.433 189.658,311.800 190.298 C 311.000 191.108,307.562 192.321,303.800 193.122 C 297.657 194.429,297.594 194.452,296.990 195.620 C 296.159 197.226,296.737 197.372,300.041 196.388 C 303.417 195.382,304.550 195.570,305.611 197.311 C 307.421 200.279,307.091 200.581,300.719 201.787 C 293.924 203.074,292.986 203.501,292.026 205.739 C 290.019 210.421,290.429 211.222,294.790 211.139 C 296.491 211.107,298.104 211.217,298.374 211.384 C 298.670 211.567,299.098 211.352,299.455 210.843 C 299.780 210.380,300.440 209.997,300.923 209.994 C 301.405 209.991,302.520 209.736,303.400 209.427 C 304.288 209.117,305.059 209.030,305.133 209.233 C 305.206 209.434,305.999 209.482,306.894 209.339 C 308.074 209.150,308.444 209.205,308.238 209.539 C 308.081 209.793,307.639 210.000,307.256 210.000 C 306.435 210.000,305.600 210.746,305.600 211.480 C 305.600 211.766,305.870 212.000,306.200 212.000 C 307.371 212.000,306.778 213.223,305.300 213.855 C 304.475 214.209,303.484 214.658,303.097 214.854 C 298.944 216.960,291.492 216.798,288.496 214.538 C 283.902 211.070,284.240 205.480,289.685 194.904 C 291.136 192.085,292.000 189.912,292.000 189.080 C 292.000 187.578,292.531 186.700,294.046 185.694 C 294.621 185.312,295.876 184.406,296.834 183.680 C 298.635 182.314,300.452 182.185,302.524 183.273 M327.224 182.813 C 327.666 183.049,328.191 184.002,328.453 185.045 C 328.849 186.619,329.025 186.833,329.756 186.629 C 334.207 185.389,339.533 186.381,340.740 188.674 C 341.859 190.800,338.121 196.400,335.582 196.400 C 335.234 196.400,334.421 196.956,333.775 197.637 C 332.523 198.955,330.034 200.400,329.016 200.400 C 327.723 200.400,328.534 201.579,332.500 205.467 C 338.846 211.688,340.795 212.642,345.513 211.841 C 348.484 211.336,350.400 211.647,350.400 212.633 C 350.400 212.945,350.580 213.200,350.800 213.200 C 352.433 213.200,350.104 215.409,346.630 217.155 C 339.938 220.518,337.034 219.321,329.460 210.078 C 324.615 204.165,323.062 202.614,322.284 202.912 C 321.056 203.384,318.271 209.830,318.548 211.562 C 318.774 212.975,318.656 213.337,317.561 214.584 C 315.396 217.049,313.437 216.189,312.191 212.226 L 311.541 210.159 313.573 205.028 C 315.718 199.614,320.985 188.775,323.415 184.775 C 324.901 182.329,325.624 181.957,327.224 182.813 M60.667 183.867 C 60.318 184.215,60.319 190.586,60.668 190.935 C 60.989 191.256,62.470 190.325,64.394 188.592 C 65.167 187.896,66.504 186.696,67.363 185.927 C 68.287 185.101,68.809 184.339,68.640 184.064 C 68.331 183.565,61.147 183.387,60.667 183.867 M199.299 185.621 C 200.124 185.850,201.278 186.450,201.865 186.954 L 202.931 187.872 199.966 190.073 C 193.980 194.517,189.200 200.712,189.200 204.027 C 189.200 204.749,188.915 205.325,188.427 205.586 C 188.002 205.813,187.532 206.404,187.384 206.900 C 187.235 207.395,186.396 209.652,185.520 211.916 L 183.927 216.033 181.718 215.843 C 177.355 215.469,176.615 213.316,176.276 200.007 C 176.212 197.485,176.087 196.992,175.484 196.875 C 174.654 196.713,172.000 199.404,172.000 200.407 C 172.000 200.765,171.484 202.125,170.854 203.429 C 169.786 205.636,169.175 206.969,167.104 211.600 C 164.859 216.622,162.944 217.014,160.683 212.917 C 158.263 208.533,162.142 200.331,170.857 191.400 L 173.980 188.200 175.734 189.126 C 179.255 190.985,180.519 192.655,181.614 196.900 C 182.308 199.591,182.080 199.741,185.705 194.193 C 189.728 188.034,191.118 186.400,192.333 186.400 C 192.942 186.400,193.611 186.237,193.820 186.039 C 194.684 185.217,197.165 185.028,199.299 185.621 M103.132 194.612 C 100.932 195.807,100.804 199.917,102.920 201.399 C 104.498 202.505,107.374 202.184,108.564 200.769 C 111.697 197.047,107.470 192.256,103.132 194.612 M74.127 205.356 C 73.947 205.676,73.890 209.237,74.000 213.269 L 74.200 220.600 78.000 220.717 C 80.090 220.782,82.209 220.732,82.709 220.607 L 83.617 220.380 83.509 212.690 L 83.400 205.000 78.927 204.887 C 75.344 204.797,74.389 204.890,74.127 205.356 M103.326 206.565 C 100.952 207.636,100.772 208.532,100.892 218.695 L 101.000 227.800 105.142 227.914 C 110.770 228.070,110.400 228.693,110.398 219.051 C 110.394 207.241,108.651 204.161,103.326 206.565 " stroke="none" fill="#1d2d3d" fill-rule="evenodd"></path></g></svg>