<svg id="svg" version="1.1" xmlns="http://www.w3.org/2000/svg" xmlns:xlink="http://www.w3.org/1999/xlink" width="400" height="400" viewBox="0, 0, 400,400"><g id="svgg"><path id="path0" d="M185.100 81.632 C 183.947 82.303,184.020 212.969,185.174 213.586 C 186.662 214.383,320.987 214.139,321.651 213.339 C 322.111 212.784,322.200 202.170,322.200 147.600 C 322.200 93.030,322.111 82.416,321.651 81.861 C 320.991 81.067,186.459 80.841,185.100 81.632 M231.808 98.987 C 235.977 101.026,238.580 105.314,238.545 110.082 C 238.468 120.348,225.431 125.431,218.067 118.067 C 208.673 108.673,219.860 93.141,231.808 98.987 M285.923 99.044 C 290.031 101.051,292.683 105.839,292.304 110.563 C 291.335 122.637,275.047 125.760,269.730 114.892 C 264.726 104.665,275.616 94.007,285.923 99.044 M232.047 136.098 C 239.233 140.346,240.762 149.252,235.280 154.935 C 227.778 162.712,214.640 157.530,214.657 146.800 C 214.671 138.021,224.778 131.801,232.047 136.098 M285.511 136.019 C 293.078 139.800,294.718 149.320,288.819 155.219 C 280.452 163.586,266.376 155.878,268.789 144.251 C 270.344 136.765,278.736 132.633,285.511 136.019 M231.600 172.987 C 241.451 178.070,240.586 191.963,230.219 195.165 C 218.107 198.906,209.241 184.142,218.303 175.323 C 221.593 172.121,227.806 171.030,231.600 172.987 M284.507 172.630 C 290.207 174.572,293.763 181.755,291.840 187.445 C 288.403 197.623,274.644 198.720,269.818 189.200 C 265.021 179.736,274.379 169.179,284.507 172.630 M77.429 184.229 C 76.878 184.779,76.800 186.840,76.800 200.800 C 76.800 214.760,76.722 216.821,76.171 217.371 C 75.638 217.904,74.215 218.000,66.804 218.000 C 54.819 218.000,55.220 217.544,60.463 225.230 C 70.417 239.823,73.200 244.080,73.199 244.712 C 73.199 245.090,69.575 250.710,65.146 257.200 C 60.717 263.690,57.002 269.333,56.890 269.741 C 56.535 271.027,57.588 271.188,66.411 271.194 C 73.550 271.199,75.174 271.306,75.911 271.823 L 76.800 272.445 76.800 296.361 C 76.800 319.021,76.838 320.311,77.531 320.938 C 78.726 322.019,213.159 321.951,214.138 320.869 C 214.738 320.205,214.800 317.919,214.800 296.291 L 214.800 272.445 215.689 271.823 C 216.484 271.266,223.137 271.200,278.856 271.200 C 313.109 271.200,341.419 271.091,341.767 270.957 C 342.881 270.530,342.490 269.733,337.715 262.700 C 335.139 258.905,331.449 253.470,329.515 250.623 C 327.582 247.776,326.002 245.076,326.004 244.623 C 326.006 244.170,329.694 238.400,334.199 231.800 C 342.327 219.891,342.986 218.710,341.767 218.243 C 341.419 218.109,302.642 218.000,255.596 218.000 C 178.367 218.000,169.996 217.939,169.429 217.371 C 168.878 216.821,168.800 214.760,168.800 200.800 C 168.800 186.840,168.722 184.779,168.171 184.229 C 167.211 183.268,78.389 183.268,77.429 184.229 M115.673 204.104 C 119.486 206.339,121.746 210.124,121.780 214.331 C 121.810 218.115,122.185 218.000,109.855 218.000 C 97.623 218.000,97.995 218.118,98.009 214.238 C 98.040 205.596,108.237 199.746,115.673 204.104 M151.387 225.153 C 153.998 226.308,156.155 228.498,157.388 231.245 C 159.817 236.659,159.109 238.400,154.476 238.400 C 151.283 238.400,150.717 238.063,149.642 235.523 C 147.659 230.834,140.876 231.299,139.640 236.208 C 139.071 238.465,139.018 251.701,139.569 253.549 C 141.254 259.190,149.646 258.842,149.765 253.126 L 149.800 251.431 147.752 251.015 C 144.788 250.414,144.399 249.953,144.406 247.051 C 144.416 243.020,145.016 242.722,152.386 243.074 C 159.222 243.401,158.918 243.046,158.736 250.474 C 158.461 261.670,154.979 265.400,144.800 265.400 C 133.853 265.400,130.814 261.032,130.748 245.200 C 130.678 228.553,134.510 223.527,146.738 224.228 C 148.399 224.323,150.420 224.725,151.387 225.153 M202.313 225.022 C 207.296 227.103,211.438 234.906,208.995 237.606 C 207.599 239.148,201.200 238.435,201.200 236.738 C 201.200 231.950,193.297 230.715,191.106 235.162 C 190.016 237.374,189.726 251.264,190.712 254.041 C 192.189 258.203,198.109 258.866,200.390 255.124 C 201.914 252.624,201.390 251.487,198.492 251.009 C 195.922 250.585,195.547 250.004,195.683 246.659 C 195.840 242.831,196.112 242.701,203.227 243.061 C 210.086 243.409,210.000 243.334,210.000 248.927 C 210.000 261.027,206.284 265.400,196.000 265.400 C 184.810 265.400,182.004 261.375,181.914 245.200 C 181.846 232.979,183.491 228.109,188.562 225.515 C 191.593 223.964,199.135 223.694,202.313 225.022 M236.553 224.436 C 238.484 224.972,241.556 227.794,242.695 230.078 C 244.107 232.911,244.394 236.322,244.397 250.300 C 244.401 266.045,244.650 265.200,240.000 265.200 C 235.785 265.200,235.600 264.915,235.600 258.429 C 235.600 251.813,235.763 252.000,230.000 252.000 C 224.364 252.000,224.573 251.762,224.208 258.585 C 223.864 265.001,223.731 265.200,219.773 265.200 C 215.689 265.200,215.812 265.612,215.937 252.275 C 216.134 231.241,217.411 227.033,224.353 224.552 C 226.138 223.914,234.392 223.836,236.553 224.436 M102.200 225.364 C 111.376 228.335,112.921 240.834,104.814 246.498 C 102.156 248.354,100.891 248.698,95.819 248.941 C 90.598 249.192,90.800 248.865,90.800 257.076 C 90.800 265.023,90.709 265.200,86.629 265.200 C 84.076 265.200,82.816 264.633,82.789 263.471 C 82.783 263.212,82.739 254.900,82.691 245.000 C 82.598 225.828,82.618 225.603,84.526 224.776 C 85.982 224.145,99.862 224.607,102.200 225.364 M122.981 224.793 C 123.549 225.009,124.200 225.673,124.426 226.268 C 125.022 227.837,124.440 263.792,123.804 264.662 C 123.163 265.538,117.700 265.472,116.805 264.577 C 116.190 263.961,115.983 227.945,116.584 226.051 C 117.046 224.594,120.613 223.892,122.981 224.793 M257.308 224.831 C 258.544 225.394,260.313 228.142,263.717 234.784 C 267.925 242.998,267.889 242.986,271.019 237.294 C 277.638 225.259,278.654 224.099,282.223 224.501 C 285.823 224.907,285.600 223.538,285.600 245.213 C 285.600 267.142,285.966 265.323,281.544 265.370 C 277.508 265.413,277.601 265.648,277.595 255.424 C 277.587 243.236,277.289 242.840,273.331 249.748 C 268.557 258.079,268.029 258.029,262.442 248.700 C 259.061 243.054,258.867 243.404,258.710 255.439 C 258.578 265.539,258.722 265.200,254.574 265.200 C 250.157 265.200,250.463 266.761,250.640 245.103 C 250.723 234.958,250.891 226.342,251.014 225.956 C 251.436 224.626,255.330 223.929,257.308 224.831 M312.370 224.662 C 316.948 224.987,317.337 225.371,316.941 229.163 C 316.557 232.830,316.623 232.800,309.000 232.800 C 301.253 232.800,301.200 232.825,301.200 236.406 C 301.200 239.870,301.493 240.000,309.266 240.000 C 317.036 240.000,317.874 240.718,316.380 246.097 C 315.865 247.950,315.834 247.958,308.119 248.093 C 300.782 248.222,301.000 248.083,301.000 252.635 C 301.000 256.871,300.538 256.619,308.887 256.934 C 317.310 257.252,317.354 257.275,317.124 261.341 C 317.004 263.460,316.795 264.214,316.208 264.644 C 315.082 265.467,294.504 265.457,293.377 264.632 C 292.396 263.915,292.287 226.900,293.262 225.725 C 294.349 224.415,302.503 223.962,312.370 224.662 M227.297 232.530 C 225.337 233.619,223.470 240.833,224.659 242.723 C 225.311 243.758,234.407 243.935,235.411 242.932 C 236.319 242.024,236.002 237.625,234.841 234.999 C 233.660 232.330,229.883 231.094,227.297 232.530 M91.600 233.200 C 90.699 234.101,90.445 238.590,91.214 240.026 C 91.912 241.330,98.867 241.169,100.218 239.818 C 102.259 237.777,101.015 233.630,98.121 232.827 C 95.544 232.111,92.515 232.285,91.600 233.200 M183.288 272.665 C 190.713 274.991,193.399 285.417,188.153 291.547 C 181.014 299.887,167.200 294.787,167.200 283.811 C 167.200 275.342,174.870 270.028,183.288 272.665 M114.844 273.033 C 121.751 275.258,124.812 284.722,120.594 290.809 C 113.647 300.833,98.134 295.535,98.897 283.400 C 99.411 275.242,106.796 270.441,114.844 273.033 " stroke="none" fill="#b97a99" fill-rule="evenodd"></path><path id="path1" d="M0.000 200.000 L 0.000 400.000 200.000 400.000 L 400.000 400.000 400.000 200.000 L 400.000 0.000 200.000 0.000 L 0.000 0.000 0.000 200.000 M321.651 81.861 C 322.111 82.416,322.200 93.030,322.200 147.600 C 322.200 202.170,322.111 212.784,321.651 213.339 C 320.987 214.139,186.662 214.383,185.174 213.586 C 184.020 212.969,183.947 82.303,185.100 81.632 C 186.459 80.841,320.991 81.067,321.651 81.861 M223.400 98.136 C 209.976 102.582,212.564 121.390,226.600 121.396 C 235.138 121.399,240.600 113.800,237.859 105.732 C 235.932 100.057,228.842 96.333,223.400 98.136 M277.800 97.949 C 264.694 101.375,265.986 120.424,279.398 121.501 C 290.032 122.354,296.255 110.466,289.588 102.032 C 287.030 98.796,281.667 96.938,277.800 97.949 M222.493 135.443 C 214.579 138.355,212.104 148.905,217.920 154.935 C 225.427 162.717,238.594 157.515,238.532 146.790 C 238.485 138.606,230.073 132.655,222.493 135.443 M276.943 135.236 C 273.269 136.301,269.597 140.360,268.789 144.251 C 266.376 155.878,280.452 163.586,288.819 155.219 C 297.509 146.530,288.762 131.812,276.943 135.236 M222.113 172.820 C 213.913 176.067,212.044 186.945,218.681 192.788 C 228.448 201.385,242.992 190.304,237.250 178.641 C 234.492 173.038,227.932 170.516,222.113 172.820 M276.946 172.436 C 270.121 174.414,266.564 182.779,269.818 189.200 C 275.653 200.709,293.333 195.864,292.304 183.037 C 291.695 175.455,284.253 170.318,276.946 172.436 M168.171 184.229 C 168.722 184.779,168.800 186.840,168.800 200.800 C 168.800 214.760,168.878 216.821,169.429 217.371 C 169.996 217.939,178.367 218.000,255.596 218.000 C 302.642 218.000,341.419 218.109,341.767 218.243 C 342.986 218.710,342.327 219.891,334.199 231.800 C 329.694 238.400,326.006 244.170,326.004 244.623 C 326.002 245.076,327.582 247.776,329.515 250.623 C 343.841 271.720,343.078 270.454,341.767 270.957 C 341.419 271.091,313.109 271.200,278.856 271.200 C 223.137 271.200,216.484 271.266,215.689 271.823 L 214.800 272.445 214.800 296.291 C 214.800 317.919,214.738 320.205,214.138 320.869 C 213.159 321.951,78.726 322.019,77.531 320.938 C 76.838 320.311,76.800 319.021,76.800 296.361 L 76.800 272.445 75.911 271.823 C 75.174 271.306,73.550 271.199,66.411 271.194 C 57.588 271.188,56.535 271.027,56.890 269.741 C 57.002 269.333,60.717 263.690,65.146 257.200 C 69.575 250.710,73.199 245.090,73.199 244.712 C 73.200 244.080,70.417 239.823,60.463 225.230 C 55.220 217.544,54.819 218.000,66.804 218.000 C 74.215 218.000,75.638 217.904,76.171 217.371 C 76.722 216.821,76.800 214.760,76.800 200.800 C 76.800 186.840,76.878 184.779,77.429 184.229 C 78.389 183.268,167.211 183.268,168.171 184.229 M105.781 203.307 C 100.991 205.244,98.026 209.413,98.009 214.238 C 97.995 218.118,97.623 218.000,109.855 218.000 C 122.185 218.000,121.810 218.115,121.780 214.331 C 121.717 206.466,112.936 200.415,105.781 203.307 M141.346 224.365 C 133.602 225.328,130.688 231.056,130.748 245.200 C 130.814 261.032,133.853 265.400,144.800 265.400 C 154.979 265.400,158.461 261.670,158.736 250.474 C 158.918 243.046,159.222 243.401,152.386 243.074 C 145.016 242.722,144.416 243.020,144.406 247.051 C 144.399 249.953,144.788 250.414,147.752 251.015 L 149.800 251.431 149.765 253.126 C 149.646 258.842,141.254 259.190,139.569 253.549 C 139.018 251.701,139.071 238.465,139.640 236.208 C 140.876 231.299,147.659 230.834,149.642 235.523 C 151.508 239.934,159.289 239.660,158.691 235.203 C 157.623 227.242,151.081 223.154,141.346 224.365 M192.400 224.367 C 184.509 225.480,181.834 230.796,181.914 245.200 C 182.004 261.375,184.810 265.400,196.000 265.400 C 206.284 265.400,210.000 261.027,210.000 248.927 C 210.000 243.334,210.086 243.409,203.227 243.061 C 196.112 242.701,195.840 242.831,195.683 246.659 C 195.547 250.004,195.922 250.585,198.492 251.009 C 201.390 251.487,201.914 252.624,200.390 255.124 C 198.109 258.866,192.189 258.203,190.712 254.041 C 189.726 251.264,190.016 237.374,191.106 235.162 C 193.297 230.715,201.200 231.950,201.200 236.738 C 201.200 238.435,207.599 239.148,208.995 237.606 C 210.705 235.716,208.639 229.633,205.381 226.963 C 202.384 224.507,197.841 223.598,192.400 224.367 M224.353 224.552 C 217.411 227.033,216.134 231.241,215.937 252.275 C 215.812 265.612,215.689 265.200,219.773 265.200 C 223.731 265.200,223.864 265.001,224.208 258.585 C 224.573 251.762,224.364 252.000,230.000 252.000 C 235.763 252.000,235.600 251.813,235.600 258.429 C 235.600 264.915,235.785 265.200,240.000 265.200 C 244.650 265.200,244.401 266.045,244.397 250.300 C 244.393 232.577,243.979 230.360,239.971 226.612 C 237.239 224.056,228.840 222.949,224.353 224.552 M84.526 224.776 C 82.618 225.603,82.598 225.828,82.691 245.000 C 82.739 254.900,82.783 263.212,82.789 263.471 C 82.816 264.633,84.076 265.200,86.629 265.200 C 90.709 265.200,90.800 265.023,90.800 257.076 C 90.800 248.865,90.598 249.192,95.819 248.941 C 100.891 248.698,102.156 248.354,104.814 246.498 C 112.921 240.834,111.376 228.335,102.200 225.364 C 99.862 224.607,85.982 224.145,84.526 224.776 M117.709 224.884 C 116.354 225.538,116.355 225.518,116.275 245.379 C 116.210 261.514,116.280 264.051,116.805 264.577 C 117.700 265.472,123.163 265.538,123.804 264.662 C 124.440 263.792,125.022 227.837,124.426 226.268 C 123.769 224.540,120.021 223.768,117.709 224.884 M252.318 224.859 C 250.765 225.427,250.805 224.939,250.640 245.103 C 250.463 266.761,250.157 265.200,254.574 265.200 C 258.722 265.200,258.578 265.539,258.710 255.439 C 258.867 243.404,259.061 243.054,262.442 248.700 C 268.029 258.029,268.557 258.079,273.331 249.748 C 277.289 242.840,277.587 243.236,277.595 255.424 C 277.601 265.648,277.508 265.413,281.544 265.370 C 285.966 265.323,285.600 267.142,285.600 245.213 C 285.600 223.538,285.823 224.907,282.223 224.501 C 278.654 224.099,277.638 225.259,271.019 237.294 C 267.889 242.986,267.925 242.998,263.717 234.784 C 258.434 224.475,256.936 223.170,252.318 224.859 M294.586 224.781 C 292.737 225.530,292.757 225.316,292.676 245.202 C 292.603 263.458,292.625 264.083,293.377 264.632 C 294.504 265.457,315.082 265.467,316.208 264.644 C 316.795 264.214,317.004 263.460,317.124 261.341 C 317.354 257.275,317.310 257.252,308.887 256.934 C 300.538 256.619,301.000 256.871,301.000 252.635 C 301.000 248.083,300.782 248.222,308.119 248.093 C 315.834 247.958,315.865 247.950,316.380 246.097 C 317.874 240.718,317.036 240.000,309.266 240.000 C 301.493 240.000,301.200 239.870,301.200 236.406 C 301.200 232.825,301.253 232.800,309.000 232.800 C 316.623 232.800,316.557 232.830,316.941 229.163 C 317.337 225.371,316.948 224.987,312.370 224.662 C 307.280 224.301,295.578 224.379,294.586 224.781 M232.629 232.586 C 235.153 233.641,237.176 241.167,235.411 242.932 C 234.407 243.935,225.311 243.758,224.659 242.723 C 224.084 241.809,224.927 235.125,225.769 233.922 C 227.112 232.005,229.927 231.457,232.629 232.586 M98.121 232.827 C 101.015 233.630,102.259 237.777,100.218 239.818 C 98.867 241.169,91.912 241.330,91.214 240.026 C 90.445 238.590,90.699 234.101,91.600 233.200 C 92.515 232.285,95.544 232.111,98.121 232.827 M177.120 272.027 C 165.823 273.836,163.530 289.374,173.814 294.437 C 180.227 297.594,188.015 294.473,190.267 287.844 C 193.218 279.157,186.096 270.589,177.120 272.027 M108.537 272.404 C 94.311 275.322,96.387 296.000,110.906 296.000 C 121.791 296.000,126.694 282.192,118.347 275.047 C 115.797 272.865,111.689 271.758,108.537 272.404 " stroke="none" fill="#f7f7f7" fill-rule="evenodd"></path></g></svg>