<svg id="svg" version="1.1" xmlns="http://www.w3.org/2000/svg" xmlns:xlink="http://www.w3.org/1999/xlink" width="400" height="400" viewBox="0, 0, 400,400"><g id="svgg"><path id="path0" d="M0.000 200.000 L 0.000 400.000 200.000 400.000 L 400.000 400.000 400.000 200.000 L 400.000 0.000 200.000 0.000 L 0.000 0.000 0.000 200.000 M161.920 155.280 C 162.827 156.187,162.591 242.670,161.681 243.157 C 161.228 243.399,141.594 243.516,108.781 243.471 L 56.600 243.400 56.497 199.600 C 56.440 175.510,56.480 155.575,56.584 155.300 C 56.857 154.584,161.204 154.564,161.920 155.280 M62.880 160.080 C 62.181 160.779,62.199 178.546,62.900 179.091 C 63.175 179.305,64.570 179.719,66.000 180.011 C 71.595 181.152,71.741 181.737,71.534 202.200 C 71.368 218.526,71.259 218.838,65.508 219.466 C 64.308 219.597,63.185 219.967,62.900 220.324 C 62.375 220.985,62.144 238.068,62.643 239.367 C 63.014 240.334,110.586 240.334,110.957 239.367 C 111.091 239.019,111.200 234.712,111.200 229.796 C 111.200 219.664,111.262 219.870,108.097 219.451 C 104.696 219.000,103.853 217.695,103.664 212.591 C 103.452 206.848,103.596 206.400,105.661 206.400 C 112.340 206.400,113.900 209.072,114.416 221.400 C 115.093 237.562,119.796 242.221,135.400 242.188 C 152.970 242.151,158.188 236.638,157.916 218.400 L 157.800 210.600 155.000 210.600 L 152.200 210.600 152.000 218.287 C 151.785 226.561,151.700 226.878,149.556 227.403 C 147.116 228.000,146.312 226.418,145.981 220.367 C 145.592 213.245,144.599 210.250,141.733 207.562 C 139.270 205.252,137.784 204.542,132.870 203.328 C 130.862 202.833,131.147 202.247,133.564 201.900 C 151.263 199.353,154.991 170.856,138.647 163.051 C 131.325 159.554,131.956 159.604,94.780 159.602 C 70.874 159.600,63.245 159.715,62.880 160.080 M113.000 180.616 C 117.566 182.852,117.732 193.126,113.245 195.746 C 111.593 196.711,105.142 197.182,104.207 196.406 C 103.571 195.878,103.268 181.731,103.860 180.188 C 104.239 179.201,110.731 179.505,113.000 180.616 M186.958 191.184 C 189.800 192.265,190.722 196.514,188.579 198.657 C 187.575 199.661,187.570 199.694,188.279 200.739 C 188.676 201.322,189.211 202.340,189.470 203.000 L 189.939 204.200 189.970 203.091 C 189.991 202.314,190.299 201.847,191.000 201.527 C 191.550 201.277,192.000 200.797,192.000 200.462 C 192.000 194.888,202.134 192.329,206.252 196.862 C 207.574 198.317,208.281 200.658,207.686 201.611 C 207.419 202.039,207.200 203.035,207.200 203.825 C 207.200 208.585,198.364 210.095,193.933 206.092 C 192.502 204.799,192.280 204.713,191.940 205.321 C 190.118 208.576,185.754 209.494,183.239 207.150 L 182.338 206.311 181.746 207.155 C 180.956 208.284,171.866 208.471,171.443 207.367 C 170.886 205.915,171.210 204.130,172.200 203.200 C 173.098 202.357,173.200 201.947,173.200 199.202 C 173.200 196.439,173.104 196.060,172.200 195.275 C 171.225 194.427,170.762 191.771,171.467 191.067 C 171.884 190.649,185.828 190.755,186.958 191.184 M250.157 191.433 C 250.291 191.781,250.400 192.681,250.400 193.433 C 250.400 194.612,250.533 194.800,251.367 194.800 C 253.265 194.800,253.600 195.167,253.600 197.243 C 253.600 199.110,253.549 199.200,252.500 199.206 C 250.669 199.216,250.342 199.669,250.477 202.006 C 250.549 203.260,250.806 204.205,251.100 204.302 C 251.613 204.471,251.757 204.202,252.174 202.300 C 252.498 200.822,253.557 200.885,253.860 202.400 C 254.141 203.807,254.508 203.892,255.600 202.800 C 256.903 201.497,256.757 196.764,255.374 195.481 C 254.518 194.687,254.369 194.236,254.474 192.765 L 254.600 191.000 259.985 191.000 C 266.078 191.000,265.561 190.716,267.027 194.871 C 267.888 197.314,268.472 197.026,269.433 193.684 L 270.205 191.000 275.602 191.000 L 281.000 191.000 281.119 192.821 C 281.212 194.246,281.059 194.803,280.419 195.383 C 279.207 196.479,279.211 202.006,280.424 203.136 C 281.081 203.749,281.223 204.298,281.124 205.852 L 281.000 207.800 276.232 207.913 C 271.003 208.038,270.817 207.961,270.806 205.700 C 270.798 203.896,270.297 204.076,269.422 206.200 L 268.679 208.000 266.543 208.000 C 264.476 208.000,264.384 207.952,263.703 206.529 C 262.733 204.500,262.080 204.407,261.926 206.275 L 261.800 207.800 258.285 207.916 L 254.769 208.032 254.346 206.816 C 253.861 205.426,253.363 205.256,253.012 206.361 C 252.612 207.622,250.188 208.515,247.721 208.310 C 244.553 208.047,243.921 207.257,243.621 203.180 C 243.432 200.608,243.220 199.804,242.614 199.361 C 241.542 198.577,241.432 198.625,240.686 200.189 C 239.375 202.937,235.888 202.591,235.677 199.693 C 235.457 196.670,233.188 198.233,233.213 201.389 C 233.235 204.197,235.379 205.421,237.158 203.642 C 238.964 201.836,241.584 203.744,240.199 205.857 C 237.927 209.324,230.642 209.150,227.501 205.552 L 226.401 204.293 226.155 205.526 C 225.659 208.005,222.281 209.197,219.576 207.848 C 217.975 207.050,217.591 207.044,216.146 207.798 C 211.549 210.195,206.306 205.769,210.031 202.636 C 210.708 202.066,211.452 201.600,211.685 201.600 C 211.917 201.600,211.634 201.227,211.054 200.771 C 207.669 198.109,210.908 194.639,216.800 194.614 C 222.233 194.592,223.923 196.103,223.977 201.033 C 223.990 202.152,224.109 203.176,224.242 203.309 C 224.539 203.606,226.399 201.654,226.402 201.042 C 226.432 195.125,234.937 192.184,239.764 196.422 C 241.347 197.812,241.600 197.865,241.600 196.805 C 241.600 196.317,242.197 195.633,243.145 195.035 C 244.153 194.398,244.916 193.494,245.341 192.430 C 246.068 190.615,249.565 189.891,250.157 191.433 M325.112 196.587 C 325.253 203.660,326.089 205.131,328.848 203.166 L 330.020 202.331 329.055 201.572 C 327.052 199.996,327.424 196.557,329.733 195.293 C 331.285 194.444,340.335 194.458,340.877 195.311 C 341.657 196.539,341.231 198.808,340.142 199.222 L 339.084 199.624 339.892 200.512 C 343.474 204.447,341.151 208.184,335.253 207.975 C 333.794 207.923,331.651 207.911,330.491 207.948 C 328.927 207.999,328.321 207.859,328.148 207.408 C 327.848 206.628,326.954 206.623,326.655 207.400 C 326.239 208.485,317.864 208.250,316.816 207.125 C 316.367 206.643,316.000 206.443,316.000 206.679 C 316.000 208.059,311.448 208.837,309.454 207.798 C 308.009 207.044,307.624 207.050,306.025 207.847 C 300.582 210.563,295.982 204.560,301.331 201.721 C 302.009 201.362,301.987 201.284,301.031 200.657 C 300.297 200.176,300.000 199.631,300.000 198.764 C 300.000 195.805,301.935 194.628,306.800 194.628 C 312.472 194.628,314.000 196.105,314.000 201.587 C 314.000 203.196,314.171 204.400,314.400 204.400 C 314.620 204.400,314.800 204.051,314.800 203.624 C 314.800 202.561,315.336 202.319,316.235 202.976 C 318.364 204.533,319.643 197.243,317.600 195.200 C 316.809 194.409,316.465 191.668,317.080 191.053 C 317.234 190.899,319.079 190.824,321.180 190.886 L 325.000 191.000 325.112 196.587 M292.911 194.824 C 296.143 195.722,298.715 199.513,297.660 201.827 C 297.437 202.318,297.336 203.053,297.437 203.460 C 298.543 207.931,288.496 210.118,284.195 206.342 C 278.213 201.090,284.684 192.539,292.911 194.824 M180.556 195.771 C 179.892 197.501,181.018 198.924,182.154 197.789 C 182.961 196.982,182.964 196.622,182.171 195.829 C 181.390 195.048,180.841 195.028,180.556 195.771 M215.240 197.900 C 215.262 198.285,215.404 199.045,215.555 199.589 L 215.831 200.577 216.496 199.627 C 216.983 198.932,217.056 198.477,216.767 197.938 C 216.265 197.001,215.187 196.974,215.240 197.900 M305.348 198.100 C 305.481 198.595,305.592 199.225,305.595 199.500 C 305.603 200.320,306.725 200.066,307.006 199.181 C 307.299 198.257,306.605 197.200,305.704 197.200 C 305.280 197.200,305.177 197.461,305.348 198.100 M335.232 198.162 C 334.885 198.579,334.930 198.764,335.423 198.953 C 337.061 199.582,337.909 198.808,336.442 198.022 C 335.889 197.726,335.562 197.764,335.232 198.162 M199.467 198.267 C 198.713 199.020,199.241 200.000,200.400 200.000 C 201.311 200.000,201.600 199.817,201.600 199.243 C 201.600 198.285,200.124 197.610,199.467 198.267 M271.666 199.475 C 270.907 201.640,270.642 203.600,271.107 203.600 C 271.999 203.600,272.437 202.376,272.321 200.209 L 272.200 197.951 271.666 199.475 M289.600 198.600 C 289.232 199.043,289.200 199.360,289.494 199.654 C 290.152 200.312,291.400 199.884,291.400 199.000 C 291.400 198.006,290.296 197.761,289.600 198.600 M260.496 200.596 C 260.579 202.511,260.741 203.019,261.300 203.125 C 262.248 203.306,262.210 202.143,261.196 199.944 L 260.393 198.200 260.496 200.596 M180.468 202.060 C 180.541 202.578,180.926 203.054,181.332 203.131 C 181.900 203.240,182.035 203.061,181.932 202.340 C 181.859 201.822,181.474 201.346,181.068 201.269 C 180.500 201.160,180.365 201.339,180.468 202.060 M199.200 203.357 C 199.200 204.830,201.385 205.358,202.571 204.171 C 203.782 202.961,203.347 202.400,201.200 202.400 C 199.357 202.400,199.200 202.475,199.200 203.357 M289.343 203.005 C 289.021 203.844,289.914 204.800,291.020 204.800 C 292.055 204.800,293.200 203.839,293.200 202.971 C 293.200 202.144,289.661 202.175,289.343 203.005 M215.867 203.067 C 215.379 203.554,215.591 204.400,216.200 204.400 C 216.533 204.400,216.800 204.044,216.800 203.600 C 216.800 202.803,216.374 202.560,215.867 203.067 M305.738 203.417 C 305.608 203.757,305.606 204.139,305.733 204.267 C 306.137 204.670,307.200 204.051,307.200 203.413 C 307.200 202.614,306.045 202.618,305.738 203.417 M332.000 203.973 C 332.000 204.462,333.477 204.923,334.003 204.598 C 334.229 204.459,334.309 204.177,334.183 203.972 C 333.883 203.487,332.000 203.488,332.000 203.973 " stroke="none" fill="#8a2906" fill-rule="evenodd"></path><path id="path1" d="M56.584 155.300 C 56.480 155.575,56.440 175.510,56.497 199.600 L 56.600 243.400 108.781 243.471 C 141.594 243.516,161.228 243.399,161.681 243.157 C 162.591 242.670,162.827 156.187,161.920 155.280 C 161.204 154.564,56.857 154.584,56.584 155.300 M129.877 160.200 C 145.857 162.791,153.384 177.298,146.650 192.526 C 144.376 197.668,139.701 201.016,133.564 201.900 C 131.147 202.247,130.862 202.833,132.870 203.328 C 137.784 204.542,139.270 205.252,141.733 207.562 C 144.599 210.250,145.592 213.245,145.981 220.367 C 146.312 226.418,147.116 228.000,149.556 227.403 C 151.700 226.878,151.785 226.561,152.000 218.287 L 152.200 210.600 155.000 210.600 L 157.800 210.600 157.916 218.400 C 158.188 236.638,152.970 242.151,135.400 242.188 C 119.796 242.221,115.093 237.562,114.416 221.400 C 113.900 209.072,112.340 206.400,105.661 206.400 C 103.596 206.400,103.452 206.848,103.664 212.591 C 103.853 217.695,104.696 219.000,108.097 219.451 C 111.262 219.870,111.200 219.664,111.200 229.796 C 111.200 234.712,111.091 239.019,110.957 239.367 C 110.586 240.334,63.014 240.334,62.643 239.367 C 62.144 238.068,62.375 220.985,62.900 220.324 C 63.185 219.967,64.308 219.597,65.508 219.466 C 71.259 218.838,71.368 218.526,71.534 202.200 C 71.741 181.737,71.595 181.152,66.000 180.011 C 64.570 179.719,63.175 179.305,62.900 179.091 C 62.199 178.546,62.181 160.779,62.880 160.080 C 63.663 159.297,124.986 159.406,129.877 160.200 M103.860 180.188 C 103.268 181.731,103.571 195.878,104.207 196.406 C 105.142 197.182,111.593 196.711,113.245 195.746 C 117.732 193.126,117.566 182.852,113.000 180.616 C 110.731 179.505,104.239 179.201,103.860 180.188 M171.467 191.067 C 170.762 191.771,171.225 194.427,172.200 195.275 C 173.104 196.060,173.200 196.439,173.200 199.202 C 173.200 201.947,173.098 202.357,172.200 203.200 C 171.210 204.130,170.886 205.915,171.443 207.367 C 171.866 208.471,180.956 208.284,181.746 207.155 L 182.338 206.311 183.239 207.150 C 185.754 209.494,190.118 208.576,191.940 205.321 C 192.280 204.713,192.502 204.799,193.933 206.092 C 198.364 210.095,207.200 208.585,207.200 203.825 C 207.200 203.035,207.419 202.039,207.686 201.611 C 208.281 200.658,207.574 198.317,206.252 196.862 C 202.134 192.329,192.000 194.888,192.000 200.462 C 192.000 200.797,191.550 201.277,191.000 201.527 C 190.299 201.847,189.991 202.314,189.970 203.091 L 189.939 204.200 189.470 203.000 C 189.211 202.340,188.676 201.322,188.279 200.739 C 187.570 199.694,187.575 199.661,188.579 198.657 C 190.722 196.514,189.800 192.265,186.958 191.184 C 185.828 190.755,171.884 190.649,171.467 191.067 M245.341 192.430 C 244.916 193.494,244.153 194.398,243.145 195.035 C 242.197 195.633,241.600 196.317,241.600 196.805 C 241.600 197.865,241.347 197.812,239.764 196.422 C 234.937 192.184,226.432 195.125,226.402 201.042 C 226.399 201.654,224.539 203.606,224.242 203.309 C 224.109 203.176,223.990 202.152,223.977 201.033 C 223.923 196.103,222.233 194.592,216.800 194.614 C 210.908 194.639,207.669 198.109,211.054 200.771 C 211.634 201.227,211.917 201.600,211.685 201.600 C 211.452 201.600,210.708 202.066,210.031 202.636 C 206.306 205.769,211.549 210.195,216.146 207.798 C 217.591 207.044,217.975 207.050,219.576 207.848 C 222.281 209.197,225.659 208.005,226.155 205.526 L 226.401 204.293 227.501 205.552 C 230.642 209.150,237.927 209.324,240.199 205.857 C 241.584 203.744,238.964 201.836,237.158 203.642 C 235.379 205.421,233.235 204.197,233.213 201.389 C 233.188 198.233,235.457 196.670,235.677 199.693 C 235.888 202.591,239.375 202.937,240.686 200.189 C 241.432 198.625,241.542 198.577,242.614 199.361 C 243.220 199.804,243.432 200.608,243.621 203.180 C 243.921 207.257,244.553 208.047,247.721 208.310 C 250.188 208.515,252.612 207.622,253.012 206.361 C 253.363 205.256,253.861 205.426,254.346 206.816 L 254.769 208.032 258.285 207.916 L 261.800 207.800 261.926 206.275 C 262.080 204.407,262.733 204.500,263.703 206.529 C 264.384 207.952,264.476 208.000,266.543 208.000 L 268.679 208.000 269.422 206.200 C 270.297 204.076,270.798 203.896,270.806 205.700 C 270.817 207.961,271.003 208.038,276.232 207.913 L 281.000 207.800 281.124 205.852 C 281.223 204.298,281.081 203.749,280.424 203.136 C 279.211 202.006,279.207 196.479,280.419 195.383 C 281.059 194.803,281.212 194.246,281.119 192.821 L 281.000 191.000 275.602 191.000 L 270.205 191.000 269.433 193.684 C 268.472 197.026,267.888 197.314,267.027 194.871 C 265.561 190.716,266.078 191.000,259.985 191.000 L 254.600 191.000 254.474 192.765 C 254.369 194.236,254.518 194.687,255.374 195.481 C 256.757 196.764,256.903 201.497,255.600 202.800 C 254.508 203.892,254.141 203.807,253.860 202.400 C 253.557 200.885,252.498 200.822,252.174 202.300 C 251.757 204.202,251.613 204.471,251.100 204.302 C 250.806 204.205,250.549 203.260,250.477 202.006 C 250.342 199.669,250.669 199.216,252.500 199.206 C 253.549 199.200,253.600 199.110,253.600 197.243 C 253.600 195.167,253.265 194.800,251.367 194.800 C 250.533 194.800,250.400 194.612,250.400 193.433 C 250.400 190.094,246.579 189.337,245.341 192.430 M317.080 191.053 C 316.465 191.668,316.809 194.409,317.600 195.200 C 319.643 197.243,318.364 204.533,316.235 202.976 C 315.336 202.319,314.800 202.561,314.800 203.624 C 314.800 204.051,314.620 204.400,314.400 204.400 C 314.171 204.400,314.000 203.196,314.000 201.587 C 314.000 196.105,312.472 194.628,306.800 194.628 C 301.935 194.628,300.000 195.805,300.000 198.764 C 300.000 199.631,300.297 200.176,301.031 200.657 C 301.987 201.284,302.009 201.362,301.331 201.721 C 295.982 204.560,300.582 210.563,306.025 207.847 C 307.624 207.050,308.009 207.044,309.454 207.798 C 311.448 208.837,316.000 208.059,316.000 206.679 C 316.000 206.443,316.367 206.643,316.816 207.125 C 317.864 208.250,326.239 208.485,326.655 207.400 C 326.954 206.623,327.848 206.628,328.148 207.408 C 328.321 207.859,328.927 207.999,330.491 207.948 C 331.651 207.911,333.794 207.923,335.253 207.975 C 341.151 208.184,343.474 204.447,339.892 200.512 L 339.084 199.624 340.142 199.222 C 341.231 198.808,341.657 196.539,340.877 195.311 C 340.335 194.458,331.285 194.444,329.733 195.293 C 327.424 196.557,327.052 199.996,329.055 201.572 L 330.020 202.331 328.848 203.166 C 326.089 205.131,325.253 203.660,325.112 196.587 L 325.000 191.000 321.180 190.886 C 319.079 190.824,317.234 190.899,317.080 191.053 M287.400 194.771 C 280.475 196.443,280.248 206.076,287.089 207.976 C 292.065 209.358,298.230 206.667,297.437 203.460 C 297.336 203.053,297.437 202.318,297.660 201.827 C 299.543 197.694,293.243 193.362,287.400 194.771 M182.171 195.829 C 182.964 196.622,182.961 196.982,182.154 197.789 C 181.329 198.614,180.637 198.388,180.468 197.240 C 180.193 195.361,181.019 194.676,182.171 195.829 M216.767 197.938 C 217.056 198.477,216.983 198.932,216.496 199.627 L 215.831 200.577 215.555 199.589 C 214.925 197.327,215.801 196.133,216.767 197.938 M306.784 197.781 C 307.374 198.492,306.959 200.000,306.173 200.000 C 305.858 200.000,305.598 199.775,305.595 199.500 C 305.592 199.225,305.481 198.595,305.348 198.100 C 305.066 197.048,306.003 196.840,306.784 197.781 M337.200 198.814 C 337.200 199.253,336.373 199.318,335.423 198.953 C 334.930 198.764,334.885 198.579,335.232 198.162 C 335.719 197.575,337.200 198.066,337.200 198.814 M200.967 198.243 C 202.150 198.697,201.729 200.000,200.400 200.000 C 199.503 200.000,199.200 199.815,199.200 199.267 C 199.200 198.079,199.734 197.770,200.967 198.243 M271.972 203.034 C 270.674 204.598,270.516 202.758,271.666 199.475 L 272.200 197.951 272.321 200.209 C 272.392 201.529,272.247 202.703,271.972 203.034 M291.400 199.000 C 291.400 199.884,290.152 200.312,289.494 199.654 C 289.200 199.360,289.232 199.043,289.600 198.600 C 290.296 197.761,291.400 198.006,291.400 199.000 M262.000 202.473 C 262.000 204.696,260.598 202.946,260.496 200.596 L 260.393 198.200 261.196 199.944 C 261.638 200.903,262.000 202.041,262.000 202.473 M181.932 202.340 C 182.035 203.061,181.900 203.240,181.332 203.131 C 180.926 203.054,180.541 202.578,180.468 202.060 C 180.365 201.339,180.500 201.160,181.068 201.269 C 181.474 201.346,181.859 201.822,181.932 202.340 M203.200 202.971 C 203.200 204.319,201.410 205.162,199.833 204.557 C 198.161 203.916,199.122 202.400,201.200 202.400 C 202.667 202.400,203.200 202.552,203.200 202.971 M293.200 202.971 C 293.200 203.839,292.055 204.800,291.020 204.800 C 289.914 204.800,289.021 203.844,289.343 203.005 C 289.661 202.175,293.200 202.144,293.200 202.971 M216.800 203.600 C 216.800 204.044,216.533 204.400,216.200 204.400 C 215.591 204.400,215.379 203.554,215.867 203.067 C 216.374 202.560,216.800 202.803,216.800 203.600 M307.200 203.413 C 307.200 204.051,306.137 204.670,305.733 204.267 C 305.606 204.139,305.608 203.757,305.738 203.417 C 306.045 202.618,307.200 202.614,307.200 203.413 M334.183 203.972 C 334.309 204.177,334.229 204.459,334.003 204.598 C 333.477 204.923,332.000 204.462,332.000 203.973 C 332.000 203.488,333.883 203.487,334.183 203.972 " stroke="none" fill="#ffffff" fill-rule="evenodd"></path></g></svg>