<svg id="svg" version="1.1" xmlns="http://www.w3.org/2000/svg" xmlns:xlink="http://www.w3.org/1999/xlink" width="400" height="397.30941704035877" viewBox="0, 0, 400,397.30941704035877"><g id="svgg"><path id="path0" d="M0.000 198.807 L 0.000 397.614 200.000 397.614 L 400.000 397.614 400.000 198.807 L 400.000 0.000 200.000 0.000 L 0.000 0.000 0.000 198.807 M163.188 141.792 C 164.153 142.162,164.153 254.657,163.188 255.027 C 161.880 255.529,57.047 255.297,56.541 254.791 C 55.847 254.098,55.847 142.721,56.541 142.028 C 57.047 141.522,161.880 141.290,163.188 141.792 M70.674 148.187 C 70.014 148.359,69.982 151.049,70.078 199.532 L 70.179 250.696 83.651 250.801 C 93.262 250.875,97.278 250.776,97.667 250.454 C 98.109 250.086,98.211 247.214,98.211 235.021 C 98.211 217.462,97.667 219.081,103.559 219.098 C 108.946 219.114,108.485 218.772,112.411 225.651 C 114.157 228.710,116.866 233.424,118.429 236.126 C 119.993 238.828,121.272 241.113,121.272 241.202 C 121.272 241.292,122.046 242.660,122.992 244.241 C 123.937 245.823,125.197 247.967,125.792 249.006 L 126.872 250.895 142.176 250.895 C 155.533 250.895,157.510 250.817,157.713 250.288 C 157.852 249.925,155.898 246.117,152.868 240.844 C 150.074 235.984,146.056 228.966,143.937 225.249 C 141.819 221.531,139.554 217.594,138.905 216.501 C 137.036 213.352,137.036 213.317,138.849 211.646 C 142.186 208.571,142.631 208.099,144.445 205.712 C 161.022 183.895,147.066 150.868,120.193 148.320 C 116.060 147.928,72.118 147.810,70.674 148.187 M117.426 173.107 C 124.811 176.192,124.771 192.364,117.373 194.419 C 115.223 195.016,99.294 194.960,98.688 194.354 C 98.009 193.675,98.009 173.721,98.688 173.042 C 99.407 172.323,115.684 172.379,117.426 173.107 M323.558 187.838 C 323.722 188.002,323.946 191.743,324.056 196.152 L 324.254 204.169 325.357 204.371 C 325.998 204.488,326.787 205.072,327.243 205.765 C 327.777 206.578,328.027 206.744,328.029 206.285 C 328.036 204.559,329.854 203.323,331.283 204.074 C 333.288 205.128,335.027 205.370,335.308 204.636 C 335.487 204.170,334.918 203.818,332.885 203.142 C 328.391 201.647,326.904 199.074,328.728 195.948 C 331.158 191.783,342.373 192.537,340.210 196.720 C 339.211 198.653,338.751 198.834,336.975 197.994 C 335.206 197.158,334.160 197.027,333.808 197.597 C 333.488 198.115,335.004 198.995,337.245 199.592 C 340.977 200.585,342.560 203.655,340.948 206.772 C 339.529 209.515,333.777 210.256,329.749 208.215 C 327.714 207.184,327.713 207.184,327.172 207.999 C 325.904 209.909,320.728 209.831,319.083 207.877 L 318.091 206.698 318.091 197.219 C 318.091 190.019,318.211 187.687,318.588 187.518 C 319.265 187.216,323.187 187.468,323.558 187.838 M184.107 188.111 C 189.575 189.284,192.037 196.207,188.414 200.224 C 187.375 201.376,187.448 201.716,189.480 205.240 C 191.656 209.013,191.601 209.145,187.840 209.145 L 184.871 209.145 183.787 207.306 C 180.483 201.697,179.626 201.439,179.324 205.964 L 179.125 208.946 176.243 209.063 L 173.360 209.180 173.360 198.659 C 173.360 190.614,173.477 188.091,173.857 187.937 C 174.808 187.553,182.082 187.677,184.107 188.111 M263.554 187.934 C 264.435 188.170,265.401 189.883,267.858 195.568 C 268.411 196.847,269.980 196.552,269.980 195.169 C 269.980 194.414,272.853 188.631,273.457 188.171 C 274.218 187.591,278.255 187.513,279.125 188.063 C 279.760 188.463,280.260 204.994,279.724 207.870 L 279.480 209.179 276.619 209.063 L 273.757 208.946 273.644 204.871 C 273.514 200.186,273.281 199.959,271.737 203.011 C 269.674 207.088,267.602 206.977,265.586 202.681 C 263.979 199.255,263.687 199.646,263.646 205.286 L 263.618 209.180 260.736 209.063 L 257.853 208.946 257.747 198.942 C 257.621 187.048,257.946 186.432,263.554 187.934 M251.676 189.238 C 251.902 189.661,252.087 190.651,252.087 191.438 C 252.087 192.453,252.289 192.930,252.783 193.083 C 254.418 193.588,254.672 193.934,254.672 195.655 C 254.672 197.271,254.585 197.411,253.364 197.761 L 252.055 198.136 252.171 200.957 L 252.286 203.777 253.776 203.901 C 255.329 204.029,255.356 204.070,255.790 206.883 C 256.048 208.552,254.652 209.295,251.211 209.322 C 247.051 209.355,246.123 208.203,246.123 203.008 C 246.123 198.752,245.954 198.079,244.770 197.629 C 243.910 197.302,243.702 193.638,244.544 193.638 C 245.397 193.638,246.123 192.268,246.123 190.661 C 246.123 188.680,246.316 188.544,249.191 188.501 C 250.854 188.475,251.346 188.622,251.676 189.238 M222.271 194.301 C 223.990 195.316,225.050 197.747,225.050 200.677 C 225.050 202.044,225.307 203.584,225.644 204.229 C 227.765 208.295,223.766 211.575,220.700 208.284 L 219.931 207.459 218.614 208.259 C 212.444 212.007,206.083 205.435,211.167 200.564 C 212.256 199.521,212.684 199.393,215.531 199.264 C 218.244 199.141,218.688 199.021,218.688 198.410 C 218.688 197.115,215.788 196.764,213.772 197.816 C 211.891 198.796,210.338 197.623,210.338 195.221 C 210.338 193.225,219.282 192.535,222.271 194.301 M311.167 193.684 C 313.822 194.485,315.278 197.150,315.299 201.247 C 315.304 202.261,315.575 203.603,315.902 204.229 C 316.572 205.513,316.680 207.849,316.111 208.748 C 315.491 209.728,311.915 209.494,310.901 208.406 C 310.084 207.529,310.076 207.529,308.818 208.283 C 302.771 211.910,296.441 205.459,301.408 200.734 C 303.059 199.163,303.789 198.983,307.654 199.195 C 309.015 199.269,309.377 198.602,308.469 197.694 C 307.810 197.034,305.402 197.100,304.030 197.816 C 302.139 198.802,300.596 197.729,300.596 195.427 C 300.596 193.614,307.284 192.511,311.167 193.684 M179.482 193.799 C 178.737 195.743,179.471 197.015,181.410 197.139 C 183.774 197.291,184.709 196.026,183.546 194.251 C 182.784 193.088,179.879 192.765,179.482 193.799 M204.374 194.177 C 206.442 195.233,208.147 197.714,208.543 200.244 C 208.958 202.893,208.390 203.181,202.755 203.181 C 198.855 203.181,198.012 203.284,198.012 203.763 C 198.012 205.187,200.576 205.570,202.097 204.374 C 203.327 203.406,203.687 203.393,205.632 204.251 C 207.444 205.051,207.558 205.839,206.064 207.233 C 201.477 211.510,193.631 209.563,191.770 203.686 C 189.495 196.498,197.336 190.582,204.374 194.177 M239.476 193.790 C 241.677 194.734,243.610 197.044,242.635 197.566 C 240.630 198.639,238.167 199.230,237.404 198.822 C 235.891 198.012,234.417 198.324,233.655 199.614 C 232.098 202.249,234.100 204.926,236.929 203.992 C 239.018 203.303,243.043 204.479,242.860 205.726 C 242.556 207.806,237.465 209.992,234.410 209.356 C 233.854 209.240,232.942 209.050,232.382 208.933 C 229.229 208.275,226.632 203.696,227.213 199.820 C 227.968 194.782,234.409 191.615,239.476 193.790 M293.503 193.704 C 296.651 194.647,298.720 197.615,298.529 200.914 L 298.410 202.982 293.340 203.093 C 289.156 203.185,288.270 203.309,288.270 203.799 C 288.270 205.119,291.093 205.527,292.247 204.374 C 293.223 203.397,293.936 203.378,295.883 204.274 C 297.684 205.103,297.796 205.858,296.322 207.233 C 291.132 212.074,281.511 208.471,281.511 201.686 C 281.511 195.430,287.022 191.762,293.503 193.704 M198.260 198.226 C 197.867 199.249,198.328 199.602,200.051 199.602 C 201.477 199.602,201.632 199.508,201.519 198.708 C 201.355 197.555,198.670 197.158,198.260 198.226 M288.709 197.978 C 287.723 198.602,288.532 199.602,290.024 199.602 C 291.534 199.602,291.982 199.219,291.609 198.247 C 291.346 197.561,289.620 197.401,288.709 197.978 M215.479 203.015 C 214.830 203.798,215.420 204.915,216.574 205.088 C 217.672 205.253,219.284 203.875,218.965 203.044 C 218.634 202.182,216.188 202.161,215.479 203.015 M305.738 203.015 C 305.089 203.798,305.678 204.915,306.832 205.088 C 307.930 205.253,309.543 203.875,309.224 203.044 C 308.893 202.182,306.446 202.161,305.738 203.015 " stroke="none" fill="#8a2906" fill-rule="evenodd"></path><path id="path1" d="M56.541 142.028 C 55.847 142.721,55.847 254.098,56.541 254.791 C 57.047 255.297,161.880 255.529,163.188 255.027 C 164.153 254.657,164.153 142.162,163.188 141.792 C 161.880 141.290,57.047 141.522,56.541 142.028 M120.193 148.320 C 147.066 150.868,161.022 183.895,144.445 205.712 C 142.631 208.099,142.186 208.571,138.849 211.646 C 137.036 213.317,137.036 213.352,138.905 216.501 C 139.554 217.594,141.819 221.531,143.937 225.249 C 146.056 228.966,150.074 235.984,152.868 240.844 C 155.898 246.117,157.852 249.925,157.713 250.288 C 157.510 250.817,155.533 250.895,142.176 250.895 L 126.872 250.895 125.792 249.006 C 125.197 247.967,123.937 245.823,122.992 244.241 C 122.046 242.660,121.272 241.292,121.272 241.202 C 121.272 241.113,119.993 238.828,118.429 236.126 C 116.866 233.424,114.157 228.710,112.411 225.651 C 108.485 218.772,108.946 219.114,103.559 219.098 C 97.667 219.081,98.211 217.462,98.211 235.021 C 98.211 247.214,98.109 250.086,97.667 250.454 C 97.278 250.776,93.262 250.875,83.651 250.801 L 70.179 250.696 70.078 199.532 C 69.982 151.049,70.014 148.359,70.674 148.187 C 72.118 147.810,116.060 147.928,120.193 148.320 M98.688 173.042 C 98.009 173.721,98.009 193.675,98.688 194.354 C 99.294 194.960,115.223 195.016,117.373 194.419 C 124.771 192.364,124.811 176.192,117.426 173.107 C 115.684 172.379,99.407 172.323,98.688 173.042 M318.588 187.518 C 318.211 187.687,318.091 190.019,318.091 197.219 L 318.091 206.698 319.083 207.877 C 320.728 209.831,325.904 209.909,327.172 207.999 C 327.713 207.184,327.714 207.184,329.749 208.215 C 333.777 210.256,339.529 209.515,340.948 206.772 C 342.560 203.655,340.977 200.585,337.245 199.592 C 335.004 198.995,333.488 198.115,333.808 197.597 C 334.160 197.027,335.206 197.158,336.975 197.994 C 338.751 198.834,339.211 198.653,340.210 196.720 C 342.373 192.537,331.158 191.783,328.728 195.948 C 326.904 199.074,328.391 201.647,332.885 203.142 C 334.918 203.818,335.487 204.170,335.308 204.636 C 335.027 205.370,333.288 205.128,331.283 204.074 C 329.854 203.323,328.036 204.559,328.029 206.285 C 328.027 206.744,327.777 206.578,327.243 205.765 C 326.787 205.072,325.998 204.488,325.357 204.371 L 324.254 204.169 324.056 196.152 C 323.946 191.743,323.722 188.002,323.558 187.838 C 323.187 187.468,319.265 187.216,318.588 187.518 M173.857 187.937 C 173.477 188.091,173.360 190.614,173.360 198.659 L 173.360 209.180 176.243 209.063 L 179.125 208.946 179.324 205.964 C 179.626 201.439,180.483 201.697,183.787 207.306 L 184.871 209.145 187.840 209.145 C 191.601 209.145,191.656 209.013,189.480 205.240 C 187.448 201.716,187.375 201.376,188.414 200.224 C 192.037 196.207,189.575 189.284,184.107 188.111 C 182.082 187.677,174.808 187.553,173.857 187.937 M258.272 188.306 C 257.723 188.855,257.654 190.238,257.747 198.942 L 257.853 208.946 260.736 209.063 L 263.618 209.180 263.646 205.286 C 263.687 199.646,263.979 199.255,265.586 202.681 C 267.602 206.977,269.674 207.088,271.737 203.011 C 273.281 199.959,273.514 200.186,273.644 204.871 L 273.757 208.946 276.619 209.063 L 279.480 209.179 279.724 207.870 C 280.260 204.994,279.760 188.463,279.125 188.063 C 278.255 187.513,274.218 187.591,273.457 188.171 C 272.853 188.631,269.980 194.414,269.980 195.169 C 269.980 196.552,268.411 196.847,267.858 195.568 C 265.401 189.883,264.435 188.170,263.554 187.934 C 261.763 187.454,258.923 187.654,258.272 188.306 M246.620 188.733 C 246.330 188.850,246.123 189.651,246.123 190.661 C 246.123 192.268,245.397 193.638,244.544 193.638 C 243.702 193.638,243.910 197.302,244.770 197.629 C 245.954 198.079,246.123 198.752,246.123 203.008 C 246.123 208.203,247.051 209.355,251.211 209.322 C 254.652 209.295,256.048 208.552,255.790 206.883 C 255.356 204.070,255.329 204.029,253.776 203.901 L 252.286 203.777 252.171 200.957 L 252.055 198.136 253.364 197.761 C 254.585 197.411,254.672 197.271,254.672 195.655 C 254.672 193.934,254.418 193.588,252.783 193.083 C 252.289 192.930,252.087 192.453,252.087 191.438 C 252.087 188.758,249.604 187.529,246.620 188.733 M215.308 193.277 C 210.935 193.845,209.939 194.697,210.914 197.031 C 211.551 198.554,212.078 198.699,213.772 197.816 C 215.788 196.764,218.688 197.115,218.688 198.410 C 218.688 199.021,218.244 199.141,215.531 199.264 C 212.684 199.393,212.256 199.521,211.167 200.564 C 206.083 205.435,212.444 212.007,218.614 208.259 L 219.931 207.459 220.700 208.284 C 223.766 211.575,227.765 208.295,225.644 204.229 C 225.307 203.584,225.050 202.044,225.050 200.677 C 225.050 195.094,221.584 192.461,215.308 193.277 M305.368 193.261 C 301.076 193.940,300.020 194.948,301.203 197.236 C 301.888 198.562,302.399 198.666,304.030 197.816 C 305.402 197.100,307.810 197.034,308.469 197.694 C 309.377 198.602,309.015 199.269,307.654 199.195 C 303.789 198.983,303.059 199.163,301.408 200.734 C 296.441 205.459,302.771 211.910,308.818 208.283 C 310.076 207.529,310.084 207.529,310.901 208.406 C 311.915 209.494,315.491 209.728,316.111 208.748 C 316.680 207.849,316.572 205.513,315.902 204.229 C 315.575 203.603,315.304 202.261,315.299 201.247 C 315.267 195.056,311.776 192.249,305.368 193.261 M183.546 194.251 C 184.709 196.026,183.774 197.291,181.410 197.139 C 179.471 197.015,178.737 195.743,179.482 193.799 C 179.879 192.765,182.784 193.088,183.546 194.251 M195.779 194.001 C 189.986 196.632,189.961 205.600,195.738 208.612 C 197.336 209.445,202.531 209.552,203.976 208.782 C 207.227 207.050,207.887 205.246,205.632 204.251 C 203.687 203.393,203.327 203.406,202.097 204.374 C 200.576 205.570,198.012 205.187,198.012 203.763 C 198.012 203.284,198.855 203.181,202.755 203.181 C 208.390 203.181,208.958 202.893,208.543 200.244 C 207.659 194.600,201.305 191.492,195.779 194.001 M231.535 194.014 C 225.440 196.782,226.054 207.613,232.382 208.933 C 232.942 209.050,233.854 209.240,234.410 209.356 C 237.465 209.992,242.556 207.806,242.860 205.726 C 243.043 204.479,239.018 203.303,236.929 203.992 C 234.100 204.926,232.098 202.249,233.655 199.614 C 234.417 198.324,235.891 198.012,237.404 198.822 C 238.167 199.230,240.630 198.639,242.635 197.566 C 243.391 197.161,243.369 197.084,242.090 195.741 C 239.618 193.143,235.086 192.402,231.535 194.014 M286.083 193.992 C 280.373 196.628,279.985 205.064,285.428 208.254 C 288.668 210.153,293.697 209.681,296.322 207.233 C 297.796 205.858,297.684 205.103,295.883 204.274 C 293.936 203.378,293.223 203.397,292.247 204.374 C 291.093 205.527,288.270 205.119,288.270 203.799 C 288.270 203.309,289.156 203.185,293.340 203.093 L 298.410 202.982 298.529 200.914 C 298.863 195.131,291.949 191.285,286.083 193.992 M201.519 198.708 C 201.632 199.508,201.477 199.602,200.051 199.602 C 198.328 199.602,197.867 199.249,198.260 198.226 C 198.670 197.158,201.355 197.555,201.519 198.708 M291.609 198.247 C 291.982 199.219,291.534 199.602,290.024 199.602 C 288.532 199.602,287.723 198.602,288.709 197.978 C 289.620 197.401,291.346 197.561,291.609 198.247 M218.965 203.044 C 219.284 203.875,217.672 205.253,216.574 205.088 C 215.420 204.915,214.830 203.798,215.479 203.015 C 216.188 202.161,218.634 202.182,218.965 203.044 M309.224 203.044 C 309.543 203.875,307.930 205.253,306.832 205.088 C 305.678 204.915,305.089 203.798,305.738 203.015 C 306.446 202.161,308.893 202.182,309.224 203.044 " stroke="none" fill="#ffffff" fill-rule="evenodd"></path></g></svg>